<svg xmlns="http://www.w3.org/2000/svg" width="72.81" height="72.801" viewBox="0 0 72.81 72.801">
    <defs>
        <style>
            .prefix__cls-3{fill:#252f40}
        </style>
    </defs>
    <g id="prefix__Group_247" data-name="Group 247" transform="translate(-476.44 -43.967)">
        <path id="prefix__Path_159" d="M515.883 81.512l-5.526 6.619a1 1 0 0 0 .718 1.709h1.255l-7.922 25.06a1.206 1.206 0 0 0 1.149 1.57H525a1.207 1.207 0 0 0 1.145-1.584l-7.363-23.609h2.23z" data-name="Path 159" style="fill:#4ab431"/>
        <path id="prefix__Path_160" d="M521.975 48.705a1.782 1.782 0 0 0 0 2.006l2.17 3.2h-11.476V45.5h11.476z" data-name="Path 160" style="fill:#3b8079"/>
        <g id="prefix__Group_246" data-name="Group 246">
            <path id="prefix__Path_161" d="M501.624 79.7a1.32 1.32 0 0 0-1.791.526l-3.164 5.8-3.9-7.141a1.32 1.32 0 0 0-2.317 0l-8.175 14.967a1.32 1.32 0 0 0 2.267 1.352.856.856 0 0 0 .045-.08l1.089-1.994 1.006 1.006a1.352 1.352 0 0 0 1.866 0l.493-.494 1.634 1.635a1.314 1.314 0 0 0 .734.372l-6.8 12.46a1.32 1.32 0 0 0 2.267 1.352.855.855 0 0 0 .045-.08l15.222-27.888a1.321 1.321 0 0 0-.521-1.793zm-8.806 11.57l-1.207 1.207-1.634-1.634a1.319 1.319 0 0 0-1.867 0l-.493.493-.617-.623 4.614-8.45 3.553 6.51-.92 1.683a1.336 1.336 0 0 0-1 .385l-.426.427z" class="prefix__cls-3" data-name="Path 161"/>
            <path id="prefix__Path_162" d="M481.671 97.719a1.323 1.323 0 0 0-1.791.526l-3.255 5.962a1.321 1.321 0 1 0 2.273 1.345l3.3-6.041a1.321 1.321 0 0 0-.524-1.792z" class="prefix__cls-3" data-name="Path 162"/>
            <path id="prefix__Path_163" d="M546.853 94.26h-.015l.013-.007-7.506-13.745a1.32 1.32 0 0 0-2.315 1.27l1.688 3.09-.621.621L537.6 85a1.322 1.322 0 0 0-1.867 0l-1.633 1.635L532.471 85a1.312 1.312 0 0 0-.934-.386 1.306 1.306 0 0 0-.937.386l-.494.493-.621-.621 4.614-8.45.53.97a1.32 1.32 0 0 0 2.314-1.269l-1.684-3.087a1.322 1.322 0 0 0-2.318 0L527.454 83.1l-13.275-24.318v-3.334h10.945a1.319 1.319 0 0 0 1.092-2.059l-2.493-3.682 2.493-3.681a1.318 1.318 0 0 0-1.09-2.059H512.86a1.322 1.322 0 0 0-1.32 1.32v13.5l-9.31 17.053a1.32 1.32 0 1 0 2.271 1.345l2.427-4.444 1.006 1a1.32 1.32 0 0 0 1.837.03l.007-.008.021-.02.494-.5 1.634 1.635a1.323 1.323 0 0 0 1.867 0l1.633-1.635.493.493a1.351 1.351 0 0 0 1.867 0l1.005-1 20.008 36.646a1.319 1.319 0 0 0 1.147.663 1.319 1.319 0 0 0 1.167-1.932l-10.64-19.489a1.313 1.313 0 0 0 .576-.337l.493-.493 1.634 1.634a1.351 1.351 0 0 0 1.867 0l1.633-1.634.493.493a1.321 1.321 0 0 0 1.867 0l1.005-1.005 4.5 8.243a1.32 1.32 0 0 0 2.316-1.265zm-29.381-23.937l-.62.62-.493-.493a1.323 1.323 0 0 0-1.867 0l-1.632 1.634-1.635-1.634a1.31 1.31 0 0 0-.932-.387 1.31 1.31 0 0 0-.932.387l-.494.493-.621-.62 4.614-8.451zm3.564-21.354a1.315 1.315 0 0 0 0 1.478l1.6 2.361h-8.456v-6.2h8.456z" class="prefix__cls-3" data-name="Path 163"/>
            <path id="prefix__Path_164" d="M519.643 91.527h2.344A1.318 1.318 0 0 0 523 89.364l-9.127-10.981a1.31 1.31 0 0 0-.892-.471 1.319 1.319 0 0 0-1.137.471l-9.127 10.981a1.32 1.32 0 0 0 1.011 2.163h2.348l-7.311 23.53a1.32 1.32 0 0 0 1.26 1.711h25.669a1.32 1.32 0 0 0 1.319-1.321 1.284 1.284 0 0 0-.06-.391zm-10.515-.927a1.319 1.319 0 0 0-1.26-1.71h-1.319l6.314-7.6 6.314 7.6h-1.323a1.32 1.32 0 0 0-1.319 1.321 1.268 1.268 0 0 0 .06.39l7.31 23.53h-22.088z" class="prefix__cls-3" data-name="Path 164"/>
        </g>
        <g id="prefix__Group_8" data-name="Group 8">
            <g id="prefix__Group_7" data-name="Group 7">
                <path id="prefix__Path_46" d="M548.866 98.063a1.309 1.309 0 1 0 .384.926 1.31 1.31 0 0 0-.384-.926z" class="prefix__cls-3" data-name="Path 46"/>
            </g>
        </g>
    </g>
</svg>
