<svg xmlns="http://www.w3.org/2000/svg" id="prefix__Group_716" width="1569" height="957" data-name="Group 716" viewBox="0 0 1569 957">
    <defs>
        <clipPath id="prefix__clip-path">
            <path id="prefix__SVGID" d="M0 0H1569V957H0z" transform="rotate(-180 784.5 478.5)" style="fill:none"/>
        </clipPath>
    </defs>
    <g id="prefix__Group_15" data-name="Group 15">
        <path id="prefix__Path_7" d="M-72.814-56.486h1765.9v531.417c0 9.287-36.255 39.85-43.011 48.984-56.311 76.133-140.964 153.683-237.255 176.616-95.721 22.8-194.433-6.24-279.839-48C999.889 587.458 905.855 483.362 783 405.487c-202.372-128.276-453.1-62.332-677.824-99.572-58.72-9.731-121.268-27.684-162.11-72.162C-91.8 195.776-72.823 130.824-72.816 85.058q.007-70.771.002-141.544z" data-name="Path 7" transform="translate(30.242 21.215)" style="fill:#252f40"/>
        <path id="prefix__Path_8" d="M1670.8-574.449L-100.262-1337.22s-274.144 496.52-274.19 496.609c-4.8 8.686 13.323 56.656 14.918 68.811 13.339 101.308 52.439 219.122 130.594 292.12 77.688 72.577 184.916 98.3 286.273 105.029 157.957 10.467 299.539-36.448 454.53-43.426 255.308-11.487 455.588 184.424 684.813 269.977 59.9 22.354 127.6 39.081 188.726 19.387 52.179-16.814 67.957-87.678 91.562-130.454 24.336-44.09 169.494-271.191 193.836-315.282z" data-name="Path 8" transform="translate(145.327 502.239)" style="fill:#fff;opacity:.08"/>
    </g>
</svg>
