<svg xmlns="http://www.w3.org/2000/svg" width="186.803" height="88.048" viewBox="0 0 186.803 88.048">
    <defs>
        <style>
            .prefix__cls-2{fill:#8598b8}
        </style>
    </defs>
    <g id="prefix__Group_768" data-name="Group 768" transform="translate(-6.439 -163.918)">
        <g id="prefix__Group_767" data-name="Group 767" transform="translate(6.439 163.918)">
            <g id="prefix__Group_764" data-name="Group 764" transform="translate(36.288 18.054)">
                <path id="prefix__Path_1007" d="M258.5 223.951a.311.311 0 00-.16-.253 2.455 2.455 0 00-1.12-.175 3.368 3.368 0 00-3.14 1.835v-1.4a.22.22 0 00-.219-.22h-2.072a.22.22 0 00-.22.22v9.46a.22.22 0 00.22.22h2.17a.22.22 0 00.22-.22v-4.255a2.737 2.737 0 013.041-2.846 3.532 3.532 0 011 .155.217.217 0 00.277-.213zm-13.863 7.362a2.633 2.633 0 112.629-2.632 2.534 2.534 0 01-2.629 2.632zm0-7.821a5.189 5.189 0 105.316 5.189 5.055 5.055 0 00-5.319-5.188zm-12.07 7.822a2.633 2.633 0 112.628-2.633 2.535 2.535 0 01-2.631 2.633zm0-7.822a5.189 5.189 0 105.316 5.188 5.056 5.056 0 00-5.319-5.187zm-12.054 7.845a2.654 2.654 0 112.59-2.653 2.509 2.509 0 01-2.593 2.654zm4.9-11.563h-2.17a.22.22 0 00-.22.22v5.166a3.94 3.94 0 00-3.32-1.684c-2.412 0-4.468 1.862-4.468 5.209s2.055 5.207 4.506 5.207a3.877 3.877 0 003.282-1.643v1.166a.219.219 0 00.218.22h2.17a.219.219 0 00.219-.22V220a.22.22 0 00-.219-.22zM213.8 230.638c0 2.258-1.64 3.228-4.268 3.228a5.614 5.614 0 01-4.272-1.5.225.225 0 01-.005-.286l1.254-1.631a.216.216 0 01.3-.036.246.246 0 01.025.024 4.029 4.029 0 002.951 1.1c.73 0 1.324-.2 1.324-.752 0-.534-.533-.653-2.194-1.01-1.463-.3-3.282-.97-3.282-3.128 0-2 1.583-3.148 4.171-3.148a5.309 5.309 0 013.791 1.325.223.223 0 01.02.3l-1.19 1.548a.213.213 0 01-.311.035 3.916 3.916 0 00-2.507-.849c-.81 0-1.265.258-1.265.693 0 .5.534.614 2.293.991 1.719.377 3.162 1.029 3.162 3.108zm-10.031.006c0 2.258-1.641 3.228-4.269 3.228a5.611 5.611 0 01-4.271-1.5.226.226 0 01-.006-.285l1.254-1.632a.217.217 0 01.3-.035.229.229 0 01.025.022 4.033 4.033 0 002.951 1.1c.731 0 1.324-.2 1.324-.752 0-.535-.534-.653-2.194-1.01-1.464-.3-3.282-.971-3.282-3.128 0-2 1.582-3.148 4.171-3.148a5.306 5.306 0 013.791 1.325.224.224 0 01.021.3l-1.191 1.548a.214.214 0 01-.311.035 3.919 3.919 0 00-2.507-.85c-.811 0-1.266.258-1.266.693 0 .5.535.614 2.293.991 1.719.375 3.162 1.029 3.162 3.108zm-13-1.008a2.11 2.11 0 01-2.272 2.039c-.909 0-1.4-.416-1.4-1.05 0-.554.415-.971 1.225-1.09l2.45-.3v.4zm-1.718-6.119c-2.07 0-3.629.694-4.326 2.066a.224.224 0 00.072.28L186.37 227a.2.2 0 00.3-.06 2.591 2.591 0 012.374-1.062c1.166 0 1.719.415 1.719.99v.158c0 .238-.138.356-.514.4l-2.707.237a3.148 3.148 0 00-3.162 3.108 3.085 3.085 0 003.339 3.089 3.49 3.49 0 003.043-1.544v1.126a.22.22 0 00.22.221h2.169a.22.22 0 00.22-.22v-5.9c0-2.752-1.443-4.019-4.328-4.019zm-6.454-3.522v13.42a.22.22 0 01-.22.22h-2.189a.22.22 0 01-.22-.22v-13.424a.215.215 0 01.215-.216h2.194a.22.22 0 01.211.22zm-9.9 11.333a2.654 2.654 0 010-5.306 2.655 2.655 0 010 5.306zm4.9-7.6h-2.167a.223.223 0 00-.223.223v1.164a3.724 3.724 0 00-3.221-1.624c-2.451 0-4.566 1.842-4.566 5.149 0 3.286 2.016 5.087 4.645 5.087a3.749 3.749 0 003.182-1.524v.634c0 1.425-.693 2.554-2.906 2.554a4.023 4.023 0 01-2.79-1.066.215.215 0 00-.3.012.238.238 0 00-.025.034l-.983 1.65c-.127.213-.11.334-.03.4a6.1 6.1 0 004.232 1.421c4.15 0 5.375-2.316 5.375-4.871v-9.026a.22.22 0 00-.219-.221z" data-name="Path 1007" transform="translate(-142.649 -216.645)" style="fill-rule:evenodd;fill:#8598b8"/>
                <g id="prefix__Group_763" data-name="Group 763">
                    <path id="prefix__Path_1008" d="M115.93 242.937h-13.807a3.46 3.46 0 003.453 3.474h10.354a3.462 3.462 0 003.449-3.474v-14.27a.128.128 0 00-.123-.13h-3.2a.126.126 0 00-.124.127v14.274z" class="prefix__cls-2" data-name="Path 1008" transform="translate(-102.123 -222.084)"/>
                    <path id="prefix__Path_1009" d="M115.93 211.522a3.462 3.462 0 013.45 3.478h-13.8v14.27a.129.129 0 01-.127.127h-3.2a.129.129 0 01-.127-.127V215a3.463 3.463 0 013.453-3.477z" class="prefix__cls-2" data-name="Path 1009" transform="translate(-102.123 -211.522)"/>
                </g>
            </g>
            <g id="prefix__Group_765" data-name="Group 765">
                <path id="prefix__Path_1010" d="M65.781 178.523c2.762-2.428 4.668-4.063 5.715-4.936-.031.619-.746 1.429-2.127 2.413a22.925 22.925 0 00-3.175 2.523c.032.461-.047.683-.222.651-.159-.063-.222-.286-.191-.651z" class="prefix__cls-2" data-name="Path 1010" transform="translate(-43.271 -169.92)"/>
                <path id="prefix__Path_1011" d="M75.269 188.656c-.492.159-1.255.412-2.27.746a9.66 9.66 0 01-1.81.508c-.873.1-1.317.1-1.349 0-.063-.079.191-.238.778-.46a14.829 14.829 0 014.651-.794z" class="prefix__cls-2" data-name="Path 1011" transform="translate(-45.789 -179.274)"/>
                <path id="prefix__Path_1012" d="M63.632 178.58c5.3 1.19 8.985.651 11.017-1.619a13.1 13.1 0 00-8.6 0q2.762-.977 5.779-6.556a20.392 20.392 0 00-3.588 1.54c-1.826.952-2.952 1.524-3.4 1.715a1.941 1.941 0 01-.365 2.238 3.368 3.368 0 00-.841 2.683z" class="prefix__cls-2" data-name="Path 1012" transform="translate(-41.915 -167.945)"/>
                <path id="prefix__Path_1013" d="M17.238 318.291a10.331 10.331 0 013.16 2.556 8.24 8.24 0 003.4 2.382c-1.4.111-3.587-1.524-6.556-4.937z" class="prefix__cls-2" data-name="Path 1013" transform="translate(-13.143 -259.745)"/>
                <path id="prefix__Path_1014" d="M37.005 308.622c0 .429.079 1.508.238 3.254.111 1.7.175 3.064.175 4.08-.27-.206-.524-1.255-.73-3.112-.222-2.047-.111-3.46.318-4.222z" class="prefix__cls-2" data-name="Path 1014" transform="translate(-25.147 -253.743)"/>
                <path id="prefix__Path_1015" d="M23.027 316.627a5.961 5.961 0 001.111-2.968c.317-1.46.762-2.381 1.349-2.747a14.2 14.2 0 01-1.619-4.508c-.841.159-1.46.9-1.857 2.27-.445 1.461-.921 2.349-1.445 2.651 1.175 2.079 1.588 3.3 1.254 3.682-.285-1.4-1.413-2.571-3.4-3.54-1.921-.92-3.381-1.111-4.366-.555a20.542 20.542 0 011.619 2.842 5.4 5.4 0 002.048 2.461 2.44 2.44 0 012.365 0 4.6 4.6 0 002.937.413z" class="prefix__cls-2" data-name="Path 1015" transform="translate(-11.169 -252.366)"/>
                <path id="prefix__Path_1016" d="M10.751 298.785c.667 0 1.508.778 2.508 2.334 1.143 1.7 2.1 2.714 2.826 3.016-.857.126-1.794-.556-2.778-2.048a13.809 13.809 0 00-2.556-3.3z" class="prefix__cls-2" data-name="Path 1016" transform="translate(-9.116 -247.637)"/>
                <path id="prefix__Path_1017" d="M30.65 292.423c-.032.159-.127 1.238-.27 3.254q-.286 2.929-.523 4.1a10.751 10.751 0 01-.127-3.731 8.025 8.025 0 01.921-3.619z" class="prefix__cls-2" data-name="Path 1017" transform="translate(-20.839 -243.688)"/>
                <path id="prefix__Path_1018" d="M19.262 293.624a5.943 5.943 0 01-.476-2.413c-.063-1.159-.3-1.858-.746-2.1q-3.573 3.9-3.064 7.62a2.84 2.84 0 01.19.985c-.063-.286-.127-.6-.19-.985a38.053 38.053 0 00-.556-1.3 4.92 4.92 0 01-.46-1.4 4.524 4.524 0 01-2.476-.969 9.244 9.244 0 00-2.826-1.492 15.62 15.62 0 002.048 6.144c2.254 1.4 4.111 1.619 5.572.7 1.143-.746 2.143-2.349 2.984-4.794z" class="prefix__cls-2" data-name="Path 1018" transform="translate(-7.816 -241.635)"/>
                <path id="prefix__Path_1019" d="M12.753 282.732c-.842.063-1.619-.762-2.334-2.461q-1.714-3.953-1.762-4.048a8.385 8.385 0 012.048 3.254 7.609 7.609 0 002.048 3.255z" class="prefix__cls-2" data-name="Path 1019" transform="translate(-7.816 -233.632)"/>
                <path id="prefix__Path_1020" d="M26.75 275.135c-1.667 2.826-2.349 5.127-2.048 6.922 1.3-4.112 1.985-6.43 2.048-6.922z" class="prefix__cls-2" data-name="Path 1020" transform="translate(-17.733 -232.956)"/>
                <path id="prefix__Path_1021" d="M12.583 281.258a10.966 10.966 0 004.08-9.43 3.8 3.8 0 00-2.27 1.81 4.013 4.013 0 01-2.238 1.9c-.587 2.6-.73 3.826-.413 3.683a5.742 5.742 0 00-1.714-4.191 17.934 17.934 0 00-3.588-2.381 17.914 17.914 0 01.46 3.032 24.561 24.561 0 00.381 3.112 5.6 5.6 0 012.508 1.349 4.017 4.017 0 002.794 1.111z" class="prefix__cls-2" data-name="Path 1021" transform="translate(-6.439 -230.903)"/>
                <path id="prefix__Path_1022" d="M13.625 262.6c-.778.127-1.381-.73-1.81-2.6-.619-2.746-.984-4.207-1.063-4.366.651.46 1.127 1.635 1.429 3.492.317 1.889.794 3.048 1.445 3.477z" class="prefix__cls-2" data-name="Path 1022" transform="translate(-9.116 -220.848)"/>
                <path id="prefix__Path_1023" d="M26.526 256.718A6.343 6.343 0 0125.4 259.8a17.833 17.833 0 00-1.714 3.477 5.694 5.694 0 01.985-3.255c.111-.238.46-.809 1.016-1.714a15.305 15.305 0 00.841-1.588z" class="prefix__cls-2" data-name="Path 1023" transform="translate(-17.127 -221.524)"/>
                <path id="prefix__Path_1024" d="M8.658 259a3.151 3.151 0 012.222 1.619 2.637 2.637 0 002.651 1.223 144.9 144.9 0 011.73-1.683 17.956 17.956 0 001.619-1.715 7.5 7.5 0 001.588-5.207q-5.12 2.738-5.715 6.969a7.638 7.638 0 00-.936-4.794 20.463 20.463 0 00-2.794-2.969c-.1.238-.222 2.429-.365 6.556z" class="prefix__cls-2" data-name="Path 1024" transform="translate(-7.816 -218.873)"/>
                <path id="prefix__Path_1025" d="M17.2 236.248c.3-.032.445.952.413 2.937 0 2.1.27 3.318.793 3.62-.746.349-1.143-.365-1.207-2.143-.031-.492-.031-1.286 0-2.365a20.4 20.4 0 000-2.048z" class="prefix__cls-2" data-name="Path 1025" transform="translate(-13.104 -208.816)"/>
                <path id="prefix__Path_1026" d="M29.292 240.561c-.587.65-1.349 1.587-2.286 2.825-1.048 1.429-1.778 2.4-2.191 2.889 1.222-2.985 2.7-4.889 4.477-5.715z" class="prefix__cls-2" data-name="Path 1026" transform="translate(-17.846 -211.494)"/>
                <path id="prefix__Path_1027" d="M15.507 241.79c3.858-1.4 6.175-3.857 6.985-7.4a3.689 3.689 0 00-2.381.921 3.239 3.239 0 01-2.556.746 14.53 14.53 0 00-.794 1.635 6.668 6.668 0 01-.825 1.619 4.769 4.769 0 00-.238-3.857 12.558 12.558 0 01-1.4-3.476c-.873.238-1.445 1.095-1.715 2.555-.413 2.159-.651 3.366-.746 3.571q1.214 0 1.809 1.858c.413 1.222 1.032 1.825 1.858 1.825z" class="prefix__cls-2" data-name="Path 1027" transform="translate(-9.792 -206.168)"/>
                <path id="prefix__Path_1028" d="M25.739 215.78a2.241 2.241 0 01.333 2.22 7.605 7.605 0 01-.382 1.27c-.206.556-.333.873-.365.969a10.091 10.091 0 01-.239 2.239 4.212 4.212 0 01-.047-1.445 16.324 16.324 0 01.7-5.254z" class="prefix__cls-2" data-name="Path 1028" transform="translate(-17.976 -196.111)"/>
                <path id="prefix__Path_1029" d="M35.946 224.36a12.535 12.535 0 00-3.079 2.556 7.05 7.05 0 01-2.651 1.953 15.421 15.421 0 002.6-2.508 6.536 6.536 0 013.127-2z" class="prefix__cls-2" data-name="Path 1029" transform="translate(-21.199 -201.438)"/>
                <path id="prefix__Path_1030" d="M21.87 222.7q7.382-1.762 8.223-6.556a9.869 9.869 0 00-2.318.794 4.9 4.9 0 01-2.6.46 6.934 6.934 0 00-1.254 1.826 13.484 13.484 0 01-1.207 1.857 7.38 7.38 0 00.969-4.334 8.534 8.534 0 00-1.4-4.27c.031-.032-.9 1.873-2.826 5.715q.929.333 1.334 2.1a4.754 4.754 0 001.079 2.408z" class="prefix__cls-2" data-name="Path 1030" transform="translate(-14.52 -194.059)"/>
                <path id="prefix__Path_1031" d="M37.269 199.581c.253.19 0 1.1-.747 2.747a10.874 10.874 0 00-1.3 4.191 4.176 4.176 0 01.429-3.588c1.016-2.079 1.556-3.19 1.62-3.349z" class="prefix__cls-2" data-name="Path 1031" transform="translate(-24.155 -186.056)"/>
                <path id="prefix__Path_1032" d="M44.939 209.291q-.452 1.429-6.143 4.08a19.177 19.177 0 012.985-2.127c1.762-1.064 2.826-1.715 3.159-1.953z" class="prefix__cls-2" data-name="Path 1032" transform="translate(-26.525 -192.083)"/>
                <path id="prefix__Path_1033" d="M32.046 204.615v-1.254a7.56 7.56 0 000-1.207c-.048-.873-.333-1.412-.826-1.619 1.73-2.794 3.238-4.588 4.509-5.349a4.735 4.735 0 01-.238 2.778c-.27 1-.064 1.572.65 1.73-1.079 1.667-1.9 3.032-2.46 4.1.4-.381 1.365-1.46 2.889-3.255a3.426 3.426 0 002.508.08 10.048 10.048 0 012.794-.508 7.627 7.627 0 01-4.048 4.1 7.944 7.944 0 01-5.779.413z" class="prefix__cls-2" data-name="Path 1033" transform="translate(-21.822 -183.328)"/>
                <path id="prefix__Path_1034" d="M59.164 197.362a22.051 22.051 0 00-7.351 2.889c1.826-.587 4.271-1.556 7.351-2.889z" class="prefix__cls-2" data-name="Path 1034" transform="translate(-34.605 -184.678)"/>
                <path id="prefix__Path_1035" d="M46.414 190.222c5.239.9 8.795-.206 10.652-3.3a10.465 10.465 0 00-5.588.286 12.525 12.525 0 00-1.857.921c-.921.492-1.46.778-1.572.842a6.152 6.152 0 002.874-3.3c.127-.349.381-1.048.746-2.1a24.228 24.228 0 01.889-2.365 9.279 9.279 0 00-4.508 3.064 5.367 5.367 0 00-1.222 4.7c.127-.286 1.619-2.461 4.477-6.556.333.032.476.175.413.413a80.29 80.29 0 00-5.3 7.4z" class="prefix__cls-2" data-name="Path 1035" transform="translate(-31.254 -174.649)"/>
                <path id="prefix__Path_1036" d="M95.569 166.08a12.512 12.512 0 01-4.176 2.381 9.247 9.247 0 00-4 2.508c.175-.936 1.286-1.842 3.3-2.746 3.365-1.524 5-2.238 4.874-2.143z" class="prefix__cls-2" data-name="Path 1036" transform="translate(-56.692 -165.255)"/>
                <path id="prefix__Path_1037" d="M101.572 181.205c1.1.524.778.73-.92.6a13.636 13.636 0 01-3.588-.6z" class="prefix__cls-2" data-name="Path 1037" transform="translate(-62.695 -174.649)"/>
                <path id="prefix__Path_1038" d="M96.029 170.887q-4.358 2.881-11.858 0a6.475 6.475 0 013.683-4.937 30.606 30.606 0 016.556-2.032 6.549 6.549 0 01-2.841 3.381 15.206 15.206 0 01-4.921 2.334q3.429-1.071 9.382 1.254z" class="prefix__cls-2" data-name="Path 1038" transform="translate(-54.691 -163.918)"/>
                <path id="prefix__Path_1039" d="M106.639 389.811c.317.064.588.333.794.826 1.778.159 2.587-.524 2.461-2.032-.206-1.064-.9-1.444-2.08-1.174-1.159.317-1.54 1.111-1.175 2.381z" class="prefix__cls-2" data-name="Path 1039" transform="translate(-68.556 -302.612)"/>
                <path id="prefix__Path_1040" d="M91.663 358.267a12.1 12.1 0 003.588 2.793 9.4 9.4 0 013.4 2.921 30.711 30.711 0 00-3.874-2.508 6.934 6.934 0 01-3.111-3.206z" class="prefix__cls-2" data-name="Path 1040" transform="translate(-59.342 -284.561)"/>
                <path id="prefix__Path_1041" d="M83.083 378.488c5.73-.222 8.89-.492 9.446-.841.238.873-1.175 1.333-4.287 1.4-3.032.063-4.762-.127-5.159-.556z" class="prefix__cls-2" data-name="Path 1041" transform="translate(-54.016 -296.591)"/>
                <path id="prefix__Path_1042" d="M91.9 363.826a9.38 9.38 0 00-2.937-4.937 10.091 10.091 0 00-6.1-2.841 4.85 4.85 0 001.127 2.746 4.337 4.337 0 01.921 2.984c3.079.985 4.714 1.54 4.937 1.667a13.78 13.78 0 00-11.081 2.429 10.851 10.851 0 007.271 1.3 8.117 8.117 0 005.858-3.35z" class="prefix__cls-2" data-name="Path 1042" transform="translate(-51.339 -283.183)"/>
                <path id="prefix__Path_1043" d="M77.921 356.116a7.431 7.431 0 00-2.508-3.016 4.925 4.925 0 01-2-3.54c.207.65 1.207 1.826 2.969 3.54 1.461 1.4 1.969 2.4 1.54 3.016z" class="prefix__cls-2" data-name="Path 1043" transform="translate(-48.013 -279.156)"/>
                <path id="prefix__Path_1044" d="M60.4 369.066c.523.031 2.143.286 4.841.746a11.212 11.212 0 004.6.047c-.9.746-2.492.937-4.747.6a13.989 13.989 0 01-4.7-1.4z" class="prefix__cls-2" data-name="Path 1044" transform="translate(-39.933 -291.264)"/>
                <path id="prefix__Path_1045" d="M68.784 355.658a7.12 7.12 0 01-6.318 3.064 8.008 8.008 0 01-6.381-3.064c.507-.1 1.555-.3 3.175-.6a15.263 15.263 0 012.6-.429 10.389 10.389 0 015.3 1.032 16.581 16.581 0 01-2.239-1.255 8.416 8.416 0 00-2.27-1.206 4.468 4.468 0 00-.095-2.794 15.735 15.735 0 01-.746-2.936 6.6 6.6 0 014.651 2.889 21.842 21.842 0 012.317 5.3z" class="prefix__cls-2" data-name="Path 1045" transform="translate(-37.257 -277.856)"/>
                <path id="prefix__Path_1046" d="M61.141 345.745c.493-.524.254-1.587-.746-3.158a17.8 17.8 0 01-2.1-3.826 6.2 6.2 0 001.254 3.683 7.851 7.851 0 011.587 3.3z" class="prefix__cls-2" data-name="Path 1046" transform="translate(-38.631 -272.452)"/>
                <path id="prefix__Path_1047" d="M42.145 356a28.1 28.1 0 013.953 1.349 17.014 17.014 0 004.223 1.128c-3.81-1.873-6.541-2.683-8.175-2.477z" class="prefix__cls-2" data-name="Path 1047" transform="translate(-28.604 -283.132)"/>
                <path id="prefix__Path_1048" d="M45.106 335.579a7.806 7.806 0 00-.048 2.746 5.82 5.82 0 01-.38 2.969 24.8 24.8 0 013.27 3.27 6.481 6.481 0 00-4.143-2.048 45.058 45.058 0 00-6.1 0 6.7 6.7 0 002.46 2.461 24 24 0 012.889 2.048 6.617 6.617 0 012.937-.746 21.223 21.223 0 003.207-.46q1.071-8.191-4.1-10.239z" class="prefix__cls-2" data-name="Path 1048" transform="translate(-25.849 -270.477)"/>
                <path id="prefix__Path_1049" d="M26.908 338.718c.873-.143 2.1.317 3.683 1.4a9.6 9.6 0 004.128 1.9c-1.111.317-2.429-.064-3.953-1.112a15.342 15.342 0 00-3.858-2.191z" class="prefix__cls-2" data-name="Path 1049" transform="translate(-19.145 -272.41)"/>
                <path id="prefix__Path_1050" d="M46.161 324.779c.1.413.777 2.857 2.048 7.35q-2.785-4.048-2.048-7.35z" class="prefix__cls-2" data-name="Path 1050" transform="translate(-31.001 -263.773)"/>
                <path id="prefix__Path_1051" d="M32.331 321.472a5.745 5.745 0 00-.842 2.651 7.163 7.163 0 01-.777 2.7 44.824 44.824 0 002.826 4.1 9.82 9.82 0 00-9.811-3.3c3.222 3.254 4.857 4.906 4.889 4.922a5.239 5.239 0 004.557-.651 4.957 4.957 0 001.809-3.334 8.7 8.7 0 00-.46-4.143 5.262 5.262 0 00-2.191-2.937z" class="prefix__cls-2" data-name="Path 1051" transform="translate(-17.171 -261.72)"/>
            </g>
            <g id="prefix__Group_766" data-name="Group 766" transform="translate(142.108)">
                <path id="prefix__Path_1052" d="M491.667 255.629a20.7 20.7 0 00-1.112 3.762 12.662 12.662 0 01-1.3 3.635c.047-.223.143-.73.27-1.54.159-.921.3-1.635.412-2.144.444-1.952 1.016-3.19 1.731-3.714z" class="prefix__cls-2" data-name="Path 1052" transform="translate(-448.255 -220.848)"/>
                <path id="prefix__Path_1053" d="M474.018 257.781c.222-.222.762.476 1.635 2.1a38.985 38.985 0 002.1 3.62c-.619.032-1.27-.746-1.921-2.318a10.289 10.289 0 00-1.809-3.4z" class="prefix__cls-2" data-name="Path 1053" transform="translate(-438.797 -222.159)"/>
                <path id="prefix__Path_1054" d="M477.555 255.7c-.587 2.286-.73 3.4-.429 3.3a5.743 5.743 0 00-2.032-3.492c-.381-.3-.92-.7-1.635-1.159a18.141 18.141 0 01-1.635-1.111 7.36 7.36 0 001.4 5.254 8.724 8.724 0 004.334 3.35c.714 0 1.365-.524 1.952-1.54a2.1 2.1 0 012.143-1.3 19.4 19.4 0 010-1.953q0-1.31-.048-1.9c-.064-1.429-.461-2.333-1.175-2.7a5.353 5.353 0 00-1.111 1.952 1.775 1.775 0 01-1.762 1.3z" class="prefix__cls-2" data-name="Path 1054" transform="translate(-437.398 -218.873)"/>
                <path id="prefix__Path_1055" d="M445.93 185.474a5.8 5.8 0 012.556 2.286 13.067 13.067 0 011.969 3.858 74.427 74.427 0 00-4.524-6.144z" class="prefix__cls-2" data-name="Path 1055" transform="translate(-421.362 -177.299)"/>
                <path id="prefix__Path_1056" d="M446.749 201.826c.254-.19-.444-.619-2.1-1.3-1.6-.683-2.27-.81-2-.365a28.532 28.532 0 004.1 1.667z" class="prefix__cls-2" data-name="Path 1056" transform="translate(-419.291 -186.253)"/>
                <path id="prefix__Path_1057" d="M430.86 187.761a19.224 19.224 0 0010.24 2.825 3.4 3.4 0 00.317-2.683 3.741 3.741 0 01.1-2.619c-3.715-2.683-5.636-4.048-5.715-4.08a14.989 14.989 0 003.429 7.382 6.748 6.748 0 00-3.858-1.81 6.59 6.59 0 00-4.508.985z" class="prefix__cls-2" data-name="Path 1057" transform="translate(-412.007 -174.649)"/>
                <path id="prefix__Path_1058" d="M396.285 378.734c6.7.54 10.113.794 10.271.794-6.255-.159-9.683-.413-10.271-.794z" class="prefix__cls-2" data-name="Path 1058" transform="translate(-390.544 -297.265)"/>
                <path id="prefix__Path_1059" d="M402.219 358.267c.032 1.063-.841 2.126-2.6 3.206-.286.159-1.064.572-2.333 1.255a20.426 20.426 0 00-2 1.254 11.048 11.048 0 013.54-2.778 9.273 9.273 0 003.4-2.937z" class="prefix__cls-2" data-name="Path 1059" transform="translate(-389.922 -284.561)"/>
                <path id="prefix__Path_1060" d="M394.451 363.033a15.793 15.793 0 004.509-1.254 8.539 8.539 0 011.159-2.937 10.481 10.481 0 001.3-2.794 9.712 9.712 0 00-5.953 2.651 22.386 22.386 0 00-3.493 5.128 9.9 9.9 0 006.286 3.35 8.331 8.331 0 007.255-1.73 23.732 23.732 0 00-11.065-2.413z" class="prefix__cls-2" data-name="Path 1060" transform="translate(-387.868 -283.183)"/>
                <path id="prefix__Path_1061" d="M471.924 323.593a106.388 106.388 0 006.143-5.3 8.334 8.334 0 01-2.365 2.889 11.887 11.887 0 01-3.778 2.413z" class="prefix__cls-2" data-name="Path 1061" transform="translate(-437.497 -259.745)"/>
                <path id="prefix__Path_1062" d="M468.443 309.776c.429 3.6.286 5.921-.429 6.985-.4.619-.476-.762-.222-4.143a26.1 26.1 0 01.317-2.889q.191-1.024.333.048z" class="prefix__cls-2" data-name="Path 1062" transform="translate(-434.842 -254.12)"/>
                <path id="prefix__Path_1063" d="M466.8 314.071a5.221 5.221 0 01-.873 1.349 7.984 7.984 0 01.873-1.349 6.576 6.576 0 00-2.08-7.667 7.65 7.65 0 00-1.08 4.746c.063.524.206 1.286.429 2.27.3 1.3.524 2.239.651 2.794a4.165 4.165 0 003.333.143 4.645 4.645 0 013.223-.143 15.525 15.525 0 011.857-3.111c.857-1.239 1.19-2.254.968-3.032q-5.524 1.857-7.3 4z" class="prefix__cls-2" data-name="Path 1063" transform="translate(-432.324 -252.366)"/>
                <path id="prefix__Path_1064" d="M486.262 297.822a19.936 19.936 0 00-2.461 3.445 6.021 6.021 0 01-3.255 2.683 8.234 8.234 0 002.826-3.111 7.326 7.326 0 012.89-3.017z" class="prefix__cls-2" data-name="Path 1064" transform="translate(-442.85 -247.039)"/>
                <path id="prefix__Path_1065" d="M472.929 292.423c.714.429 1.1 1.555 1.159 3.35a16.979 16.979 0 00.508 4c-.587-.493-.9-1.683-.968-3.54-.064-2.016-.3-3.286-.7-3.81z" class="prefix__cls-2" data-name="Path 1065" transform="translate(-438.121 -243.688)"/>
                <path id="prefix__Path_1066" d="M473.415 297.291a9.442 9.442 0 00.429-2.048 8.8 8.8 0 01.413-2.032c-.778-.126-1.429-.762-1.953-1.92-.587-1.238-1.159-1.969-1.731-2.175a17.079 17.079 0 00-.825 5.35c.619.27 1.143 1.1 1.572 2.461.476 1.365 1.032 2.175 1.683 2.413a4.574 4.574 0 002.6-.873 4.233 4.233 0 012.747-.746 25.487 25.487 0 002.048-6.144 22.466 22.466 0 00-4.287 2.143 9.008 9.008 0 00-2.7 3.572z" class="prefix__cls-2" data-name="Path 1066" transform="translate(-436.147 -241.635)"/>
                <path id="prefix__Path_1067" d="M487.214 238.943a7.191 7.191 0 01.143-2.318c.126 0 .222.492.286 1.493.143 2.841-.127 4.493-.842 4.921q-.1.429-.143-.048c0-.3.016-.746.048-1.3a6.138 6.138 0 01.508-2.746z" class="prefix__cls-2" data-name="Path 1067" transform="translate(-446.644 -209.051)"/>
                <path id="prefix__Path_1068" d="M469.748 241.648c1.047.064 2.556 1.826 4.509 5.3a8.964 8.964 0 01-2.239-2.651 8.318 8.318 0 00-2.269-2.651z" class="prefix__cls-2" data-name="Path 1068" transform="translate(-436.147 -212.169)"/>
                <path id="prefix__Path_1069" d="M471.44 236.06a3.183 3.183 0 01-2.508-.746 3.681 3.681 0 00-2.365-.921c.984 4.238 3.571 6.715 7.762 7.4q3.762-4.929 1.206-9.81-2.548 1.476-2.841 7.762a3.2 3.2 0 00-.556-1.905 4.272 4.272 0 01-.7-1.778z" class="prefix__cls-2" data-name="Path 1069" transform="translate(-434.172 -206.168)"/>
                <path id="prefix__Path_1070" d="M478.324 215.754c.238-.063.381.064.412.365a9.831 9.831 0 00.382 2.6c.27 1 .428 1.635.46 1.905q.143 1.881-.048 1.952c-.1.032-.254-.349-.46-1.159a21.706 21.706 0 01-.746-5.667z" class="prefix__cls-2" data-name="Path 1070" transform="translate(-441.469 -196.085)"/>
                <path id="prefix__Path_1071" d="M465.241 220.236a6.654 6.654 0 00-.65-1.81 6.4 6.4 0 01-.6-1.858c.587-.127.936-.682 1.032-1.683.111-1.556.19-2.349.222-2.412a3.322 3.322 0 011.953 2.127 22.579 22.579 0 001.3 2.794 10.3 10.3 0 00-.556 1.683 32.529 32.529 0 01-.508 1.714 2.639 2.639 0 01-2.6 1.9 4.035 4.035 0 00-.508-1.206h.1c.063.031.016 0-.143-.1a10.5 10.5 0 00-5.16-4.413 22.562 22.562 0 012.508 2.27 11.784 11.784 0 002.651 2.143.136.136 0 01.047.1 4.954 4.954 0 01-3.9-1.54 8.372 8.372 0 01-2.556-3.81 7.446 7.446 0 012.508.794 5.118 5.118 0 002.825.46 9.7 9.7 0 002.048 2.842z" class="prefix__cls-2" data-name="Path 1071" transform="translate(-428.767 -194.059)"/>
                <path id="prefix__Path_1072" d="M426.288 175.59a7.152 7.152 0 01-.841-.794c.063.063.365.334.889.794 2.509 1.27 4.111 2.762 4.826 4.461-.4-.429-2.016-1.921-4.826-4.461z" class="prefix__cls-2" data-name="Path 1072" transform="translate(-408.641 -170.669)"/>
                <path id="prefix__Path_1073" d="M422.28 189.224a3.243 3.243 0 012.46-.19 6 6 0 01.985.333 3.171 3.171 0 00.651.271q1.62.476.1.19c-2.016-.349-3.413-.54-4.191-.6z" class="prefix__cls-2" data-name="Path 1073" transform="translate(-406.681 -179.414)"/>
                <path id="prefix__Path_1074" d="M421.089 177.327c-3.207-3.492-4.969-5.81-5.3-6.922a23.42 23.42 0 013.524 1.571c1.715.873 2.858 1.429 3.445 1.683a1.975 1.975 0 00.286 2.27 4.731 4.731 0 01.92 2.651q-4.786 1.357-11.477-.826a7.85 7.85 0 014.366-1.635 5.283 5.283 0 014.238 1.207z" class="prefix__cls-2" data-name="Path 1074" transform="translate(-400.601 -167.945)"/>
                <path id="prefix__Path_1075" d="M401.843 180.9c.253-.349-1.255-.207-4.508.413-.239.318 1.254.174 4.508-.413z" class="prefix__cls-2" data-name="Path 1075" transform="translate(-391.181 -174.343)"/>
                <path id="prefix__Path_1076" d="M398.5 166.094q.357.977 3.477 2.333a12.927 12.927 0 014.286 2.556c-.492-1.048-1.7-1.968-3.588-2.746a15.753 15.753 0 01-4.175-2.143z" class="prefix__cls-2" data-name="Path 1076" transform="translate(-391.922 -165.269)"/>
                <path id="prefix__Path_1077" d="M390.886 171.68c.365.032 1.318.127 2.841.27 1.143.127 2.048.206 2.731.238 1.968.063 3.254-.254 3.873-.937H399.3c-.365-.016-.571-.143-.6-.365a3.468 3.468 0 011.858.143 3.707 3.707 0 001.826.222q.4-5.524-10.239-7.334 1.024 1.9 6.144 5.3a9.243 9.243 0 00-7.4 2.461z" class="prefix__cls-2" data-name="Path 1077" transform="translate(-387.193 -163.918)"/>
                <path id="prefix__Path_1078" d="M390.414 390.521a1.966 1.966 0 001.445.413 1.989 1.989 0 001.444-.413 2.616 2.616 0 00-.286-2.238 1.346 1.346 0 00-1.4-.413 1.858 1.858 0 00-1.3.936 1.678 1.678 0 00.1 1.715z" class="prefix__cls-2" data-name="Path 1078" transform="translate(-386.721 -302.909)"/>
                <path id="prefix__Path_1079" d="M381.158 382.45a1.391 1.391 0 011.175-1.588 2.178 2.178 0 012.127.334c.064 1.3-.063 2.112-.413 2.461-1.175.556-2.143.159-2.889-1.206z" class="prefix__cls-2" data-name="Path 1079" transform="translate(-381.148 -298.504)"/>
                <path id="prefix__Path_1080" d="M421.192 370.71a30.94 30.94 0 004.779-.7c2.4-.4 3.921-.3 4.6.286a15.488 15.488 0 00-4.921.46 7.937 7.937 0 01-4.461-.048z" class="prefix__cls-2" data-name="Path 1080" transform="translate(-406.005 -291.702)"/>
                <path id="prefix__Path_1081" d="M424.521 350.648c.317.444-.175 1.381-1.476 2.841-2.238 2.477-3.255 3.588-3.032 3.3-.1-.778.523-1.762 1.857-2.968a9.257 9.257 0 002.651-3.175z" class="prefix__cls-2" data-name="Path 1081" transform="translate(-405.255 -279.831)"/>
                <path id="prefix__Path_1082" d="M423.818 353.975c.079.81.842 1.223 2.27 1.223 1.731.032 2.763.174 3.064.46a6 6 0 01-5.525 2.889 14.752 14.752 0 01-6.746-1.683q.786-7.81 6.556-9.4a22.234 22.234 0 01-.968 5.254 4.849 4.849 0 01-3.953 2.524 3.124 3.124 0 002.46-.286 12.5 12.5 0 012.842-.984z" class="prefix__cls-2" data-name="Path 1082" transform="translate(-403.329 -277.856)"/>
                <path id="prefix__Path_1083" d="M441.66 357.419c1.429.35 4.287-.476 8.6-2.46a36.8 36.8 0 00-4.238 1.3 27.906 27.906 0 01-4.366 1.158z" class="prefix__cls-2" data-name="Path 1083" transform="translate(-418.711 -282.507)"/>
                <path id="prefix__Path_1084" d="M442.287 338.76a6.929 6.929 0 01-1.683 3.731c-1.016 1.4-1.413 2.477-1.159 3.254a16.9 16.9 0 012-3.445 4.087 4.087 0 00.842-3.54z" class="prefix__cls-2" data-name="Path 1084" transform="translate(-417.29 -272.452)"/>
                <path id="prefix__Path_1085" d="M438.54 344.183a4.77 4.77 0 003.175-2.97 16.388 16.388 0 00.127-5.635 6.734 6.734 0 00-3.763 3.54 16.245 16.245 0 00-.746 6.27 6.189 6.189 0 003.207.89 7.4 7.4 0 013.35.746 18.663 18.663 0 012.746-1.952 5.046 5.046 0 002.143-2.556q-4.1-.667-10.239 1.667z" class="prefix__cls-2" data-name="Path 1085" transform="translate(-416.02 -270.477)"/>
                <path id="prefix__Path_1086" d="M466.3 337.671a17.641 17.641 0 01-7.35 4.1l7.35-4.1z" class="prefix__cls-2" data-name="Path 1086" transform="translate(-429.443 -271.776)"/>
                <path id="prefix__Path_1087" d="M456.585 324.779a4.323 4.323 0 01-.143 3.635 11.4 11.4 0 00-1.064 3.714c-.413-.809-.286-1.936.365-3.4a6.944 6.944 0 00.842-3.953z" class="prefix__cls-2" data-name="Path 1087" transform="translate(-427.079 -263.773)"/>
                <path id="prefix__Path_1088" d="M453.378 330.914c1.889-2.889 2.857-4.381 2.889-4.508-.555-.254-.9-1-1.032-2.239a6.729 6.729 0 00-.6-2.7 56.96 56.96 0 01-3.3 4.937c.254 2.508.889 4.175 1.9 5.016 1.1.937 2.921 1.159 5.493.7 2.3-1.921 3.667-3.556 4.1-4.89q-6.573.286-9.446 3.683z" class="prefix__cls-2" data-name="Path 1088" transform="translate(-424.714 -261.717)"/>
                <path id="prefix__Path_1089" d="M488.123 283.785a10.548 10.548 0 011.159-3.032 33.752 33.752 0 001.683-3.524 5.3 5.3 0 01-.937 3.3c-.174.333-.524.9-1.016 1.714a12.644 12.644 0 00-.889 1.54z" class="prefix__cls-2" data-name="Path 1089" transform="translate(-447.553 -234.256)"/>
                <path id="prefix__Path_1090" d="M477.177 277.454c.063.159.27.921.651 2.286a9.429 9.429 0 001.016 2.651q-.977.286-2.048-4a8.312 8.312 0 01-.317-2c.064-.349.286.016.7 1.064z" class="prefix__cls-2" data-name="Path 1090" transform="translate(-440.321 -233.655)"/>
                <path id="prefix__Path_1091" d="M478.12 275.543c-1.1 3.159-1.492 4.651-1.206 4.461a10.827 10.827 0 00.365-4.1 7.417 7.417 0 01-2.143-2.127 4.83 4.83 0 00-2.365-1.953 9.293 9.293 0 001.016 6 12.766 12.766 0 003.492 3.429 2.47 2.47 0 002.143-1.111 2.277 2.277 0 012.365-.921 22.368 22.368 0 00.841-6.572 3.435 3.435 0 00-2.143 1.54 2.936 2.936 0 01-2.365 1.349z" class="prefix__cls-2" data-name="Path 1091" transform="translate(-437.963 -230.903)"/>
                <path id="prefix__Path_1092" d="M464.347 198.493a33.44 33.44 0 002.874 7.35c-.206-1.492-1.175-3.937-2.874-7.35z" class="prefix__cls-2" data-name="Path 1092" transform="translate(-432.794 -185.38)"/>
                <path id="prefix__Path_1093" d="M448.68 201.537q-.357-.143 6.143 3.667a16.631 16.631 0 01-4.286-2.317 34.327 34.327 0 00-3.477-2.191c.143 1.333 1.317 2.555 3.477 3.683a9.786 9.786 0 005.953 1.254 11.8 11.8 0 00.429-2.651 21.6 21.6 0 01.366-2.7c-.159-.127-.842-1.032-2.1-2.7-.825-1.143-1.635-1.619-2.413-1.4q.6 6.1 2.461 8.191c-.174-.159-.65-.6-1.4-1.349a13.02 13.02 0 00-1.476-1.254 3.507 3.507 0 00-3.677-.233z" class="prefix__cls-2" data-name="Path 1093" transform="translate(-422.064 -183.916)"/>
            </g>
        </g>
        <path id="prefix__Path_1094" d="M134.594 298.064l2.087 6.423h6.754l-5.464 3.97 2.087 6.423-5.464-3.97-5.464 3.97 2.087-6.423-5.464-3.97h6.754z" class="prefix__cls-2" data-name="Path 1094" transform="translate(-74.064 -83.271)"/>
        <path id="prefix__Path_1095" d="M188.062 298.064l2.087 6.423h6.751l-5.464 3.97 2.087 6.423-5.464-3.97-5.464 3.97 2.087-6.423-5.464-3.97h6.754z" class="prefix__cls-2" data-name="Path 1095" transform="translate(-107.255 -83.271)"/>
        <path id="prefix__Path_1096" d="M241.53 298.064l2.087 6.423h6.754l-5.464 3.97 2.087 6.423-5.464-3.97-5.464 3.97 2.087-6.423-5.464-3.97h6.754z" class="prefix__cls-2" data-name="Path 1096" transform="translate(-140.445 -83.271)"/>
        <path id="prefix__Path_1097" d="M295 298.064l2.087 6.423h6.754l-5.464 3.97 2.087 6.423-5.464-3.97-5.464 3.97 2.087-6.423-5.464-3.97h6.754z" class="prefix__cls-2" data-name="Path 1097" transform="translate(-173.636 -83.271)"/>
        <path id="prefix__Path_1098" d="M348.111 312.957v-12.012l-1.732 5.33h-6.754l5.464 3.97-2.089 6.423z" class="prefix__cls-2" data-name="Path 1098" transform="translate(-206.826 -85.06)"/>
    </g>
</svg>
