<svg xmlns="http://www.w3.org/2000/svg" width="78.398" height="56.416" viewBox="0 0 78.398 56.416">
    <defs>
        <style>
            .prefix__cls-1{fill:#3b8079}.prefix__cls-2{fill:#252f40}
        </style>
    </defs>
    <g id="prefix__Group_252" data-name="Group 252" transform="translate(-659.803 -52.16)">
        <rect id="prefix__Rectangle_6" width="22.141" height="12.521" class="prefix__cls-1" data-name="Rectangle 6" rx="3.853" transform="rotate(-44.825 419.963 -771.134)"/>
        <rect id="prefix__Rectangle_6-2" width="12.521" height="22.141" class="prefix__cls-1" data-name="Rectangle 6" rx="3.853" transform="rotate(-45.175 433.3 -824.443)"/>
        <g id="prefix__Group_251" data-name="Group 251">
            <g id="prefix__Group_245" data-name="Group 245">
                <g id="prefix__Group_244" data-name="Group 244">
                    <path id="prefix__Path_169" d="M680.009 85.849L675.16 81a.2.2 0 0 1 0-.283l13.579-13.582a.2.2 0 0 1 .283 0l2.367 2.366a1.347 1.347 0 0 0 .942.388h1.993a.2.2 0 0 1 .185.123.2.2 0 0 1-.042.217l-6 6.122a4.719 4.719 0 1 0 6.588 6.758l5.235-5.235a.18.18 0 0 1 .143-.058l5.646.058a.2.2 0 0 1 .138.058l9.977 9.777a2.144 2.144 0 0 1 .056 2.994.2.2 0 0 1-.044.1 2.144 2.144 0 0 1-3.027.013l-3.211-3.212a1.344 1.344 0 0 0-1.9-.188 1.347 1.347 0 0 0-.175 1.892 1.5 1.5 0 0 0 .174.173l3.214 3.212a2.29 2.29 0 0 1-3.19 3.286l-3.074-2.909a1.344 1.344 0 0 0-1.828 1.954l3.346 3.159a1.878 1.878 0 0 1-2.549 2.759c-.023-.022-.049-.045-.071-.07l-1.551-1.551a1.344 1.344 0 1 0-2.1 1.675 1.317 1.317 0 0 0 .212.21l1.638 1.636a1.792 1.792 0 0 1-2.531 2.537l-1.922-1.864-1.892 1.858 1.879 1.883a4.433 4.433 0 0 0 3.157 1.313h.006a4.464 4.464 0 0 0 4.46-4.238.2.2 0 0 1 .191-.19 4.529 4.529 0 0 0 4.331-4.647.2.2 0 0 1 .187-.2 4.976 4.976 0 0 0 4.663-4.972.2.2 0 0 1 .2-.2 4.836 4.836 0 0 0 4.174-7.01.2.2 0 0 1 .044-.237l5.044-4.618a.2.2 0 0 1 .25-.016 3.5 3.5 0 0 0 4.47-.357l8.972-8.974a1.343 1.343 0 0 0 .039-1.9.25.25 0 0 1-.037-.029l-14.562-14.553a1.343 1.343 0 0 0-1.883 1.9l13.458 13.453a.2.2 0 0 1 0 .284l-7.886 7.886a.825.825 0 0 1-1.156 0l-15.591-15.568a.824.824 0 0 1 0-1.155l5.3-5.3a1.343 1.343 0 1 0-1.764-2.025 1.3 1.3 0 0 0-.118.117l-5.344 5.307a3.493 3.493 0 0 0-.743 3.846.2.2 0 0 1-.042.22l-1.8 1.795a.2.2 0 0 1-.142.058h-12.474a.2.2 0 0 1-.142-.058l-2.26-2.26a.2.2 0 0 1-.051-.195 3.462 3.462 0 0 0-.9-3.394l-5.151-5.162a1.349 1.349 0 0 0-.923-.492 1.3 1.3 0 0 0-.981.305 1.346 1.346 0 0 0-.175 1.891 1.426 1.426 0 0 0 .174.173l5.165 5.159a.822.822 0 0 1 0 1.155l-.426.429-15.163 15.167a.82.82 0 0 1-1.132 0l-7.911-7.9a.2.2 0 0 1-.059-.142.2.2 0 0 1 .059-.141L676.855 58.1a1.346 1.346 0 0 0 .188-1.9 1.332 1.332 0 0 0-.91-.478 1.346 1.346 0 0 0-.982.305 1.366 1.366 0 0 0-.174.174L660.189 70.98a1.348 1.348 0 0 0 0 1.89l8.984 9.024a3.5 3.5 0 0 0 3.67.806.2.2 0 0 1 .208.045l5.064 4.966zm42.04-5.462L717.2 84.8a.2.2 0 0 1-.275-.005l-9.381-9.256a1.343 1.343 0 0 0-1.1-.382l-6.725-.076h-.019a1.348 1.348 0 0 0-.945.389l-5.613 5.606a2.067 2.067 0 0 1-1.493.506 2.027 2.027 0 0 1-1.4-.7 2.054 2.054 0 0 1 0-2.68l8.265-8.266a.2.2 0 0 1 .142-.059h7.509a.2.2 0 0 1 .112.035 1.337 1.337 0 0 0 .836-.384l2.045-2.046a.206.206 0 0 1 .283 0L722.055 80.1a.2.2 0 0 1-.006.289z" class="prefix__cls-2" data-name="Path 169"/>
                    <path id="prefix__Path_170" d="M727.008 70.447a2.147 2.147 0 1 0 2.148 2.147 2.149 2.149 0 0 0-2.148-2.147z" class="prefix__cls-2" data-name="Path 170"/>
                    <circle id="prefix__Ellipse_22" cx="2.147" cy="2.147" r="2.147" class="prefix__cls-2" data-name="Ellipse 22" transform="translate(668.632 70.641)"/>
                    <circle id="prefix__Ellipse_23" cx="1.333" cy="1.333" r="1.333" class="prefix__cls-2" data-name="Ellipse 23" transform="translate(678.439 52.285)"/>
                    <circle id="prefix__Ellipse_24" cx="1.333" cy="1.333" r="1.333" class="prefix__cls-2" data-name="Ellipse 24" transform="translate(716.856 52.159)"/>
                </g>
            </g>
            <g id="prefix__Group_250" data-name="Group 250">
                <path id="prefix__Path_171" d="M693.728 96.358a5.072 5.072 0 1 0 5.072 5.073 5.072 5.072 0 0 0-5.072-5.073zm0 8.079a3.006 3.006 0 1 1 3.006-3.006 3.006 3.006 0 0 1-3.006 3.006z" class="prefix__cls-2" data-name="Path 171"/>
                <path id="prefix__Path_172" d="M688.139 90.563a5.072 5.072 0 1 0 5.072 5.072 5.072 5.072 0 0 0-5.072-5.072zm0 8.079a3.007 3.007 0 1 1 3.006-3.007 3.007 3.007 0 0 1-3.006 3.007z" class="prefix__cls-2" data-name="Path 172"/>
                <path id="prefix__Path_173" d="M682.439 84.863a5.073 5.073 0 1 0 5.072 5.072 5.072 5.072 0 0 0-5.072-5.072zm0 8.079a3.007 3.007 0 1 1 3.006-3.007 3.007 3.007 0 0 1-3.006 3.007z" class="prefix__cls-2" data-name="Path 173"/>
            </g>
        </g>
    </g>
</svg>
