<svg xmlns="http://www.w3.org/2000/svg" width="45.305" height="45.418" viewBox="0 0 45.305 45.418">
    <defs>
        <style>
            .prefix__cls-1{fill:#f07549}
        </style>
    </defs>
    <g id="prefix__change" transform="translate(-.642)">
        <g id="prefix__Group_780" data-name="Group 780" transform="translate(.642 1.546)">
            <g id="prefix__Group_779" data-name="Group 779">
                <path id="prefix__Path_1015" d="M15.688 51.711a6.173 6.173 0 00-8.119-9.162 16.893 16.893 0 01-.219-2.709 16.771 16.771 0 0112.877-16.308L18.174 26l2.052 1.7 5.266-6.342-7.029-3.928-1.3 2.327 2.21 1.237A19.447 19.447 0 005.408 45.11a6.157 6.157 0 00.971 6.607A8.8 8.8 0 00.642 59.96v1.334h20.8V59.96a8.8 8.8 0 00-5.754-8.249zm-4.658-7.559a3.509 3.509 0 11-3.509 3.509 3.513 3.513 0 013.51-3.509zM3.456 58.626a6.132 6.132 0 015.976-4.788h3.221a6.132 6.132 0 015.976 4.788z" class="prefix__cls-1" data-name="Path 1015" transform="translate(-.642 -17.43)"/>
            </g>
        </g>
        <g id="prefix__Group_782" data-name="Group 782" transform="translate(24.895)">
            <g id="prefix__Group_781" data-name="Group 781">
                <path id="prefix__Path_1016" d="M295.1 18.475a8.8 8.8 0 00-5.754-8.249 6.176 6.176 0 10-9.31.007 8.8 8.8 0 00-5.736 8.242v1.334h15.228a16.773 16.773 0 01-10.552 19.817l1.758-2.751-2.247-1.436-4.439 6.946 7.463 3.034 1-2.471-2.3-.936a19.45 19.45 0 0012.053-22.2h2.836v-1.337zM284.684 2.667a3.509 3.509 0 11-3.509 3.509 3.513 3.513 0 013.509-3.509zm-7.574 14.474a6.132 6.132 0 015.976-4.788h3.221a6.132 6.132 0 015.976 4.788z" class="prefix__cls-1" data-name="Path 1016" transform="translate(-274.044)"/>
            </g>
        </g>
    </g>
</svg>
