<svg xmlns="http://www.w3.org/2000/svg" width="56" height="45.334" viewBox="0 0 56 45.334">
    <defs>
        <style>
            .prefix__cls-1{fill:#f07549}
        </style>
    </defs>
    <g id="prefix__data-search-interface-symbol-of-a-bars-graphic-with-a-magnifier-tool" transform="translate(0 -9.143)">
        <g id="prefix__Group_778" data-name="Group 778" transform="translate(0 9.143)">
            <path id="prefix__Rectangle_69" d="M0 0H56V2H0z" class="prefix__cls-1" data-name="Rectangle 69" transform="translate(0 43.333)"/>
            <path id="prefix__Path_1010" d="M8.664 49.213l8.5-8.5a2.951 2.951 0 00.806-2.676l1.977-1.979a11.4 11.4 0 10-2.3-2.3l-1.978 1.977a2.955 2.955 0 00-2.677.806l-8.5 8.5a2.953 2.953 0 004.176 4.176zm12.347-28.042a8.146 8.146 0 110 11.52 8.155 8.155 0 010-11.52z" class="prefix__cls-1" data-name="Path 1010" transform="translate(-1.51 -11.805)"/>
            <path id="prefix__Rectangle_70" d="M0 0H4.334V42H0z" class="prefix__cls-1" data-name="Rectangle 70" transform="translate(47.554)"/>
            <path id="prefix__Path_1011" d="M70.425 20.892h-4.334v5.052a13.447 13.447 0 010 6.822v23.273h4.334z" class="prefix__cls-1" data-name="Path 1011" transform="translate(-27.538 -14.038)"/>
            <path id="prefix__Path_1012" d="M49.977 69.93h4.333v-15.7a13.583 13.583 0 01-4.333 2.186z" class="prefix__cls-1" data-name="Path 1012" transform="translate(-20.824 -27.93)"/>
            <path id="prefix__Path_1013" d="M33.234 71.5h4.334V58.459A13.585 13.585 0 0135.262 58h-2.028z" class="prefix__cls-1" data-name="Path 1013" transform="translate(-13.848 -29.5)"/>
            <path id="prefix__Path_1014" d="M16.262 76.321h4.332V69.57h-1.015l-3.317 3.318z" class="prefix__cls-1" data-name="Path 1014" transform="translate(-6.776 -34.321)"/>
        </g>
    </g>
</svg>
