<svg xmlns="http://www.w3.org/2000/svg" width="67.049" height="67.049" viewBox="0 0 67.049 67.049">
    <defs>
        <style>
            .prefix__cls-2{fill:#252f40}
        </style>
    </defs>
    <g id="prefix__Group_118" data-name="Group 118" transform="translate(-236.33 -922.382)">
        <rect id="prefix__Rectangle_6" width="54" height="13" data-name="Rectangle 6" rx="4" transform="translate(245 932)" style="fill:#b4257f"/>
        <g id="prefix__appointment" transform="translate(236.33 922.382)">
            <g id="prefix__Group_4" data-name="Group 4">
                <g id="prefix__Group_3" data-name="Group 3">
                    <path id="prefix__Path_44" d="M60.5 5.762h-6.241V3.929a3.929 3.929 0 10-7.857 0v1.833h-22V3.929a3.929 3.929 0 10-7.857 0V5.81a1.307 1.307 0 00-.349-.048h-5.219a6.555 6.555 0 00-6.548 6.548v22.306a1.31 1.31 0 102.619 0V19.25h47.211a1.31 1.31 0 000-2.619H7.048V12.31a3.933 3.933 0 013.929-3.929h5.218a1.312 1.312 0 00.349-.048v1.685a3.929 3.929 0 107.857 0V8.381h22v1.637a3.929 3.929 0 107.857 0V8.381H60.5a3.933 3.933 0 013.93 3.929v49.762a2.358 2.358 0 11-4.716 0v-3.388a1.31 1.31 0 00-1.31-1.31H43.172a1.31 1.31 0 000 2.619H57.1v2.078a4.947 4.947 0 00.6 2.358H4.976a2.36 2.36 0 01-2.357-2.357v-2.078H31.93a1.31 1.31 0 000-2.619H18.846a10.738 10.738 0 10-13.994 0H1.31A1.31 1.31 0 000 58.684v3.388a4.982 4.982 0 004.976 4.976h57.1a4.983 4.983 0 004.977-4.977V12.31A6.555 6.555 0 0060.5 5.762zm-38.718 4.256a1.31 1.31 0 11-2.619 0V3.929a1.31 1.31 0 012.619 0zm29.858 0a1.31 1.31 0 01-2.619 0V3.929a1.31 1.31 0 012.619 0zM3.729 49.239a8.119 8.119 0 118.119 8.119 8.128 8.128 0 01-8.119-8.119z" class="prefix__cls-2" data-name="Path 44"/>
                </g>
            </g>
            <g id="prefix__Group_6" data-name="Group 6" transform="translate(59.092 16.631)">
                <g id="prefix__Group_5" data-name="Group 5">
                    <path id="prefix__Path_45" d="M453.475 127.384a1.308 1.308 0 10.384.926 1.319 1.319 0 00-.384-.926z" class="prefix__cls-2" data-name="Path 45" transform="translate(-451.24 -127)"/>
                </g>
            </g>
            <g id="prefix__Group_8" data-name="Group 8" transform="translate(36.874 57.376)">
                <g id="prefix__Group_7" data-name="Group 7">
                    <path id="prefix__Path_46" d="M283.815 438.512a1.31 1.31 0 10.384.926 1.318 1.318 0 00-.384-.926z" class="prefix__cls-2" data-name="Path 46" transform="translate(-281.58 -438.13)"/>
                </g>
            </g>
            <g id="prefix__Group_10" data-name="Group 10" transform="translate(24.652 39.81)">
                <g id="prefix__Group_9" data-name="Group 9">
                    <path id="prefix__Path_47" d="M193.221 304a4.976 4.976 0 104.976 4.976 4.982 4.982 0 00-4.976-4.976zm0 7.333a2.357 2.357 0 112.357-2.357 2.36 2.36 0 01-2.357 2.357z" class="prefix__cls-2" data-name="Path 47" transform="translate(-188.245 -304)"/>
                </g>
            </g>
            <g id="prefix__Group_12" data-name="Group 12" transform="translate(36.874 39.81)">
                <g id="prefix__Group_11" data-name="Group 11">
                    <path id="prefix__Path_48" d="M286.554 304a4.976 4.976 0 104.976 4.976 4.982 4.982 0 00-4.976-4.976zm0 7.333a2.357 2.357 0 112.357-2.357 2.36 2.36 0 01-2.357 2.357z" class="prefix__cls-2" data-name="Path 48" transform="translate(-281.578 -304)"/>
                </g>
            </g>
            <g id="prefix__Group_14" data-name="Group 14" transform="translate(49.097 39.81)">
                <g id="prefix__Group_13" data-name="Group 13">
                    <path id="prefix__Path_49" d="M379.888 304a4.976 4.976 0 104.976 4.976 4.982 4.982 0 00-4.976-4.976zm0 7.333a2.357 2.357 0 112.357-2.357 2.36 2.36 0 01-2.357 2.357z" class="prefix__cls-2" data-name="Path 49" transform="translate(-374.912 -304)"/>
                </g>
            </g>
            <g id="prefix__Group_16" data-name="Group 16" transform="translate(12.429 26.191)">
                <g id="prefix__Group_15" data-name="Group 15">
                    <path id="prefix__Path_50" d="M99.888 200a4.976 4.976 0 104.976 4.976A4.982 4.982 0 0099.888 200zm0 7.334a2.357 2.357 0 112.357-2.357 2.36 2.36 0 01-2.357 2.356z" class="prefix__cls-2" data-name="Path 50" transform="translate(-94.912 -200)"/>
                </g>
            </g>
            <g id="prefix__Group_18" data-name="Group 18" transform="translate(36.874 26.191)">
                <g id="prefix__Group_17" data-name="Group 17">
                    <path id="prefix__Path_51" d="M286.554 200a4.976 4.976 0 104.976 4.976 4.982 4.982 0 00-4.976-4.976zm0 7.334a2.357 2.357 0 112.357-2.357 2.36 2.36 0 01-2.357 2.356z" class="prefix__cls-2" data-name="Path 51" transform="translate(-281.578 -200)"/>
                </g>
            </g>
            <g id="prefix__Group_20" data-name="Group 20" transform="translate(49.097 26.191)">
                <g id="prefix__Group_19" data-name="Group 19">
                    <path id="prefix__Path_52" d="M379.888 200a4.976 4.976 0 104.976 4.976 4.982 4.982 0 00-4.976-4.976zm0 7.334a2.357 2.357 0 112.357-2.357 2.36 2.36 0 01-2.357 2.356z" class="prefix__cls-2" data-name="Path 52" transform="translate(-374.912 -200)"/>
                </g>
            </g>
            <g id="prefix__Group_22" data-name="Group 22" transform="translate(24.652 26.191)">
                <g id="prefix__Group_21" data-name="Group 21">
                    <path id="prefix__Path_53" d="M193.221 200a4.976 4.976 0 104.976 4.976 4.982 4.982 0 00-4.976-4.976zm0 7.334a2.357 2.357 0 112.357-2.357 2.36 2.36 0 01-2.357 2.356z" class="prefix__cls-2" data-name="Path 53" transform="translate(-188.245 -200)"/>
                </g>
            </g>
            <g id="prefix__Group_24" data-name="Group 24" transform="translate(6.704 45.664)">
                <g id="prefix__Group_23" data-name="Group 23">
                    <path id="prefix__Path_54" d="M61 349.084a1.31 1.31 0 00-1.852 0l-4.265 4.265-1.457-1.457a1.31 1.31 0 00-1.852 1.852l2.384 2.383a1.309 1.309 0 001.852 0l5.19-5.191a1.31 1.31 0 000-1.852z" class="prefix__cls-2" data-name="Path 54" transform="translate(-51.194 -348.7)"/>
                </g>
            </g>
        </g>
    </g>
</svg>
