<svg xmlns="http://www.w3.org/2000/svg" width="218.048" height="28.032" viewBox="0 0 218.048 28.032">
    <path id="prefix__Path_8" d="M17.632-15.52l2.208-4.64a17.206 17.206 0 00-8.96-2.528c-5.408 0-8.96 2.656-8.96 6.848 0 7.936 11.808 5.632 11.808 9.44 0 1.184-1.088 1.824-2.816 1.824a14.321 14.321 0 01-8.128-3.392L.512-3.392A16.853 16.853 0 0010.848.192c4.992 0 9.024-2.336 9.024-6.912 0-8.064-11.808-5.952-11.808-9.664 0-1.024.928-1.536 2.336-1.536a17.441 17.441 0 017.232 2.4zM44.736-.768A7.331 7.331 0 0140.9.9a3.542 3.542 0 01-2.628-1.476 11.2 11.2 0 007.392-10.656c0-6.5-5.184-11.36-12.128-11.36s-12.128 4.832-12.128 11.36c0 6.4 4.928 11.232 11.616 11.488 1.44 3.136 4.1 5.088 7.232 5.088a10.368 10.368 0 006.528-2.5zM27.424-11.2a6.252 6.252 0 016.176-6.4 6.148 6.148 0 016.048 6.4A6.205 6.205 0 0133.6-4.736a6.329 6.329 0 01-6.176-6.464zm26.752 1.792v-13.024H48.32v13.024c0 5.92 4.064 9.664 10.4 9.664 6.3 0 10.272-3.744 10.272-9.664v-13.024h-5.856v13.024c0 2.912-1.792 4.672-4.384 4.672a4.376 4.376 0 01-4.576-4.672zM88.8 0h6.24l-9.408-22.432h-6.016L69.984 0H76l1.568-3.968h9.7zm-9.472-8.448l3.136-8 3.072 8zm27.392-13.984h-9.664V0h9.44c7.264 0 12.16-4.544 12.16-11.232 0-6.656-4.832-11.2-11.936-11.2zm.16 17.7h-3.968v-12.932h3.68c3.552 0 6.08 2.624 6.08 6.5 0 3.836-2.4 6.428-5.792 6.428zM119.488-22.4L128.416 0h3.9l9.056-22.4h-3.932l-6.976 18.208-6.912-18.208zm34.816-.1c-6.688 0-11.872 4.864-11.872 11.3 0 6.4 5.184 11.36 11.872 11.36s11.872-4.96 11.872-11.36-5.184-11.3-11.876-11.3zm.032 3.392a7.894 7.894 0 017.968 7.9 7.948 7.948 0 01-7.968 7.968 8.03 8.03 0 01-8.064-7.968 7.956 7.956 0 018.064-7.892zm15.872-3.3V0h3.776v-22.4zm25.892 6.12l2.2-2.752a12.364 12.364 0 00-8.512-3.456c-6.624 0-11.776 4.9-11.776 11.264A11.355 11.355 0 00189.664.16a12.716 12.716 0 008.672-3.68l-2.24-2.5a9.26 9.26 0 01-6.24 2.656 7.882 7.882 0 01-8-7.9 7.855 7.855 0 018-7.872 8.749 8.749 0 016.244 2.848zm6.08-6.112V0h16.38v-3.392h-12.608v-6.176H216.9v-3.36h-10.948v-6.08h12.224V-22.4z" data-name="Path 8" transform="translate(-.512 22.688)" style="fill:#fff"/>
</svg>
