<svg xmlns="http://www.w3.org/2000/svg" width="64.995" height="86.164" viewBox="0 0 64.995 86.164">
    <defs>
        <style>
            .prefix__cls-2{fill:#252f40}.prefix__cls-3{fill:none;stroke:#252f40;stroke-linecap:round;stroke-linejoin:round;stroke-width:3.5px}
        </style>
    </defs>
    <g id="prefix__Group_462" data-name="Group 462" transform="translate(-1109.638 -1528.491)">
        <path id="prefix__Path_520" d="M1353.579 1642.983c4.986 2.969 12.1 9.994 12.1 16.871 0 10.425-8.45 13.772-18.876 13.772s-18.875-3.346-18.875-13.772c0-6.877 6.756-13.9 11.736-16.871z" data-name="Path 520" transform="translate(-204.645 -95.706)" style="fill:#4ab431"/>
        <g id="prefix__Group_459" data-name="Group 459" transform="translate(1109.637 1576.692)">
            <g id="prefix__Group_458" data-name="Group 458" transform="translate(3.305)">
                <path id="prefix__Path_521" d="M1317.248 1713.277a1.481 1.481 0 0 0 1.055-.438l5.631-5.618h22a13.19 13.19 0 0 0 9.313-3.859l17.638-17.639c.079-.074.15-.145.217-.218a6.034 6.034 0 1 0-8.746-8.316l-10.271 10.239-.2-.509a6.013 6.013 0 0 0-5.566-3.8h-23.265a11.564 11.564 0 0 0-8.158 3.384l-3.389 3.391a1.494 1.494 0 0 0 0 2.112 1.5 1.5 0 0 0 2.112-.013l3.39-3.391a8.559 8.559 0 0 1 6.021-2.5h23.27a3.022 3.022 0 1 1 0 6.043h-13.465a1.491 1.491 0 1 0 0 2.981h13.526a5.962 5.962 0 0 0 4.131-1.653l13.946-14.16a3.051 3.051 0 0 1 4.323 4.293l-17.621 17.637a10.2 10.2 0 0 1-7.178 2.984h-22.646a1.5 1.5 0 0 0-1.055.435l-6.068 6.067a1.495 1.495 0 0 0 1.057 2.55z" class="prefix__cls-2" data-name="Path 521" transform="translate(-1313.067 -1675.314)"/>
            </g>
            <circle id="prefix__Ellipse_33" cx="1.569" cy="1.569" r="1.569" class="prefix__cls-2" data-name="Ellipse 33" transform="translate(0 18.148)"/>
        </g>
        <g id="prefix__Group_461" data-name="Group 461" transform="translate(1121.465 1530.299)">
            <path id="prefix__Path_522" d="M1350.767 1639.381c5.593 3.331 13.576 11.212 13.576 18.927 0 11.694-9.48 15.448-21.175 15.448s-21.175-3.755-21.175-15.448c0-7.715 7.579-15.6 13.166-18.927z" class="prefix__cls-3" data-name="Path 522" transform="translate(-1321.993 -1625.68)"/>
            <circle id="prefix__Ellipse_34" cx="1.569" cy="1.569" r="1.569" class="prefix__cls-2" data-name="Ellipse 34" transform="translate(28.236 6.85)"/>
            <path id="prefix__Path_523" d="M1336.158 1638.023l-2.863-5.752c-.833-2.084.677-3.6 2.593-3.006l3.931 1.8a3.4 3.4 0 0 0 3.131-.4l8.019-5.913a1.985 1.985 0 0 1 3.159 2.121l-.342 1.612" class="prefix__cls-3" data-name="Path 523" transform="translate(-1322.991 -1624.322)"/>
            <g id="prefix__Group_460" data-name="Group 460" transform="translate(15.416 19.829)">
                <path id="prefix__Path_524" d="M1350.292 1659.583a4.445 4.445 0 0 0-.388-.944 3.21 3.21 0 0 0-.654-.784 7.892 7.892 0 0 0-.765-.617 7.4 7.4 0 0 0-.932-.524q-.592-.291-.938-.432t-1-.389c-.387-.147-.675-.261-.864-.339s-.438-.189-.747-.333a4.328 4.328 0 0 1-.691-.382 5.583 5.583 0 0 1-.488-.408 1.389 1.389 0 0 1-.365-.512 1.648 1.648 0 0 1-.1-.592 1.618 1.618 0 0 1 .741-1.37 3.208 3.208 0 0 1 1.913-.53 4.074 4.074 0 0 1 1.055.142 5.548 5.548 0 0 1 .92.32 6.363 6.363 0 0 1 .722.395c.227.145.387.253.482.328a2.2 2.2 0 0 1 .178.148.4.4 0 0 0 .334.086.339.339 0 0 0 .284-.2l1-1.8a.358.358 0 0 0-.062-.469q-.074-.073-.185-.173t-.481-.358a5.9 5.9 0 0 0-.783-.463 7.873 7.873 0 0 0-1.074-.413 6.831 6.831 0 0 0-1.364-.284v-2.172a.38.38 0 0 0-.395-.4h-1.667a.4.4 0 0 0-.4.4v2.222a5.641 5.641 0 0 0-3.147 1.654 4.217 4.217 0 0 0-1.21 2.987 4.282 4.282 0 0 0 .105.963 4.787 4.787 0 0 0 .259.821 3.008 3.008 0 0 0 .438.716 7.625 7.625 0 0 0 .537.605 4.425 4.425 0 0 0 .661.524c.272.181.5.328.7.438s.45.239.771.382.574.253.759.328l.76.308q.666.259.987.4t.815.395a3.362 3.362 0 0 1 .721.463 2.334 2.334 0 0 1 .414.519 1.254 1.254 0 0 1 .185.654 1.727 1.727 0 0 1-.759 1.5 2.993 2.993 0 0 1-1.759.531 4.322 4.322 0 0 1-.913-.1 6.454 6.454 0 0 1-3-1.543l-.025-.026a.3.3 0 0 0-.3-.11.385.385 0 0 0-.284.148l-1.271 1.666a.374.374 0 0 0 .025.506c.041.049.114.124.216.222a7.158 7.158 0 0 0 .573.464 8.606 8.606 0 0 0 .913.592 8.332 8.332 0 0 0 1.254.549 7.805 7.805 0 0 0 1.573.383v2.16a.4.4 0 0 0 .4.395h1.667a.385.385 0 0 0 .284-.111.381.381 0 0 0 .111-.284v-2.16a5.3 5.3 0 0 0 3.191-1.685 4.7 4.7 0 0 0 1.228-3.252 4.025 4.025 0 0 0-.165-1.155z" class="prefix__cls-2" data-name="Path 524" transform="translate(-1338.937 -1646.117)"/>
            </g>
        </g>
    </g>
</svg>
