<svg xmlns="http://www.w3.org/2000/svg" width="72.855" height="67.049" viewBox="0 0 72.855 67.049">
    <defs>
        <style>
            .prefix__cls-1{fill:#4ab431}.prefix__cls-2{fill:#252f40}
        </style>
    </defs>
    <g id="prefix__Group_124" data-name="Group 124" transform="translate(-646.977 -1204.344)">
        <path id="prefix__Path_74" d="M827.7 1481.844s-7.962-5.448 1.676-9.918 12.991-2.375 12.991-2.375 0 9.638-1.257 11.594-4.051 7.264-8.521 4.191-4.889-3.492-4.889-3.492z" class="prefix__cls-1" data-name="Path 74" transform="translate(-136.721 -262.413)"/>
        <path id="prefix__Path_75" d="M818.385 1485.276s-9.08 6.467-8.381-7.222c7.124-1.816 9.638 1.816 9.638 1.816s.629 3.562 0 4.26a8.656 8.656 0 01-1.257 1.146z" class="prefix__cls-1" data-name="Path 75" transform="translate(-138.442 -261.417)"/>
        <path id="prefix__sprout" d="M71.887 65.749a4.262 4.262 0 00-5.465-.989l-2.492 1.45-13.986-10.133a10.975 10.975 0 00-5.452-2.043v-11.7a11.7 11.7 0 01.429-3.13l.486.55a8.942 8.942 0 006.668 3q.3 0 .6-.021a6.947 6.947 0 005.638-3.612l.05-.093.025-.048a1.075 1.075 0 10-1.892-1.02l-.068.13a4.806 4.806 0 01-3.9 2.5 6.77 6.77 0 01-5.512-2.259L45.8 36.96l.028-.056 1.714-3.26a17.412 17.412 0 018.678-7.638 1.075 1.075 0 10-.8-1.995 19.569 19.569 0 00-9.76 8.6l-.013.023L44 35.774l-.145-.044a4.827 4.827 0 01-2.356-7.66 15.222 15.222 0 0111.879-5.665H59a.127.127 0 01.127.127v4.993a22 22 0 01-.954 6.4 1.075 1.075 0 002.057.625 24.151 24.151 0 001.047-7.028v-4.989A2.28 2.28 0 0059 20.256h-5.624a17.363 17.363 0 00-13.549 6.462 6.974 6.974 0 003.3 11.035 13.873 13.873 0 00-.785 4.584v.909A10.574 10.574 0 0039 40.361l-2.067-1.136a6.979 6.979 0 00-6.591-9.281h-7.086A1.456 1.456 0 0021.8 31.4v5.528a6.99 6.99 0 006.982 6.982h1.561a6.975 6.975 0 005.578-2.787l2.046 1.124a8.437 8.437 0 014.373 7.394v4.41a7.333 7.333 0 00-3.629.986 1.075 1.075 0 001.082 1.858c3.023-1.76 6.056-1.127 8.888.925L61.9 67.393l-5.916 3.443a8.189 8.189 0 00-7.42-4.769h-2.815a1.075 1.075 0 000 2.15h2.812a6.028 6.028 0 015.64 3.94.879.879 0 01-.826 1.182H41.394a1.075 1.075 0 000 2.15h11.981a3.033 3.033 0 002.954-2.367l11.173-6.5a2.13 2.13 0 012.357 3.541L52.524 83.272a9.358 9.358 0 01-5.613 1.884h-3.446a9.257 9.257 0 01-3.589-.72l-12.743-5.329a1.073 1.073 0 00-.415-.083H15.382V67.48h5a1.076 1.076 0 00.76-.315 11.35 11.35 0 018.079-3.347h.286a11.351 11.351 0 018.079 3.347l.736.736a1.075 1.075 0 00.76.315h2.078a1.075 1.075 0 100-2.15h-1.63l-.421-.421a13.474 13.474 0 00-7.509-3.817l3.5-2.114a1.075 1.075 0 10-1.111-1.84l-5.966 3.6a1.069 1.069 0 00-.308.28 13.458 13.458 0 00-7.764 3.576h-4.585a3.35 3.35 0 00-3.329-3.016H2.15v-.8a1.075 1.075 0 10-2.15 0v24.063a1.075 1.075 0 002.15 0v-1.388h9.888a3.35 3.35 0 003.329-3.016H26.5l12.543 5.245a11.393 11.393 0 004.419.887h3.446a11.521 11.521 0 006.91-2.319l17.338-13.113a4.28 4.28 0 00.731-6.124zM30.345 41.758h-1.56a4.838 4.838 0 01-4.832-4.832v-4.833h6.393a4.832 4.832 0 014.67 6.075l-5.92-3.254a1.075 1.075 0 10-1.037 1.886l5.951 3.271a4.822 4.822 0 01-3.665 1.689zM13.233 80.844a1.2 1.2 0 01-1.2 1.2H2.15v-17.58h9.888a1.2 1.2 0 011.2 1.2z" class="prefix__cls-2" transform="translate(646.978 1184.088)"/>
        <path id="prefix__Path_76" d="M818.875 1504.226s4.386 1.788 5.727 3.8 9.834-1.788 13.41 1.788 4.693.894 5.364 0-11.622-9.164-15.421-9.611-9.08 4.023-9.08 4.023z" data-name="Path 76" transform="translate(-137.395 -258.758)" style="fill:#bb961d"/>
        <circle id="prefix__Ellipse_12" cx="1" cy="1" r="1" class="prefix__cls-2" data-name="Ellipse 12" transform="translate(683 1240)"/>
    </g>
</svg>
