<svg xmlns="http://www.w3.org/2000/svg" width="66.795" height="67.029" viewBox="0 0 66.795 67.029">
    <defs>
        <style>
            .prefix__cls-2{fill:#252f40}
        </style>
    </defs>
    <g id="prefix__Group_117" data-name="Group 117" transform="translate(-236.339 -1203.419)">
        <circle id="prefix__Ellipse_9" cx="18" cy="18" r="18" data-name="Ellipse 9" transform="translate(252 1209)" style="fill:#46ccc3;opacity:.5"/>
        <g id="prefix__technical-support" transform="translate(236.339 1203.419)">
            <path id="prefix__Path_26" d="M246.354 8.517a1.318 1.318 0 001.319-1.317V1.318a1.318 1.318 0 10-2.637 0V7.2a1.319 1.319 0 001.318 1.317z" class="prefix__cls-2" data-name="Path 26" transform="translate(-213.074)"/>
            <path id="prefix__Path_27" d="M66.4 116.693l-2.329-2.323a4.415 4.415 0 00-5.224-.745l-4.389-4.384.214-.214a4.576 4.576 0 000-6.461 4.526 4.526 0 00-2.3-1.241 4.6 4.6 0 00.182-1.283 4.566 4.566 0 00-3.632-4.472 4.6 4.6 0 00.182-1.283 4.561 4.561 0 00-3.631-4.47 4.563 4.563 0 00-4.873-5.822l-8.7-1.646c-1.326-.252-2.983-.418-4.029.536a2.382 2.382 0 00-.2.207 4.585 4.585 0 00-4.811 1.058 4.536 4.536 0 00-1.336 3.232 4.61 4.61 0 00.181 1.283 4.567 4.567 0 00-3.631 4.467 4.6 4.6 0 00.182 1.286 4.572 4.572 0 00-2.834 7.055 4.569 4.569 0 00-1.755 7.558l.213.212-4.38 4.381a4.408 4.408 0 00-4.988.864l-2.331 2.324a4.4 4.4 0 000 6.22l2.909 2.905a1.318 1.318 0 001.863-1.866l-2.909-2.905a1.768 1.768 0 010-2.488l2.331-2.324a1.765 1.765 0 012.15-.264 1.329 1.329 0 00.166.2 1.312 1.312 0 00.379.264L22.434 129.9a1.3 1.3 0 00.636.642 1.765 1.765 0 01-.07 2.411l-2.328 2.326a1.771 1.771 0 01-2.493 0l-2.909-2.909a1.318 1.318 0 10-1.865 1.865l2.911 2.911a4.414 4.414 0 006.217 0l2.33-2.327a4.408 4.408 0 00.617-5.445l4.94-4.934.016-.016c.566-.585 2.141-.475 3.664-.37a18.962 18.962 0 003.468.023l5.41 5.4a4.406 4.406 0 00.748 5.22l2.33 2.327a4.408 4.408 0 006.219 0L66.4 122.913a4.4 4.4 0 000-6.22zM31.414 84.939l5.719 1.083-3.423 3.422a8.312 8.312 0 01-2.052-1.491 6.066 6.066 0 01-1.94-3 1.152 1.152 0 01-.006-.13 4.468 4.468 0 011.7.115zm-6.684 1.075a1.945 1.945 0 012.46-.233 9.43 9.43 0 002.646 4.077 9.764 9.764 0 003.8 2.353 1.935 1.935 0 01-2.958 2.471l-5.946-5.935a1.941 1.941 0 010-2.733zm-3.445 5.753a1.945 1.945 0 012.74 0l4.788 4.778a1.938 1.938 0 01-2.743 2.738l-3.632-3.631-.018-.017-1.137-1.135a1.935 1.935 0 010-2.734zm-3.452 5.753a1.951 1.951 0 012.731-.009l3.643 3.642a1.935 1.935 0 01-2.742 2.731l-1.321-1.319-2.31-2.308a1.94 1.94 0 010-2.736zm-2.3 6.911a1.949 1.949 0 012.744 0l1.323 1.321a1.935 1.935 0 01-2.743 2.73l-.166-.165-.006-.007-.008-.007-1.143-1.138a1.936 1.936 0 010-2.734zM42.4 119.415a1.318 1.318 0 00-1.865 0l-1.173 1.172c-1.115 1.115-3.134.974-5.087.839-2.121-.147-4.314-.3-5.733 1.158l-4.856 4.85-12.14-12.128 4.3-4.29a4.572 4.572 0 006.96-3.9v-.034h.034a4.561 4.561 0 004.571-4.565v-.034h.035a4.556 4.556 0 004.571-4.6h.035a4.574 4.574 0 003.9-6.952l3.767-3.765a1.934 1.934 0 01.99-.527c.039 0 .078-.01.116-.018a1.932 1.932 0 011.639 3.279l-1.147 1.143-.012.011-1.321 1.319a1.318 1.318 0 101.863 1.866L43 93.09l.174-.173a1.942 1.942 0 012.736.007 1.935 1.935 0 010 2.733l-1.154 1.156-1.321 1.316A1.318 1.318 0 1045.292 100l1.327-1.322a1.935 1.935 0 012.739 2.735l-2.3 2.3a1.318 1.318 0 101.865 1.864l1.127-1.128.02-.018a1.935 1.935 0 012.739 2.734l-1.146 1.145-1.819 1.817a1.319 1.319 0 001.863 1.866l.89-.889 4.265 4.26-12.146 12.129-4.351-4.346a5.184 5.184 0 00.866-.7l1.172-1.171a1.318 1.318 0 000-1.864zm22.135 1.633l-14.126 14.114a1.772 1.772 0 01-2.492 0l-2.33-2.327a1.763 1.763 0 010-2.485l14.131-14.114a1.772 1.772 0 012.493 0l2.329 2.323a1.767 1.767 0 010 2.488z" class="prefix__cls-2" data-name="Path 27" transform="translate(-.894 -71.398)"/>
            <path id="prefix__Path_28" d="M86.915 9.791a1.318 1.318 0 001.863-1.866l-4.8-4.795A1.318 1.318 0 1082.11 5z" class="prefix__cls-2" data-name="Path 28" transform="translate(-71.141 -2.386)"/>
            <path id="prefix__Path_29" d="M372.97 10.177a1.315 1.315 0 00.932-.386L378.7 5a1.318 1.318 0 00-1.863-1.866l-4.8 4.795a1.318 1.318 0 00.932 2.251z" class="prefix__cls-2" data-name="Path 29" transform="translate(-323.113 -2.386)"/>
            <path id="prefix__Path_30" d="M60.308 430.587a1.318 1.318 0 00.016 1.865 1.318 1.318 0 10-.02-1.868z" class="prefix__cls-2" data-name="Path 30" transform="translate(-52.201 -373.874)"/>
            <path id="prefix__Path_31" d="M333.831 334.756a1.319 1.319 0 10-.592-2.5h-.007a1.318 1.318 0 00.6 2.493z" class="prefix__cls-2" data-name="Path 31" transform="translate(-289.096 -288.638)"/>
        </g>
    </g>
</svg>
