<svg xmlns="http://www.w3.org/2000/svg" width="67.049" height="67.049" viewBox="0 0 67.049 67.049">
    <defs>
        <style>
            .prefix__cls-2{fill:#252f40}
        </style>
    </defs>
    <g id="prefix__Group_121" data-name="Group 121" transform="translate(-1063.738 -1204.344)">
        <path id="prefix__Path_77" d="M1130.885 1470.3s14.368-1.228 12.873 0-4.153 2.837-3.592 4.043 7.952 2.562 3.717 2.731-13.1 0-13.1 0z" data-name="Path 77" transform="translate(-15.027 -262.51)" style="fill:#3b8079"/>
        <circle id="prefix__Ellipse_11" cx="1" cy="1" r="1" class="prefix__cls-2" data-name="Ellipse 11" transform="translate(1096 1231)"/>
        <path id="prefix__Path_78" d="M1124.094 1483.542v4.5s8.172-3.911 7.823-8.172c-2.306.354-7.823 3.672-7.823 3.672z" data-name="Path 78" transform="translate(-15.551 -261.143)" style="fill:#348eaf"/>
        <path id="prefix__goal" d="M66.515 9.013L63.331 6.49l3.184-2.522a1.313 1.313 0 00.432-1.561 1.564 1.564 0 00-1.471-.915H52.3V.983a1.1 1.1 0 00-2.184 0v13.253l-8.968 4.382a2.888 2.888 0 00-.355-1.032l-1.264-2.22a3.647 3.647 0 00-4.644-1.348l-.977.45a3.2 3.2 0 00-1.708 1.81 2.805 2.805 0 00.213 2.369l1.264 2.221a3.239 3.239 0 001.244 1.216 8.165 8.165 0 00-1.321 2.851l-.168.6a.973.973 0 00.754 1.213 1.187 1.187 0 00.3.037 1.083 1.083 0 001.05-.716l.168-.6c.479-1.519.772-2.332 1.708-2.789l1.677-.82.207-.1c.069-.032.133-.068.2-.1l11.955-5.842a4.111 4.111 0 01-2.2 3.339l-7.774 4.251-.027.014-2.42 1.323a.929.929 0 00-.366 1.35 1.16 1.16 0 001.41.373l-1.836 4.995-1.342.5-3.656 1.345.88-2.726a.975.975 0 00-.754-1.213 1.112 1.112 0 00-1.348.678l-1.49 4.668a.858.858 0 00-.039.214l-.435 7.188a2.97 2.97 0 01-.089 1.06l-4.829 9.143h-3.51a3.56 3.56 0 00-3.726 3.356v2.837a4.048 4.048 0 00-1.544-.3H7.441a3.56 3.56 0 00-3.728 3.355v3.519H1.092a.988.988 0 100 1.965h64.383a.988.988 0 100-1.965h-2.84V39.755a3.56 3.56 0 00-3.728-3.355H52.3V19.257A5.642 5.642 0 0053.4 14a1.021 1.021 0 00-.625-.644 1.2 1.2 0 00-.472-.078v-1.789h13.172a1.563 1.563 0 001.471-.915 1.313 1.313 0 00-.431-1.561zm-32.239 7.869a1.173 1.173 0 01.628-.665l.977-.45a1.373 1.373 0 01.575-.125 1.292 1.292 0 011.129.62l1.264 2.221a1.076 1.076 0 01-.421 1.465l-.356.173-.751.346a1.339 1.339 0 01-1.7-.5l-1.264-2.22a1.031 1.031 0 01-.078-.87zm-2.194 35.741a4.036 4.036 0 00-1.2-.287l1.2-1.433zm5.185-7.918a3.5 3.5 0 00.787-1.761c.03-.127.568-2.776.568-2.776s.51.286.563.306a.105.105 0 01.067.086l.595 5.44h-3.66zm6.457-5.424l-.924 6.71h-.761l-.614-5.622a2.089 2.089 0 00-1.286-1.662l-1.1-.627.732-3.649s3.082 3.295 3.154 3.379c.638.746.856 1.045.8 1.471zm-11.795 4.756a4.84 4.84 0 00.306-1.824l.4-6.556 5.051-1.863-.918 4.576c0 .012-.006.025-.007.037L36 42.192a3.482 3.482 0 01-.457 1.309l-7.379 8.82h-.608zM5.9 61.564a1.474 1.474 0 011.544-1.389h8.912a1.475 1.475 0 011.544 1.389v3.52h-12zm14.184 0v-5.888a1.475 1.475 0 011.544-1.389h8.912a1.474 1.474 0 011.544 1.389v9.408h-12v-3.52zm40.367-21.809v25.329h-12v-5.892a1.1 1.1 0 00-2.184 0v5.892h-12V49.349a1.474 1.474 0 011.544-1.389h8.912a1.474 1.474 0 011.544 1.389v4.926a1.1 1.1 0 002.184 0v-14.52a1.475 1.475 0 011.544-1.389h8.912a1.475 1.475 0 011.544 1.389zM49.995 36.4a3.56 3.56 0 00-3.728 3.355V46.3A4.029 4.029 0 0045 46.005l.891-6.482a3.6 3.6 0 00-1.233-2.911c-.073-.086-4.318-4.621-4.318-4.621l2.6-7.085 7.172-3.922V36.4zM52.3 9.524V3.458h11.553L61.365 5.43a1.323 1.323 0 000 2.123l2.488 1.972H52.3zm0 0" class="prefix__cls-2" transform="translate(1063.738 1204.344)"/>
    </g>
</svg>
