<svg xmlns="http://www.w3.org/2000/svg" width="67.049" height="64.493" viewBox="0 0 67.049 64.493">
    <defs>
        <style>
            .prefix__cls-1{fill:#252f40}
        </style>
    </defs>
    <g id="prefix__Group_122" data-name="Group 122" transform="translate(-649.738 -1487)">
        <g id="prefix__books" transform="translate(649.738 1487.307)">
            <path id="prefix__Path_65" d="M66.068 73.155h-.525a20.085 20.085 0 01-1.192-5.937 20.088 20.088 0 011.192-5.937h.525a.982.982 0 100-1.964h-7.409a.982.982 0 000-1.964h-.106a15.151 15.151 0 01-2.434-3.44.982.982 0 10-1.746.9 17.1 17.1 0 001.609 2.54H10.506a4.875 4.875 0 01-4.869-4.869V41.5a4.875 4.875 0 014.869-4.869h28.76v3.546a1.376 1.376 0 00.9 1.3 1.454 1.454 0 001.531-.382l1.072-1.219 1.071 1.219a1.387 1.387 0 002.429-.915v-3.547h9.712a16.977 16.977 0 00-3.495 10.36 17.262 17.262 0 00.262 3 .982.982 0 001.934-.342 15.279 15.279 0 01-.232-2.654 15.036 15.036 0 014.1-10.36h.109a.982.982 0 100-1.964h7.072a.982.982 0 100-1.964h-.411a18 18 0 01-1.055-5.292 18 18 0 011.055-5.292h.411a.982.982 0 100-1.964h-7.2a.982.982 0 00.685-1.686 4.08 4.08 0 010-5.854.989.989 0 00-.685-1.686h-43.2a.982.982 0 100 1.964h41.3a6.076 6.076 0 000 5.3H4.659a2.649 2.649 0 110-5.3h4.582a.982.982 0 000-1.964H4.659a4.613 4.613 0 100 9.226h9.159a7.256 7.256 0 000 14.511h-3.312A6.841 6.841 0 003.673 41.5v10.984a6.841 6.841 0 006.833 6.833H7.9a7.9 7.9 0 100 15.8h41.309a.982.982 0 000-1.964H7.9a5.937 5.937 0 010-11.874h55.57a20.809 20.809 0 00-1.084 5.937 20.813 20.813 0 001.084 5.937h-9.23a.982.982 0 100 1.964h11.828a.982.982 0 000-1.964zM43.7 37.962a1.242 1.242 0 00-1.866 0l-.6.686V26.767H44.3v11.881zM8.526 27.414a5.3 5.3 0 015.292-5.292h49.433a18.774 18.774 0 00-.949 5.292 18.774 18.774 0 00.949 5.292H46.266v-5.939h8.9a.982.982 0 000-1.964H38.929a.982.982 0 100 1.964h.337v5.938H13.818a5.3 5.3 0 01-5.292-5.292z" class="prefix__cls-1" data-name="Path 65" transform="translate(0 -10.932)"/>
            <path id="prefix__Path_66" d="M214.046 277.237h21.581a.982.982 0 100-1.964h-21.581a.982.982 0 100 1.964z" class="prefix__cls-1" data-name="Path 66" transform="translate(-185.162 -240.656)"/>
            <path id="prefix__Path_67" d="M290.751 443.246a.982.982 0 100 1.964h4.411a.982.982 0 100-1.964z" class="prefix__cls-1" data-name="Path 67" transform="translate(-251.822 -386.632)"/>
            <path id="prefix__Path_68" d="M130.537 443.246a.982.982 0 100 1.964h16.682a.982.982 0 100-1.964z" class="prefix__cls-1" data-name="Path 68" transform="translate(-112.589 -386.632)"/>
            <path id="prefix__Path_69" d="M240.22 118.821h2.523a.982.982 0 000-1.964h-2.523a.982.982 0 000 1.964z" class="prefix__cls-1" data-name="Path 69" transform="translate(-207.908 -102.986)"/>
            <path id="prefix__Path_70" d="M86.524 257a1.5 1.5 0 001.566-.127l3.1-2.266 3.1 2.266a1.531 1.531 0 002.388-1.212v-8.8h2.887a.982.982 0 100-1.964H83.327a.982.982 0 100 1.964H85.7v8.8a1.5 1.5 0 00.824 1.339zm8.187-2.249l-2.943-2.151a.982.982 0 00-1.159 0l-2.943 2.152v-7.889h7.045v7.889z" class="prefix__cls-1" data-name="Path 70" transform="translate(-71.561 -214.259)"/>
        </g>
        <ellipse id="prefix__Ellipse_13" cx="1" cy="1.5" class="prefix__cls-1" data-name="Ellipse 13" rx="1" ry="1.5" transform="translate(661 1487)"/>
        <path id="prefix__Path_80" d="M1099.429 1734.714v5.587l2.416-2.562 2.416 2.562v-5.587z" data-name="Path 80" transform="translate(-432.449 -214.202)" style="fill:#5324d9"/>
        <path id="prefix__Rectangle_9" d="M0 0H2V9H0z" data-name="Rectangle 9" transform="translate(691 1504)" style="fill:#3f73cc"/>
    </g>
</svg>
