<svg xmlns="http://www.w3.org/2000/svg" width="329" height="782" viewBox="0 0 329 782">
  <g id="Group_805" data-name="Group 805" transform="translate(-23 -3565.3)">
    <path id="Path_1017" data-name="Path 1017" d="M8496.5,3932v23H8634v145H8355v143h279v150H8355v144h279v142H8501v35" transform="translate(-8307 -366.7)" fill="none" stroke="#f07549" stroke-width="5" stroke-dasharray="8"/>
    <circle id="Ellipse_91" data-name="Ellipse 91" cx="25" cy="25" r="25" transform="translate(302 3633.3)" fill="#252f40"/>
    <circle id="Ellipse_92" data-name="Ellipse 92" cx="25" cy="25" r="25" transform="translate(23 3776.3)" fill="#252f40"/>
    <circle id="Ellipse_93" data-name="Ellipse 93" cx="25" cy="25" r="25" transform="translate(302 3921.3)" fill="#252f40"/>
    <circle id="Ellipse_94" data-name="Ellipse 94" cx="25" cy="25" r="25" transform="translate(23 4069.3)" fill="#252f40"/>
    <circle id="Ellipse_95" data-name="Ellipse 95" cx="25" cy="25" r="25" transform="translate(302 4212.3)" fill="#252f40"/>
    <text id="_01" data-name="01" transform="translate(326 3669.6)" fill="#fff" font-size="32" font-family="Montserrat-Bold, Montserrat" font-weight="700"><tspan x="-17.04" y="0">01</tspan></text>
    <text id="_02" data-name="02" transform="translate(47 3812.6)" fill="#fff" font-size="32" font-family="Montserrat-Bold, Montserrat" font-weight="700"><tspan x="-20.208" y="0">02</tspan></text>
    <text id="_03" data-name="03" transform="translate(326 3957.6)" fill="#fff" font-size="32" font-family="Montserrat-Bold, Montserrat" font-weight="700"><tspan x="-20.176" y="0">03</tspan></text>
    <text id="_04" data-name="04" transform="translate(47 4105.6)" fill="#fff" font-size="32" font-family="Montserrat-Bold, Montserrat" font-weight="700"><tspan x="-21.888" y="0">04</tspan></text>
    <text id="_05" data-name="05" transform="translate(326 4248.6)" fill="#fff" font-size="32" font-family="Montserrat-Bold, Montserrat" font-weight="700"><tspan x="-20.384" y="0">05</tspan></text>
  </g>
</svg>
