<svg xmlns="http://www.w3.org/2000/svg" width="1367.261" height="374.061" viewBox="0 0 1367.261 374.061">
  <g id="Group_799" data-name="Group 799" transform="translate(1 -3268.762)">
    <path id="Path_998" data-name="Path 998" d="M1367.261,1145.091,924.038,1374.779l-239.31-121.388L447.144,1371.772,0,1146.23v23.949l447.085,225.512,237.556-118.367,239.5,121.485,443.12-229.634Z" transform="translate(-1 2166.979)" fill="#f07549"/>
    <path id="Path_999" data-name="Path 999" d="M1367.261,1265.091,924.038,1494.779l-239.31-121.388L447.144,1491.772,0,1266.23v23.949l447.085,225.512,237.556-118.367,239.5,121.485,443.12-229.634Z" transform="translate(-1 2089.745)" fill="#f07549"/>
    <g id="Group_739" data-name="Group 739" transform="translate(820.16 3507.821)">
      <g id="Group_594" data-name="Group 594">
        <path id="Path_827" data-name="Path 827" d="M2403.555,1826.265c-27.759,0-54.066-6.363-74.075-17.913-22.083-12.75-34.259-30.4-34.286-49.706-.026-19.2,11.981-36.76,33.814-49.447,19.9-11.566,46.159-17.936,73.935-17.936,27.758,0,54.063,6.362,74.07,17.914,22.083,12.749,34.259,30.4,34.286,49.7.028,19.2-11.984,36.764-33.821,49.454C2457.581,1819.9,2431.328,1826.265,2403.555,1826.265Z" transform="translate(-2295.194 -1691.263)" opacity="0"/>
        <path id="Path_828" data-name="Path 828" d="M2331.389,1711.964c19.8-11.506,45.909-17.792,73.4-17.792,27.476,0,53.634,6.28,73.537,17.772,21.8,12.584,33.727,29.932,33.755,48.781.028,18.75-11.74,36.012-33.293,48.538-19.793,11.5-45.9,17.788-73.39,17.788s-53.637-6.28-73.542-17.771c-21.8-12.585-33.728-29.934-33.756-48.785C2298.076,1741.746,2309.841,1724.486,2331.389,1711.964Z" transform="translate(-2297.042 -1693.111)" opacity="0.027"/>
        <path id="Path_829" data-name="Path 829" d="M2333.77,1714.73c19.7-11.446,45.66-17.649,72.872-17.648,27.193,0,53.2,6.2,73,17.63,21.509,12.418,33.2,29.464,33.224,47.86.029,18.3-11.5,35.261-32.765,47.622-19.69,11.443-45.65,17.644-72.86,17.644-27.194,0-53.206-6.2-73.009-17.628-21.508-12.419-33.2-29.467-33.225-47.864C2300.985,1744.045,2312.505,1727.087,2333.77,1714.73Z" transform="translate(-2298.889 -1694.958)" opacity="0.055"/>
        <path id="Path_830" data-name="Path 830" d="M2336.151,1717.495c19.592-11.386,45.41-17.505,72.341-17.5,26.911,0,52.774,6.115,72.472,17.487,21.221,12.252,32.664,29,32.693,46.94.029,17.851-11.251,34.51-32.237,46.706-19.587,11.383-45.4,17.5-72.329,17.5-26.912,0-52.777-6.115-72.476-17.486-21.221-12.253-32.665-29-32.694-46.943C2303.893,1746.344,2315.17,1729.687,2336.151,1717.495Z" transform="translate(-2300.737 -1696.806)" opacity="0.082"/>
        <path id="Path_831" data-name="Path 831" d="M2338.531,1720.261c19.489-11.326,45.161-17.362,71.81-17.36,26.629,0,52.345,6.032,71.939,17.345,20.934,12.086,32.132,28.528,32.163,46.019.03,17.4-11.007,33.759-31.709,45.79-19.484,11.323-45.151,17.358-71.8,17.356-26.63,0-52.347-6.031-71.942-17.344-20.934-12.087-32.134-28.531-32.164-46.022C2306.8,1748.643,2317.835,1732.289,2338.531,1720.261Z" transform="translate(-2302.584 -1698.654)" opacity="0.109"/>
        <path id="Path_832" data-name="Path 832" d="M2340.912,1723.026c19.386-11.266,44.912-17.219,71.279-17.217,26.347,0,51.914,5.949,71.406,17.2,20.647,11.92,31.6,28.061,31.632,45.1.031,16.952-10.762,33.008-31.18,44.873-19.381,11.263-44.9,17.214-71.267,17.213-26.348,0-51.917-5.949-71.409-17.2-20.648-11.921-31.6-28.063-31.633-45.1C2309.709,1750.942,2320.5,1734.889,2340.912,1723.026Z" transform="translate(-2304.432 -1700.502)" opacity="0.136"/>
        <path id="Path_833" data-name="Path 833" d="M2343.294,1725.791c19.282-11.206,44.662-17.075,70.748-17.073,26.065,0,51.485,5.866,70.873,17.06,20.36,11.755,31.07,27.593,31.1,44.178.031,16.5-10.518,32.256-30.653,43.957-19.277,11.2-44.653,17.071-70.736,17.068-26.065,0-51.486-5.866-70.876-17.06-20.36-11.755-31.07-27.595-31.1-44.18C2312.618,1753.241,2323.165,1737.489,2343.294,1725.791Z" transform="translate(-2306.28 -1702.349)" opacity="0.164"/>
        <path id="Path_834" data-name="Path 834" d="M2345.675,1728.557c19.18-11.146,44.413-16.932,70.217-16.93,25.783,0,51.055,5.784,70.34,16.918,20.073,11.589,30.538,27.125,30.57,43.257.032,16.053-10.274,31.506-30.124,43.041-19.174,11.143-44.4,16.928-70.205,16.925-25.784,0-51.057-5.783-70.344-16.917-20.073-11.59-30.539-27.127-30.571-43.26C2315.526,1755.54,2325.83,1740.089,2345.675,1728.557Z" transform="translate(-2308.128 -1704.197)" opacity="0.191"/>
        <path id="Path_835" data-name="Path 835" d="M2348.056,1731.323c19.076-11.086,44.164-16.788,69.686-16.786,25.5,0,50.625,5.7,69.807,16.776,19.785,11.423,30.007,26.657,30.04,42.336.033,15.6-10.03,30.755-29.6,42.125-19.071,11.083-44.155,16.784-69.675,16.781-25.5,0-50.627-5.7-69.809-16.776-19.787-11.424-30.008-26.659-30.041-42.338C2318.435,1757.839,2328.494,1742.691,2348.056,1731.323Z" transform="translate(-2309.975 -1706.045)" opacity="0.218"/>
        <path id="Path_836" data-name="Path 836" d="M2350.436,1734.088c18.974-11.026,43.915-16.645,69.155-16.642,25.218,0,50.2,5.618,69.273,16.633,19.5,11.257,29.476,26.189,29.509,41.415.033,15.154-9.785,30-29.069,41.209-18.968,11.023-43.905,16.64-69.143,16.637-25.219,0-50.2-5.618-69.277-16.634-19.5-11.258-29.476-26.191-29.51-41.417C2321.343,1760.138,2331.159,1745.291,2350.436,1734.088Z" transform="translate(-2311.823 -1707.893)" opacity="0.245"/>
        <path id="Path_837" data-name="Path 837" d="M2352.817,1736.853c18.87-10.966,43.665-16.5,68.624-16.5,24.936,0,49.765,5.535,68.741,16.491,19.211,11.092,28.944,25.721,28.978,40.494.034,14.7-9.541,29.252-28.54,40.293-18.865,10.963-43.656,16.5-68.612,16.494-24.937,0-49.768-5.536-68.744-16.491-19.212-11.093-28.945-25.723-28.979-40.5C2324.251,1762.437,2333.823,1747.891,2352.817,1736.853Z" transform="translate(-2313.671 -1709.74)" opacity="0.273"/>
        <path id="Path_838" data-name="Path 838" d="M2491.5,1739.613c37.762,21.8,37.952,57.148.436,78.95s-98.53,21.8-136.292,0-37.952-57.148-.445-78.945S2453.737,1717.812,2491.5,1739.613Z" transform="translate(-2315.518 -1711.588)" opacity="0.3"/>
      </g>
    </g>
    <g id="Group_740" data-name="Group 740" transform="translate(832.343 3492.473)">
      <path id="Path_839" data-name="Path 839" d="M2521.457,1803.693c-.906,16.436-13.6,28.711-26.808,36.828-14.378,8.838-31.413,13.509-48.032,15.663a160.082,160.082,0,0,1-49.614-1.119c-16.284-3.039-32.5-8.337-46.166-17.929-10.625-7.454-20.141-18.2-21.805-31.538a32.765,32.765,0,0,1-.252-4.145q-.023,7.8-.044,15.6c-.015,5.294-.41,10.767.141,16.047,1.054,10.107,6.788,19,14.048,25.852,9.381,8.852,21.333,14.943,33.478,19.04A156.067,156.067,0,0,0,2455.03,1883c13.237-2.585,26.221-6.669,37.976-13.391,10.764-6.155,20.891-14.847,25.769-26.51,2.758-6.593,2.677-13.288,2.7-20.246q.028-9.771.056-19.543l0-1.318C2521.53,1802.562,2521.488,1803.127,2521.457,1803.693Z" transform="translate(-2328.584 -1745.901)" fill="#252f40"/>
      <g id="Group_596" data-name="Group 596" transform="translate(0.195)">
        <path id="Path_840" data-name="Path 840" d="M2493.423,1665.549c37.762,21.8,37.952,57.148.436,78.95s-98.53,21.8-136.292,0-37.952-57.148-.444-78.946S2455.662,1643.747,2493.423,1665.549Z" transform="translate(-2329.119 -1649.2)" fill="#2d4e7f"/>
      </g>
      <g id="Group_597" data-name="Group 597" transform="translate(22.086 12.68)">
        <path id="Path_841" data-name="Path 841" d="M2516.1,1696.588c29.185,16.85,29.332,44.167.337,61.017s-76.15,16.851-105.335,0-29.331-44.168-.343-61.014S2486.915,1679.738,2516.1,1696.588Z" transform="translate(-2389.115 -1683.952)" fill="#fff"/>
      </g>
    </g>
    <g id="Group_741" data-name="Group 741" transform="translate(927.358 3405.448)">
      <path id="Path_842" data-name="Path 842" d="M2590.45,1556.862a1.459,1.459,0,0,1-1.459-1.459V1412.147a1.459,1.459,0,1,1,2.919,0V1555.4A1.459,1.459,0,0,1,2590.45,1556.862Z" transform="translate(-2588.991 -1410.688)" fill="#f07549"/>
    </g>
    <circle id="Ellipse_82" data-name="Ellipse 82" cx="9.194" cy="9.194" r="9.194" transform="translate(915.814 3406.907) rotate(-45)" fill="#252f40"/>
    <g id="Group_734" data-name="Group 734" transform="translate(575.913 3386.953)">
      <g id="Group_600" data-name="Group 600" transform="translate(0 0)">
        <path id="Path_843" data-name="Path 843" d="M1734.145,1495c-27.759,0-54.066-6.362-74.075-17.913-22.082-12.75-34.259-30.4-34.286-49.706-.027-19.2,11.982-36.759,33.813-49.447,19.9-11.566,46.159-17.935,73.935-17.935,27.758,0,54.063,6.363,74.071,17.914,22.083,12.749,34.259,30.4,34.286,49.7.027,19.2-11.984,36.763-33.822,49.454C1788.171,1488.634,1761.918,1495,1734.145,1495Z" transform="translate(-1625.784 -1360)" opacity="0"/>
        <path id="Path_844" data-name="Path 844" d="M1661.978,1380.7c19.8-11.506,45.91-17.792,73.4-17.792,27.476,0,53.634,6.28,73.538,17.772,21.8,12.583,33.727,29.932,33.755,48.781.028,18.75-11.74,36.012-33.294,48.538-19.793,11.5-45.9,17.788-73.391,17.788s-53.636-6.28-73.542-17.771c-21.8-12.585-33.728-29.935-33.755-48.786C1628.666,1410.483,1640.43,1393.224,1661.978,1380.7Z" transform="translate(-1627.631 -1361.848)" opacity="0.027"/>
        <path id="Path_845" data-name="Path 845" d="M1664.36,1383.466c19.7-11.446,45.66-17.649,72.872-17.648,27.193,0,53.2,6.2,73,17.63,21.508,12.418,33.2,29.464,33.224,47.861.028,18.3-11.5,35.261-32.766,47.622-19.69,11.443-45.65,17.644-72.86,17.644s-53.206-6.2-73.008-17.629c-21.509-12.419-33.2-29.466-33.225-47.864C1631.574,1412.782,1643.1,1395.824,1664.36,1383.466Z" transform="translate(-1629.479 -1363.695)" opacity="0.055"/>
        <path id="Path_846" data-name="Path 846" d="M1666.74,1386.232c19.592-11.386,45.411-17.505,72.341-17.5,26.911,0,52.774,6.114,72.471,17.487,21.221,12.252,32.664,29,32.693,46.94.029,17.851-11.251,34.51-32.237,46.706-19.587,11.383-45.4,17.5-72.329,17.5-26.913,0-52.777-6.114-72.476-17.486-21.221-12.253-32.665-29-32.694-46.943C1634.482,1415.082,1645.76,1398.425,1666.74,1386.232Z" transform="translate(-1631.327 -1365.543)" opacity="0.082"/>
        <path id="Path_847" data-name="Path 847" d="M1669.121,1389c19.489-11.326,45.161-17.362,71.81-17.36,26.629,0,52.344,6.032,71.939,17.345,20.934,12.086,32.133,28.528,32.162,46.019.03,17.4-11.007,33.759-31.709,45.79-19.484,11.323-45.152,17.358-71.8,17.356-26.63,0-52.347-6.032-71.942-17.344-20.934-12.088-32.134-28.531-32.164-46.022C1637.39,1417.38,1648.424,1401.025,1669.121,1389Z" transform="translate(-1633.174 -1367.391)" opacity="0.109"/>
        <path id="Path_848" data-name="Path 848" d="M1671.5,1391.763c19.386-11.266,44.912-17.219,71.279-17.217,26.347,0,51.915,5.949,71.406,17.2,20.647,11.921,31.6,28.061,31.632,45.1.031,16.952-10.763,33.008-31.181,44.874-19.38,11.263-44.9,17.214-71.267,17.212-26.348,0-51.917-5.949-71.409-17.2-20.647-11.921-31.6-28.063-31.633-45.1C1640.3,1419.679,1651.089,1403.626,1671.5,1391.763Z" transform="translate(-1635.022 -1369.239)" opacity="0.136"/>
        <path id="Path_849" data-name="Path 849" d="M1673.883,1394.529c19.283-11.206,44.663-17.075,70.748-17.073,26.065,0,51.485,5.866,70.873,17.06,20.36,11.755,31.07,27.593,31.1,44.177.032,16.5-10.518,32.257-30.653,43.957-19.277,11.2-44.653,17.071-70.736,17.069-26.066,0-51.487-5.866-70.876-17.06-20.36-11.756-31.07-27.595-31.1-44.181C1643.207,1421.979,1653.754,1406.227,1673.883,1394.529Z" transform="translate(-1636.87 -1371.087)" opacity="0.164"/>
        <path id="Path_850" data-name="Path 850" d="M1676.264,1397.294c19.18-11.146,44.413-16.932,70.217-16.929,25.782,0,51.055,5.784,70.34,16.918,20.072,11.589,30.538,27.125,30.57,43.257.032,16.052-10.274,31.505-30.125,43.041-19.174,11.143-44.4,16.927-70.2,16.925-25.783,0-51.057-5.784-70.343-16.918-20.074-11.59-30.539-27.127-30.572-43.259C1646.115,1424.277,1656.419,1408.827,1676.264,1397.294Z" transform="translate(-1638.717 -1372.934)" opacity="0.191"/>
        <path id="Path_851" data-name="Path 851" d="M1678.646,1400.059c19.076-11.086,44.164-16.788,69.686-16.785,25.5,0,50.625,5.7,69.807,16.776,19.785,11.423,30.006,26.657,30.04,42.336.032,15.6-10.03,30.755-29.6,42.125-19.071,11.083-44.155,16.784-69.674,16.781-25.5,0-50.627-5.7-69.81-16.776-19.786-11.424-30.008-26.659-30.04-42.338C1649.024,1426.576,1659.084,1411.427,1678.646,1400.059Z" transform="translate(-1640.565 -1374.782)" opacity="0.218"/>
        <path id="Path_852" data-name="Path 852" d="M1681.026,1402.825c18.973-11.026,43.914-16.645,69.155-16.642,25.218,0,50.2,5.618,69.274,16.633,19.5,11.257,29.475,26.189,29.509,41.415.034,15.153-9.785,30-29.068,41.209-18.968,11.023-43.905,16.641-69.143,16.637-25.219,0-50.2-5.618-69.277-16.633-19.5-11.258-29.476-26.191-29.51-41.417C1651.932,1428.875,1661.749,1414.028,1681.026,1402.825Z" transform="translate(-1642.413 -1376.63)" opacity="0.245"/>
        <path id="Path_853" data-name="Path 853" d="M1683.407,1405.591c18.87-10.966,43.666-16.5,68.624-16.5,24.936,0,49.766,5.535,68.741,16.491,19.211,11.092,28.944,25.722,28.978,40.494.034,14.7-9.541,29.252-28.54,40.293-18.865,10.963-43.656,16.5-68.612,16.493-24.936,0-49.767-5.535-68.744-16.491-19.212-11.092-28.945-25.723-28.979-40.5C1654.841,1431.175,1664.414,1416.629,1683.407,1405.591Z" transform="translate(-1644.26 -1378.478)" opacity="0.273"/>
        <path id="Path_854" data-name="Path 854" d="M1822.089,1408.35c37.762,21.8,37.952,57.148.436,78.951s-98.531,21.8-136.292,0-37.952-57.148-.444-78.945S1784.327,1386.548,1822.089,1408.35Z" transform="translate(-1646.108 -1380.325)" opacity="0.3"/>
      </g>
    </g>
    <g id="Group_735" data-name="Group 735" transform="translate(587.236 3370.438)">
      <path id="Path_855" data-name="Path 855" d="M1849.69,1469.231c-.906,16.436-13.6,28.711-26.808,36.828-14.378,8.838-31.413,13.509-48.032,15.663a160.1,160.1,0,0,1-49.613-1.119c-16.285-3.039-32.5-8.337-46.166-17.929-10.625-7.454-20.141-18.2-21.805-31.538a32.745,32.745,0,0,1-.253-4.145q-.022,7.8-.044,15.6c-.015,5.294-.409,10.768.142,16.047,1.054,10.107,6.788,19,14.048,25.852,9.38,8.852,21.333,14.942,33.478,19.04a156.073,156.073,0,0,0,78.628,5.013c13.236-2.585,26.221-6.669,37.976-13.391,10.764-6.155,20.891-14.847,25.769-26.51,2.758-6.593,2.677-13.288,2.7-20.245q.028-9.772.055-19.543l0-1.318C1849.763,1468.1,1849.721,1468.665,1849.69,1469.231Z" transform="translate(-1656.817 -1411.439)" fill="#252f40"/>
      <g id="Group_602" data-name="Group 602" transform="translate(0.195)">
        <path id="Path_856" data-name="Path 856" d="M1821.656,1331.087c37.762,21.8,37.952,57.148.436,78.95s-98.53,21.8-136.292,0-37.952-57.148-.444-78.946S1783.894,1309.285,1821.656,1331.087Z" transform="translate(-1657.351 -1314.738)" fill="#2d4e7f"/>
      </g>
      <g id="Group_603" data-name="Group 603" transform="translate(22.086 12.68)">
        <path id="Path_857" data-name="Path 857" d="M1844.332,1362.126c29.185,16.85,29.332,44.167.337,61.017s-76.15,16.851-105.334,0-29.332-44.168-.343-61.014S1815.148,1345.276,1844.332,1362.126Z" transform="translate(-1717.347 -1349.49)" fill="#fff"/>
      </g>
    </g>
    <g id="Group_738" data-name="Group 738" transform="translate(682.25 3281.12)">
      <path id="Path_858" data-name="Path 858" d="M1918.683,1216.114a1.459,1.459,0,0,1-1.459-1.459V1071.4a1.46,1.46,0,0,1,2.919,0v143.254A1.459,1.459,0,0,1,1918.683,1216.114Z" transform="translate(-1917.223 -1069.941)" fill="#f07549"/>
    </g>
    <circle id="Ellipse_81" data-name="Ellipse 81" cx="9.194" cy="9.194" r="9.194" transform="translate(670.707 3282.578) rotate(-45)" fill="#252f40"/>
    <g id="Group_737" data-name="Group 737" transform="translate(331.666 3507.821)">
      <g id="Group_606" data-name="Group 606">
        <path id="Path_859" data-name="Path 859" d="M1064.734,1826.265c-27.759,0-54.066-6.363-74.075-17.913-22.083-12.75-34.259-30.4-34.286-49.706-.026-19.2,11.982-36.76,33.814-49.447,19.9-11.566,46.159-17.936,73.935-17.936,27.758,0,54.063,6.362,74.071,17.914,22.082,12.749,34.258,30.4,34.286,49.7.027,19.2-11.985,36.764-33.822,49.454C1118.76,1819.9,1092.507,1826.265,1064.734,1826.265Z" transform="translate(-956.373 -1691.263)" opacity="0"/>
        <path id="Path_860" data-name="Path 860" d="M992.568,1711.964c19.8-11.506,45.909-17.792,73.4-17.792,27.476,0,53.634,6.28,73.537,17.772,21.8,12.584,33.727,29.932,33.755,48.781.028,18.75-11.74,36.012-33.293,48.538-19.793,11.5-45.9,17.788-73.391,17.788s-53.636-6.28-73.542-17.771c-21.8-12.585-33.728-29.934-33.756-48.785C959.255,1741.746,971.02,1724.486,992.568,1711.964Z" transform="translate(-958.221 -1693.111)" opacity="0.027"/>
        <path id="Path_861" data-name="Path 861" d="M994.949,1714.73c19.7-11.446,45.66-17.649,72.872-17.648,27.194,0,53.2,6.2,73,17.63,21.508,12.418,33.2,29.464,33.224,47.86.028,18.3-11.5,35.261-32.765,47.622-19.69,11.443-45.65,17.644-72.86,17.644s-53.207-6.2-73.009-17.628c-21.508-12.419-33.2-29.467-33.225-47.864C962.163,1744.045,973.684,1727.087,994.949,1714.73Z" transform="translate(-960.068 -1694.958)" opacity="0.055"/>
        <path id="Path_862" data-name="Path 862" d="M997.33,1717.495c19.593-11.386,45.411-17.505,72.341-17.5,26.911,0,52.774,6.115,72.472,17.487,21.221,12.252,32.664,29,32.693,46.94.029,17.851-11.252,34.51-32.237,46.706-19.587,11.383-45.4,17.5-72.329,17.5-26.912,0-52.776-6.115-72.475-17.486-21.222-12.253-32.665-29-32.694-46.943C965.072,1746.344,976.349,1729.687,997.33,1717.495Z" transform="translate(-961.916 -1696.806)" opacity="0.082"/>
        <path id="Path_863" data-name="Path 863" d="M999.711,1720.261c19.489-11.326,45.161-17.362,71.81-17.36,26.629,0,52.344,6.032,71.939,17.345,20.934,12.086,32.133,28.528,32.163,46.019.03,17.4-11.007,33.759-31.709,45.79-19.484,11.323-45.152,17.358-71.8,17.356-26.63,0-52.347-6.031-71.942-17.344-20.935-12.087-32.134-28.531-32.164-46.022C967.98,1748.643,979.014,1732.289,999.711,1720.261Z" transform="translate(-963.764 -1698.654)" opacity="0.109"/>
        <path id="Path_864" data-name="Path 864" d="M1002.092,1723.026c19.386-11.266,44.912-17.219,71.279-17.217,26.347,0,51.914,5.949,71.406,17.2,20.647,11.92,31.6,28.061,31.632,45.1.031,16.952-10.763,33.008-31.181,44.873-19.38,11.263-44.9,17.214-71.267,17.213-26.348,0-51.917-5.949-71.409-17.2-20.647-11.921-31.6-28.063-31.633-45.1C970.889,1750.942,981.679,1734.889,1002.092,1723.026Z" transform="translate(-965.612 -1700.502)" opacity="0.136"/>
        <path id="Path_865" data-name="Path 865" d="M1004.473,1725.791c19.283-11.206,44.662-17.075,70.748-17.073,26.065,0,51.485,5.866,70.873,17.06,20.36,11.755,31.07,27.593,31.1,44.178.031,16.5-10.519,32.256-30.653,43.957-19.277,11.2-44.653,17.071-70.736,17.068-26.066,0-51.487-5.866-70.876-17.06-20.36-11.755-31.071-27.595-31.1-44.18C973.8,1753.241,984.344,1737.489,1004.473,1725.791Z" transform="translate(-967.459 -1702.349)" opacity="0.164"/>
        <path id="Path_866" data-name="Path 866" d="M1006.854,1728.557c19.179-11.146,44.413-16.932,70.217-16.93,25.783,0,51.055,5.784,70.34,16.918,20.073,11.589,30.538,27.125,30.57,43.257.032,16.053-10.274,31.506-30.124,43.041-19.174,11.143-44.4,16.928-70.205,16.925-25.783,0-51.057-5.783-70.343-16.917-20.073-11.59-30.539-27.127-30.571-43.26C976.705,1755.54,987.009,1740.089,1006.854,1728.557Z" transform="translate(-969.307 -1704.197)" opacity="0.191"/>
        <path id="Path_867" data-name="Path 867" d="M1009.235,1731.323c19.076-11.086,44.164-16.788,69.686-16.786,25.5,0,50.625,5.7,69.807,16.776,19.786,11.423,30.007,26.657,30.04,42.336.033,15.6-10.03,30.755-29.6,42.125-19.071,11.083-44.155,16.784-69.674,16.781-25.5,0-50.628-5.7-69.81-16.776-19.787-11.424-30.008-26.659-30.041-42.338C979.613,1757.839,989.673,1742.691,1009.235,1731.323Z" transform="translate(-971.154 -1706.045)" opacity="0.218"/>
        <path id="Path_868" data-name="Path 868" d="M1011.616,1734.088c18.973-11.026,43.914-16.645,69.155-16.642,25.218,0,50.2,5.618,69.274,16.633,19.5,11.257,29.475,26.189,29.509,41.415.034,15.154-9.786,30-29.068,41.209-18.968,11.023-43.905,16.64-69.143,16.637-25.219,0-50.2-5.618-69.277-16.634-19.5-11.258-29.477-26.191-29.51-41.417C982.522,1760.138,992.338,1745.291,1011.616,1734.088Z" transform="translate(-973.002 -1707.893)" opacity="0.245"/>
        <path id="Path_869" data-name="Path 869" d="M1014,1736.853c18.87-10.966,43.665-16.5,68.624-16.5,24.936,0,49.766,5.535,68.741,16.491,19.212,11.092,28.944,25.721,28.978,40.494.034,14.7-9.542,29.252-28.54,40.293-18.865,10.963-43.656,16.5-68.612,16.494-24.937,0-49.767-5.536-68.744-16.491-19.212-11.093-28.945-25.723-28.979-40.5C985.43,1762.437,995,1747.891,1014,1736.853Z" transform="translate(-974.849 -1709.74)" opacity="0.273"/>
        <path id="Path_870" data-name="Path 870" d="M1152.678,1739.613c37.762,21.8,37.952,57.148.436,78.95s-98.53,21.8-136.292,0-37.952-57.148-.444-78.945S1114.917,1717.812,1152.678,1739.613Z" transform="translate(-976.698 -1711.588)" opacity="0.3"/>
      </g>
    </g>
    <g id="Group_736" data-name="Group 736" transform="translate(344.007 3491.475)">
      <path id="Path_871" data-name="Path 871" d="M1183.069,1800.956c-.906,16.436-13.6,28.711-26.808,36.828-14.378,8.838-31.413,13.509-48.032,15.663a160.072,160.072,0,0,1-49.613-1.119c-16.285-3.039-32.5-8.337-46.166-17.928-10.625-7.454-20.141-18.2-21.805-31.538a32.726,32.726,0,0,1-.253-4.145q-.022,7.8-.044,15.6c-.015,5.294-.41,10.768.141,16.047,1.054,10.107,6.788,19,14.048,25.852,9.38,8.852,21.334,14.942,33.478,19.04a156.075,156.075,0,0,0,78.629,5.013c13.236-2.586,26.221-6.67,37.976-13.391,10.764-6.155,20.891-14.847,25.769-26.51,2.758-6.593,2.677-13.288,2.7-20.245q.028-9.771.055-19.542,0-.659,0-1.318C1183.142,1799.825,1183.1,1800.39,1183.069,1800.956Z" transform="translate(-990.196 -1743.164)" fill="#252f40"/>
      <g id="Group_608" data-name="Group 608" transform="translate(0.195)">
        <path id="Path_872" data-name="Path 872" d="M1155.036,1662.812c37.762,21.8,37.952,57.148.435,78.951s-98.53,21.8-136.292,0-37.952-57.148-.444-78.945S1117.274,1641.01,1155.036,1662.812Z" transform="translate(-990.731 -1646.464)" fill="#2d4e7f"/>
      </g>
      <g id="Group_609" data-name="Group 609" transform="translate(22.086 12.68)">
        <path id="Path_873" data-name="Path 873" d="M1177.712,1693.851c29.185,16.85,29.332,44.168.337,61.018s-76.15,16.85-105.335,0-29.331-44.168-.343-61.014S1148.527,1677,1177.712,1693.851Z" transform="translate(-1050.727 -1681.216)" fill="#fff"/>
      </g>
    </g>
    <g id="Group_733" data-name="Group 733" transform="translate(439.021 3402.313)">
      <path id="Path_874" data-name="Path 874" d="M1252.063,1548.271a1.459,1.459,0,0,1-1.459-1.459V1403.558a1.459,1.459,0,0,1,2.919,0v143.254A1.459,1.459,0,0,1,1252.063,1548.271Z" transform="translate(-1250.603 -1402.098)" fill="#f07549"/>
    </g>
    <circle id="Ellipse_80" data-name="Ellipse 80" cx="9.194" cy="9.194" r="9.194" transform="translate(431.286 3394.578)" fill="#252f40"/>
    <g id="Group_731" data-name="Group 731" transform="translate(87.419 3386.953)">
      <g id="Group_612" data-name="Group 612" transform="translate(0 0)">
        <path id="Path_875" data-name="Path 875" d="M395.324,1495c-27.759,0-54.066-6.362-74.075-17.913-22.083-12.75-34.259-30.4-34.286-49.706-.026-19.2,11.982-36.759,33.814-49.447,19.9-11.566,46.159-17.935,73.934-17.935,27.758,0,54.063,6.363,74.071,17.914,22.083,12.749,34.259,30.4,34.286,49.7.027,19.2-11.984,36.763-33.822,49.454C449.35,1488.634,423.1,1495,395.324,1495Z" transform="translate(-286.963 -1360)" opacity="0"/>
        <path id="Path_876" data-name="Path 876" d="M323.158,1380.7c19.8-11.506,45.91-17.792,73.4-17.792,27.475,0,53.634,6.28,73.538,17.772,21.8,12.583,33.727,29.932,33.755,48.781.028,18.75-11.74,36.012-33.294,48.538-19.793,11.5-45.9,17.788-73.391,17.788s-53.637-6.28-73.542-17.771c-21.8-12.585-33.728-29.935-33.755-48.786C289.845,1410.483,301.609,1393.224,323.158,1380.7Z" transform="translate(-288.811 -1361.848)" opacity="0.027"/>
        <path id="Path_877" data-name="Path 877" d="M325.539,1383.466c19.7-11.446,45.66-17.649,72.872-17.648,27.193,0,53.2,6.2,73,17.63,21.508,12.418,33.2,29.464,33.224,47.861.029,18.3-11.5,35.261-32.765,47.622-19.69,11.443-45.651,17.644-72.86,17.644s-53.206-6.2-73.008-17.629c-21.508-12.419-33.2-29.466-33.225-47.864C292.753,1412.782,304.274,1395.824,325.539,1383.466Z" transform="translate(-290.658 -1363.695)" opacity="0.055"/>
        <path id="Path_878" data-name="Path 878" d="M327.92,1386.232c19.592-11.386,45.411-17.505,72.341-17.5,26.911,0,52.774,6.114,72.472,17.487,21.221,12.252,32.664,29,32.693,46.94.029,17.851-11.251,34.51-32.237,46.706-19.587,11.383-45.4,17.5-72.329,17.5-26.912,0-52.777-6.114-72.476-17.486-21.221-12.253-32.665-29-32.694-46.943C295.661,1415.082,306.939,1398.425,327.92,1386.232Z" transform="translate(-292.506 -1365.543)" opacity="0.082"/>
        <path id="Path_879" data-name="Path 879" d="M330.3,1389c19.489-11.326,45.161-17.362,71.81-17.36,26.629,0,52.344,6.032,71.939,17.345,20.934,12.086,32.133,28.528,32.162,46.019.03,17.4-11.007,33.759-31.709,45.79-19.483,11.323-45.151,17.358-71.8,17.356-26.63,0-52.347-6.032-71.942-17.344-20.934-12.088-32.133-28.531-32.164-46.022C298.57,1417.38,309.6,1401.025,330.3,1389Z" transform="translate(-294.353 -1367.391)" opacity="0.109"/>
        <path id="Path_880" data-name="Path 880" d="M332.681,1391.763c19.386-11.266,44.912-17.219,71.279-17.217,26.347,0,51.915,5.949,71.406,17.2,20.647,11.921,31.6,28.061,31.632,45.1.031,16.952-10.763,33.008-31.181,44.874-19.38,11.263-44.9,17.214-71.267,17.212-26.348,0-51.917-5.949-71.409-17.2-20.648-11.921-31.6-28.063-31.633-45.1C301.478,1419.679,312.268,1403.626,332.681,1391.763Z" transform="translate(-296.201 -1369.239)" opacity="0.136"/>
        <path id="Path_881" data-name="Path 881" d="M335.063,1394.529c19.283-11.206,44.663-17.075,70.749-17.073,26.065,0,51.484,5.866,70.872,17.06,20.36,11.755,31.07,27.593,31.1,44.177.031,16.5-10.518,32.257-30.653,43.957-19.277,11.2-44.653,17.071-70.736,17.069-26.066,0-51.487-5.866-70.876-17.06-20.36-11.756-31.07-27.595-31.1-44.181C304.387,1421.979,314.934,1406.227,335.063,1394.529Z" transform="translate(-298.049 -1371.087)" opacity="0.164"/>
        <path id="Path_882" data-name="Path 882" d="M337.444,1397.294c19.18-11.146,44.413-16.932,70.217-16.929,25.782,0,51.055,5.784,70.34,16.918,20.073,11.589,30.538,27.125,30.57,43.257.032,16.052-10.274,31.505-30.125,43.041-19.174,11.143-44.4,16.927-70.2,16.925-25.783,0-51.057-5.784-70.343-16.918-20.073-11.59-30.539-27.127-30.571-43.259C307.3,1424.277,317.6,1408.827,337.444,1397.294Z" transform="translate(-299.897 -1372.934)" opacity="0.191"/>
        <path id="Path_883" data-name="Path 883" d="M339.825,1400.059c19.076-11.086,44.164-16.788,69.686-16.785,25.5,0,50.625,5.7,69.807,16.776,19.785,11.423,30.007,26.657,30.04,42.336.033,15.6-10.03,30.755-29.6,42.125-19.071,11.083-44.155,16.784-69.674,16.781-25.5,0-50.627-5.7-69.81-16.776-19.786-11.424-30.008-26.659-30.041-42.338C310.2,1426.576,320.263,1411.427,339.825,1400.059Z" transform="translate(-301.744 -1374.782)" opacity="0.218"/>
        <path id="Path_884" data-name="Path 884" d="M342.205,1402.825c18.973-11.026,43.915-16.645,69.155-16.642,25.218,0,50.2,5.618,69.274,16.633,19.5,11.257,29.475,26.189,29.509,41.415.033,15.153-9.786,30-29.068,41.209-18.968,11.023-43.905,16.641-69.143,16.637-25.219,0-50.2-5.618-69.277-16.633-19.5-11.258-29.476-26.191-29.51-41.417C313.112,1428.875,322.928,1414.028,342.205,1402.825Z" transform="translate(-303.592 -1376.63)" opacity="0.245"/>
        <path id="Path_885" data-name="Path 885" d="M344.586,1405.591c18.87-10.966,43.665-16.5,68.624-16.5,24.936,0,49.766,5.535,68.741,16.491,19.211,11.092,28.944,25.722,28.978,40.494.034,14.7-9.541,29.252-28.54,40.293-18.865,10.963-43.656,16.5-68.613,16.493-24.936,0-49.767-5.535-68.743-16.491-19.213-11.092-28.945-25.723-28.979-40.5C316.02,1431.175,325.593,1416.629,344.586,1405.591Z" transform="translate(-305.439 -1378.478)" opacity="0.273"/>
        <path id="Path_886" data-name="Path 886" d="M483.268,1408.35c37.762,21.8,37.952,57.148.436,78.951s-98.53,21.8-136.292,0-37.952-57.148-.444-78.945S445.506,1386.548,483.268,1408.35Z" transform="translate(-307.287 -1380.325)" opacity="0.3"/>
      </g>
    </g>
    <g id="Group_742" data-name="Group 742" transform="translate(1064.407 3386.953)">
      <g id="Group_588" data-name="Group 588" transform="translate(0 0)">
        <path id="Path_811" data-name="Path 811" d="M3072.966,1495c-27.759,0-54.066-6.362-74.075-17.913-22.083-12.75-34.259-30.4-34.287-49.706-.026-19.2,11.981-36.759,33.814-49.447,19.9-11.566,46.159-17.935,73.934-17.935,27.758,0,54.064,6.363,74.071,17.914,22.082,12.749,34.258,30.4,34.285,49.7.027,19.2-11.984,36.763-33.822,49.454C3126.991,1488.634,3100.739,1495,3072.966,1495Z" transform="translate(-2964.604 -1360)" opacity="0"/>
        <path id="Path_812" data-name="Path 812" d="M3000.8,1380.7c19.8-11.506,45.909-17.792,73.4-17.792,27.476,0,53.634,6.28,73.538,17.772,21.8,12.583,33.727,29.932,33.755,48.781.028,18.75-11.74,36.012-33.293,48.538-19.793,11.5-45.9,17.788-73.391,17.788s-53.636-6.28-73.542-17.771c-21.8-12.585-33.728-29.935-33.756-48.786C2967.486,1410.483,2979.25,1393.224,3000.8,1380.7Z" transform="translate(-2966.452 -1361.848)" opacity="0.027"/>
        <path id="Path_813" data-name="Path 813" d="M3003.18,1383.466c19.7-11.446,45.66-17.649,72.873-17.648,27.193,0,53.2,6.2,73,17.63,21.508,12.418,33.2,29.464,33.224,47.861.029,18.3-11.5,35.261-32.765,47.622-19.69,11.443-45.65,17.644-72.86,17.644s-53.207-6.2-73.009-17.629c-21.508-12.419-33.2-29.466-33.224-47.864C2970.4,1412.782,2981.916,1395.824,3003.18,1383.466Z" transform="translate(-2968.3 -1363.695)" opacity="0.055"/>
        <path id="Path_814" data-name="Path 814" d="M3005.562,1386.232c19.592-11.386,45.411-17.505,72.342-17.5,26.911,0,52.774,6.114,72.471,17.487,21.221,12.252,32.664,29,32.693,46.94.03,17.851-11.251,34.51-32.237,46.706-19.586,11.383-45.4,17.5-72.329,17.5-26.912,0-52.777-6.114-72.475-17.486-21.222-12.253-32.665-29-32.694-46.943C2973.3,1415.082,2984.581,1398.425,3005.562,1386.232Z" transform="translate(-2970.148 -1365.543)" opacity="0.082"/>
        <path id="Path_815" data-name="Path 815" d="M3007.942,1389c19.489-11.326,45.161-17.362,71.81-17.36,26.629,0,52.344,6.032,71.939,17.345,20.934,12.086,32.132,28.528,32.162,46.019.03,17.4-11.007,33.759-31.709,45.79-19.484,11.323-45.152,17.358-71.8,17.356-26.63,0-52.347-6.032-71.943-17.344-20.934-12.088-32.133-28.531-32.163-46.022C2976.211,1417.38,2987.245,1401.025,3007.942,1389Z" transform="translate(-2971.995 -1367.391)" opacity="0.109"/>
        <path id="Path_816" data-name="Path 816" d="M3010.323,1391.763c19.386-11.266,44.912-17.219,71.28-17.217,26.347,0,51.914,5.949,71.406,17.2,20.646,11.921,31.6,28.061,31.632,45.1.031,16.952-10.763,33.008-31.181,44.874-19.381,11.263-44.9,17.214-71.267,17.212-26.348,0-51.917-5.949-71.409-17.2-20.647-11.921-31.6-28.063-31.633-45.1C2979.12,1419.679,2989.91,1403.626,3010.323,1391.763Z" transform="translate(-2973.843 -1369.239)" opacity="0.136"/>
        <path id="Path_817" data-name="Path 817" d="M3012.7,1394.529c19.283-11.206,44.663-17.075,70.748-17.073,26.064,0,51.485,5.866,70.872,17.06,20.36,11.755,31.07,27.593,31.1,44.177.031,16.5-10.519,32.257-30.653,43.957-19.278,11.2-44.653,17.071-70.736,17.069-26.065,0-51.487-5.866-70.876-17.06-20.36-11.756-31.071-27.595-31.1-44.181C2982.028,1421.979,2992.575,1406.227,3012.7,1394.529Z" transform="translate(-2975.691 -1371.087)" opacity="0.164"/>
        <path id="Path_818" data-name="Path 818" d="M3015.085,1397.294c19.18-11.146,44.414-16.932,70.217-16.929,25.782,0,51.055,5.784,70.34,16.918,20.073,11.589,30.538,27.125,30.571,43.257.032,16.052-10.274,31.505-30.125,43.041-19.174,11.143-44.4,16.927-70.205,16.925-25.783,0-51.057-5.784-70.343-16.918-20.073-11.59-30.539-27.127-30.572-43.259C2984.936,1424.277,2995.24,1408.827,3015.085,1397.294Z" transform="translate(-2977.538 -1372.934)" opacity="0.191"/>
        <path id="Path_819" data-name="Path 819" d="M3017.466,1400.059c19.077-11.086,44.165-16.788,69.686-16.785,25.5,0,50.625,5.7,69.807,16.776,19.786,11.423,30.007,26.657,30.04,42.336.032,15.6-10.03,30.755-29.6,42.125-19.071,11.083-44.155,16.784-69.674,16.781-25.5,0-50.627-5.7-69.81-16.776-19.786-11.424-30.008-26.659-30.041-42.338C2987.844,1426.576,2997.905,1411.427,3017.466,1400.059Z" transform="translate(-2979.386 -1374.782)" opacity="0.218"/>
        <path id="Path_820" data-name="Path 820" d="M3019.847,1402.825c18.973-11.026,43.915-16.645,69.155-16.642,25.218,0,50.2,5.618,69.274,16.633,19.5,11.257,29.475,26.189,29.509,41.415.033,15.153-9.785,30-29.068,41.209-18.968,11.023-43.905,16.641-69.143,16.637-25.219,0-50.2-5.618-69.277-16.633-19.5-11.258-29.476-26.191-29.51-41.417C2990.753,1428.875,3000.569,1414.028,3019.847,1402.825Z" transform="translate(-2981.233 -1376.63)" opacity="0.245"/>
        <path id="Path_821" data-name="Path 821" d="M3022.228,1405.591c18.87-10.966,43.665-16.5,68.624-16.5,24.936,0,49.766,5.535,68.74,16.491,19.211,11.092,28.944,25.722,28.979,40.494.034,14.7-9.541,29.252-28.54,40.293-18.865,10.963-43.656,16.5-68.612,16.493-24.937,0-49.767-5.535-68.744-16.491-19.212-11.092-28.945-25.723-28.979-40.5C2993.662,1431.175,3003.235,1416.629,3022.228,1405.591Z" transform="translate(-2983.081 -1378.478)" opacity="0.273"/>
        <path id="Path_822" data-name="Path 822" d="M3160.91,1408.35c37.762,21.8,37.952,57.148.436,78.951s-98.53,21.8-136.292,0-37.952-57.148-.445-78.945S3123.148,1386.548,3160.91,1408.35Z" transform="translate(-2984.929 -1380.325)" opacity="0.3"/>
      </g>
    </g>
    <g id="Group_743" data-name="Group 743" transform="translate(1075.986 3370.142)">
      <path id="Path_823" data-name="Path 823" d="M3189.211,1468.418c-.906,16.436-13.6,28.711-26.808,36.828-14.378,8.837-31.413,13.509-48.032,15.663a160.089,160.089,0,0,1-49.614-1.119c-16.285-3.039-32.5-8.337-46.166-17.928-10.625-7.454-20.141-18.2-21.805-31.538a32.72,32.72,0,0,1-.253-4.145l-.044,15.6c-.015,5.294-.41,10.767.141,16.047,1.055,10.107,6.788,19,14.048,25.852,9.381,8.852,21.333,14.943,33.478,19.04a156.07,156.07,0,0,0,78.629,5.013c13.236-2.585,26.221-6.669,37.976-13.391,10.764-6.155,20.891-14.847,25.77-26.51,2.758-6.593,2.677-13.288,2.7-20.245q.028-9.772.055-19.543l0-1.317C3189.284,1467.286,3189.243,1467.852,3189.211,1468.418Z" transform="translate(-2996.338 -1410.626)" fill="#252f40"/>
      <g id="Group_590" data-name="Group 590" transform="translate(0.195 0)">
        <path id="Path_824" data-name="Path 824" d="M3161.177,1330.274c37.762,21.8,37.952,57.148.436,78.95s-98.531,21.8-136.292,0-37.952-57.148-.445-78.946S3123.415,1308.472,3161.177,1330.274Z" transform="translate(-2996.872 -1313.925)" fill="#2d4e7f"/>
      </g>
      <g id="Group_591" data-name="Group 591" transform="translate(22.086 12.68)">
        <path id="Path_825" data-name="Path 825" d="M3183.854,1361.313c29.185,16.85,29.332,44.167.336,61.017s-76.15,16.85-105.334,0-29.331-44.168-.343-61.014S3154.668,1344.463,3183.854,1361.313Z" transform="translate(-3056.869 -1348.677)" fill="#fff"/>
      </g>
    </g>
    <g id="Group_744" data-name="Group 744" transform="translate(1171 3280.98)">
      <path id="Path_826" data-name="Path 826" d="M3258.2,1215.732a1.459,1.459,0,0,1-1.459-1.459V1071.019a1.459,1.459,0,1,1,2.919,0v143.254A1.459,1.459,0,0,1,3258.2,1215.732Z" transform="translate(-3256.744 -1069.559)" fill="#f07549"/>
    </g>
    <circle id="Ellipse_83" data-name="Ellipse 83" cx="9.194" cy="9.194" r="9.194" transform="matrix(0.23, -0.973, 0.973, 0.23, 1161.399, 3288.574)" fill="#252f40"/>
    <g id="Group_732" data-name="Group 732" transform="translate(98.9 3369.44)">
      <path id="Path_887" data-name="Path 887" d="M511.3,1466.494c-.906,16.436-13.6,28.711-26.808,36.828-14.378,8.838-31.413,13.509-48.032,15.662a160.077,160.077,0,0,1-49.613-1.118c-16.285-3.039-32.5-8.337-46.166-17.929-10.625-7.454-20.141-18.2-21.8-31.538a32.728,32.728,0,0,1-.253-4.145q-.022,7.8-.044,15.6c-.015,5.294-.409,10.768.142,16.047,1.054,10.107,6.788,19,14.048,25.852,9.38,8.852,21.333,14.942,33.477,19.039a156.072,156.072,0,0,0,78.629,5.013c13.236-2.585,26.221-6.67,37.976-13.391,10.764-6.155,20.891-14.847,25.77-26.51,2.758-6.593,2.677-13.288,2.7-20.245q.028-9.771.055-19.542,0-.659,0-1.318C511.375,1465.363,511.333,1465.928,511.3,1466.494Z" transform="translate(-318.429 -1408.702)" fill="#252f40"/>
      <g id="Group_614" data-name="Group 614" transform="translate(0.195 0)">
        <path id="Path_888" data-name="Path 888" d="M483.268,1328.35c37.762,21.8,37.952,57.148.436,78.951s-98.53,21.8-136.292,0-37.952-57.148-.444-78.945S445.506,1306.548,483.268,1328.35Z" transform="translate(-318.963 -1312.002)" fill="#2d4e7f"/>
      </g>
      <g id="Group_615" data-name="Group 615" transform="translate(22.086 12.68)">
        <path id="Path_889" data-name="Path 889" d="M505.944,1359.389c29.184,16.85,29.331,44.168.336,61.018s-76.15,16.85-105.334,0-29.331-44.168-.343-61.014S476.76,1342.539,505.944,1359.389Z" transform="translate(-378.96 -1346.754)" fill="#fff"/>
      </g>
    </g>
    <g id="Group_730" data-name="Group 730" transform="translate(193.914 3280.279)">
      <path id="Path_890" data-name="Path 890" d="M580.294,1213.81a1.459,1.459,0,0,1-1.459-1.46V1069.1a1.459,1.459,0,0,1,2.919,0V1212.35A1.459,1.459,0,0,1,580.294,1213.81Z" transform="translate(-578.835 -1067.637)" fill="#f07549"/>
    </g>
    <circle id="Ellipse_79" data-name="Ellipse 79" cx="9.194" cy="9.194" r="9.194" transform="matrix(0.661, -0.751, 0.751, 0.661, 182.397, 3282.566)" fill="#252f40"/>
  </g>
</svg>
