<svg xmlns="http://www.w3.org/2000/svg" width="94.417" height="91.722" viewBox="0 0 94.417 91.722">
    <defs>
        <style>
            .prefix__cls-1{fill:#252f40}.prefix__cls-2,.prefix__cls-3{fill:none;stroke:#252f40;stroke-width:3.5px}.prefix__cls-2{stroke-linecap:round;stroke-linejoin:round}.prefix__cls-3{stroke-miterlimit:10}
        </style>
    </defs>
    <g id="prefix__Group_91" data-name="Group 91" transform="translate(-555.027 -1630.369)">
        <g id="prefix__Group_87" data-name="Group 87">
            <path id="prefix__Path_51" d="M599.694 1686.619a1.388 1.388 0 0 0-1.389-1.389 1.372 1.372 0 0 0-1.3.954l-.017-.005-2.461 7.384h-7.332a1.389 1.389 0 1 0 0 2.778h9.334l3.094-9.282-.017-.006a1.286 1.286 0 0 0 .088-.434z" class="prefix__cls-1" data-name="Path 51"/>
            <g id="prefix__Group_86" data-name="Group 86">
                <path id="prefix__Path_52" d="M590.666 1688.008a2.778 2.778 0 0 0-2.778-2.778h-11.965l-3.522-9.577a4.153 4.153 0 0 0-3.957-2.924 7.432 7.432 0 0 0-1.863.441c-6.638 2.676-9.8 14.469-9.8 29.116a4.166 4.166 0 0 0 4.167 4.166h12.5v13.889h1.8" class="prefix__cls-2" data-name="Path 52"/>
                <circle id="prefix__Ellipse_12" cx="1.725" cy="1.725" r="1.725" class="prefix__cls-1" data-name="Ellipse 12" transform="translate(578.435 1718.616)"/>
                <circle id="prefix__Ellipse_13" cx="6.25" cy="6.25" r="6.25" class="prefix__cls-3" data-name="Ellipse 13" transform="translate(574.694 1660.596)"/>
            </g>
        </g>
        <circle id="prefix__Ellipse_14" cx="10.672" cy="10.672" r="10.672" data-name="Ellipse 14" transform="translate(593.627 1636.433)" style="fill:#3f73cc"/>
        <g id="prefix__Group_88" data-name="Group 88">
            <path id="prefix__Path_53" d="M597.924 1633.8a11.82 11.82 0 0 1 6.928-.257 11.685 11.685 0 0 1 8.385 8.514 11.892 11.892 0 0 1-16.831 13.5 10.479 10.479 0 0 1-5.054-4.916 12.212 12.212 0 0 1-.878-9.078 1.365 1.365 0 0 0-.633-1.592l-.023-.014a1.375 1.375 0 0 0-1.991.766 14.614 14.614 0 1 0 9.156-9.535 1.387 1.387 0 0 0-.766 1.915 1.383 1.383 0 0 0 1.707.697z" class="prefix__cls-1" data-name="Path 53"/>
            <path id="prefix__Path_54" d="M608.721 1639.4a1.388 1.388 0 0 0-2.372-.98l-3.184 3.183v-4.981a1.389 1.389 0 1 0-2.778 0v8.333a1.388 1.388 0 0 0 2.372.98l5.553-5.551a1.384 1.384 0 0 0 .409-.984z" class="prefix__cls-1" data-name="Path 54"/>
        </g>
        <circle id="prefix__Ellipse_15" cx="1.453" cy="1.453" r="1.453" class="prefix__cls-1" data-name="Ellipse 15" transform="translate(591.247 1633.777)"/>
        <g id="prefix__Group_90" data-name="Group 90">
            <path id="prefix__Path_55" d="M604.777 1686.619a1.388 1.388 0 0 1 1.389-1.389 1.372 1.372 0 0 1 1.3.954l.017-.005 2.461 7.384h7.332a1.389 1.389 0 1 1 0 2.778h-9.334l-3.094-9.282.017-.006a1.287 1.287 0 0 1-.088-.434z" class="prefix__cls-1" data-name="Path 55"/>
            <g id="prefix__Group_89" data-name="Group 89">
                <path id="prefix__Path_56" d="M613.8 1688.008a2.778 2.778 0 0 1 2.778-2.778h11.965l3.522-9.577a4.153 4.153 0 0 1 3.957-2.924 7.432 7.432 0 0 1 1.863.441c6.638 2.676 9.8 14.469 9.8 29.116a4.166 4.166 0 0 1-4.167 4.166h-12.5v13.889h-1.8" class="prefix__cls-2" data-name="Path 56"/>
                <circle id="prefix__Ellipse_16" cx="1.725" cy="1.725" r="1.725" class="prefix__cls-1" data-name="Ellipse 16" transform="translate(622.586 1718.616)"/>
                <circle id="prefix__Ellipse_17" cx="6.25" cy="6.25" r="6.25" class="prefix__cls-3" data-name="Ellipse 17" transform="translate(617.277 1660.596)"/>
            </g>
        </g>
    </g>
</svg>
