<svg xmlns="http://www.w3.org/2000/svg" width="20" height="20" viewBox="0 0 20 20">
    <path id="prefix__linkedin" d="M18.571 32H1.424A1.435 1.435 0 000 33.442v17.116A1.435 1.435 0 001.424 52h17.147A1.439 1.439 0 0020 50.558V33.442A1.439 1.439 0 0018.571 32zM6.045 49.143H3.08V39.6h2.969v9.545zM4.563 38.295a1.719 1.719 0 111.719-1.719 1.719 1.719 0 01-1.719 1.719zm12.593 10.848h-2.964V44.5c0-1.107-.022-2.531-1.54-2.531-1.545 0-1.781 1.205-1.781 2.451v4.723H7.906V39.6h2.844v1.3h.04a3.122 3.122 0 012.808-1.54c3 0 3.558 1.978 3.558 4.549z" transform="translate(0 -32)" style="fill:#fff"/>
</svg>
