<svg xmlns="http://www.w3.org/2000/svg" width="122.652" height="15.768" viewBox="0 0 122.652 15.768">
    <path id="prefix__Path_4" d="M9.918-8.73l1.242-2.61a9.678 9.678 0 00-5.04-1.422c-3.042 0-5.04 1.494-5.04 3.852 0 4.464 6.642 3.168 6.642 5.31 0 .666-.612 1.026-1.584 1.026a8.056 8.056 0 01-4.572-1.908L.288-1.908A9.48 9.48 0 006.1.108c2.808 0 5.076-1.314 5.076-3.888 0-4.536-6.642-3.348-6.642-5.436 0-.576.522-.864 1.314-.864a9.811 9.811 0 014.07 1.35zm15.246 8.3A4.124 4.124 0 0123 .5a1.992 1.992 0 01-1.476-.828 6.3 6.3 0 004.158-5.994c0-3.654-2.916-6.39-6.822-6.39s-6.822 2.718-6.822 6.39A6.472 6.472 0 0018.576.144a4.51 4.51 0 004.068 2.862 5.832 5.832 0 003.672-1.4zM15.426-6.3A3.517 3.517 0 0118.9-9.9a3.459 3.459 0 013.4 3.6 3.49 3.49 0 01-3.4 3.636A3.56 3.56 0 0115.426-6.3zm15.048 1.008v-7.326H27.18v7.326c0 3.33 2.286 5.436 5.85 5.436 3.546 0 5.778-2.106 5.778-5.436v-7.326h-3.294v7.326a2.39 2.39 0 01-2.466 2.628 2.461 2.461 0 01-2.574-2.628zM49.95 0h3.51l-5.292-12.618h-3.384L39.366 0h3.384l.882-2.232h5.454zm-5.328-4.752l1.764-4.5 1.728 4.5zm15.408-7.866h-5.436V0H59.9c4.086 0 6.84-2.556 6.84-6.318.004-3.744-2.714-6.3-6.71-6.3zm.09 9.954h-2.232v-7.272h2.07a3.384 3.384 0 013.42 3.654c0 2.16-1.35 3.618-3.258 3.618zm7.092-9.936L72.234 0h2.2l5.094-12.6H77.31L73.386-2.358 69.5-12.6zm19.588-.054A6.408 6.408 0 0080.118-6.3 6.448 6.448 0 0086.8.09a6.448 6.448 0 006.674-6.39 6.419 6.419 0 00-6.674-6.354zm.018 1.908A4.44 4.44 0 0191.3-6.3a4.471 4.471 0 01-4.482 4.482 4.517 4.517 0 01-4.54-4.482 4.475 4.475 0 014.536-4.446zm8.924-1.854V0h2.124v-12.6zM110.3-9.162l1.242-1.548a6.955 6.955 0 00-4.788-1.944 6.391 6.391 0 00-6.624 6.336A6.387 6.387 0 00106.686.09a7.153 7.153 0 004.878-2.07l-1.26-1.4a5.209 5.209 0 01-3.51 1.494 4.433 4.433 0 01-4.5-4.446 4.418 4.418 0 014.5-4.428 4.921 4.921 0 013.506 1.598zm3.42-3.438V0h9.216v-1.908h-7.092v-3.474H122v-1.89h-6.156v-3.42h6.876V-12.6z" data-name="Path 4" transform="translate(-.288 12.762)" style="fill:#fff"/>
</svg>
