<svg xmlns="http://www.w3.org/2000/svg" id="prefix__Group_273" width="72.175" height="67.844" data-name="Group 273" viewBox="0 0 72.175 67.844">
    <defs>
        <style>
            .prefix__cls-2{fill:#252f40}
        </style>
    </defs>
    <circle id="prefix__Ellipse_9" cx="18" cy="18" r="18" data-name="Ellipse 9" transform="translate(0 7.439)" style="fill:#3f73cc"/>
    <g id="prefix__Group_272" data-name="Group 272" transform="translate(4.722)">
        <path id="prefix__Path_204" d="M324.414 91.785c-2.736-11.082-14.833-28.44-28.142-40.379a9.967 9.967 0 0 0-6.115-2.743l-15.492-.285a5.37 5.37 0 0 0-4.689 4.369L268.012 63.4a3.542 3.542 0 0 0 2.221 3.959l2.694.726c.926 1.43 2.067 2.608 4.032 1.811l12.069-5.432c3.121 3.968 4.37 8.8 4.045 15.69-5.527-2.1-12.023-1.436-18.867 2.151a19.609 19.609 0 0 0-15.395-5.667 1.456 1.456 0 0 0 .228 2.9c5.219-.4 9.766 1.414 13.886 5.578a1.456 1.456 0 0 0 1.748.246c7.047-3.961 13.526-4.531 18.816-1.854a1.461 1.461 0 0 0 .452.238 19.861 19.861 0 0 1 7.555 7.886 1.456 1.456 0 1 0 2.533-1.437 23.031 23.031 0 0 0-8.12-8.674c.592-8.429-.85-14.232-4.747-19.06a17.106 17.106 0 0 0 .931-3.016 1.457 1.457 0 0 0-2.851-.6 13.931 13.931 0 0 1-.866 2.715L275.9 67.179a4.634 4.634 0 0 1-.789-1.1 1.452 1.452 0 0 0-.872-.661l-3.161-.849a.914.914 0 0 1-.186-.75l1.947-10.536a2.471 2.471 0 0 1 1.941-2l15.305.291a7.109 7.109 0 0 1 4.256 2.012c12.919 11.59 24.632 28.306 27.243 38.879a19.451 19.451 0 0 1-1.458 12.295c-19.792 8.356-35.639 9.743-48.44 4.242a1.458 1.458 0 0 0-1.246.046l-4.249 2.206a1.457 1.457 0 0 0 1.342 2.586l3.644-1.894a45.087 45.087 0 0 0 17.306 3.26c9.777 0 20.8-2.653 33.292-7.98a1.455 1.455 0 0 0 .733-.7 22.438 22.438 0 0 0 1.906-14.741z" class="prefix__cls-2" data-name="Path 204" transform="translate(-257.469 -48.378)"/>
        <path id="prefix__Path_205" d="M286.25 105.085q7.594 0 15.47-5.942A1.457 1.457 0 0 0 302 97.1a1.459 1.459 0 0 0-2.04-.285c-9.442 7.14-18.218 7.125-26.83-.038a1.424 1.424 0 0 0-1.065-.33 1.456 1.456 0 0 0-.8 2.57c4.867 4.047 9.872 6.069 14.985 6.068z" class="prefix__cls-2" data-name="Path 205" transform="translate(-257.469 -48.378)"/>
    </g>
    <g id="prefix__Group_8" data-name="Group 8" transform="translate(8.119 65.224)">
        <g id="prefix__Group_7" data-name="Group 7">
            <path id="prefix__Path_46" d="M263.1 113.986a1.31 1.31 0 1 0 .384.926 1.311 1.311 0 0 0-.384-.926z" class="prefix__cls-2" data-name="Path 46" transform="translate(-260.866 -113.602)"/>
        </g>
    </g>
</svg>
