<svg xmlns="http://www.w3.org/2000/svg" width="67.456" height="67.389" viewBox="0 0 67.456 67.389">
    <defs>
        <style>
            .prefix__cls-3{fill:#252f40}
        </style>
    </defs>
    <g id="prefix__Group_120" data-name="Group 120" transform="translate(-1063.653 -922.452)">
        <ellipse id="prefix__Ellipse_10" cx="7" cy="6.5" data-name="Ellipse 10" rx="7" ry="6.5" transform="translate(1070 929)" style="fill:#ecf92c"/>
        <path id="prefix__Path_73" d="M1093.75 1286.142s24.174-14.632 52.8 0c-7 7-9.224-3.181-14.95-1.908s-5.725 5.407-11.451 4.771-6.68-5.089-11.133-4.771-7 6.362-10.815 4.771-4.451-2.863-4.451-2.863z" data-name="Path 73" transform="translate(-22.329 -301.255)" style="fill:#cbcf49"/>
        <g id="prefix__Group_51" data-name="Group 51" transform="translate(1063.738 922.452)">
            <g id="prefix__Group_45" data-name="Group 45">
                <g id="prefix__Group_26" data-name="Group 26" transform="translate(5.635 5.635)">
                    <g id="prefix__Group_25" data-name="Group 25">
                        <path id="prefix__Path_55" d="M44.481 67.25a7.367 7.367 0 107.367 7.367 7.375 7.375 0 00-7.367-7.367zm0 12.449a5.082 5.082 0 115.082-5.082 5.088 5.088 0 01-5.082 5.083z" class="prefix__cls-3" data-name="Path 55" transform="translate(-37.114 -67.25)"/>
                    </g>
                </g>
                <g id="prefix__Group_28" data-name="Group 28" transform="translate(11.86)">
                    <g id="prefix__Group_27" data-name="Group 27">
                        <path id="prefix__Path_56" d="M79.255 30.135a1.142 1.142 0 00-1.143 1.143v2.3a1.143 1.143 0 102.285 0v-2.3a1.142 1.142 0 00-1.142-1.143z" class="prefix__cls-3" data-name="Path 56" transform="translate(-78.112 -30.135)"/>
                    </g>
                </g>
                <g id="prefix__Group_30" data-name="Group 30" transform="translate(18.62 3.474)">
                    <g id="prefix__Group_29" data-name="Group 29">
                        <path id="prefix__Path_57" d="M126.217 53.348a1.143 1.143 0 00-1.616 0l-1.625 1.625a1.143 1.143 0 001.616 1.616l1.625-1.625a1.143 1.143 0 000-1.616z" class="prefix__cls-3" data-name="Path 57" transform="translate(-122.641 -53.013)"/>
                    </g>
                </g>
                <g id="prefix__Group_32" data-name="Group 32" transform="translate(21.421 11.86)">
                    <g id="prefix__Group_31" data-name="Group 31">
                        <path id="prefix__Path_58" d="M144.528 108.247h-2.3a1.142 1.142 0 100 2.285h2.3a1.142 1.142 0 100-2.285z" class="prefix__cls-3" data-name="Path 58" transform="translate(-141.087 -108.247)"/>
                    </g>
                </g>
                <g id="prefix__Group_34" data-name="Group 34" transform="translate(18.62 18.62)">
                    <g id="prefix__Group_33" data-name="Group 33">
                        <path id="prefix__Path_59" d="M126.217 154.736l-1.625-1.625a1.143 1.143 0 10-1.616 1.616l1.625 1.625a1.143 1.143 0 101.616-1.616z" class="prefix__cls-3" data-name="Path 59" transform="translate(-122.641 -152.777)"/>
                    </g>
                </g>
                <g id="prefix__Group_36" data-name="Group 36" transform="translate(11.86 21.421)">
                    <g id="prefix__Group_35" data-name="Group 35">
                        <path id="prefix__Path_60" d="M79.255 171.222a1.142 1.142 0 00-1.143 1.143v2.3a1.143 1.143 0 102.285 0v-2.3a1.142 1.142 0 00-1.142-1.143z" class="prefix__cls-3" data-name="Path 60" transform="translate(-78.112 -171.222)"/>
                    </g>
                </g>
                <g id="prefix__Group_38" data-name="Group 38" transform="translate(3.473 18.62)">
                    <g id="prefix__Group_37" data-name="Group 37">
                        <path id="prefix__Path_61" d="M26.454 153.111a1.143 1.143 0 00-1.616 0l-1.625 1.625a1.143 1.143 0 001.616 1.616l1.625-1.625a1.143 1.143 0 000-1.616z" class="prefix__cls-3" data-name="Path 61" transform="translate(-22.878 -152.777)"/>
                    </g>
                </g>
                <g id="prefix__Group_40" data-name="Group 40" transform="translate(0 11.86)">
                    <g id="prefix__Group_39" data-name="Group 39">
                        <path id="prefix__Path_62" d="M3.441 108.247h-2.3a1.142 1.142 0 100 2.285h2.3a1.142 1.142 0 100-2.285z" class="prefix__cls-3" data-name="Path 62" transform="translate(0 -108.247)"/>
                    </g>
                </g>
                <g id="prefix__Group_42" data-name="Group 42" transform="translate(3.473 3.473)">
                    <g id="prefix__Group_41" data-name="Group 41">
                        <path id="prefix__Path_63" d="M26.454 54.973l-1.625-1.625a1.143 1.143 0 00-1.616 1.616l1.625 1.625a1.143 1.143 0 001.616-1.616z" class="prefix__cls-3" data-name="Path 63" transform="translate(-22.878 -53.013)"/>
                    </g>
                </g>
            </g>
            <g id="prefix__Group_44" data-name="Group 44" transform="translate(.232 14.604)">
                <g id="prefix__Group_43" data-name="Group 43">
                    <path id="prefix__Path_64" d="M68.112 131.062a9.205 9.205 0 00-5.676-1.586c-1.815-2.5-5.239-4.644-9.957-6.224a49.268 49.268 0 00-9.671-2.109l7.061-17.715a12.468 12.468 0 012.755 2.717 1.009 1.009 0 001.066.431 13.483 13.483 0 0112.917 5.179.986.986 0 001.773-.44 33.917 33.917 0 00-1.142-13.222.985.985 0 10-1.887.568 32.379 32.379 0 011.243 10.086 15.678 15.678 0 00-11.678-4.3l.048-.151a36.821 36.821 0 001.627-7.238 28.359 28.359 0 000-6.778 21.345 21.345 0 00-.845-3.844l-.009-.028a19.087 19.087 0 018.1 8.418.985.985 0 101.762-.883A21.149 21.149 0 0054.19 83.51c-7.049-2.81-14.39-1.885-21.216 2.672a34.049 34.049 0 00-8.208 7.75.985.985 0 00.984 1.538 13.487 13.487 0 0112.908 5.085 1.023 1.023 0 001.136.456 12.477 12.477 0 013.834-.071l-7.874 19.76c-.2 0-.4-.005-.6-.005a59.7 59.7 0 00-12.9 1.345.986.986 0 00.427 1.924 58.546 58.546 0 0112.475-1.3c2.055 0 4.112.1 6.158.3h.022a48.4 48.4 0 0110.516 2.157c3.757 1.258 6.657 2.916 8.359 4.753a9.307 9.307 0 00-2.464 1.188 7.225 7.225 0 01-8.151 0 9.186 9.186 0 00-10.364 0 7.225 7.225 0 01-8.151 0 9.186 9.186 0 00-10.364 0 7.225 7.225 0 01-8.151 0 9.3 9.3 0 00-2.464-1.188c1.7-1.835 3.876-2.931 7.625-4.189.516-.173.558-.65.385-1.166s-.5-.876-1.012-.7c-4.709 1.579-7.409 3.161-9.223 5.659a9.207 9.207 0 00-5.677 1.584.986.986 0 001.106 1.631 7.235 7.235 0 014.848-1.217.968.968 0 00.181.023 7.271 7.271 0 013.122 1.195 9.186 9.186 0 0010.364 0 7.225 7.225 0 018.151 0 9.186 9.186 0 0010.364 0 7.225 7.225 0 018.151 0 9.186 9.186 0 0010.364 0 7.271 7.271 0 013.119-1.194.973.973 0 00.193-.024 7.235 7.235 0 014.844 1.218.985.985 0 101.106-1.631zM41.131 98.876l.032-.067A35.435 35.435 0 0144.4 93.3a.985.985 0 10-1.6-1.155 36.717 36.717 0 00-2.694 4.365c-.289.546-.582 1.1-.83 1.666l-.013.027A15.681 15.681 0 0027.827 93.3a33.2 33.2 0 016.29-5.508 23.081 23.081 0 018.558-3.6 18.914 18.914 0 018.414.358l-.035.019a21.765 21.765 0 00-4.192 3.02c-.5.454-.982.921-1.447 1.408a.986.986 0 001.427 1.36 22.434 22.434 0 014.247-3.516 15.582 15.582 0 012.249-1.189 15.247 15.247 0 01.724 2.06 26.372 26.372 0 01-.174 13.175q-.336 1.379-.777 2.73l-.009.028a15.186 15.186 0 00-4.852-3.411l-.077-.034a15.422 15.422 0 00-7.042-1.324zm-.36 22.055q-.685-.059-1.38-.1c-.511-.035-1.024-.061-1.536-.082l7.729-19.392a13.834 13.834 0 011.379.476c.073.03 1.2.547 1.2.552z" data-name="Path 64" transform="translate(-1.772 -81.919)" style="stroke:#252f40;stroke-width:.5px;fill:#252f40"/>
                </g>
            </g>
        </g>
        <circle id="prefix__Ellipse_15" cx="1" cy="1" r="1" class="prefix__cls-3" data-name="Ellipse 15" transform="translate(1081 978)"/>
    </g>
</svg>
