<svg xmlns="http://www.w3.org/2000/svg" width="447.333" height="391.596" viewBox="0 0 447.333 391.596">
    <defs>
        <style>
            .prefix__cls-3{fill:#252f40}.prefix__cls-4{fill:#bcbcbc}.prefix__cls-5{fill:#d3d3d3}.prefix__cls-6{fill:#0b4656}.prefix__cls-7{fill:#063444}.prefix__cls-8{fill:#f07549}.prefix__cls-9{fill:#cc451b}.prefix__cls-10{fill:#ffdc79}.prefix__cls-11{fill:#fe5c99}.prefix__cls-12,.prefix__cls-55,.prefix__cls-66{fill:#fff}.prefix__cls-13{fill:#eaeaea}.prefix__cls-14{fill:#076d6d}.prefix__cls-14,.prefix__cls-19{opacity:.5}.prefix__cls-14,.prefix__cls-19,.prefix__cls-20,.prefix__cls-47,.prefix__cls-49,.prefix__cls-55,.prefix__cls-65,.prefix__cls-66{isolation:isolate}.prefix__cls-15{fill:#ededed}.prefix__cls-16{fill:#190b05}.prefix__cls-17{fill:#442312}.prefix__cls-19,.prefix__cls-20,.prefix__cls-21{fill:#defffe}.prefix__cls-20{opacity:.75}.prefix__cls-23{fill:#ffe1bd}.prefix__cls-25{fill:#232323}.prefix__cls-49{fill:#efefef}.prefix__cls-28{fill:#3a3a3a}.prefix__cls-29{fill:#2d2d2d}.prefix__cls-30{fill:#5d5d5d}.prefix__cls-32{fill:#713e23}.prefix__cls-33{fill:none;stroke:#381e1e;stroke-miterlimit:10;stroke-width:1.767px}.prefix__cls-34{fill:#474747}.prefix__cls-36{fill:#022636}.prefix__cls-41{fill:#9b5934}.prefix__cls-42{fill:#7f391b}.prefix__cls-43{fill:#934b32}.prefix__cls-44{fill:#682c17}.prefix__cls-47{fill:#e2e2e2}.prefix__cls-47,.prefix__cls-49{opacity:.39}.prefix__cls-50{fill:#dbdbdb}.prefix__cls-55{opacity:.2}.prefix__cls-65{opacity:.3;fill:#c9d4fe}.prefix__cls-66{opacity:.1}.prefix__cls-67{fill:#00e0c1}.prefix__cls-68{fill:#02f5d0}
        </style>
    </defs>
    <g id="prefix__Group_766" data-name="Group 766" transform="translate(-781 -1295.787)">
        <g id="prefix__Group_522" data-name="Group 522" transform="translate(781 1342.252)">
            <path id="prefix__Path_3" d="M536.618 289.692c-7.74-21.579-19.928-28.147-31.521-41.987-14.158-16.9-23.708-29.193-20.032-50.936 6.007-35.53 8.579-124.141-85.483-112.559-33.714 4.151-60.355 29.987-79.737 55.776-16.492 21.945-46.157 23.881-70.036 29-29.338 6.285-59.225 15.781-86.369 29.693-55.9 28.653-72.6 69.844-70.322 122.547.689 15.922 2.942 41 29.84 70.351 36.3 39.61 89.058 44.915 152.551 26.724 14.534-4.164 28.272-10.695 42.568-15.611a200.89 200.89 0 0145.943-9.976c36.467-3.526 74.269 2.851 109.252-8.037a115.264 115.264 0 0048.863-30.3c16.708-17.508 22.652-41.91 14.483-64.685z" data-name="Path 3" transform="translate(-92.917 -83.174)" style="opacity:.11;fill:#252f40"/>
            <path id="prefix__Path_4" d="M364.782 169.786c-6.363-17.741-16.383-23.14-25.914-34.519-11.64-13.9-19.491-24-16.469-41.876C327.337 64.18 329.451-8.671 252.12.852c-27.72 3.412-49.62 24.653-65.555 45.855-13.559 18.041-37.947 19.633-57.579 23.839-24.12 5.168-48.686 12.974-71.007 24.412C12.019 118.515-1.708 152.379.165 195.709c.567 13.09 2.419 33.71 24.532 57.838 29.847 32.565 73.218 36.927 125.418 21.971 11.949-3.423 23.243-8.793 35-12.834a165.161 165.161 0 0137.771-8.2c29.981-2.9 61.059 2.344 89.82-6.608a94.763 94.763 0 0040.172-24.914c13.734-14.391 18.622-34.452 11.904-53.176z" data-name="Path 4" transform="rotate(5.13 -184.668 655.962)" style="opacity:.21;fill:#252f40"/>
            <path id="prefix__Path_5" d="M319.768 148.834c-5.578-15.552-14.362-20.285-22.717-30.26-10.2-12.183-17.086-21.039-14.437-36.709C286.944 56.26 288.8-7.6 221.009.747c-24.3 2.992-43.5 21.611-57.466 40.2-11.886 15.815-33.264 17.21-50.474 20.9-21.144 4.53-42.682 11.373-62.245 21.4C10.536 103.89-1.5 133.576.145 171.558c.5 11.475 2.12 29.55 21.5 50.7 26.164 28.547 64.183 32.37 109.941 19.259 10.474-3 20.375-7.708 30.678-11.251a144.778 144.778 0 0133.11-7.189c26.281-2.541 53.525 2.055 78.736-5.792a83.069 83.069 0 0035.215-21.84c12.047-12.612 16.33-30.197 10.443-46.611z" class="prefix__cls-3" data-name="Path 5" transform="rotate(5.13 -436.227 909.815)"/>
        </g>
        <g id="prefix__Group_523" data-name="Group 523" transform="translate(866.243 1295.787)">
            <g id="prefix__Group_815" data-name="Group 815" transform="translate(103.729 45.948)">
                <path id="prefix__Path_2533" d="M1015.956 211.853l-1.032.62c-1.531.923-2.636.121-2.219-1.6v-.007h-.006c.193-.864.092-1.648-1.126-1.864a1.885 1.885 0 00-1.3.334 5.167 5.167 0 00-2.342 3.829 2.039 2.039 0 00.071.521H1008c.421 1.221-.686 3.352-2.214 4.273l-1.033.621a4.559 4.559 0 00-2.136 3.42v.4l15.479-9.3v-.386c-.005-1.189-.961-1.574-2.14-.861zm-5.6 1.114c-.7.42-1.261.2-1.261-.5a2.689 2.689 0 011.261-2.02c.7-.42 1.261-.195 1.261.5a2.686 2.686 0 01-1.262 2.013z" class="prefix__cls-4" data-name="Path 2533" transform="translate(-991.526 -207.815)"/>
                <path id="prefix__Path_2534" d="M1009.792 209.674l-37.65 22.626v-.967c0-2.869 2.326-6.593 5.2-8.317l27.261-16.38c2.869-1.724 5.2-.8 5.2 2.073z" class="prefix__cls-5" data-name="Path 2534" transform="translate(-972.142 -205.766)"/>
            </g>
            <g id="prefix__Group_816" data-name="Group 816" transform="translate(75.473 35.11)">
                <path id="prefix__Path_2535" d="M985.975 177.073l-2.32-.95-.008.015a1.982 1.982 0 00-1.8.145L897.2 228.3a5.663 5.663 0 00-2.7 4.824v137.951a2.333 2.333 0 001.207 2.057 2.38 2.38 0 00.519.214l1.771.726.705-1.363 84.023-51.64a4.638 4.638 0 002.209-3.95v-139.1a2.009 2.009 0 00-.138-.7l.89.253z" class="prefix__cls-6" data-name="Path 2535" transform="translate(-894.506 -175.987)"/>
                <path id="prefix__Path_2536" d="M990.984 180.46v139.109a4.636 4.636 0 01-2.209 3.95l-84.632 52.011a2.357 2.357 0 01-3.591-2.008V235.579a5.661 5.661 0 012.7-4.824l84.648-52.022a2.029 2.029 0 013.089 1.727z" class="prefix__cls-7" data-name="Path 2536" transform="translate(-898.351 -177.544)"/>
                <path id="prefix__Path_2537" d="M993.287 192.007v134.829a1.736 1.736 0 01-.83 1.477l-82.222 50.533a.79.79 0 01-1.2-.674v-134.62a2.525 2.525 0 011.2-2.151l81.646-50.179a.922.922 0 011.411.786z" class="prefix__cls-8" data-name="Path 2537" transform="translate(-903.744 -185.588)"/>
            </g>
            <g id="prefix__Group_819" data-name="Group 819" transform="translate(86.913 47.186)">
                <path id="prefix__Path_2538" d="M957.366 290.816v50.292a.646.646 0 01-.308.554l-30.67 18.848a.3.3 0 01-.449-.252v-50.215a.942.942 0 01.448-.8l30.458-18.716a.344.344 0 01.52.292z" class="prefix__cls-9" data-name="Path 2538" transform="translate(-925.939 -260.884)"/>
                <path id="prefix__Path_2539" d="M957.366 455.075v4.825a.645.645 0 01-.308.554l-30.67 18.846a.3.3 0 01-.449-.252V474.3a.941.941 0 01.448-.8l30.458-18.719a.344.344 0 01.52.293z" class="prefix__cls-9" data-name="Path 2539" transform="translate(-925.939 -365.36)"/>
                <path id="prefix__Path_2540" d="M959.779 411.6v3.835a.516.516 0 01-.244.439l-24.4 14.995a.235.235 0 01-.358-.2V426.9a.751.751 0 01.357-.638l24.227-14.89a.277.277 0 01.378.1.274.274 0 01.04.128z" class="prefix__cls-3" data-name="Path 2540" transform="translate(-931.562 -337.756)"/>
                <path id="prefix__Path_2541" d="M957.366 482.55v4.82a.645.645 0 01-.308.554l-30.669 18.849a.3.3 0 01-.449-.252v-4.743a.941.941 0 01.448-.8l30.458-18.72a.344.344 0 01.52.3z" class="prefix__cls-9" data-name="Path 2541" transform="translate(-925.939 -382.835)"/>
                <path id="prefix__Path_2542" d="M950.387 521.8v4.821a.645.645 0 01-.308.554l-23.69 14.564a.295.295 0 01-.449-.252v-4.747a.942.942 0 01.448-.8l23.477-14.44a.344.344 0 01.521.293z" class="prefix__cls-9" data-name="Path 2542" transform="translate(-925.939 -407.799)"/>
                <path id="prefix__Path_2543" d="M1061.523 437.959v4.821a.645.645 0 01-.308.554l-23.694 14.566a.3.3 0 01-.449-.252V452.9a.941.941 0 01.448-.8l23.48-14.433a.344.344 0 01.473.114.34.34 0 01.05.178z" class="prefix__cls-9" data-name="Path 2543" transform="translate(-996.626 -354.474)"/>
                <path id="prefix__Path_2544" d="M1061.523 476.984v4.821a.645.645 0 01-.308.554l-23.693 14.566a.3.3 0 01-.449-.252v-4.746a.942.942 0 01.448-.8L1061 476.691a.344.344 0 01.524.293z" class="prefix__cls-9" data-name="Path 2544" transform="translate(-996.626 -379.295)"/>
                <path id="prefix__Path_2545" d="M957.366 537.5v4.824a.645.645 0 01-.308.554l-30.669 18.849a.3.3 0 01-.449-.252v-4.743a.942.942 0 01.448-.8l30.458-18.722a.345.345 0 01.52.294z" class="prefix__cls-9" data-name="Path 2545" transform="translate(-925.939 -417.79)"/>
                <path id="prefix__Path_2546" d="M939.882 620.751v6.988a.938.938 0 01-.447.8l-6.5 3.95a.427.427 0 01-.651-.369v-6.876a1.364 1.364 0 01.646-1.163l6.192-3.759a.5.5 0 01.762.429z" class="prefix__cls-9" data-name="Path 2546" transform="translate(-929.973 -470.636)"/>
                <path id="prefix__Path_2547" d="M969.444 602.683v6.988a.938.938 0 01-.447.8l-6.5 3.95a.427.427 0 01-.651-.369v-6.876a1.365 1.365 0 01.646-1.163l6.192-3.759a.5.5 0 01.762.429z" class="prefix__cls-10" data-name="Path 2547" transform="translate(-948.776 -459.144)"/>
                <path id="prefix__Path_2548" d="M999.005 584.622v6.988a.94.94 0 01-.447.8l-6.5 3.95a.428.428 0 01-.651-.369v-6.877a1.365 1.365 0 01.65-1.163l6.192-3.759a.5.5 0 01.759.429z" class="prefix__cls-11" data-name="Path 2548" transform="translate(-967.578 -447.657)"/>
                <path id="prefix__Path_2549" d="M1052.247 244.613v1.834a.646.646 0 01-.308.554l-20.539 12.631a.295.295 0 01-.449-.252v-1.753a.942.942 0 01.448-.8l20.324-12.5a.343.343 0 01.524.287z" class="prefix__cls-9" data-name="Path 2549" transform="translate(-992.732 -231.497)"/>
                <path id="prefix__Path_2550" d="M1044.705 271.964v1.836a.646.646 0 01-.308.554l-13 8.038a.295.295 0 01-.449-.252v-1.753a.942.942 0 01.448-.8l12.783-7.905a.344.344 0 01.524.288z" class="prefix__cls-9" data-name="Path 2550" transform="translate(-992.732 -248.894)"/>
                <path id="prefix__Path_2551" d="M1062.377 256.985v1.834a.647.647 0 01-.308.554l-30.669 18.849a.3.3 0 01-.449-.252v-1.753a.942.942 0 01.448-.8l30.454-18.716a.345.345 0 01.524.287z" class="prefix__cls-9" data-name="Path 2551" transform="translate(-992.732 -239.367)"/>
                <path id="prefix__Path_2552" d="M1059.643 276.2v1.834a.646.646 0 01-.308.554L1031.4 295.8a.295.295 0 01-.45-.252V293.8a.942.942 0 01.448-.8l27.721-17.085a.344.344 0 01.524.287z" class="prefix__cls-9" data-name="Path 2552" transform="translate(-992.732 -251.587)"/>
                <path id="prefix__Path_2553" d="M1047.456 311.6v1.834a.646.646 0 01-.309.554l-15.747 9.692a.3.3 0 01-.449-.252v-1.753a.941.941 0 01.448-.8l15.533-9.561a.344.344 0 01.525.287z" class="prefix__cls-9" data-name="Path 2553" transform="translate(-992.732 -274.104)"/>
                <path id="prefix__Path_2554" d="M1062.377 301.153v1.834a.646.646 0 01-.308.554l-30.669 18.848a.295.295 0 01-.449-.252v-1.763a.942.942 0 01.448-.8l30.454-18.716a.345.345 0 01.524.3z" class="prefix__cls-9" data-name="Path 2554" transform="translate(-992.732 -267.454)"/>
                <path id="prefix__Path_2555" d="M1062.377 315.9v1.834a.646.646 0 01-.308.554l-30.669 18.849a.3.3 0 01-.449-.252v-1.753a.942.942 0 01.448-.8l30.454-18.716a.344.344 0 01.524.287z" class="prefix__cls-9" data-name="Path 2555" transform="translate(-992.732 -276.84)"/>
                <path id="prefix__Path_2556" d="M1055.018 343.136v1.834a.646.646 0 01-.308.554l-23.311 14.3a.295.295 0 01-.449-.252v-1.752a.942.942 0 01.448-.8l23.095-14.166a.344.344 0 01.525.284z" class="prefix__cls-9" data-name="Path 2556" transform="translate(-992.732 -294.165)"/>
                <path id="prefix__Path_2557" d="M1062.377 345.355v1.834a.646.646 0 01-.308.554l-30.669 18.849a.295.295 0 01-.449-.252v-1.753a.942.942 0 01.448-.8l30.454-18.716a.345.345 0 01.524.287z" class="prefix__cls-9" data-name="Path 2557" transform="translate(-992.732 -295.576)"/>
                <path id="prefix__Path_2558" d="M1062.377 360.065v1.835a.647.647 0 01-.308.554L1031.4 381.3a.3.3 0 01-.449-.252v-1.763a.942.942 0 01.448-.8l30.454-18.716a.345.345 0 01.524.3z" class="prefix__cls-9" data-name="Path 2558" transform="translate(-992.732 -304.925)"/>
                <g id="prefix__Group_817" data-name="Group 817" transform="translate(3.214 49.164)">
                    <path id="prefix__Path_2559" d="M965.245 347.116c0 2.852-2.312 8.685-5.167 10.467s-5.167-1.162-5.167-4.014 2.311-6.609 5.167-8.39 5.167-.915 5.167 1.937z" class="prefix__cls-12" data-name="Path 2559" transform="translate(-947.58 -344.253)"/>
                    <path id="prefix__Path_2560" d="M959.773 383.915v.84l-25 15.622v-.84c0-6.9 5.6-16 12.5-20.311 3.453-2.159 6.578-2.712 8.839-1.864s3.661 3.103 3.661 6.553z" class="prefix__cls-12" data-name="Path 2560" transform="translate(-934.769 -365.071)"/>
                </g>
                <g id="prefix__Group_818" data-name="Group 818" transform="translate(19.392)">
                    <path id="prefix__Path_2561" d="M1016.876 213.074L979.223 235.7v-.967c0-2.869 2.326-6.593 5.2-8.317l27.264-16.378c2.869-1.724 5.2-.8 5.2 2.073z" class="prefix__cls-12" data-name="Path 2561" transform="translate(-979.223 -209.168)"/>
                    <path id="prefix__Path_2562" d="M1023.034 215.25l-1.032.62c-1.531.923-2.636.121-2.219-1.6v-.007h-.005c.193-.864.092-1.648-1.126-1.864a1.885 1.885 0 00-1.3.334 5.167 5.167 0 00-2.342 3.829 2.031 2.031 0 00.071.521h-.005c.421 1.222-.686 3.352-2.214 4.273l-1.033.621a4.56 4.56 0 00-2.136 3.42v.4l15.478-9.3v-.387c-.001-1.188-.959-1.573-2.137-.86zm-5.6 1.114c-.7.42-1.261.2-1.261-.5a2.689 2.689 0 011.261-2.02c.7-.42 1.261-.195 1.261.5a2.688 2.688 0 01-1.264 2.019z" class="prefix__cls-13" data-name="Path 2562" transform="translate(-998.605 -211.214)"/>
                </g>
                <path id="prefix__Path_2563" d="M1093.964 286.241v1.834a.647.647 0 01-.308.554l-12.595 7.822a.3.3 0 01-.45-.252v-1.753a.943.943 0 01.448-.8l12.379-7.69a.344.344 0 01.474.112.349.349 0 01.052.173z" class="prefix__cls-9" data-name="Path 2563" transform="translate(-1024.319 -257.975)"/>
            </g>
            <g id="prefix__Group_821" data-name="Group 821" transform="translate(198.395 21.154)">
                <path id="prefix__Path_2564" d="M1262.567 141.857l-.714.429c-1.059.636-1.823.084-1.534-1.107.133-.6.061-1.139-.78-1.292a1.292 1.292 0 00-.9.23 3.57 3.57 0 00-1.62 2.649 1.415 1.415 0 00.049.361c.291.844-.474 2.318-1.533 2.952l-.714.43a3.154 3.154 0 00-1.476 2.365v.277l10.7-6.433v-.277c0-.811-.661-1.075-1.478-.584zm-3.875.77c-.484.291-.873.135-.873-.345a1.859 1.859 0 01.873-1.4c.484-.291.873-.135.873.349a1.859 1.859 0 01-.874 1.393z" class="prefix__cls-4" data-name="Path 2564" transform="translate(-1245.671 -139.064)"/>
                <path id="prefix__Path_2565" d="M1258.3 140.342l-26.043 15.648v-.668a7.675 7.675 0 013.6-5.753l18.856-11.33c1.983-1.192 3.593-.554 3.593 1.434z" class="prefix__cls-5" data-name="Path 2565" transform="translate(-1232.253 -137.64)"/>
            </g>
            <g id="prefix__Group_822" data-name="Group 822" transform="translate(178.854 13.656)">
                <path id="prefix__Path_2566" d="M1241.825 117.789l-1.6-.656v.01a1.375 1.375 0 00-1.244.1l-58.545 35.984a3.917 3.917 0 00-1.865 3.336v95.413a1.613 1.613 0 00.831 1.423 1.647 1.647 0 00.36.148l1.224.5.487-.943 58.115-35.718a3.207 3.207 0 001.528-2.732v-96.213a1.378 1.378 0 00-.092-.486l.616.175z" class="prefix__cls-6" data-name="Path 2566" transform="translate(-1178.561 -117.04)"/>
                <path id="prefix__Path_2567" d="M1245.286 120.134v96.215a3.206 3.206 0 01-1.527 2.732l-58.538 35.977a1.631 1.631 0 01-2.484-1.388v-95.412a3.917 3.917 0 011.866-3.336l58.546-35.984a1.4 1.4 0 012.137 1.2z" class="prefix__cls-7" data-name="Path 2567" transform="translate(-1181.217 -118.115)"/>
                <path id="prefix__Path_2568" d="M1246.889 128.124v93.256a1.2 1.2 0 01-.572 1.023l-56.869 34.951a.547.547 0 01-.83-.461v-93.118a1.746 1.746 0 01.83-1.487l56.469-34.71a.637.637 0 01.971.546z" class="prefix__cls-8" data-name="Path 2568" transform="translate(-1184.958 -123.682)"/>
            </g>
            <g id="prefix__Group_825" data-name="Group 825" transform="translate(186.764 22.011)">
                <path id="prefix__Path_2569" d="M1222.032 196.464v34.784a.448.448 0 01-.214.382l-21.212 13.037a.2.2 0 01-.311-.174v-34.731a.646.646 0 01.31-.554l21.063-12.947a.238.238 0 01.364.2z" class="prefix__cls-9" data-name="Path 2569" transform="translate(-1200.295 -175.761)"/>
                <path id="prefix__Path_2570" d="M1222.032 310.075v3.334a.446.446 0 01-.214.381l-21.212 13.037a.2.2 0 01-.311-.174v-3.28a.651.651 0 01.31-.554l21.063-12.946a.238.238 0 01.364.2z" class="prefix__cls-9" data-name="Path 2570" transform="translate(-1200.295 -248.024)"/>
                <path id="prefix__Path_2571" d="M1223.7 280.007v2.652a.357.357 0 01-.169.3l-16.876 10.372a.162.162 0 01-.247-.138v-2.608a.519.519 0 01.247-.441l16.758-10.3a.184.184 0 01.287.159z" class="prefix__cls-3" data-name="Path 2571" transform="translate(-1204.182 -228.929)"/>
                <path id="prefix__Path_2572" d="M1222.032 329.08v3.335a.448.448 0 01-.214.382l-21.212 13.036a.2.2 0 01-.311-.173v-3.281a.651.651 0 01.31-.554l21.065-12.948a.238.238 0 01.362.2z" class="prefix__cls-9" data-name="Path 2572" transform="translate(-1200.295 -260.111)"/>
                <path id="prefix__Path_2573" d="M1217.211 356.224v3.334a.449.449 0 01-.213.382l-16.386 10.074a.2.2 0 01-.281-.067.206.206 0 01-.031-.108v-3.283a.651.651 0 01.31-.554l16.239-9.983a.239.239 0 01.362.2z" class="prefix__cls-9" data-name="Path 2573" transform="translate(-1200.298 -277.377)"/>
                <path id="prefix__Path_2574" d="M1294.072 298.237v3.335a.447.447 0 01-.213.381l-16.387 10.074a.2.2 0 01-.311-.174v-3.28a.646.646 0 01.311-.554l16.239-9.983a.237.237 0 01.362.2z" class="prefix__cls-9" data-name="Path 2574" transform="translate(-1249.186 -240.495)"/>
                <path id="prefix__Path_2575" d="M1294.072 325.233v3.334a.45.45 0 01-.213.381l-16.387 10.074a.2.2 0 01-.311-.174v-3.28a.646.646 0 01.311-.554l16.239-9.983a.237.237 0 01.362.2z" class="prefix__cls-9" data-name="Path 2575" transform="translate(-1249.186 -257.666)"/>
                <path id="prefix__Path_2576" d="M1222.032 367.1v3.334a.448.448 0 01-.214.382l-21.212 13.037a.2.2 0 01-.311-.175V380.4a.653.653 0 01.31-.554l21.063-12.946a.238.238 0 01.364.2z" class="prefix__cls-9" data-name="Path 2576" transform="translate(-1200.295 -284.297)"/>
                <path id="prefix__Path_2577" d="M1209.938 424.676v4.834a.645.645 0 01-.309.554l-4.5 2.733a.3.3 0 01-.45-.252v-4.758a.943.943 0 01.449-.8l4.282-2.6a.345.345 0 01.526.293z" class="prefix__cls-9" data-name="Path 2577" transform="translate(-1203.085 -320.848)"/>
                <path id="prefix__Path_2578" d="M1230.387 412.177v4.831a.652.652 0 01-.309.554l-4.5 2.732a.295.295 0 01-.45-.252v-4.755a.944.944 0 01.449-.8l4.282-2.6a.345.345 0 01.475.113.341.341 0 01.053.177z" class="prefix__cls-10" data-name="Path 2578" transform="translate(-1216.091 -312.897)"/>
                <path id="prefix__Path_2579" d="M1250.833 399.687v4.833a.644.644 0 01-.309.554l-4.5 2.732a.3.3 0 01-.407-.1.3.3 0 01-.044-.155V402.8a.946.946 0 01.451-.8l4.284-2.6a.345.345 0 01.524.294z" class="prefix__cls-11" data-name="Path 2579" transform="translate(-1229.095 -304.954)"/>
                <path id="prefix__Path_2580" d="M1287.655 164.5v1.269a.446.446 0 01-.213.381l-14.209 8.737a.2.2 0 01-.28-.067.2.2 0 01-.031-.107V173.5a.649.649 0 01.31-.554l14.057-8.646a.238.238 0 01.366.2z" class="prefix__cls-9" data-name="Path 2580" transform="translate(-1246.49 -155.429)"/>
                <path id="prefix__Path_2581" d="M1282.443 183.423v1.269a.448.448 0 01-.214.382l-8.989 5.559a.2.2 0 01-.311-.174v-1.214a.646.646 0 01.31-.554l8.84-5.469a.238.238 0 01.363.2z" class="prefix__cls-9" data-name="Path 2581" transform="translate(-1246.495 -167.467)"/>
                <path id="prefix__Path_2582" d="M1294.666 173.06v1.268a.449.449 0 01-.213.382l-21.212 13.037a.2.2 0 01-.311-.175v-1.215a.646.646 0 01.31-.554l21.063-12.947a.238.238 0 01.363.2z" class="prefix__cls-9" data-name="Path 2582" transform="translate(-1246.495 -160.875)"/>
                <path id="prefix__Path_2583" d="M1292.776 186.349v1.266a.446.446 0 01-.213.381l-19.321 11.909a.2.2 0 01-.311-.174v-1.212a.652.652 0 01.31-.554l19.172-11.817a.238.238 0 01.362.2z" class="prefix__cls-9" data-name="Path 2583" transform="translate(-1246.496 -169.329)"/>
                <path id="prefix__Path_2584" d="M1284.346 210.84v1.269a.449.449 0 01-.213.382l-10.892 6.7a.2.2 0 01-.311-.174v-1.215a.651.651 0 01.31-.554l10.743-6.613a.238.238 0 01.328.078.243.243 0 01.035.127z" class="prefix__cls-9" data-name="Path 2584" transform="translate(-1246.495 -184.906)"/>
                <path id="prefix__Path_2585" d="M1294.666 203.624v1.269a.447.447 0 01-.213.381l-21.212 13.037a.2.2 0 01-.281-.067.2.2 0 01-.03-.108v-1.215a.651.651 0 01.31-.554l21.063-12.946a.238.238 0 01.363.2z" class="prefix__cls-9" data-name="Path 2585" transform="translate(-1246.495 -180.315)"/>
                <path id="prefix__Path_2586" d="M1294.666 213.809v1.269a.448.448 0 01-.213.382l-21.212 13.04a.2.2 0 01-.281-.067.2.2 0 01-.03-.108v-1.215a.65.65 0 01.31-.554l21.063-12.946a.238.238 0 01.327.079.233.233 0 01.036.12z" class="prefix__cls-9" data-name="Path 2586" transform="translate(-1246.495 -186.794)"/>
                <path id="prefix__Path_2587" d="M1289.577 232.644v1.27a.448.448 0 01-.214.381l-16.122 9.889a.2.2 0 01-.311-.174v-1.215a.646.646 0 01.31-.554l15.974-9.8a.236.236 0 01.326.076.233.233 0 01.037.127z" class="prefix__cls-9" data-name="Path 2587" transform="translate(-1246.495 -198.774)"/>
                <path id="prefix__Path_2588" d="M1294.666 234.184v1.269a.448.448 0 01-.213.382l-21.212 13.037a.2.2 0 01-.281-.067.2.2 0 01-.03-.108v-1.215a.651.651 0 01.31-.554l21.063-12.946a.238.238 0 01.327.079.233.233 0 01.036.123z" class="prefix__cls-9" data-name="Path 2588" transform="translate(-1246.495 -199.754)"/>
                <path id="prefix__Path_2589" d="M1294.666 244.373v1.269a.447.447 0 01-.213.381l-21.212 13.037a.2.2 0 01-.281-.066.207.207 0 01-.03-.107v-1.215a.651.651 0 01.31-.554l21.063-12.946a.238.238 0 01.327.078.235.235 0 01.036.123z" class="prefix__cls-9" data-name="Path 2589" transform="translate(-1246.495 -206.234)"/>
                <g id="prefix__Group_823" data-name="Group 823" transform="translate(2.223 34.004)">
                    <path id="prefix__Path_2590" d="M1227.489 235.408c0 1.973-1.6 6.007-3.572 7.24s-3.571-.8-3.571-2.776a7.86 7.86 0 013.571-5.8c1.973-1.237 3.572-.638 3.572 1.336z" class="prefix__cls-12" data-name="Path 2590" transform="translate(-1215.271 -233.427)"/>
                    <path id="prefix__Path_2591" d="M1223.695 260.858v.58l-17.295 10.805v-.581c0-4.776 3.875-11.065 8.646-14.049 2.389-1.494 4.55-1.875 6.114-1.292s2.535 2.151 2.535 4.537z" class="prefix__cls-12" data-name="Path 2591" transform="translate(-1206.402 -247.824)"/>
                </g>
                <g id="prefix__Group_824" data-name="Group 824" transform="translate(13.414)">
                    <path id="prefix__Path_2592" d="M1263.194 142.7l-26.043 15.648v-.668a7.678 7.678 0 013.593-5.753l18.855-11.329c1.984-1.192 3.6-.554 3.6 1.434z" class="prefix__cls-12" data-name="Path 2592" transform="translate(-1237.151 -139.995)"/>
                    <path id="prefix__Path_2593" d="M1267.464 144.209l-.715.43c-1.058.635-1.823.083-1.534-1.108.134-.6.061-1.139-.779-1.292a1.3 1.3 0 00-.9.231 3.568 3.568 0 00-1.619 2.648 1.369 1.369 0 00.049.361c.292.844-.474 2.319-1.533 2.953l-.715.429a3.157 3.157 0 00-1.476 2.365v.277l10.7-6.433v-.277c-.001-.813-.663-1.074-1.478-.584zm-3.875.77c-.483.291-.873.136-.873-.344a1.862 1.862 0 01.873-1.4c.483-.29.873-.135.873.348a1.858 1.858 0 01-.874 1.393z" class="prefix__cls-13" data-name="Path 2593" transform="translate(-1250.567 -141.417)"/>
                </g>
                <path id="prefix__Path_2594" d="M1316.513 193.3v1.264a.449.449 0 01-.213.382l-8.711 5.41a.2.2 0 01-.311-.174v-1.214a.647.647 0 01.31-.554l8.562-5.32a.238.238 0 01.363.206z" class="prefix__cls-9" data-name="Path 2594" transform="translate(-1268.342 -173.749)"/>
            </g>
            <g id="prefix__Group_827" data-name="Group 827" transform="translate(19.543 130.694)">
                <path id="prefix__Path_2595" d="M771.141 442.822l-.714.429c-1.059.636-1.824.084-1.534-1.107.133-.6.061-1.138-.78-1.292a1.3 1.3 0 00-.9.23 3.573 3.573 0 00-1.619 2.649 1.428 1.428 0 00.049.361c.292.844-.474 2.318-1.533 2.952l-.714.43a3.154 3.154 0 00-1.476 2.365v.277l10.7-6.433v-.277c-.001-.806-.663-1.079-1.479-.584zm-3.875.77c-.483.291-.873.135-.873-.345a1.859 1.859 0 01.873-1.4c.483-.29.873-.135.873.348a1.858 1.858 0 01-.874 1.393z" class="prefix__cls-4" data-name="Path 2595" transform="translate(-754.245 -440.035)"/>
                <path id="prefix__Path_2596" d="M766.87 441.318l-26.043 15.653v-.671a7.675 7.675 0 013.6-5.753l18.855-11.33c1.984-1.192 3.593-.554 3.593 1.435z" class="prefix__cls-5" data-name="Path 2596" transform="translate(-740.827 -438.62)"/>
            </g>
            <g id="prefix__Group_828" data-name="Group 828" transform="translate(0 123.195)">
                <path id="prefix__Path_2597" d="M750.4 418.764l-1.6-.656v.01a1.375 1.375 0 00-1.244.1L689 454.2a3.914 3.914 0 00-1.866 3.336v95.411a1.614 1.614 0 00.83 1.423 1.659 1.659 0 00.36.148l1.224.5.487-.943 58.115-35.718a3.206 3.206 0 001.527-2.732v-96.211a1.4 1.4 0 00-.092-.485l.616.175z" class="prefix__cls-6" data-name="Path 2597" transform="translate(-687.131 -418.015)"/>
                <path id="prefix__Path_2598" d="M753.86 421.1v96.217a3.206 3.206 0 01-1.527 2.731l-58.538 35.978a1.63 1.63 0 01-2.484-1.39v-95.413a3.916 3.916 0 011.866-3.336l58.546-35.987a1.4 1.4 0 012.137 1.2z" class="prefix__cls-7" data-name="Path 2598" transform="translate(-689.79 -419.084)"/>
                <path id="prefix__Path_2599" d="M755.463 429.1v93.258a1.2 1.2 0 01-.572 1.022l-56.868 34.95a.548.548 0 01-.831-.461V464.75a1.746 1.746 0 01.831-1.487l56.471-34.708a.637.637 0 01.97.544z" class="prefix__cls-8" data-name="Path 2599" transform="translate(-693.53 -424.659)"/>
            </g>
            <path id="prefix__Path_2600" d="M730.608 497.432v34.784a.449.449 0 01-.213.382l-21.212 13.037a.2.2 0 01-.311-.174v-34.73a.645.645 0 01.31-.554l21.063-12.947a.238.238 0 01.362.2z" class="prefix__cls-9" data-name="Path 2600" transform="translate(-700.959 -345.182)"/>
            <path id="prefix__Path_2601" d="M730.608 611.042v3.335a.449.449 0 01-.213.382L709.183 627.8a.2.2 0 01-.311-.174v-3.281a.651.651 0 01.31-.554l21.063-12.947a.238.238 0 01.362.2z" class="prefix__cls-9" data-name="Path 2601" transform="translate(-700.959 -417.445)"/>
            <path id="prefix__Path_2602" d="M732.269 580.966v2.652a.354.354 0 01-.169.3l-16.876 10.372a.162.162 0 01-.247-.138v-2.61a.517.517 0 01.246-.441l16.758-10.3a.184.184 0 01.288.164z" class="prefix__cls-3" data-name="Path 2602" transform="translate(-704.843 -398.341)"/>
            <path id="prefix__Path_2603" d="M730.608 630.049v3.334a.448.448 0 01-.213.382L709.183 646.8a.2.2 0 01-.311-.173v-3.277a.651.651 0 01.31-.554l21.063-12.948a.238.238 0 01.362.2z" class="prefix__cls-9" data-name="Path 2603" transform="translate(-700.959 -429.533)"/>
            <path id="prefix__Path_2604" d="M725.785 657.2v3.334a.448.448 0 01-.213.382l-16.386 10.075a.2.2 0 01-.311-.174v-3.281a.652.652 0 01.31-.553L725.424 657a.238.238 0 01.362.2z" class="prefix__cls-9" data-name="Path 2604" transform="translate(-700.961 -446.801)"/>
            <path id="prefix__Path_2605" d="M802.647 599.205v3.335a.45.45 0 01-.213.382L786.046 613a.2.2 0 01-.281-.067.208.208 0 01-.03-.108v-3.28a.652.652 0 01.31-.553L802.284 599a.237.237 0 01.326.076.239.239 0 01.037.129z" class="prefix__cls-9" data-name="Path 2605" transform="translate(-749.848 -409.916)"/>
            <path id="prefix__Path_2606" d="M802.647 626.21v3.334a.447.447 0 01-.213.381l-16.388 10.08a.2.2 0 01-.281-.067.207.207 0 01-.03-.108v-3.28a.652.652 0 01.31-.554l16.239-9.983a.237.237 0 01.326.076.24.24 0 01.037.121z" class="prefix__cls-9" data-name="Path 2606" transform="translate(-749.848 -427.096)"/>
            <path id="prefix__Path_2607" d="M730.608 668.054v3.335a.448.448 0 01-.213.382l-21.212 13.037a.2.2 0 01-.311-.174v-3.281a.65.65 0 01.31-.554l21.063-12.949a.238.238 0 01.327.078.235.235 0 01.036.126z" class="prefix__cls-9" data-name="Path 2607" transform="translate(-700.959 -453.706)"/>
            <path id="prefix__Path_2608" d="M718.512 725.633v4.834a.65.65 0 01-.309.554l-4.5 2.732a.3.3 0 01-.45-.252v-4.756a.944.944 0 01.449-.8l4.282-2.6a.345.345 0 01.526.292z" class="prefix__cls-9" data-name="Path 2608" transform="translate(-703.747 -490.262)"/>
            <path id="prefix__Path_2609" d="M738.959 713.151v4.833a.646.646 0 01-.309.554l-4.5 2.732a.3.3 0 01-.451-.252v-4.755a.945.945 0 01.45-.8l4.282-2.6a.345.345 0 01.526.293z" class="prefix__cls-10" data-name="Path 2609" transform="translate(-716.752 -482.323)"/>
            <path id="prefix__Path_2610" d="M759.408 700.655v4.833a.644.644 0 01-.309.553l-4.5 2.732a.3.3 0 01-.451-.252v-4.756a.943.943 0 01.45-.8l4.282-2.6a.345.345 0 01.526.293z" class="prefix__cls-11" data-name="Path 2610" transform="translate(-729.759 -474.375)"/>
            <path id="prefix__Path_2611" d="M796.229 465.469v1.269a.449.449 0 01-.213.382l-14.209 8.735a.2.2 0 01-.281-.066.2.2 0 01-.031-.107v-1.215a.652.652 0 01.31-.554l14.057-8.645a.238.238 0 01.329.072.242.242 0 01.038.129z" class="prefix__cls-9" data-name="Path 2611" transform="translate(-747.152 -324.851)"/>
            <path id="prefix__Path_2612" d="M791.023 484.392v1.268a.447.447 0 01-.213.382l-8.987 5.559a.2.2 0 01-.281-.067.2.2 0 01-.03-.108v-1.215a.651.651 0 01.31-.554l8.841-5.468a.237.237 0 01.36.2z" class="prefix__cls-9" data-name="Path 2612" transform="translate(-747.162 -336.889)"/>
            <path id="prefix__Path_2613" d="M803.245 474.027v1.273a.448.448 0 01-.213.382l-21.209 13.037a.2.2 0 01-.281-.066.2.2 0 01-.03-.108v-1.218a.646.646 0 01.31-.554l21.063-12.946a.238.238 0 01.36.2z" class="prefix__cls-9" data-name="Path 2613" transform="translate(-747.162 -330.295)"/>
            <path id="prefix__Path_2614" d="M801.354 487.319v1.269a.447.447 0 01-.213.382l-19.319 11.909a.2.2 0 01-.281-.067.2.2 0 01-.03-.108v-1.215a.651.651 0 01.31-.554l19.173-11.818a.238.238 0 01.326.083.234.234 0 01.034.119z" class="prefix__cls-9" data-name="Path 2614" transform="translate(-747.162 -338.751)"/>
            <path id="prefix__Path_2615" d="M792.925 511.809v1.268a.449.449 0 01-.213.382l-10.889 6.7a.2.2 0 01-.281-.067.2.2 0 01-.03-.107v-1.215a.652.652 0 01.31-.554l10.744-6.612a.238.238 0 01.326.083.235.235 0 01.033.122z" class="prefix__cls-9" data-name="Path 2615" transform="translate(-747.162 -354.328)"/>
            <path id="prefix__Path_2616" d="M803.245 504.6v1.269a.447.447 0 01-.213.381l-21.209 13.041a.2.2 0 01-.281-.067.2.2 0 01-.03-.108V517.9a.651.651 0 01.31-.554l21.063-12.946a.238.238 0 01.36.2z" class="prefix__cls-9" data-name="Path 2616" transform="translate(-747.162 -349.745)"/>
            <path id="prefix__Path_2617" d="M803.245 514.78v1.269a.447.447 0 01-.213.381l-21.209 13.037a.2.2 0 01-.281-.067.2.2 0 01-.03-.108v-1.215a.65.65 0 01.31-.554l21.063-12.946a.238.238 0 01.36.2z" class="prefix__cls-9" data-name="Path 2617" transform="translate(-747.162 -356.218)"/>
            <path id="prefix__Path_2618" d="M798.149 533.609v1.269a.447.447 0 01-.213.381l-16.118 9.889a.2.2 0 01-.282-.062.2.2 0 01-.032-.116v-1.215a.645.645 0 01.31-.554l15.974-9.8a.238.238 0 01.361.206z" class="prefix__cls-9" data-name="Path 2618" transform="translate(-747.157 -368.191)"/>
            <path id="prefix__Path_2619" d="M803.245 535.153v1.269a.448.448 0 01-.213.382l-21.209 13.037a.2.2 0 01-.281-.067.2.2 0 01-.03-.108v-1.215a.646.646 0 01.31-.554l21.063-12.947a.238.238 0 01.326.083.236.236 0 01.034.12z" class="prefix__cls-9" data-name="Path 2619" transform="translate(-747.162 -369.176)"/>
            <path id="prefix__Path_2620" d="M803.245 545.344v1.268a.448.448 0 01-.213.382l-21.209 13.036a.2.2 0 01-.281-.067.2.2 0 01-.03-.107v-1.215a.651.651 0 01.31-.554l21.063-12.946a.238.238 0 01.36.2z" class="prefix__cls-9" data-name="Path 2620" transform="translate(-747.162 -375.658)"/>
            <g id="prefix__Group_829" data-name="Group 829" transform="translate(10.135 165.551)">
                <path id="prefix__Path_2621" d="M736.063 536.373c0 1.972-1.6 6.007-3.572 7.24s-3.571-.8-3.571-2.776a7.86 7.86 0 013.571-5.8c1.973-1.237 3.572-.637 3.572 1.336z" class="prefix__cls-12" data-name="Path 2621" transform="translate(-723.846 -534.393)"/>
                <path id="prefix__Path_2622" d="M732.27 561.827v.58l-17.291 10.806v-.58c0-4.776 3.875-11.065 8.646-14.049 2.389-1.494 4.55-1.875 6.114-1.292s2.531 2.15 2.531 4.535z" class="prefix__cls-12" data-name="Path 2622" transform="translate(-714.979 -548.792)"/>
            </g>
            <g id="prefix__Group_830" data-name="Group 830" transform="translate(21.325 131.547)">
                <path id="prefix__Path_2623" d="M771.772 443.664l-26.047 15.648v-.668a7.679 7.679 0 013.593-5.753l18.856-11.329c1.985-1.192 3.6-.554 3.6 1.434z" class="prefix__cls-12" data-name="Path 2623" transform="translate(-745.725 -440.963)"/>
                <path id="prefix__Path_2624" d="M776.038 445.177l-.715.43c-1.058.636-1.823.083-1.534-1.107.134-.6.061-1.139-.779-1.292a1.3 1.3 0 00-.9.231 3.568 3.568 0 00-1.619 2.648 1.368 1.368 0 00.049.361c.292.844-.474 2.319-1.534 2.952l-.714.429a3.158 3.158 0 00-1.476 2.365v.277l10.7-6.433v-.277c-.001-.81-.662-1.074-1.478-.584zm-3.875.771c-.483.29-.873.136-.873-.344a1.861 1.861 0 01.873-1.4c.483-.291.874-.135.874.348a1.86 1.86 0 01-.875 1.393z" class="prefix__cls-13" data-name="Path 2624" transform="translate(-759.141 -442.385)"/>
            </g>
            <path id="prefix__Path_2625" d="M825.088 494.272v1.272a.448.448 0 01-.213.382l-8.712 5.41a.2.2 0 01-.31-.174v-1.215a.646.646 0 01.31-.554l8.563-5.32a.238.238 0 01.362.2z" class="prefix__cls-9" data-name="Path 2625" transform="translate(-769.005 -343.175)"/>
            <g id="prefix__Group_834" data-name="Group 834" transform="translate(108.668 213.368)">
                <path id="prefix__Path_2626" d="M1059.9 715.722l-34.621 20.878a3.982 3.982 0 01-4.134-.012l-34.792-21.254a1.33 1.33 0 01.007-2.275l35.345-21.313a3.436 3.436 0 013.565.011l34.642 21.167a1.641 1.641 0 01-.009 2.8z" class="prefix__cls-14" data-name="Path 2626" transform="translate(-985.715 -681.979)"/>
                <path id="prefix__Path_2627" d="M1060.687 688.74a1.614 1.614 0 00-.772-1.292l-34.641-21.165a3.435 3.435 0 00-3.564-.011l-35.345 21.308a1.318 1.318 0 00-.641 1.156v5.789h.029a1.305 1.305 0 00.608.893l34.791 21.254a3.982 3.982 0 004.134.012l34.623-20.873a1.617 1.617 0 00.78-1.513h.014v-5.567z" class="prefix__cls-15" data-name="Path 2627" transform="translate(-985.721 -665.779)"/>
                <path id="prefix__Path_2628" d="M1059.9 690.253l-34.623 20.873a3.982 3.982 0 01-4.134-.012l-34.79-21.254a1.331 1.331 0 01.007-2.276l35.345-21.307a3.435 3.435 0 013.564.011l34.642 21.16a1.641 1.641 0 01-.009 2.8z" class="prefix__cls-12" data-name="Path 2628" transform="translate(-985.715 -665.783)"/>
            </g>
            <g id="prefix__Group_835" data-name="Group 835" transform="translate(197.465 271.695)">
                <path id="prefix__Path_2629" d="M1303.892 877.7l-34.624 20.873a3.985 3.985 0 01-4.134-.012l-34.791-21.253a1.331 1.331 0 01.007-2.276l35.345-21.308a3.435 3.435 0 013.564.01L1303.9 874.9a1.641 1.641 0 01-.008 2.8z" class="prefix__cls-14" data-name="Path 2629" transform="translate(-1229.703 -843.336)"/>
                <path id="prefix__Path_2630" d="M1304.666 849a1.614 1.614 0 00-.772-1.292l-34.642-21.163a3.434 3.434 0 00-3.563-.01l-35.345 21.308a1.317 1.317 0 00-.644 1.157v5.789h.03a1.308 1.308 0 00.608.893l34.791 21.253a3.985 3.985 0 004.134.012l34.624-20.873a1.618 1.618 0 00.779-1.513h.013V849z" class="prefix__cls-15" data-name="Path 2630" transform="translate(-1229.697 -826.044)"/>
                <path id="prefix__Path_2631" d="M1303.892 850.51l-34.624 20.873a3.985 3.985 0 01-4.134-.012l-34.791-21.253a1.332 1.332 0 01.007-2.276l35.345-21.308a3.435 3.435 0 013.564.01l34.642 21.163a1.641 1.641 0 01-.008 2.8z" class="prefix__cls-12" data-name="Path 2631" transform="translate(-1229.703 -826.041)"/>
            </g>
            <g id="prefix__Group_836" data-name="Group 836" transform="translate(200.317 136.082)">
                <path id="prefix__Path_2632" d="M1341.766 876.439v.069a.385.385 0 01-.012.08.279.279 0 00-.023.1 2.948 2.948 0 01-2.611 1.955 3.655 3.655 0 01-.369.046.669.669 0 01-.15.023 12.207 12.207 0 01-1.476.023c-.161-.012-.322-.023-.483-.046a11.55 11.55 0 01-4.647-2.531c-.092-.081-.138-.126-.138-.126v-.4s-1.415-.943-1.932-1.254c-1.576-.932-3.843-1.726-6.006-2.8a6.388 6.388 0 01-1.518-1.024c-.069-.068-.138-.149-.207-.206a1.3 1.3 0 01-.127-.127c-.046-.058-.081-.126-.127-.185a11.512 11.512 0 01-.241-.345c-.035-.068-.069-.126-.093-.172l-.081-.161a.964.964 0 01-.057-.173v-.012a2.807 2.807 0 01-.127-.818v-1.415l13.172 5.4 7.2 2.691z" class="prefix__cls-16" data-name="Path 2632" transform="translate(-1290.84 -716.446)"/>
                <path id="prefix__Path_2633" d="M1333.937 863.919a52.122 52.122 0 01-5.8-.715c-3.6-.617-6.076-.792-6.541.329-.451 1.088-.554 2.253 2.657 4.451s5.7 2.427 8.269 4.5a8.993 8.993 0 005.536 2.03c1.917.132 3.211-.6 3.63-1.384.971-1.815-.034-5.253-.034-5.253" class="prefix__cls-17" data-name="Path 2633" transform="translate(-1290.853 -713.755)"/>
                <path id="prefix__Path_2634" d="M1306.087 893.651l.012 1.784a1.674 1.674 0 01-.907 1.543 2.472 2.472 0 01-.778.219 27.265 27.265 0 01-5.66-.277v-.659s-1.221-.136-4.82-.583a21.475 21.475 0 01-7.452-2.22 1.617 1.617 0 01-.861-1.432l.007-1.307 14.15 2.5z" class="prefix__cls-16" data-name="Path 2634" transform="translate(-1268.12 -731.567)"/>
                <path id="prefix__Path_2635" d="M1296.152 881.554a5.759 5.759 0 01-3.428 1.483c-1.853 0-5.466-.047-6.392.6a1.518 1.518 0 00-.724 1.158 2.349 2.349 0 00.493 1.436c.695 1.015 5.374 2.548 8.893 2.826a51.874 51.874 0 015.372.509c1.667.277 3.4.409 4.453-.112 1.816-.9 1.938-3.641.831-5.444s-9.498-2.456-9.498-2.456z" class="prefix__cls-17" data-name="Path 2635" transform="translate(-1268.112 -725.737)"/>
                <path id="prefix__Path_2636" d="M1278.567 511.559l-24.713 14.875-8.6-20.9a1.722 1.722 0 01.705-2.132l22.108-13.308a1.34 1.34 0 011.929.638z" class="prefix__cls-7" data-name="Path 2636" transform="translate(-1242.359 -476.628)"/>
                <path id="prefix__Path_2637" d="M1279.531 512.845l-22.974 13.878-7.943-19.292c-.36-.957-.347-1.388.651-1.968l21.214-12.815a.593.593 0 01.815.2.536.536 0 01.041.081z" data-name="Path 2637" transform="translate(-1244.445 -478.317)" style="fill:#4de4e8"/>
                <path id="prefix__Path_2638" d="M1261.876 529.008l-4.818 2.9a.246.246 0 01-.338-.085.227.227 0 01-.016-.032l-1.753-4.265a.248.248 0 01.1-.305l4.817-2.9a.246.246 0 01.338.085.17.17 0 01.016.032l1.753 4.265a.246.246 0 01-.099.305z" class="prefix__cls-19" data-name="Path 2638" transform="translate(-1248.6 -498.495)"/>
                <path id="prefix__Path_2639" d="M1281.292 517.323l-4.817 2.9a.247.247 0 01-.338-.084.3.3 0 01-.016-.033l-1.753-4.265a.245.245 0 01.1-.3l4.817-2.9a.245.245 0 01.337.083.277.277 0 01.017.035l1.753 4.264a.245.245 0 01-.1.3z" class="prefix__cls-20" data-name="Path 2639" transform="translate(-1260.95 -491.063)"/>
                <path id="prefix__Path_2640" d="M1282.507 540.594l-7.819 4.706a.4.4 0 01-.576-.19l-2.85-6.92a.4.4 0 01.164-.494l7.819-4.705a.4.4 0 01.549.136.358.358 0 01.027.054l2.85 6.92a.4.4 0 01-.164.493z" class="prefix__cls-21" data-name="Path 2640" transform="translate(-1258.968 -503.995)"/>
                <path id="prefix__Path_2641" d="M1301.188 531.269l-2.608 1.569a.133.133 0 01-.183-.045l-.009-.019-.056-.162a.134.134 0 01.054-.165l2.608-1.569a.134.134 0 01.183.047l.009.017.056.163a.132.132 0 01-.054.164z" class="prefix__cls-21" data-name="Path 2641" transform="translate(-1276.199 -502.676)"/>
                <path id="prefix__Path_2642" d="M1299.725 532.426a.236.236 0 01-.324-.081.191.191 0 01-.016-.032l-.1-.289a.237.237 0 01.092-.292l4.627-2.777a.236.236 0 01.324.082.255.255 0 01.015.031l.1.289a.236.236 0 01-.092.292" class="prefix__cls-21" data-name="Path 2642" transform="translate(-1276.8 -501.444)"/>
                <path id="prefix__Path_2643" d="M1305.293 531.931l-4.62 2.781a.236.236 0 01-.324-.081.241.241 0 01-.016-.031l-.1-.29a.236.236 0 01.093-.292l4.62-2.781a.236.236 0 01.324.081.194.194 0 01.016.031l.1.29a.236.236 0 01-.093.292z" class="prefix__cls-21" data-name="Path 2643" transform="translate(-1277.403 -502.896)"/>
                <path id="prefix__Path_2644" d="M1306.229 534.227l-4.62 2.781a.237.237 0 01-.325-.081.316.316 0 01-.015-.031l-.1-.289a.237.237 0 01.092-.292l4.62-2.781a.237.237 0 01.325.082.208.208 0 01.016.031l.1.289a.237.237 0 01-.093.291z" class="prefix__cls-21" data-name="Path 2644" transform="translate(-1277.998 -504.356)"/>
                <path id="prefix__Path_2645" d="M1307.187 536.517l-4.62 2.782a.236.236 0 01-.324-.082.2.2 0 01-.016-.031l-.1-.289a.236.236 0 01.092-.291l4.621-2.781a.235.235 0 01.323.08.2.2 0 01.017.033l.1.289a.236.236 0 01-.093.29z" class="prefix__cls-20" data-name="Path 2645" transform="translate(-1278.608 -505.813)"/>
                <path id="prefix__Path_2646" d="M1308.134 538.823l-4.62 2.781a.236.236 0 01-.324-.08.243.243 0 01-.016-.032l-.1-.289a.234.234 0 01.092-.291l4.62-2.781a.235.235 0 01.323.08.284.284 0 01.016.033l.1.289a.236.236 0 01-.091.29z" class="prefix__cls-19" data-name="Path 2646" transform="translate(-1279.21 -507.279)"/>
                <path id="prefix__Path_2647" d="M1300.709 505.639l-4.817 2.9a.246.246 0 01-.338-.085.181.181 0 01-.016-.032l-1.753-4.265a.245.245 0 01.1-.3l4.818-2.9a.246.246 0 01.338.085.21.21 0 01.016.032l1.753 4.265a.246.246 0 01-.101.3z" class="prefix__cls-21" data-name="Path 2647" transform="translate(-1273.301 -483.631)"/>
                <path id="prefix__Path_2648" d="M1324.1 518.135a7.806 7.806 0 01-1.8 1.336l-.314-.4a1.207 1.207 0 00-.795-.461 3.762 3.762 0 01-2.2-.912 11.578 11.578 0 01-1.269-2.037.092.092 0 01-.017-.033.624.624 0 00-.066-.132c-.123-.289-.379-.874-.4-.957a.2.2 0 01.074-.173.115.115 0 00.025-.017c.214-.115.536-.247.726-.132a5.819 5.819 0 01.94 1.064 2.754 2.754 0 001.146.831c.05.025.1.042.14.067 0 0 .277-.157.067-.677l-1.568-3.826c1.592.058 2.936 2.086 3.6 3.769a16.591 16.591 0 011.711 2.69z" data-name="Path 2648" transform="translate(-1288.235 -490.472)" style="fill:#f4d0ae"/>
                <path id="prefix__Path_2649" d="M1261.131 564.26l-2.408 2-.454.379a7.907 7.907 0 00-1.525-3.183 6.265 6.265 0 00-1.864-.841 1.491 1.491 0 01-.8-.536 5.94 5.94 0 01-.8-4.5 2.731 2.731 0 01.314-1.015.028.028 0 00.008-.016c.3-.511.668-.495.668-.495s1.625 1.154 2.094 1.5c.387.289.882.85 1.261.429.206-.214-.982-1.715-1.311-2.4s.306-1.427.586-1.162a16.563 16.563 0 012.614 4.14c.677 1.765 1.617 5.7 1.617 5.7z" class="prefix__cls-23" data-name="Path 2649" transform="translate(-1247.459 -517.629)"/>
                <path id="prefix__Path_2650" d="M1259.274 568.359l-.553 1.715-.454.379a7.906 7.906 0 00-1.525-3.183 6.265 6.265 0 00-1.864-.841 1.49 1.49 0 01-.8-.536 5.942 5.942 0 01-.8-4.5 2.715 2.715 0 01.314-1.015.026.026 0 00.008-.016s.016.421.685 1.015a16.742 16.742 0 002.122 1.427 6.4 6.4 0 011.634 2.457 221.19 221.19 0 011.233 3.098z" data-name="Path 2650" transform="translate(-1247.457 -521.44)" style="fill:#e9c69e;isolation:isolate;opacity:.5"/>
                <path id="prefix__Path_2651" d="M1339.422 488.158l.288.667-.437 2.209-7.041 3.544-.414-.058-1.128-.137-1.771-.23v-2.44a3.2 3.2 0 00-1.829-2.968.734.734 0 00-.081-.034 3.446 3.446 0 01-1.2-.805l-.1-.1c-1.357-1.438-2.566-4.671-2.22-11.746a13.563 13.563 0 01.909-4.464c1.023-1.967 3.2-3.267 7.684-2.036 7.473 2.071 10.744 5.464 11.125 8.4s-3.785 10.198-3.785 10.198z" class="prefix__cls-23" data-name="Path 2651" transform="translate(-1292.166 -463.379)"/>
                <path id="prefix__Path_2652" d="M1330.365 530.6l-.354-.863a12.554 12.554 0 002.036-1.507 7.089 7.089 0 01.516.751 4.484 4.484 0 01-2.198 1.619z" class="prefix__cls-12" data-name="Path 2652" transform="translate(-1296.354 -501.006)"/>
                <path id="prefix__Path_2653" d="M1330.871 531.3a16.677 16.677 0 002.316-1.806s.611 1 1.116 1.892a6.7 6.7 0 01.407 2.775l-2.334.793z" class="prefix__cls-25" data-name="Path 2653" transform="translate(-1296.901 -501.807)"/>
                <path id="prefix__Path_2654" d="M1335.323 528.528v-2.44a3.2 3.2 0 00-1.828-2.968c.369.161 1.5.706 3.013 1.515.605.324.587 2.271.587 4.123z" data-name="Path 2654" transform="translate(-1298.57 -497.754)" style="fill:#e9c69e"/>
                <path id="prefix__Path_2655" d="M1265.176 580.344l-.421-1.343a1.055 1.055 0 01.052-.775 6.324 6.324 0 011.1-1.7 1.66 1.66 0 012.014-.326 2.954 2.954 0 01.524 1.015 3.412 3.412 0 01.1 1.2c-.036.092-.893 1.318-.993 1.426a23.2 23.2 0 01-2.376.503z" data-name="Path 2655" transform="translate(-1254.816 -531.385)" style="fill:#efefef"/>
                <path id="prefix__Path_2656" d="M1358.6 688.555c-1.668 9.111-2.865 20.408-2.865 20.408s2.783 22.628-.345 42.333c-.138.932-.462 2.9-1.661 3.67a4.483 4.483 0 01-3.865-.023c-.058-.034-.115-.057-.172-.092-4.67-2.554-4.176-5.867-4.855-8.041.011-8.765.932-30.336-.932-35.076l-1.668-19.119.61-13.667h16.727v.046l.081-.046s1.429 3.67-1.055 9.607z" class="prefix__cls-28" data-name="Path 2656" transform="translate(-1304.13 -596.869)"/>
                <path id="prefix__Path_2657" d="M1353.5 688.924c-1.576 5.176-3.6 18.694-4.026 22 0 0 1.553 26.034.23 43.933-4.671-2.554-4.176-5.867-4.855-8.041.011-8.765.932-30.336-.932-35.076l-1.668-19.119.61-13.667h11.5a25.338 25.338 0 01-.859 9.97z" class="prefix__cls-29" data-name="Path 2657" transform="translate(-1304.138 -596.87)"/>
                <path id="prefix__Path_2658" d="M1328.8 690.847a26.834 26.834 0 01-3.613 8.743c-.322.484-.609.977-.886 1.476-.058.23-.873 3.29-1.887 7.4s-2.243 9.261-3.118 13.644c.483 5.5 1.841 24.756-.748 41.437a3.055 3.055 0 01-2.2 2.485 5.474 5.474 0 01-1.841.2 4.6 4.6 0 01-1.541-.369c-2.739-1.151-4.717-5.536-4.717-5.536s-.069-27.7-1.506-34.969a32.231 32.231 0 01-.507-4.2c-.265-4.453-.748-12.574-.9-15.968a139.488 139.488 0 01-.1-14.621l13.7.172z" class="prefix__cls-28" data-name="Path 2658" transform="translate(-1280.505 -604.257)"/>
                <path id="prefix__Path_2659" d="M1318.939 690.722l-.115 1.357a34.37 34.37 0 01-1.875 8.629c-1.749 5.176-3.482 17.451-3.666 22.052-.185 4.233 2.066 24.411 1.227 43.45a4.591 4.591 0 01-1.541-.369c-2.739-1.15-4.717-5.536-4.717-5.536s-.069-27.7-1.507-34.969a32.34 32.34 0 01-.506-4.2c-.265-4.452-.748-12.574-.9-15.967a139.354 139.354 0 01-.1-14.621z" class="prefix__cls-29" data-name="Path 2659" transform="translate(-1280.507 -604.248)"/>
                <path id="prefix__Path_2660" d="M1336.915 544.77c-2.209 6.707-3.451 17.728-2.117 22.328a83.457 83.457 0 012.117 11.124c-1.254 3.451-12.942 10.929-19.468 11.5a9.844 9.844 0 01-2.394-.092c-5.74-.852-11.123-5.949-11.123-5.949s1.242-18.888 2.013-30.968a69.7 69.7 0 012.45-15.484 18.45 18.45 0 01.622-1.818 27.193 27.193 0 015.371-4.176.189.189 0 00.058-.023 123.099 123.099 0 015.775-3.6h.012c2.676-1.588 5.384-3.071 7.546-4.152q.38-.19.725-.345a17.235 17.235 0 013.322-1.357c3.072-.575 7.19 1.047 8.432 6.614s-1.144 9.68-3.341 16.398z" class="prefix__cls-30" data-name="Path 2660" transform="translate(-1279.766 -496.821)"/>
                <path id="prefix__Path_2661" d="M1314.373 592.217c-.391 5.154.392 18.016.69 22.617-5.74-.852-11.123-5.948-11.123-5.948s1.242-18.888 2.013-30.968a69.727 69.727 0 012.45-15.485c.622-.713 1.024-1.162 1.024-1.162h7.566s3.934.8 2.508 9.766c-1.447 8.963-4.656 14.854-5.128 21.18z" class="prefix__cls-25" data-name="Path 2661" transform="translate(-1279.772 -522.02)"/>
                <path id="prefix__Path_2663" d="M1346.791 528.514c-1.151 1.576-5.276 3.855-7.175 4.257a16.9 16.9 0 01-4.329.184 5.509 5.509 0 00-2.6.831.194.194 0 01-.057.023.037.037 0 01-.023.012l1.127-1.714 1.312-.84s1.921-.7 2.346-.9a4.881 4.881 0 011.07-.184h.012c1.139-.139 2.768-.253 3.025-.288a36.465 36.465 0 003.451-2.163c.068-.045.656-1.015 1.069-1.7q.38-.19.725-.345a2.2 2.2 0 01.047 2.827z" class="prefix__cls-25" data-name="Path 2663" transform="translate(-1298.006 -499.387)"/>
                <path id="prefix__Path_2664" d="M1347.257 468.263c-.646 3.843-3.9 9.882-5.545 10.434a9.644 9.644 0 01-2.714.519 2.591 2.591 0 01-2.669-2.117 12.348 12.348 0 00-1.115-3.475c-1.151-2.129-2.658-3.244-3.414-2.842s-.679 1.76-.679 1.76l-.493-.012s-.046-.438-.115-1.024-.114-1.311-.15-1.875a6.518 6.518 0 00-1.33-3.979 15.81 15.81 0 01-1.84-3.394 6.2 6.2 0 01-.462-3.037v-.012a6.3 6.3 0 012.657-5c3.722-2.724 11.5 2.335 14.38 4.752a9.9 9.9 0 013.221 4.578v.012a9.873 9.873 0 01.268 4.712z" class="prefix__cls-32" data-name="Path 2664" transform="translate(-1294.249 -453.422)"/>
                <path id="prefix__Path_2665" d="M1346.248 524.018l-.712-.662a16.562 16.562 0 01-10.785 5.321 9.2 9.2 0 00-2.159 3.664l.98-.633a4.378 4.378 0 011.7-.661c.385-.06 1.239-.1 1.239-.1 3.841-.053 7.665-2.736 9.664-4.391a1.684 1.684 0 00.078-2.534z" class="prefix__cls-12" data-name="Path 2665" transform="translate(-1297.996 -497.904)"/>
                <path id="prefix__Path_2668" d="M1322.337 875.5a1.947 1.947 0 00.242.348 6.945 6.945 0 01-.242-.348z" class="prefix__cls-34" data-name="Path 2668" transform="translate(-1291.473 -721.883)"/>
                <path id="prefix__Path_2669" d="M1323.128 876.625a1.784 1.784 0 01-.126-.185c.073.1.152.2.252.307a1.443 1.443 0 01-.126-.122z" class="prefix__cls-34" data-name="Path 2669" transform="translate(-1291.896 -722.485)"/>
                <path id="prefix__Path_2670" d="M1293.5 564.049c-.725 4.233-8.8 16.553-9.134 17.048a59.539 59.539 0 01-4.038 5.761h-.012a7.486 7.486 0 01-2.507 2.358 2.681 2.681 0 01-.322.081 4.344 4.344 0 01-5.1-2.842 89.6 89.6 0 01-4.211-9.2 85.424 85.424 0 01-2.4-9.364 2.825 2.825 0 01.288-2.07c.035-.046.057-.1.092-.151.448-.747 1.07-1.588 1.622-1.679 1.015-.149 1.208.115 1.208.115s1.852 2.979 3.322 5.28a43.559 43.559 0 012.94 6.219c.138.392.23.622.23.622 2.668-6.2 6.154-13.816 7.566-17a5.752 5.752 0 019.629-1.438 1.214 1.214 0 00.114.138 2.284 2.284 0 01.38.771l.012-.012.022.023c.134.162.973 1.382.299 5.34z" class="prefix__cls-30" data-name="Path 2670" transform="translate(-1255.442 -518.526)"/>
                <path id="prefix__Path_2671" d="M1347.266 478.394c-.646 3.843-3.9 9.882-5.545 10.434a9.647 9.647 0 01-2.714.518 2.591 2.591 0 01-2.668-2.117 12.351 12.351 0 00-1.115-3.475c-1.151-2.128-2.658-3.244-3.414-2.842s-.679 1.76-.679 1.76l-.494-.012s-.046-.438-.115-1.024-.114-1.311-.15-1.875a6.513 6.513 0 00-1.324-3.979 15.841 15.841 0 01-1.841-3.395 6.2 6.2 0 01-.461-3.036 16.993 16.993 0 0012.125 9.973c9.042 1.9 8.19-5.28 8.133-5.648a9.875 9.875 0 01.262 4.718z" class="prefix__cls-17" data-name="Path 2671" transform="translate(-1294.258 -463.555)"/>
                <path id="prefix__Path_2672" d="M1290.353 614.595s-.495-3.137.495-4.36c.138.392.23.622.23.622a8.384 8.384 0 00-.725 3.738z" data-name="Path 2672" transform="translate(-1271.051 -553.164)" style="fill:#141414"/>
                <path id="prefix__Path_2673" d="M1293.2 563.783l-.034-.012s.277 3.532-3.072 9.421-10.48 19.992-14 19.6c-1.855-.206-2.514-3.153-3.256-3.681-1.6-1.147-2.691-5.235-4.221-9.307a68.04 68.04 0 01-2.462-9.054c-.035.046-.057.1-.093.151a2.829 2.829 0 00-.288 2.07 85.635 85.635 0 002.4 9.364 89.735 89.735 0 004.208 9.2 4.346 4.346 0 005.1 2.821v.017a2.716 2.716 0 00.322-.081 7.489 7.489 0 002.508-2.358h.012a59.565 59.565 0 004.038-5.764c.334-.495 8.409-12.815 9.134-17.048.678-3.948-.161-5.168-.296-5.339z" class="prefix__cls-29" data-name="Path 2673" transform="translate(-1255.442 -523.61)"/>
            </g>
            <g id="prefix__Group_837" data-name="Group 837" transform="translate(101.224 233)">
                <path id="prefix__Path_2674" d="M965.259 781.6l22.634 13.84 4.766-2.878-22.633-13.84z" class="prefix__cls-14" data-name="Path 2674" transform="translate(-965.259 -757.251)"/>
                <path id="prefix__Path_2675" d="M1032.218 757.738v18.852l-4.767 2.869v-18.843z" class="prefix__cls-7" data-name="Path 2675" transform="translate(-1004.817 -743.902)"/>
                <path id="prefix__Path_2676" d="M970.026 719.721v18.849l-4.767 2.869V722.6z" class="prefix__cls-36" data-name="Path 2676" transform="translate(-965.259 -719.721)"/>
                <path id="prefix__Path_2677" d="M1032.218 757.738v18.852l-4.767 2.869v-18.843z" class="prefix__cls-7" data-name="Path 2677" transform="translate(-1004.817 -743.902)"/>
                <path id="prefix__Path_2678" d="M965.259 722.6l22.634 13.84 4.766-2.878-22.633-13.84z" class="prefix__cls-6" data-name="Path 2678" transform="translate(-965.259 -719.721)"/>
                <path id="prefix__Path_2679" d="M987.9 760.308l-22.634-13.84v-18.84l22.634 13.84z" class="prefix__cls-36" data-name="Path 2679" transform="translate(-965.265 -724.75)"/>
                <path id="prefix__Path_2680" d="M965.259 727.628l11.317 16.34 11.317-2.5z" class="prefix__cls-7" data-name="Path 2680" transform="translate(-965.259 -724.75)"/>
                <path id="prefix__Path_2681" d="M999.455 729.165v3.711a.611.611 0 01-.4.578.623.623 0 01-.214.042.613.613 0 01-.618-.607v-3.722a1.021 1.021 0 00-.486-.865l-5.665-3.464a.392.392 0 00-.412-.008.3.3 0 00-.082.058.1.1 0 01-.025.017.415.415 0 00-.1.277v2.8a.624.624 0 01-.388.57.556.556 0 01-.231.049.617.617 0 01-.618-.616v-2.806a1.608 1.608 0 01.841-1.435 1.289 1.289 0 01.4-.157 1.572 1.572 0 011.254.19l5.665 3.464a2.252 2.252 0 011.079 1.924z" data-name="Path 2681" transform="translate(-981.131 -722.147)" style="fill:#82441d"/>
                <path id="prefix__Path_2682" d="M999.132 770.7v1.924l-.427.257v-1.924z" data-name="Path 2682" transform="translate(-986.533 -752.143)" style="fill:#f7aa57"/>
                <path id="prefix__Path_2683" d="M992.357 767.078l2.307 1.411.427-.257-2.307-1.41z" data-name="Path 2683" transform="translate(-982.495 -749.679)" style="fill:#f4b77a"/>
                <path id="prefix__Path_2684" d="M994.672 770.861l-2.307-1.412v-1.923l2.307 1.411z" data-name="Path 2684" transform="translate(-982.5 -750.128)" style="fill:#eca140"/>
                <path id="prefix__Path_2685" d="M1001.628 729.167v3.711a.611.611 0 01-.4.578v-3.719a2.541 2.541 0 00-.554-1.856l-7.043-4.288a1.573 1.573 0 011.254.19l5.665 3.464a2.252 2.252 0 011.078 1.92z" class="prefix__cls-41" data-name="Path 2685" transform="translate(-983.303 -722.149)"/>
                <path id="prefix__Path_2686" d="M993.028 727.29a.416.416 0 00-.1.277v2.8a.622.622 0 01-.388.569v-2.854a.956.956 0 01.488-.792z" class="prefix__cls-41" data-name="Path 2686" transform="translate(-982.612 -724.536)"/>
            </g>
            <g id="prefix__Group_838" data-name="Group 838" transform="translate(128.028 103.083)">
                <path id="prefix__Path_2687" d="M1046.508 733.486s.359 1.427.565 2.629.27 2.745.408 4.017a17.241 17.241 0 001.867 5.063 4.932 4.932 0 002.662 1.894 8.593 8.593 0 004.1-.081 1.977 1.977 0 001.049-1.047" class="prefix__cls-16" data-name="Path 2687" transform="translate(-1043.743 -598.56)"/>
                <path id="prefix__Path_2688" d="M1102.852 714.771c0 .792-1.179 1.344-2.391 1.443a12.123 12.123 0 01-3.925-.548 19.472 19.472 0 01-3.045-1.15 3.926 3.926 0 00-2.235-.2s0 .132-.008.277a10.281 10.281 0 01-5.451-.915c-.008 0-.008-.008-.016-.008a9.425 9.425 0 01.016-1.163c.025-.461.107-1.137.107-1.137l16.947 2.829z" class="prefix__cls-16" data-name="Path 2688" transform="translate(-1068.715 -584.493)"/>
                <path id="prefix__Path_2689" d="M1057.4 743.263c-.017.148-.042.3-.067.438a2.129 2.129 0 01-1.459 1.715c-1.592.544-4.536.255-5.987-1.32s-2.482-5.628-2.482-8.056a10.8 10.8 0 00-1.27-4.668h6.6a1.681 1.681 0 01.157.214c1.138 1.591 4.1 7.644 4.387 9.6a9.281 9.281 0 01.121 2.077z" class="prefix__cls-42" data-name="Path 2689" transform="translate(-1043.505 -597.215)"/>
                <path id="prefix__Path_2690" d="M1068.425 743.632a.333.333 0 01-.067-.165 32.741 32.741 0 00-2.6-6.209c-.8-1.6-2.293-4.511-2.293-4.511s.2-.346.446-.792c1.137 1.592 4.1 7.644 4.387 9.6a9.266 9.266 0 01.127 2.077z" class="prefix__cls-43" data-name="Path 2690" transform="translate(-1054.53 -597.586)"/>
                <path id="prefix__Path_2691" d="M1057.339 743.686a2.129 2.129 0 01-1.46 1.715c-1.592.545-4.536.256-5.987-1.319s-2.482-5.628-2.482-8.057a10.792 10.792 0 00-1.27-4.668h2.676l.214 1.393s.074 5.628 1.41 8.42a5.394 5.394 0 004.849 3.3c1.064-.074 1.74-.214 2.037-.775a.008.008 0 01.006-.009z" class="prefix__cls-44" data-name="Path 2691" transform="translate(-1043.509 -597.205)"/>
                <path id="prefix__Path_2692" d="M1102.739 710a1.046 1.046 0 01-.594.85c-1.108.5-3.422.337-4.833 0s-4.033-1.583-5.418-1.732-4.082-.388-4.758-.578a1.917 1.917 0 01-1.533-1.872 4.2 4.2 0 01.511-2.383l1.089.066 6.416.413.149.008 3.274 1.171c1.047.362 3.229.7 4.667 2.037a4.392 4.392 0 01.578.646l.008.008a1.969 1.969 0 01.444 1.366z" class="prefix__cls-42" data-name="Path 2692" transform="translate(-1068.6 -579.989)"/>
                <path id="prefix__Path_2693" d="M1116.323 709.46c-1.047-.9-3.241-1.568-5.03-2.03-1.805-.47-3.562-1.03-3.562-1.03s-.042-.346-.074-.8l.148.008 3.274 1.171c1.047.362 3.229.7 4.668 2.037a4.414 4.414 0 01.576.644z" class="prefix__cls-43" data-name="Path 2693" transform="translate(-1082.636 -580.822)"/>
                <path id="prefix__Path_2694" d="M1102.741 709.994a1.044 1.044 0 01-.594.849c-1.107.5-3.422.338-4.833 0s-4.033-1.583-5.418-1.732-4.082-.388-4.758-.578a1.918 1.918 0 01-1.534-1.872 4.2 4.2 0 01.511-2.383l1.089.066-.033.346s-1.006 1.393-.338 2.45 3.167.9 4.693 1.08 3.711 1.418 5.822 1.782 4.643.668 5.385 0z" class="prefix__cls-44" data-name="Path 2694" transform="translate(-1068.601 -579.982)"/>
                <path id="prefix__Path_2695" d="M1097.036 564.279a51.535 51.535 0 00-.66 3.125.267.267 0 00-.009.058c-.173.99-.314 1.937-.446 2.829-.008.033-.008.058-.016.092-.017.1-.042.255-.074.486s-.067.454-.1.668c-.277 1.822-.792 5.583-1.238 10.7a.563.563 0 00-.008.115c-.184 1.7-.338 4-.469 6.44-.033.561-.067 1.129-.092 1.707a556.038 556.038 0 00-.354 8.832 1.662 1.662 0 01-.882 1.418 2.99 2.99 0 01-1.393.369 10.075 10.075 0 01-3.43-.454 7.266 7.266 0 01-1.929-.982 1.828 1.828 0 01-.738-1.542c.058-2.021.184-7.372-.033-12.724-.264-6.787-.792-19.56-.792-19.56l2.391-21.417 4.444-.99a318.037 318.037 0 01-.651-3.678l-.222-1.3h8.7s.009.124.017.363c.111 2.281.564 15.096-2.016 25.445z" class="prefix__cls-28" data-name="Path 2695" transform="translate(-1067.827 -474.516)"/>
                <path id="prefix__Path_2696" d="M1118.025 564.913a51.535 51.535 0 00-.66 3.125c.082-.738.882-7.81 1.246-11.422.379-3.818-.239-15.742-.239-15.742s.759-.646 1.674-1.41c.101 2.29.554 15.101-2.021 25.449z" data-name="Path 2696" transform="translate(-1088.812 -475.151)" style="fill:#595959;isolation:isolate;opacity:.5"/>
                <path id="prefix__Path_2697" d="M1093.234 544.055a133.306 133.306 0 01-3.183 25.028c-1.806 7.669-2.177 22.958-2.193 33.861a7.257 7.257 0 01-1.929-.982 1.829 1.829 0 01-.738-1.542c.058-2.021.184-7.372-.033-12.724-.264-6.787-.792-19.561-.792-19.561l2.392-21.417 4.444-.99c-.23-1.245-.478-2.676-.651-3.678z" class="prefix__cls-29" data-name="Path 2697" transform="translate(-1067.822 -476.797)"/>
                <path id="prefix__Path_2698" d="M1063.107 548.631a97.6 97.6 0 01-5.1 32.55v.017c-1.089 2.721-1.929 4.923-2.161 5.855-.486 1.922-2.688 21.21-3.217 25.869a5.029 5.029 0 01-.738 2.136 4.015 4.015 0 01-4.041 2.169 9.576 9.576 0 01-1.753-.346 12.913 12.913 0 01-2.243-.907 1.688 1.688 0 01-.923-1.558c.149-4.989.8-26.875 1.212-29.605.461-3.085 2.358-9.814 3.249-22.159a13.311 13.311 0 00-.553-5.286 14.151 14.151 0 01-.141-8.593s.554.206 1.292.486c-.025-1.171-.074-1.7-.074-1.7l.421.008 15.231.322z" class="prefix__cls-28" data-name="Path 2698" transform="translate(-1041.464 -480.301)"/>
                <path id="prefix__Path_2699" d="M1053.247 557.864c.454 4.336-4.494 23.61-5.014 28.558s-2.128 30.454-2.128 30.454h-.008a12.948 12.948 0 01-2.243-.907 1.688 1.688 0 01-.922-1.558c.148-4.989.8-26.875 1.212-29.605.461-3.085 2.359-9.813 3.249-22.159a13.309 13.309 0 00-.553-5.286 14.152 14.152 0 01-.141-8.593s.554.206 1.292.486c-.025-1.171-.074-1.7-.074-1.7l.421.008a126.728 126.728 0 015.105 2.986 25.713 25.713 0 00-.196 7.316z" class="prefix__cls-29" data-name="Path 2699" transform="translate(-1041.468 -480.298)"/>
                <path id="prefix__Path_2700" d="M1052.607 541.075a9.35 9.35 0 00-.243 1.187.579.579 0 00.244.567 16.713 16.713 0 003.285 1.563 17.007 17.007 0 007 .743c.86-.079 9.273-1.938 14.3-5.117a3.768 3.768 0 001.677-3.8v-.03c-.17-.997-26.263 4.887-26.263 4.887z" data-name="Path 2700" transform="translate(-1047.463 -472.993)" style="fill:#845424"/>
                <path id="prefix__Path_2701" d="M1076.459 437.9a9.061 9.061 0 01-1.064.738c-.016 0-.025.008-.042.016a.711.711 0 00-.115.074 19.144 19.144 0 01-6.111 1.988l-.081 2.8a30.815 30.815 0 00.462 6.243c.308 1.748.678 3.892.923 5.444.478 3.076-.354 5.311-1.889 6.226v.008a.065.065 0 00-.033.017 41.869 41.869 0 01-13.689 5.022 14.736 14.736 0 01-1.476.2 12.784 12.784 0 01-3.175-.132 10.213 10.213 0 01-1.286-.277l-.4-.124a5.549 5.549 0 01-1.329-.614c-2.01-1.281-2.167-2.255-2.307-3.395-.115-.99 1.2-5.954 1.41-7.62l.092-.677.05-.379a9.919 9.919 0 00.042-1.69.336.336 0 00-.008-.058 4.451 4.451 0 00-.19-1.055c-.033-.1-.067-.2-.107-.305a.03.03 0 00-.008-.025c-.009-.033-.025-.074-.033-.115-2-.907-3.746-3.277-5.675-7.672-1.872-4.264-1.656-13.209-1.054-16.746a7.673 7.673 0 01.277-1.2 9 9 0 012.507-3.093v-.008a28.734 28.734 0 013.381-2.573c.042-.025.074-.05.115-.074a26.264 26.264 0 012.589-1.5c.874-.437 1.988-.94 3.563-1.558a22.732 22.732 0 011.723-.6c1.081-.33 2.186-.6 3.307-.831 1.724-.362 3.472-.646 5.146-.965q.432 0 .865.025a12.272 12.272 0 0110 6.852c1.592 3.167 3.81 7.983 4.28 11.133.581 3.827.314 5.518-.66 6.5z" class="prefix__cls-12" data-name="Path 2701" transform="translate(-1038.928 -394.96)"/>
                <path id="prefix__Path_2702" d="M1065.662 443.892a33.205 33.205 0 01-9.344 6.259 21.009 21.009 0 01-8.337 1.518 3.476 3.476 0 01-1.7-.148c-1.171-.544-2.9-2.471-4.55-7.653-1.366-4.288-.943-11.464-.2-15.974a9.647 9.647 0 016.522-4.89 8.15 8.15 0 004.5-.162 5.362 5.362 0 013.746.126 27.329 27.329 0 002.916 1.031l1.1.8.738 11.735 1.269-2.944-.973-9.979-3.736-4.775-4.124-.495c-.585.185-1.163.379-1.723.6a32.91 32.91 0 00-4.922 2.3l-.108.064q-.2.12-.395.24l-.448.277-.277.175c-.041.025-.073.05-.115.074a28.776 28.776 0 00-3.382 2.573v.008a9 9 0 00-2.507 3.093c-.021.061-.043.13-.066.209a9.151 9.151 0 00-.214.987c-.6 3.544-.822 12.48 1.049 16.744 1.929 4.4 3.671 6.765 5.675 7.672 0 0 10.531 1.468 19.958-9.459-.096.002-.22-.006-.352-.006z" class="prefix__cls-47" data-name="Path 2702" transform="translate(-1038.91 -398.108)"/>
                <path id="prefix__Path_2703" d="M1076.588 402.939v4.637s4.744 3.423 7.263 2.928c1.084-.213 1.653-1.6 1.427-3.559l-2.293-.461z" data-name="Path 2703" transform="translate(-1062.875 -388.314)" style="fill:#edcdab"/>
                <path id="prefix__Path_2704" d="M1096.646 416.895l1.879 2.525s.923-3.157-.885-5.1c-1.753-1.89-1.828-.257-1.828-.257s1.661 1.917.834 2.832z" class="prefix__cls-12" data-name="Path 2704" transform="translate(-1075.102 -394.974)"/>
                <path id="prefix__Path_2705" d="M1087.116 374.273a26.8 26.8 0 01-.415 7.43c-.8 3.549-1.044 4.351-2.476 4.982s-2.719.7-5.124-.847a12.1 12.1 0 01-3.721-4.064s-.343.224-1.2-.745a5.184 5.184 0 01-1.6-4.336 14.364 14.364 0 012.122-7.343c1.6-2.691 6.526-1.831 8.759-.687s3.23 3.309 3.655 5.61z" class="prefix__cls-23" data-name="Path 2705" transform="translate(-1060.305 -365.816)"/>
                <path id="prefix__Path_2706" d="M1087.75 371.384c-2.457 4.346-8.581 1.485-8.581 1.485-.454 1.889-1.774 2.061-2.408 2.408s-.767 2.178-.767 2.178h-.578a13.165 13.165 0 00-.314-2.754 1.623 1.623 0 00-2.86-.277c-.775 1.2.115 2.548.627 3.546a4.547 4.547 0 01-.157 2.243 7.533 7.533 0 01-1.563-2.816 19.469 19.469 0 010-10.077 4.581 4.581 0 01.5-1.221c1.88-3.175 7.24-3.793 9.344-3.076 1.814.618 6.308 2.664 7.15 5.566a3.536 3.536 0 01-.393 2.795z" class="prefix__cls-32" data-name="Path 2706" transform="translate(-1058.994 -362.754)"/>
                <path id="prefix__Path_2707" d="M1118.245 624.536q-.05.346-.1.668.055-.396.1-.668z" class="prefix__cls-28" data-name="Path 2707" transform="translate(-1089.308 -529.261)"/>
                <path id="prefix__Path_2708" d="M1118.64 622.951c-.008.034-.008.058-.017.092.008-.058.017-.092.017-.092z" class="prefix__cls-28" data-name="Path 2708" transform="translate(-1089.612 -528.253)"/>
                <path id="prefix__Path_2709" d="M1064.89 461.011a29.411 29.411 0 01-.811-6.572c.136-2.612 1.58-.277 1.718 1.855a50.392 50.392 0 001.392 6.735" class="prefix__cls-49" data-name="Path 2709" transform="translate(-1054.919 -420.335)"/>
                <path id="prefix__Path_2710" d="M1075.113 414.382a4.426 4.426 0 00-.516.96 9.364 9.364 0 00-.329 1.077 18.1 18.1 0 007.843 4.668l.036-3.271s-4.675-.633-7.034-3.434z" class="prefix__cls-12" data-name="Path 2710" transform="translate(-1061.399 -395.592)"/>
                <path id="prefix__Path_2711" d="M1073.393 475.665s-1.954-.2-5.64 1.378a22.193 22.193 0 01-1.443-4.42.627.627 0 01.074-.149c1.031-1.65 6.589-.618 6.589-.618z" class="prefix__cls-23" data-name="Path 2711" transform="translate(-1056.338 -431.945)"/>
                <path id="prefix__Path_2712" d="M1113.985 458.135c-1.089.025-2.54.2-3.835.369.1-.314.223-4.256 3.183-4.6.247 1.278.421 2.433.528 3.216.025.185.042.338.058.478s.033.247.041.338l.025.199z" class="prefix__cls-23" data-name="Path 2712" transform="translate(-1084.222 -420.73)"/>
                <path id="prefix__Path_2713" d="M1079.432 488.485a19.734 19.734 0 01-1.319 1.732v.008a35.086 35.086 0 01-6.655 6.1 32.687 32.687 0 01-2.622 1.691 2.247 2.247 0 00-.165.1 15.1 15.1 0 00-7.438 11.636 11.023 11.023 0 00-.025 3.225c.379 1.031 1.674 1.361 2.433 1.468a12.8 12.8 0 01-3.175-.132 10.308 10.308 0 01-1.286-.277l-.4-.123a5.611 5.611 0 01-1.336-.618c-2-1.278-2.161-2.251-2.3-3.389-.115-.99 1.2-5.954 1.41-7.62l.092-.677a10.142 10.142 0 00.093-2.069.362.362 0 00-.008-.058 4.463 4.463 0 00-.19-1.055c-.033-.1-.066-.2-.107-.305a.031.031 0 00-.008-.025c-.008-.033-.025-.074-.033-.115 0 0 6.531.907 13.912-4.049a29.987 29.987 0 006.044-5.41s.107.008.277.008a19.882 19.882 0 002.806-.046z" class="prefix__cls-15" data-name="Path 2713" transform="translate(-1049.232 -442.726)"/>
                <path id="prefix__Path_2714" d="M1054.495 522.952s-2.94 8.027-2.838 10.093 6.591 3.192 6.591 3.192l-2.776-7.418z" class="prefix__cls-15" data-name="Path 2714" transform="translate(-1047.016 -464.649)"/>
                <path id="prefix__Path_2715" d="M1105.724 435.779s.415-.516 1.292.671 4.02 8.556 4.072 10.149-9.432.773-9.432.773a68.2 68.2 0 016.929-.842s-.848-8.019-2.861-10.751z" class="prefix__cls-49" data-name="Path 2715" transform="translate(-1078.819 -409.131)"/>
                <path id="prefix__Path_2716" d="M1068.808 484.246s-1.015 1.172-.811 1.859 1.34-.381 3.848-.929 9.724-.445 9.724-.445a60.247 60.247 0 00-7.027-1.22l-.092-.646a11.379 11.379 0 00-5.642 1.381z" class="prefix__cls-47" data-name="Path 2716" transform="translate(-1057.394 -439.15)"/>
                <path id="prefix__Path_2717" d="M1095.848 423.289l-.036 3.271 1.13 1.043 1.584-.508v-1.587l-1.88-2.522a1.328 1.328 0 01-.798.303z" class="prefix__cls-28" data-name="Path 2717" transform="translate(-1075.102 -401.065)"/>
                <path id="prefix__Path_2718" d="M1099.226 446.659c-.132-6.432-.314-11.883-.314-11.883l1.583-.511c.528 2.417 1.27 6.993 1.987 11.826.001-.001-1.344.209-3.256.568z" class="prefix__cls-28" data-name="Path 2718" transform="translate(-1077.074 -408.239)"/>
                <path id="prefix__Path_2719" d="M1105.252 499.451l-1.608 4.214a.347.347 0 01-.554.149l-2.993-2.474a1.234 1.234 0 01-.446-1.022c.05-.816.092-1.814.115-2.944.025-.99.041-2.086.041-3.25v-.008c.2-.148.4-.3.594-.461.185-.141.369-.3.548-.454.369-.311.778-.666 1.205-1.058.232-.218.462-.425.7-.657.132-.115.264-.256.4-.387.222-.222.437-.454.66-.693.092-.092.184-.184.264-.277.157 1.114.305 2.169.438 3.142.354 2.631.626 4.643.726 5.444a1.511 1.511 0 01-.09.736z" class="prefix__cls-28" data-name="Path 2719" transform="translate(-1077.543 -443.77)"/>
                <path id="prefix__Path_2720" d="M1104.818 493.264a35.394 35.394 0 01-4.841 4.107c.025-.99.042-2.086.042-3.249v-.008c.2-.148.4-.3.594-.461.8-.73 1.633-1.352 2.449-2.169.132-.115.264-.255.4-.388.222-.222.438-.454.66-.693.092-.092.185-.185.264-.277.152 1.11.3 2.165.432 3.138z" class="prefix__cls-15" data-name="Path 2720" transform="translate(-1077.752 -443.769)"/>
                <path id="prefix__Path_2721" d="M1087.758 377.236c-2.457 4.345-8.581 1.485-8.581 1.485-.454 1.888-1.774 2.061-2.408 2.408s-.767 2.177-.767 2.177h-.578a13.149 13.149 0 00-.314-2.754 1.623 1.623 0 00-2.86-.277c-.775 1.2.115 2.548.627 3.546a4.542 4.542 0 01-.157 2.243 7.537 7.537 0 01-1.558-2.812 19.469 19.469 0 010-10.077 4.574 4.574 0 01.5-1.221 30.049 30.049 0 007.092 4.585c3.851 1.617 6.836 1.269 7.8.446a3.748 3.748 0 001.591-2.532l.008-.008a3.538 3.538 0 01-.395 2.791z" class="prefix__cls-17" data-name="Path 2721" transform="translate(-1059.002 -368.606)"/>
            </g>
            <g id="prefix__Group_839" data-name="Group 839" transform="translate(71.862 169.47)">
                <path id="prefix__Path_2722" d="M884.583 547.423q.05-.322.1-.668-.05.272-.1.668z" class="prefix__cls-17" data-name="Path 2722" transform="translate(-884.583 -546.176)"/>
                <path id="prefix__Path_2723" d="M885.06 545.255c.008-.033.008-.058.016-.092 0 .002-.008.037-.016.092z" class="prefix__cls-17" data-name="Path 2723" transform="translate(-884.886 -545.163)"/>
            </g>
            <g id="prefix__Group_840" data-name="Group 840" transform="translate(182.372 305.994)">
                <path id="prefix__Path_2724" d="M1225.171 951.525a.21.21 0 000-.36l-14.426-8.872c-.016-.008-.016-.016-.031-.024a.118.118 0 00-.032-.024l-.087-.055c-.024-.016-.048-.024-.072-.04a1.454 1.454 0 00-.443-.119 1.589 1.589 0 00-.863.167l-2.185-1.362a4.575 4.575 0 001.9-3.372l.055-1.813c.092-3.348-4.455-6.206-10.17-6.371-5.676-.167-10.361 2.374-10.519 5.7l-.007-.016v.092l-.055 1.8v.008l-.008.284.008-.008c.159 3.229 4.613 5.928 10.171 6.095a15.449 15.449 0 006.366-1.093.787.787 0 00.111.119 1.325 1.325 0 00.143.088l2.9 1.8a2.1 2.1 0 00.11.9 1.467 1.467 0 00.476.646 1.063 1.063 0 00.245.159l12.339 7.584a.769.769 0 00.8.01c.789-.461 2.567-1.507 3.274-1.923zm-26.683-11.072c-4.8-.143-8.635-2.541-8.556-5.366a4.8 4.8 0 011.045-1.773 3.085 3.085 0 00-.688 1.82 3.011 3.011 0 00.023.468c.008.04.017.071.024.111a2.436 2.436 0 00.079.341l.048.142a1.983 1.983 0 00.126.3c.024.048.04.092.064.143.055.1.119.206.184.308.031.04.047.072.079.111a4.7 4.7 0 00.308.4 1.094 1.094 0 00.1.1 3.5 3.5 0 00.261.269 2.468 2.468 0 00.222.185.869.869 0 00.127.112 9.135 9.135 0 002.842 1.464 13.542 13.542 0 003.76.624c4.63.136 8.452-1.915 8.532-4.574.048-1.686-1.417-3.214-3.672-4.14l-.111-.047c-.237-.088-.482-.184-.739-.261a7.342 7.342 0 014.6 3.253 3.088 3.088 0 01.2 1.163c-.08 2.818-4.042 4.994-8.858 4.853z" class="prefix__cls-14" data-name="Path 2724" transform="translate(-1188.228 -926.002)"/>
                <path id="prefix__Path_2725" d="M1211.012 925.926l-2.447-2.543-7.059-1.746-7.149 1.328-2.592 2.4-.674 1.494 1.023.358s1.207-4.856 9.365-4.613 9.077 5.159 9.077 5.159l1.042-.3z" class="prefix__cls-50" data-name="Path 2725" transform="translate(-1190.048 -921.145)"/>
                <path id="prefix__Path_2726" d="M1210.271 934.068a6.153 6.153 0 00-2.052-2.476 3.547 3.547 0 01.708 2.172c-.086 2.938-4.217 5.2-9.227 5.051s-9-2.647-8.914-5.585a3.545 3.545 0 01.83-2.127 5.979 5.979 0 00-2.3 2.574l-.247-.58-.059 1.968v.007l-.009.3.013-.016c.159 3.366 4.8 6.182 10.592 6.352 5.956.174 10.865-2.514 10.969-6.005l.055-1.891z" class="prefix__cls-15" data-name="Path 2726" transform="translate(-1188.723 -927.166)"/>
                <path id="prefix__Path_2727" d="M1200.162 920.293c-5.956-.175-10.865 2.514-10.969 6.007a3.865 3.865 0 00.092.948c.688 3.068 5.1 5.536 10.505 5.692s9.955-2.043 10.821-5.064a3.8 3.8 0 00.146-.942c.105-3.493-4.639-6.466-10.595-6.641zm-.342 11.642c-5.01-.147-9-2.647-8.914-5.585a3.551 3.551 0 01.83-2.127c1.462-1.825 4.686-3.034 8.4-2.926s6.853 1.506 8.2 3.414a3.545 3.545 0 01.708 2.172c-.086 2.939-4.217 5.2-9.229 5.052z" data-name="Path 2727" transform="translate(-1188.842 -920.285)" style="fill:#81c5e8"/>
                <path id="prefix__Path_2728" d="M1200.162 920.293c-5.956-.175-10.865 2.514-10.969 6.007a3.865 3.865 0 00.092.948c.688 3.068 5.1 5.536 10.505 5.692s9.955-2.043 10.821-5.064a3.8 3.8 0 00.146-.942c.105-3.493-4.639-6.466-10.595-6.641zm-.342 11.642c-5.01-.147-9-2.647-8.914-5.585a3.551 3.551 0 01.83-2.127c1.462-1.825 4.686-3.034 8.4-2.926s6.853 1.506 8.2 3.414a3.545 3.545 0 01.708 2.172c-.086 2.939-4.217 5.2-9.229 5.052z" class="prefix__cls-12" data-name="Path 2728" transform="translate(-1188.842 -920.285)"/>
                <path id="prefix__Path_2729" d="M1241.67 954.212l-.206.306-.923 1.369-.237.352-4.052-2.527a.7.7 0 01-.147-.092.872.872 0 01-.277-.388 1.054 1.054 0 01-.062-.25 1.426 1.426 0 01.135-.8 1.367 1.367 0 01.695-.686.928.928 0 01.461-.072.781.781 0 01.263.074.252.252 0 01.043.022l.055.035a.1.1 0 01.019.012z" class="prefix__cls-15" data-name="Path 2729" transform="translate(-1218.458 -940.086)"/>
                <path id="prefix__Path_2730" d="M1243.122 954.212l-.206.306-4.877-3.026a.927.927 0 01.461-.072.782.782 0 01.263.074.27.27 0 01.042.022l.055.035a.108.108 0 01.02.012z" class="prefix__cls-12" data-name="Path 2730" transform="translate(-1219.91 -940.086)"/>
                <path id="prefix__Path_2731" d="M1240.545 958.625l-.237.352-4.052-2.527a.679.679 0 01-.147-.092.871.871 0 01-.277-.388 1.064 1.064 0 01-.062-.25z" class="prefix__cls-50" data-name="Path 2731" transform="translate(-1218.467 -942.823)"/>
                <path id="prefix__Path_2732" d="M1260.686 964.719l-.589 1.033-1.512 2.665-12.333-7.621a1.274 1.274 0 01-.255-.159 1.525 1.525 0 01-.491-.677 2.359 2.359 0 01.123-1.834 2.625 2.625 0 01.416-.625 1.92 1.92 0 011.592-.692 1.334 1.334 0 01.461.127.46.46 0 01.076.039l.092.06a.2.2 0 01.035.022c.008.005.016.014.025.019z" data-name="Path 2732" transform="translate(-1224.578 -943.514)" style="fill:#394356"/>
                <path id="prefix__Path_2733" d="M1261.847 964.716l-.589 1.033-1.483-.445-12.574-7.8a1.922 1.922 0 011.592-.692 1.335 1.335 0 01.461.128.465.465 0 01.076.039l.092.06a.192.192 0 01.035.022c.008.005.016.014.025.019z" data-name="Path 2733" transform="translate(-1225.738 -943.511)" style="fill:#485366"/>
                <path id="prefix__Path_2734" d="M1283.318 981a1.963 1.963 0 01-2.465 1.193 1.273 1.273 0 01-.256-.16 1.543 1.543 0 01-.489-.676 2.36 2.36 0 01.123-1.835 2.123 2.123 0 012.012-1.319 1.345 1.345 0 01.461.127c.026.012.052.026.075.039l.092.061a.146.146 0 01.034.022 2.043 2.043 0 01.413 2.548z" data-name="Path 2734" transform="translate(-1246.586 -957.12)" style="fill:#6a7384"/>
                <path id="prefix__Path_2735" d="M1212.388 929.26c-.082 2.774-4.06 4.909-8.889 4.766s-8.673-2.505-8.594-5.279 4.06-4.909 8.889-4.765 8.677 2.504 8.594 5.278z" class="prefix__cls-55" data-name="Path 2735" transform="translate(-1192.475 -922.632)"/>
                <path id="prefix__Path_2736" d="M1208.574 924.947c-8.707.191-11.224 4.483-11.952 6.906a3.909 3.909 0 01-1.716-3.108c.083-2.768 4.06-4.9 8.892-4.764a13.765 13.765 0 014.776.966z" class="prefix__cls-55" data-name="Path 2736" transform="translate(-1192.475 -922.632)"/>
                <path id="prefix__Path_2737" d="M1212.733 937.211c-.077 2.628-3.848 4.65-8.426 4.516s-8.221-2.373-8.143-5.005a1.708 1.708 0 01.016-.228c.255 2.468 3.765 4.5 8.127 4.634 4.439.134 8.119-1.767 8.409-4.278a2.207 2.207 0 01.017.361z" data-name="Path 2737" transform="translate(-1193.275 -930.594)" style="opacity:.4;isolation:isolate;fill:#fff"/>
            </g>
            <g id="prefix__Group_856" data-name="Group 856" transform="translate(35.047)">
                <g id="prefix__Group_842" data-name="Group 842" transform="translate(136.664 77.273)">
                    <g id="prefix__Group_841" data-name="Group 841">
                        <path id="prefix__Path_2738" d="M1189.1 294.432v24.593a2.016 2.016 0 01-.868 1.661c-.025.012-.05.037-.074.049l-8.038 4.956-16.6 10.226a.773.773 0 01-.869-.012l-3.251-2.005a.948.948 0 01-.461-.819v-23.77a2.648 2.648 0 011.272-2.275l24.4-15.048a1 1 0 011.028-.012l3.095 1.883a.538.538 0 01.11.061.622.622 0 01.256.512z" data-name="Path 2738" transform="translate(-1158.934 -291.836)" style="fill:#ffd05a"/>
                        <path id="prefix__Path_2739" d="M1194.957 297.881v24.59a2.017 2.017 0 01-.869 1.661c-.025.012-.05.037-.074.049l-8.038 4.956-16.6 10.228a.772.772 0 01-.869-.012.8.8 0 01-.369-.673v-23.966a2.542 2.542 0 011.186-2.141l24.7-15.219a.594.594 0 01.554-.05.547.547 0 01.111.061.622.622 0 01.268.516z" class="prefix__cls-10" data-name="Path 2739" transform="translate(-1164.788 -295.285)"/>
                    </g>
                    <path id="prefix__Path_2740" d="M1195.8 340.707l1.645 2.46a.376.376 0 00.447.141l3.567-1.379a.375.375 0 01.447.554l-2.843 4.282a.376.376 0 00-.055.277l.732 3.884a.374.374 0 01-.3.437.379.379 0 01-.07.007l-3.812.022a.378.378 0 00-.271.117l-3.482 3.683a.375.375 0 01-.646-.315l.613-3.9a.375.375 0 00-.219-.4l-2.7-1.2a.374.374 0 01-.058-.652l4.287-2.9a.371.371 0 00.139-.174l1.907-4.88a.374.374 0 01.668-.067z" class="prefix__cls-12" data-name="Path 2740" transform="translate(-1177.827 -322.809)"/>
                </g>
                <g id="prefix__Group_845" data-name="Group 845" transform="translate(32.457 177.796)">
                    <g id="prefix__Group_843" data-name="Group 843">
                        <path id="prefix__Path_2741" d="M892.947 569.789v16.576a1.357 1.357 0 01-.586 1.122c-.016.008-.033.025-.05.034l-5.418 3.34-11.193 6.892a.521.521 0 01-.586-.008l-2.193-1.353a.638.638 0 01-.314-.554v-16.022a1.785 1.785 0 01.858-1.534l16.444-10.143a.674.674 0 01.693-.008l2.086 1.269a.332.332 0 01.073.042.416.416 0 01.186.347z" data-name="Path 2741" transform="translate(-872.61 -568.039)" style="fill:#73aae0"/>
                        <path id="prefix__Path_2742" d="M896.9 572.12v16.58a1.359 1.359 0 01-.586 1.122c-.017.008-.033.025-.05.033l-5.418 3.34-11.189 6.886a.521.521 0 01-.586-.008.542.542 0 01-.247-.454v-16.15a1.712 1.712 0 01.8-1.443l16.649-10.259a.4.4 0 01.369-.033.326.326 0 01.074.042.418.418 0 01.184.344z" data-name="Path 2742" transform="translate(-876.561 -570.367)" style="fill:#acd3ff"/>
                    </g>
                    <g id="prefix__Group_844" data-name="Group 844" transform="translate(6.098 8.96)">
                        <ellipse id="prefix__Ellipse_15" cx="3.192" cy="1.766" class="prefix__cls-12" data-name="Ellipse 15" rx="3.192" ry="1.766" transform="rotate(-53.34 6.123 .522)"/>
                        <path id="prefix__Path_2743" d="M900.109 611.351l-10.745 6.459c.012-2.964 2.4-6.793 5.373-8.581a4.419 4.419 0 013.8-.707 2.762 2.762 0 011.572 2.829z" class="prefix__cls-12" data-name="Path 2743" transform="translate(-889.364 -602.647)"/>
                    </g>
                </g>
                <g id="prefix__Group_849" data-name="Group 849" transform="translate(11.998 227.127)">
                    <g id="prefix__Group_847" data-name="Group 847">
                        <g id="prefix__Group_846" data-name="Group 846">
                            <path id="prefix__Path_2744" d="M892.949 722.716v16.576a1.359 1.359 0 01-.586 1.121c-.017.008-.033.026-.05.034l-5.418 3.339-11.191 6.9a.524.524 0 01-.586-.009l-2.193-1.352a.646.646 0 01-.314-.554v-16.028a1.787 1.787 0 01.858-1.534l16.443-10.142a.673.673 0 01.693-.008l2.086 1.269a.291.291 0 01.074.042.418.418 0 01.184.346z" data-name="Path 2744" transform="translate(-852.151 -714.641)" style="fill:#779a0a"/>
                            <path id="prefix__Path_2745" d="M896.9 725.039v16.576a1.357 1.357 0 01-.586 1.121c-.017.008-.033.026-.05.034l-5.418 3.339-11.189 6.9a.522.522 0 01-.586-.01.54.54 0 01-.247-.453v-16.16a1.711 1.711 0 01.8-1.443l16.649-10.26a.4.4 0 01.369-.032.277.277 0 01.074.042.416.416 0 01.184.346z" data-name="Path 2745" transform="translate(-856.102 -716.964)" style="fill:#c3d600"/>
                            <path id="prefix__Path_2746" d="M834.471 704v16.576a1.359 1.359 0 01-.586 1.122c-.017.008-.033.025-.05.033l-5.418 3.34-11.191 6.894a.521.521 0 01-.586-.008.541.541 0 01-.247-.454V715.35a1.713 1.713 0 01.8-1.443l16.649-10.259a.4.4 0 01.369-.033.326.326 0 01.074.041.418.418 0 01.186.344z" data-name="Path 2746" transform="translate(-816.393 -703.585)" style="opacity:.3;fill:#c3d600;isolation:isolate"/>
                        </g>
                    </g>
                    <g id="prefix__Group_848" data-name="Group 848" transform="translate(26.808 14.678)">
                        <path id="prefix__Path_2747" d="M900.817 743.916v1.154l-5.372 6.3-5.383.411v-1.141z" class="prefix__cls-12" data-name="Path 2747" transform="translate(-890.058 -743.916)"/>
                        <path id="prefix__Path_2748" d="M895.435 755.22l5.372-6.3v5.88l-10.756 6.721v-5.891z" class="prefix__cls-12" data-name="Path 2748" transform="translate(-890.051 -747.096)"/>
                    </g>
                </g>
                <g id="prefix__Group_854" data-name="Group 854">
                    <g id="prefix__Group_852" data-name="Group 852">
                        <g id="prefix__Group_851" data-name="Group 851">
                            <g id="prefix__Group_850" data-name="Group 850">
                                <path id="prefix__Path_2749" d="M803.764 352.138v16.576a1.356 1.356 0 01-.586 1.122c-.016.008-.033.025-.049.034l-5.418 3.34-11.191 6.89a.52.52 0 01-.586-.008l-2.193-1.356a.64.64 0 01-.314-.554v-16.02a1.785 1.785 0 01.858-1.534l16.443-10.144a.673.673 0 01.693-.008l2.086 1.269a.36.36 0 01.074.042.419.419 0 01.183.351z" data-name="Path 2749" transform="translate(-783.428 -251.806)" style="fill:#8ba6fc"/>
                                <path id="prefix__Path_2750" d="M807.712 354.467v16.576a1.357 1.357 0 01-.586 1.122c-.016.008-.033.025-.049.033l-5.418 3.34-11.191 6.894a.52.52 0 01-.586-.008.543.543 0 01-.247-.454v-16.156a1.714 1.714 0 01.8-1.443l16.649-10.259a.4.4 0 01.369-.033.328.328 0 01.074.042.418.418 0 01.185.346z" data-name="Path 2750" transform="translate(-787.375 -254.134)" style="fill:#c9d4fe"/>
                                <path id="prefix__Path_2751" d="M858.444 279.291v11.594a.95.95 0 01-.409.784c-.011.006-.024.018-.035.023l-3.79 2.336-7.828 4.823a.363.363 0 01-.409-.005.38.38 0 01-.174-.317v-11.3a1.2 1.2 0 01.559-1.009L858 279.043a.278.278 0 01.26-.023.244.244 0 01.052.029.292.292 0 01.132.242z" class="prefix__cls-65" data-name="Path 2751" transform="translate(-823.1 -206.397)"/>
                                <path id="prefix__Path_2752" d="M1083.788 140.648v11.592a.949.949 0 01-.41.784c-.012.005-.023.018-.035.023l-3.791 2.336-7.826 4.824a.37.37 0 01-.41-.006.378.378 0 01-.172-.317v-11.3a1.2 1.2 0 01.559-1.009l11.646-7.176a.276.276 0 01.263-.027.238.238 0 01.052.028.293.293 0 01.124.248z" class="prefix__cls-65" data-name="Path 2752" transform="translate(-966.432 -118.21)"/>
                                <path id="prefix__Path_2753" d="M1138.762 79.952V97.3a1.422 1.422 0 01-.613 1.174c-.017.008-.034.026-.051.035l-5.67 3.494-11.71 7.214a.544.544 0 01-.612-.009.567.567 0 01-.26-.474V91.825a1.8 1.8 0 01.837-1.51l17.422-10.732a.418.418 0 01.389-.034.333.333 0 01.078.042.437.437 0 01.19.361z" class="prefix__cls-66" data-name="Path 2753" transform="translate(-997.409 -79.516)"/>
                                <path id="prefix__Path_2754" d="M809.324 751.454V768.8a1.421 1.421 0 01-.612 1.174c-.017.009-.035.026-.052.035l-5.669 3.495-11.711 7.214a.545.545 0 01-.612-.009.567.567 0 01-.258-.474v-16.908a1.793 1.793 0 01.837-1.51l17.422-10.734a.419.419 0 01.388-.035.4.4 0 01.077.043.437.437 0 01.19.363z" class="prefix__cls-66" data-name="Path 2754" transform="translate(-787.869 -506.626)"/>
                            </g>
                        </g>
                    </g>
                    <g id="prefix__Group_853" data-name="Group 853" transform="translate(5.595 104.403)">
                        <path id="prefix__Path_2755" d="M803.981 383.167l-4.84-1.932c-.456-.185-.456-.923 0-1.65s1.2-1.174 1.65-.991l2.753 1.1 5.395-11.969a2.146 2.146 0 011.606-1.345c.548.009.718.627.379 1.379z" class="prefix__cls-12" data-name="Path 2755" transform="translate(-798.8 -366.379)"/>
                    </g>
                </g>
                <g id="prefix__Group_855" data-name="Group 855" transform="translate(127.834 4.183)">
                    <path id="prefix__Path_2756" d="M1431.957 394.733v16.575a1.357 1.357 0 01-.586 1.122c-.017.008-.033.026-.05.034l-5.421 3.336-11.19 6.9a.523.523 0 01-.585-.008l-2.194-1.354a.638.638 0 01-.313-.554V404.76a1.787 1.787 0 01.858-1.534l16.444-10.143a.67.67 0 01.693-.008l2.086 1.27a.305.305 0 01.073.041.416.416 0 01.185.347z" class="prefix__cls-67" data-name="Path 2756" transform="translate(-1310.825 -283.081)"/>
                    <path id="prefix__Path_2757" d="M1435.908 397.059v16.573a1.357 1.357 0 01-.586 1.122c-.017.008-.033.026-.05.034l-5.418 3.339-11.191 6.895a.523.523 0 01-.586-.008.544.544 0 01-.247-.454v-16.154a1.714 1.714 0 01.8-1.443l16.647-10.258a.4.4 0 01.369-.033.309.309 0 01.074.042.417.417 0 01.188.345z" class="prefix__cls-68" data-name="Path 2757" transform="translate(-1314.777 -285.408)"/>
                    <path id="prefix__Path_2758" d="M1481.342 407.777v19.764a1.62 1.62 0 01-.7 1.338c-.019.01-.039.029-.058.039l-6.459 3.983-13.343 8.22a.622.622 0 01-.7-.01.647.647 0 01-.3-.541v-19.262a2.04 2.04 0 01.954-1.721l19.853-12.232a.476.476 0 01.442-.04.392.392 0 01.092.05.5.5 0 01.219.412z" class="prefix__cls-55" data-name="Path 2758" transform="translate(-1341.466 -292.175)"/>
                    <path id="prefix__Path_2759" d="M1185.843 91.509v19.764a1.621 1.621 0 01-.7 1.338c-.019.009-.039.028-.058.039l-6.458 3.982-13.346 8.221a.621.621 0 01-.7-.01.645.645 0 01-.3-.54v-19.264a2.042 2.042 0 01.954-1.72l19.865-12.231a.472.472 0 01.442-.04.391.391 0 01.092.05.5.5 0 01.209.411z" class="prefix__cls-55" data-name="Path 2759" transform="translate(-1153.51 -91.011)"/>
                    <path id="prefix__Path_2760" d="M1156.228 503.864v19.763a1.621 1.621 0 01-.7 1.338c-.02.01-.04.03-.059.04l-6.459 3.982-13.347 8.22a.623.623 0 01-.7-.01.646.646 0 01-.294-.541v-19.262a2.043 2.043 0 01.953-1.721l19.853-12.233a.479.479 0 01.442-.04.381.381 0 01.093.05.5.5 0 01.218.414z" class="prefix__cls-55" data-name="Path 2760" transform="translate(-1134.673 -353.29)"/>
                    <path id="prefix__Path_2761" d="M1430.951 441.939a1.384 1.384 0 11-1.367-1.577 1.483 1.483 0 011.367 1.577z" class="prefix__cls-12" data-name="Path 2761" transform="translate(-1321.37 -313.217)"/>
                    <path id="prefix__Path_2762" d="M1442.96 434.459a1.384 1.384 0 11-1.367-1.578 1.483 1.483 0 011.367 1.578z" class="prefix__cls-12" data-name="Path 2762" transform="translate(-1329.008 -308.459)"/>
                    <path id="prefix__Path_2763" d="M1454.969 426.982a1.384 1.384 0 11-1.367-1.577 1.483 1.483 0 011.367 1.577z" class="prefix__cls-12" data-name="Path 2763" transform="translate(-1336.646 -303.704)"/>
                </g>
            </g>
            <g id="prefix__Group_860" data-name="Group 860" transform="translate(163.793 255.767)">
                <g id="prefix__Group_857" data-name="Group 857" transform="translate(15.702 9.441)">
                    <ellipse id="prefix__Ellipse_16" cx="7.851" cy="3.988" class="prefix__cls-14" data-name="Ellipse 16" rx="7.851" ry="3.988" transform="translate(0 6.597)"/>
                    <path id="prefix__Path_2764" d="M1180.323 819.174v3.988c0 2.2 3.515 3.988 7.851 3.988s7.851-1.786 7.851-3.988v-3.988z" data-name="Path 2764" transform="translate(-1180.323 -815.186)" style="fill:#efc356"/>
                    <ellipse id="prefix__Ellipse_17" cx="7.851" cy="3.988" class="prefix__cls-10" data-name="Ellipse 17" rx="7.851" ry="3.988"/>
                    <path id="prefix__Path_2765" d="M1199.253 816.036c0 .991-1.582 1.8-3.534 1.8s-3.534-.8-3.534-1.8 1.582-1.8 3.534-1.8 3.534.809 3.534 1.8z" class="prefix__cls-12" data-name="Path 2765" transform="translate(-1187.868 -812.049)"/>
                </g>
                <g id="prefix__Group_858" data-name="Group 858" transform="translate(0 18.881)">
                    <ellipse id="prefix__Ellipse_18" cx="7.851" cy="3.988" class="prefix__cls-14" data-name="Ellipse 18" rx="7.851" ry="3.988" transform="translate(0 6.597)"/>
                    <path id="prefix__Path_2766" d="M1137.18 845.114v3.986c0 2.2 3.515 3.987 7.851 3.987s7.851-1.785 7.851-3.987v-3.988z" data-name="Path 2766" transform="translate(-1137.18 -841.126)" style="fill:#e83d83"/>
                    <ellipse id="prefix__Ellipse_19" cx="7.851" cy="3.988" class="prefix__cls-11" data-name="Ellipse 19" rx="7.851" ry="3.988"/>
                    <path id="prefix__Path_2767" d="M1150.6 836.629l6.115 3.736-8.556 1.1z" class="prefix__cls-12" data-name="Path 2767" transform="translate(-1144.161 -835.729)"/>
                </g>
                <g id="prefix__Group_859" data-name="Group 859" transform="translate(31.403)">
                    <path id="prefix__Path_2768" d="M1239.166 804.391c0 2.2-3.514 3.987-7.851 3.987s-7.851-1.785-7.851-3.987 3.514-3.987 7.851-3.987 7.851 1.786 7.851 3.987z" class="prefix__cls-14" data-name="Path 2768" transform="translate(-1223.464 -793.807)"/>
                    <path id="prefix__Path_2769" d="M1223.464 793.235v3.988c0 2.2 3.514 3.987 7.851 3.987s7.851-1.785 7.851-3.987v-3.988z" class="prefix__cls-67" data-name="Path 2769" transform="translate(-1223.464 -789.247)"/>
                    <path id="prefix__Path_2770" d="M1239.166 786.265c0 2.2-3.514 3.988-7.851 3.988s-7.851-1.785-7.851-3.988 3.514-3.987 7.851-3.987 7.851 1.786 7.851 3.987z" class="prefix__cls-68" data-name="Path 2770" transform="translate(-1223.464 -782.278)"/>
                    <path id="prefix__Path_2771" d="M1231.726 788.133l6.115 3.736 2.405-4.883z" class="prefix__cls-12" data-name="Path 2771" transform="translate(-1228.719 -785.273)"/>
                </g>
            </g>
        </g>
    </g>
</svg>
