<svg xmlns="http://www.w3.org/2000/svg" xmlns:xlink="http://www.w3.org/1999/xlink" id="prefix__Group_721" width="464.415" height="358.31" data-name="Group 721" viewBox="0 0 464.415 358.31">
    <defs>
        <linearGradient id="prefix__linear-gradient" x1=".423" x2=".591" y1=".378" y2=".645" gradientUnits="objectBoundingBox">
            <stop offset="0" stop-color="#e6e6e6"/>
            <stop offset="1" stop-color="#fff" stop-opacity="0"/>
        </linearGradient>
        <linearGradient id="prefix__linear-gradient-2" x1="33.202" x2="33.37" y1=".378" y2=".645" xlink:href="#prefix__linear-gradient"/>
        <style>
            .prefix__cls-3{fill:#252f40}.prefix__cls-4{fill:#e0e0e0}.prefix__cls-15,.prefix__cls-16,.prefix__cls-17,.prefix__cls-6{fill:#fafafa}.prefix__cls-8{fill:#ebebeb}.prefix__cls-9{fill:#f0f0f0}.prefix__cls-10{fill:#263238}.prefix__cls-11,.prefix__cls-25{fill:#f07549}.prefix__cls-12{fill:#455a64}.prefix__cls-13{fill:#37474f}.prefix__cls-14{fill:#27debf}.prefix__cls-15{opacity:.7}.prefix__cls-16{opacity:.6}.prefix__cls-17{opacity:.8}.prefix__cls-22{opacity:.1}.prefix__cls-23{fill:#e29076}.prefix__cls-24{fill:#ffa8a7}.prefix__cls-25{opacity:.92}.prefix__cls-27{fill:#f28f8f}
        </style>
    </defs>
    <g id="prefix__Group_217" data-name="Group 217">
        <path id="prefix__Path_3" d="M553.561 297.578c-8.035-22.4-20.689-29.221-32.725-43.591-14.7-17.55-24.614-30.308-20.8-52.881 6.237-36.886 8.907-128.882-88.747-116.857-35 4.31-62.66 31.132-82.782 57.906-17.122 22.783-47.919 24.792-72.71 30.1-30.459 6.525-61.486 16.383-89.667 30.827-58.036 29.752-75.371 72.518-73.004 127.232.716 16.53 3.055 42.569 30.979 73.037 37.69 41.123 92.459 46.63 158.377 27.744 15.089-4.323 29.351-11.1 44.194-16.207a208.563 208.563 0 0147.7-10.357c37.86-3.661 77.105 2.96 113.424-8.344a119.665 119.665 0 0050.729-31.461c17.343-18.17 23.513-43.503 15.032-67.148z" data-name="Path 3" transform="translate(-92.917 -83.174)" style="opacity:.11;fill:#252f40"/>
        <path id="prefix__Path_4" d="M378.712 176.269c-6.606-18.418-17.009-24.024-26.9-35.837-12.084-14.429-20.236-24.917-17.1-43.475C339.837 66.631 342.032-9 261.748.884c-28.776 3.543-51.515 25.595-68.058 47.606-14.076 18.73-39.4 20.383-59.778 24.749-25.041 5.361-50.551 13.47-73.719 25.345C12.478 123.04-1.774 158.2.172 203.182c.588 13.59 2.511 35 25.469 60.046 30.986 33.809 76.013 38.337 130.207 22.809 12.405-3.554 24.131-9.128 36.333-13.324a171.469 171.469 0 0139.213-8.514c31.126-3.009 63.391 2.433 93.25-6.86a98.382 98.382 0 0041.706-25.866c14.261-14.938 19.334-35.765 12.362-55.204z" data-name="Path 4" transform="rotate(5.13 -191.712 681.01)" style="opacity:.21;fill:#252f40"/>
        <path id="prefix__Path_5" d="M331.979 154.517c-5.791-16.146-14.91-21.059-23.584-31.415-10.593-12.648-17.739-21.843-14.988-38.11C297.9 58.408 299.825-7.891 229.448.775c-25.225 3.106-45.158 22.436-59.66 41.732-12.339 16.419-34.535 17.868-52.4 21.7C95.436 68.9 73.075 76.009 52.766 86.419 10.938 107.857-1.555 138.677.15 178.109c.516 11.913 2.2 30.679 22.326 52.637 27.163 29.637 66.633 33.606 114.139 19.995 10.874-3.116 21.153-8 31.85-11.68a150.307 150.307 0 0134.375-7.461c27.285-2.638 55.569 2.133 81.743-6.013a86.242 86.242 0 0036.559-22.674c12.502-13.098 16.949-31.355 10.837-48.396z" class="prefix__cls-3" data-name="Path 5" transform="rotate(5.13 -452.882 944.558)"/>
    </g>
    <g id="prefix__Group_461" data-name="Group 461" transform="translate(63.739 37.268)">
        <path id="prefix__Path_344" d="M1820.209 581.741l43.7 25.233a2.719 2.719 0 002.461 0l65.849-38.091a.75.75 0 000-1.421l-43.7-25.232a2.72 2.72 0 00-2.461 0l-65.849 38.09a.75.75 0 000 1.421z" class="prefix__cls-3" data-name="Path 344" transform="translate(-1732.64 -386.025)"/>
        <g id="prefix__Group_306" data-name="Group 306" transform="translate(48.97 137.611)">
            <ellipse id="prefix__Ellipse_37" cx="29.042" cy="13.842" class="prefix__cls-4" data-name="Ellipse 37" rx="29.042" ry="13.842"/>
        </g>
        <ellipse id="prefix__Ellipse_38" cx="28.685" cy="13.672" class="prefix__cls-4" data-name="Ellipse 38" rx="28.685" ry="13.672" transform="translate(205.424 166.043)"/>
        <g id="prefix__Group_320" data-name="Group 320" transform="translate(0 20.401)">
            <path id="prefix__Path_345" d="M1571.788 262.98c3.3-1.98 3.7-31.963 14.662-38.1s7.131 21.3 18.328 14.815c10.654-6.171 7.393-38.183 18.329-44.445s7.2 25.031 18.328 19.048c9.676-5.2 8.857-17.661 15.194-23.166s7.789 6.592 15.773 2.237 1.194-28.361 18.163-38.158v45.719l-118.78 69.027z" data-name="Path 345" transform="translate(-1571.255 -154.682)"/>
            <g id="prefix__Group_307" data-name="Group 307">
                <path id="prefix__Path_346" d="M1570.8 262.52a.533.533 0 01-.275-.989c.96-.577 1.831-5.121 2.753-9.933 1.948-10.163 4.616-24.083 11.923-28.171a5.338 5.338 0 014.615-.707c2.64 1.009 3.935 4.783 5.187 8.433 1.182 3.446 2.4 7.009 4.616 7.836 1.071.4 2.348.158 3.9-.742 5.081-2.943 6.953-12.444 8.764-21.632 1.893-9.607 3.851-19.541 9.568-22.815a4.907 4.907 0 014.35-.63c2.849 1.152 4.14 5.607 5.508 10.323 1.254 4.326 2.551 8.8 5 9.826a3.974 3.974 0 003.487-.478c5.386-2.9 7.421-8.125 9.388-13.182 1.5-3.851 2.913-7.488 5.709-9.917 3.494-3.033 5.747-1.161 7.926.653s4.246 3.534 7.941 1.519c3.024-1.649 3.818-6.65 4.737-12.439 1.4-8.813 3.141-19.781 13.414-25.713a.533.533 0 01.533.922c-9.834 5.678-11.531 16.367-12.9 24.957-.964 6.068-1.8 11.307-5.278 13.208-4.33 2.362-6.993.145-9.133-1.635-2.169-1.806-3.736-3.109-6.546-.667-2.6 2.256-3.965 5.774-5.414 9.5-2.037 5.236-4.144 10.652-9.876 13.735a5.011 5.011 0 01-4.4.521c-2.914-1.224-4.283-5.945-5.607-10.511-1.236-4.264-2.515-8.674-4.884-9.632a3.873 3.873 0 00-3.421.566c-5.3 3.032-7.2 12.723-9.052 22.1-1.942 9.854-3.776 19.163-9.276 22.348-1.846 1.069-3.419 1.337-4.809.818-2.683-1-3.988-4.808-5.251-8.488-1.173-3.417-2.385-6.952-4.56-7.783a4.364 4.364 0 00-3.715.642c-6.875 3.846-9.489 17.485-11.4 27.442-1.237 6.456-1.944 9.861-3.251 10.645a.527.527 0 01-.271.07z" class="prefix__cls-4" data-name="Path 346" transform="translate(-1570.266 -153.689)"/>
            </g>
            <g id="prefix__Group_311" data-name="Group 311" transform="translate(51.628 40.347)">
                <g id="prefix__Group_308" data-name="Group 308">
                    <path id="prefix__Path_347" d="M1718.409 270.186a.225.225 0 01-.225-.225v-.45a.225.225 0 01.45 0v.45a.225.225 0 01-.225.225z" class="prefix__cls-6" data-name="Path 347" transform="translate(-1718.184 -269.287)"/>
                </g>
                <g id="prefix__Group_309" data-name="Group 309" transform="translate(0 1.352)">
                    <path id="prefix__Path_348" d="M1718.409 316.012a.225.225 0 01-.225-.225v-.9a.225.225 0 11.45 0v.9a.225.225 0 01-.225.225zm0-1.8a.225.225 0 01-.225-.225v-.9a.225.225 0 11.45 0v.9a.225.225 0 01-.225.221zm0-1.8a.225.225 0 01-.225-.225v-.9a.225.225 0 11.45 0v.9a.225.225 0 01-.225.213zm0-1.8a.225.225 0 01-.225-.225v-.9a.225.225 0 01.45 0v.9a.225.225 0 01-.225.213zm0-1.8a.225.225 0 01-.225-.225v-.9a.225.225 0 11.45 0v.9a.225.225 0 01-.225.213zm0-1.8a.225.225 0 01-.225-.225v-.9a.225.225 0 11.45 0v.9a.225.225 0 01-.225.204zm0-1.8a.225.225 0 01-.225-.225v-.9a.225.225 0 01.45 0v.9a.225.225 0 01-.225.199zm0-1.8a.225.225 0 01-.225-.225v-.9a.225.225 0 01.45 0v.9a.225.225 0 01-.225.195zm0-1.8a.225.225 0 01-.225-.225v-.9a.225.225 0 01.45 0v.9a.225.225 0 01-.225.191zm0-1.8a.225.225 0 01-.225-.225v-.9a.225.225 0 01.45 0v.9a.225.225 0 01-.225.186zm0-1.8a.225.225 0 01-.225-.225v-.9a.225.225 0 01.45 0v.9a.225.225 0 01-.225.182zm0-1.8a.225.225 0 01-.225-.225v-.9a.225.225 0 01.45 0v.9a.225.225 0 01-.225.178zm0-1.8a.225.225 0 01-.225-.225v-.9a.225.225 0 11.45 0v.9a.225.225 0 01-.225.173zm0-1.8a.225.225 0 01-.225-.224v-.9a.225.225 0 01.45 0v.9a.225.225 0 01-.225.168zm0-1.8a.225.225 0 01-.225-.225v-.9a.225.225 0 11.45 0v.9a.225.225 0 01-.225.164zm0-1.8a.225.225 0 01-.225-.225v-.9a.225.225 0 01.45 0v.9a.225.225 0 01-.225.16zm0-1.8a.225.225 0 01-.225-.225v-.9a.225.225 0 01.45 0v.9a.225.225 0 01-.225.156zm0-1.8a.225.225 0 01-.225-.225v-.9a.225.225 0 01.45 0v.9a.225.225 0 01-.225.152zm0-1.8a.225.225 0 01-.225-.225v-.9a.225.225 0 11.45 0v.9a.225.225 0 01-.225.147zm0-1.8a.225.225 0 01-.225-.224v-.9a.225.225 0 01.45 0v.9a.225.225 0 01-.225.142zm0-1.8a.225.225 0 01-.225-.225v-.9a.225.225 0 11.45 0v.9a.225.225 0 01-.225.139zm0-1.8a.225.225 0 01-.225-.225v-.9a.225.225 0 11.45 0v.9a.225.225 0 01-.225.134zm0-1.8a.225.225 0 01-.225-.225v-.9a.225.225 0 11.45 0v.9a.225.225 0 01-.225.13zm0-1.8a.225.225 0 01-.225-.225v-.9a.225.225 0 01.45 0v.9a.225.225 0 01-.225.125z" class="prefix__cls-6" data-name="Path 348" transform="translate(-1718.184 -273.161)"/>
                </g>
                <g id="prefix__Group_310" data-name="Group 310" transform="translate(0 44.656)">
                    <path id="prefix__Path_349" d="M1718.409 398.13a.225.225 0 01-.225-.225v-.45a.225.225 0 01.45 0v.45a.225.225 0 01-.225.225z" class="prefix__cls-6" data-name="Path 349" transform="translate(-1718.184 -397.231)"/>
                </g>
            </g>
            <g id="prefix__Group_315" data-name="Group 315" transform="translate(87.331 35.042)">
                <g id="prefix__Group_312" data-name="Group 312">
                    <path id="prefix__Path_350" d="M1820.7 254.987a.225.225 0 01-.225-.225v-.45a.225.225 0 11.449 0v.45a.224.224 0 01-.224.225z" class="prefix__cls-6" data-name="Path 350" transform="translate(-1820.476 -254.088)"/>
                </g>
                <g id="prefix__Group_313" data-name="Group 313" transform="translate(0 1.37)">
                    <path id="prefix__Path_351" d="M1820.7 285.161a.225.225 0 01-.225-.225v-.921a.225.225 0 11.449 0v.921a.225.225 0 01-.224.225zm0-1.841a.225.225 0 01-.225-.225v-.921a.225.225 0 11.449 0v.921a.224.224 0 01-.224.225zm0-1.841a.225.225 0 01-.225-.225v-.921a.225.225 0 11.449 0v.921a.224.224 0 01-.224.225zm0-1.841a.225.225 0 01-.225-.225v-.92a.225.225 0 11.449 0v.92a.224.224 0 01-.224.224zm0-1.841a.225.225 0 01-.225-.225v-.92a.225.225 0 11.449 0v.92a.224.224 0 01-.224.228zm0-1.841a.225.225 0 01-.225-.225v-.92a.225.225 0 11.449 0v.92a.225.225 0 01-.224.224zm0-1.841a.225.225 0 01-.225-.225v-.921a.225.225 0 01.449 0v.921a.225.225 0 01-.224.224zm0-1.841a.225.225 0 01-.225-.225v-.921a.225.225 0 11.449 0v.921a.224.224 0 01-.224.224zm0-1.841a.225.225 0 01-.225-.225v-.921a.225.225 0 01.449 0v.921a.225.225 0 01-.224.223zm0-1.842a.225.225 0 01-.225-.225v-.92a.225.225 0 11.449 0v.92a.224.224 0 01-.224.224zm0-1.841a.225.225 0 01-.225-.225v-.925a.225.225 0 11.449 0v.921a.224.224 0 01-.224.228zm0-1.841a.225.225 0 01-.225-.225v-.921a.225.225 0 11.449 0v.921a.224.224 0 01-.224.224zm0-1.841a.225.225 0 01-.225-.225v-.92a.225.225 0 11.449 0v.92a.225.225 0 01-.224.224zm0-1.841a.225.225 0 01-.225-.225v-.92a.225.225 0 11.449 0V261a.224.224 0 01-.224.225zm0-1.841a.225.225 0 01-.225-.225v-.92a.225.225 0 11.449 0v.92a.224.224 0 01-.224.223z" class="prefix__cls-6" data-name="Path 351" transform="translate(-1820.476 -258.014)"/>
                </g>
                <g id="prefix__Group_314" data-name="Group 314" transform="translate(0 28.989)">
                    <path id="prefix__Path_352" d="M1820.7 338.042a.225.225 0 01-.225-.225v-.45a.225.225 0 11.449 0v.45a.225.225 0 01-.224.225z" class="prefix__cls-6" data-name="Path 352" transform="translate(-1820.476 -337.143)"/>
                </g>
            </g>
            <g id="prefix__Group_319" data-name="Group 319" transform="translate(16.714 69.714)">
                <g id="prefix__Group_316" data-name="Group 316">
                    <path id="prefix__Path_353" d="M1618.378 354.324a.225.225 0 01-.225-.225v-.45a.225.225 0 01.45 0v.45a.225.225 0 01-.225.225z" class="prefix__cls-6" data-name="Path 353" transform="translate(-1618.153 -353.425)"/>
                </g>
                <g id="prefix__Group_317" data-name="Group 317" transform="translate(0 1.376)">
                    <path id="prefix__Path_354" d="M1618.378 386.523a.225.225 0 01-.225-.225v-.926a.225.225 0 01.45 0v.926a.225.225 0 01-.225.225zm0-1.852a.225.225 0 01-.225-.225v-.926a.225.225 0 01.45 0v.926a.225.225 0 01-.225.225zm0-1.852a.225.225 0 01-.225-.225v-.926a.225.225 0 01.45 0v.926a.225.225 0 01-.225.225zm0-1.852a.225.225 0 01-.225-.225v-.926a.225.225 0 01.45 0v.926a.225.225 0 01-.225.225zm0-1.852a.225.225 0 01-.225-.225v-.926a.225.225 0 01.45 0v.926a.225.225 0 01-.225.225zm0-1.852a.225.225 0 01-.225-.225v-.926a.225.225 0 01.45 0v.926a.225.225 0 01-.225.225zm0-1.852a.225.225 0 01-.225-.225v-.926a.225.225 0 01.45 0v.926a.225.225 0 01-.225.225zm0-1.852a.225.225 0 01-.225-.225v-.926a.225.225 0 01.45 0v.926a.225.225 0 01-.225.225zm0-1.852a.225.225 0 01-.225-.225v-.926a.225.225 0 01.45 0v.926a.225.225 0 01-.225.225zm0-1.852a.225.225 0 01-.225-.225v-.93a.225.225 0 01.45 0v.926a.225.225 0 01-.225.229zm0-1.852a.225.225 0 01-.225-.225v-.926a.225.225 0 01.45 0v.926a.225.225 0 01-.225.222zm0-1.852a.225.225 0 01-.225-.225V365a.225.225 0 01.45 0v.926a.225.225 0 01-.225.225zm0-1.852a.225.225 0 01-.225-.225v-.926a.225.225 0 01.45 0v.926a.225.225 0 01-.225.226zm0-1.852a.225.225 0 01-.225-.225v-.922a.225.225 0 01.45 0v.926a.225.225 0 01-.225.22zm0-1.852a.225.225 0 01-.225-.225v-.926a.225.225 0 01.45 0v.926a.225.225 0 01-.225.224zm0-1.852a.225.225 0 01-.225-.224v-.926a.225.225 0 01.45 0v.926a.225.225 0 01-.225.223z" class="prefix__cls-6" data-name="Path 354" transform="translate(-1618.153 -357.367)"/>
                </g>
                <g id="prefix__Group_318" data-name="Group 318" transform="translate(0 31.008)">
                    <path id="prefix__Path_355" d="M1618.378 443.166a.225.225 0 01-.225-.225v-.45a.225.225 0 01.45 0v.45a.225.225 0 01-.225.225z" class="prefix__cls-6" data-name="Path 355" transform="translate(-1618.153 -442.267)"/>
                </g>
            </g>
        </g>
        <g id="prefix__Group_334" data-name="Group 334" transform="translate(222.962 58.192)">
            <path id="prefix__Path_356" d="M2298.138 342.91c-2.428-1.459-2.727-23.556-10.806-28.076s-5.256 15.7-13.508 10.918c-7.852-4.548-5.449-28.141-13.509-32.756s-5.308 18.448-13.508 14.038c-7.131-3.835-6.527-13.016-11.2-17.073s-5.74 4.858-11.624 1.648-.88-20.9-13.386-28.122v33.695l87.54 50.872z" data-name="Path 356" transform="translate(-2210.067 -262.955)"/>
            <g id="prefix__Group_321" data-name="Group 321">
                <path id="prefix__Path_357" d="M2297.144 342.449a.522.522 0 01-.273-.076c-1.017-.61-1.517-3.008-2.462-7.938-1.4-7.313-3.321-17.326-8.331-20.13a3.089 3.089 0 00-2.62-.465c-1.542.589-2.424 3.163-3.278 5.651-.941 2.743-1.914 5.579-3.953 6.341a4.215 4.215 0 01-3.663-.613c-4.108-2.379-5.466-9.27-6.9-16.565-1.355-6.876-2.757-13.987-6.6-16.189a2.723 2.723 0 00-2.4-.409c-1.683.681-2.616 3.9-3.518 7.008-1.03 3.553-2 6.909-4.212 7.837a3.826 3.826 0 01-3.366-.39c-4.27-2.3-5.9-6.493-7.343-10.2-1.061-2.728-2.064-5.306-3.952-6.945-1.98-1.721-3.039-.841-4.643.494s-3.612 3.008-6.887 1.22c-2.627-1.433-3.246-5.327-3.962-9.835-1-6.3-2.246-14.142-9.435-18.293a.533.533 0 01.532-.923c7.63 4.4 8.919 12.524 9.955 19.049.672 4.231 1.252 7.884 3.42 9.067 2.64 1.44 4.124.2 5.695-1.1s3.357-2.795 6.024-.48c2.086 1.812 3.135 4.509 4.246 7.363 1.44 3.7 2.93 7.532 6.855 9.643a2.8 2.8 0 002.449.347c1.74-.731 2.687-4 3.6-7.151 1.018-3.509 1.979-6.824 4.141-7.7a3.748 3.748 0 013.329.472c4.269 2.444 5.718 9.8 7.119 16.909 1.329 6.741 2.7 13.712 6.392 15.848a3.245 3.245 0 002.756.537c1.567-.585 2.458-3.18 3.318-5.688.934-2.721 1.9-5.534 3.905-6.3a4.114 4.114 0 013.52.53c5.442 3.045 7.416 13.341 8.857 20.858.614 3.2 1.309 6.834 1.963 7.227a.533.533 0 01-.275.989z" class="prefix__cls-4" data-name="Path 357" transform="translate(-2209.074 -261.961)"/>
            </g>
            <g id="prefix__Group_325" data-name="Group 325" transform="translate(50.024 29.817)">
                <g id="prefix__Group_322" data-name="Group 322">
                    <path id="prefix__Path_358" d="M2352.623 348.289a.225.225 0 01-.225-.225v-.45a.225.225 0 11.449 0v.45a.225.225 0 01-.224.225z" class="prefix__cls-6" data-name="Path 358" transform="translate(-2352.398 -347.39)"/>
                </g>
                <g id="prefix__Group_323" data-name="Group 323" transform="translate(0 1.374)">
                    <path id="prefix__Path_359" d="M2352.623 382.27a.224.224 0 01-.225-.225v-.924a.225.225 0 11.449 0v.924a.225.225 0 01-.224.225zm0-1.848a.224.224 0 01-.225-.225v-.924a.225.225 0 11.449 0v.924a.225.225 0 01-.224.225zm0-1.848a.224.224 0 01-.225-.225v-.925a.225.225 0 11.449 0v.925a.225.225 0 01-.224.225zm0-1.848a.225.225 0 01-.225-.225v-.924a.225.225 0 01.449 0v.924a.225.225 0 01-.224.225zm0-1.848a.224.224 0 01-.225-.225v-.924a.225.225 0 11.449 0v.924a.225.225 0 01-.224.225zm0-1.848a.225.225 0 01-.225-.225v-.924a.225.225 0 11.449 0v.924a.225.225 0 01-.224.225zm0-1.848a.225.225 0 01-.225-.225v-.925a.225.225 0 01.449 0v.925a.225.225 0 01-.224.225zm0-1.848a.224.224 0 01-.225-.225v-.924a.225.225 0 11.449 0v.924a.225.225 0 01-.224.224zm0-1.848a.224.224 0 01-.225-.225v-.924a.225.225 0 11.449 0v.924a.225.225 0 01-.224.224zm0-1.848a.224.224 0 01-.225-.224v-.924a.225.225 0 11.449 0v.924a.225.225 0 01-.224.223zm0-1.848a.225.225 0 01-.225-.225v-.924a.225.225 0 11.449 0v.924a.225.225 0 01-.224.223zm0-1.848a.225.225 0 01-.225-.225v-.924a.225.225 0 11.449 0v.924a.225.225 0 01-.224.224zm0-1.848a.225.225 0 01-.225-.225v-.924a.225.225 0 11.449 0v.924a.225.225 0 01-.224.223zm0-1.848a.224.224 0 01-.225-.225v-.921a.225.225 0 11.449 0v.924a.225.225 0 01-.224.22zm0-1.848a.224.224 0 01-.225-.225v-.924a.225.225 0 11.449 0v.924a.225.225 0 01-.224.227zm0-1.848a.224.224 0 01-.225-.225v-.925a.225.225 0 11.449 0v.924a.225.225 0 01-.224.224zm0-1.848a.224.224 0 01-.225-.225v-.924a.225.225 0 11.449 0v.924a.225.225 0 01-.224.223z" class="prefix__cls-6" data-name="Path 359" transform="translate(-2352.398 -351.326)"/>
                </g>
                <g id="prefix__Group_324" data-name="Group 324" transform="translate(0 32.793)">
                    <path id="prefix__Path_360" d="M2352.623 442.244a.224.224 0 01-.225-.225v-.45a.225.225 0 11.449 0v.45a.225.225 0 01-.224.225z" class="prefix__cls-6" data-name="Path 360" transform="translate(-2352.398 -441.345)"/>
                </g>
            </g>
            <g id="prefix__Group_329" data-name="Group 329" transform="translate(23.711 25.907)">
                <g id="prefix__Group_326" data-name="Group 326">
                    <path id="prefix__Path_361" d="M2277.233 337.087a.225.225 0 01-.225-.225v-.45a.225.225 0 11.449 0v.45a.225.225 0 01-.224.225z" class="prefix__cls-6" data-name="Path 361" transform="translate(-2277.008 -336.188)"/>
                </g>
                <g id="prefix__Group_327" data-name="Group 327" transform="translate(0 1.354)">
                    <path id="prefix__Path_362" d="M2277.233 359.5a.225.225 0 01-.225-.225v-.9a.225.225 0 11.449 0v.9a.225.225 0 01-.224.225zm0-1.808a.225.225 0 01-.225-.225v-.9a.225.225 0 11.449 0v.9a.225.225 0 01-.224.233zm0-1.808a.225.225 0 01-.225-.225v-.9a.225.225 0 11.449 0v.9a.225.225 0 01-.224.228zm0-1.809a.225.225 0 01-.225-.224v-.9a.225.225 0 11.449 0v.9a.225.225 0 01-.224.227zm0-1.808a.225.225 0 01-.225-.225v-.9a.225.225 0 11.449 0v.9a.225.225 0 01-.224.228zm0-1.809a.225.225 0 01-.225-.225v-.9a.225.225 0 11.449 0v.9a.225.225 0 01-.224.228zm0-1.808a.225.225 0 01-.225-.225v-.9a.225.225 0 11.449 0v.9a.225.225 0 01-.224.228zm0-1.808a.225.225 0 01-.225-.225v-.9a.225.225 0 11.449 0v.9a.225.225 0 01-.224.228zm0-1.808a.225.225 0 01-.225-.225v-.9a.225.225 0 01.449 0v.9a.225.225 0 01-.224.228zm0-1.808a.225.225 0 01-.225-.225v-.9a.225.225 0 11.449 0v.9a.225.225 0 01-.224.227zm0-1.808a.225.225 0 01-.225-.225v-.9a.225.225 0 11.449 0v.9a.225.225 0 01-.224.227z" class="prefix__cls-6" data-name="Path 362" transform="translate(-2277.008 -340.066)"/>
                </g>
                <g id="prefix__Group_328" data-name="Group 328" transform="translate(0 21.246)">
                    <path id="prefix__Path_363" d="M2277.233 397.958a.225.225 0 01-.225-.225v-.45a.225.225 0 11.449 0v.45a.225.225 0 01-.224.225z" class="prefix__cls-6" data-name="Path 363" transform="translate(-2277.008 -397.059)"/>
                </g>
            </g>
            <g id="prefix__Group_333" data-name="Group 333" transform="translate(75.755 51.46)">
                <g id="prefix__Group_330" data-name="Group 330">
                    <path id="prefix__Path_364" d="M2426.344 410.3a.225.225 0 01-.225-.225v-.45a.225.225 0 01.449 0v.45a.225.225 0 01-.224.225z" class="prefix__cls-6" data-name="Path 364" transform="translate(-2426.119 -409.398)"/>
                </g>
                <g id="prefix__Group_331" data-name="Group 331" transform="translate(0 1.341)">
                    <path id="prefix__Path_365" d="M2426.344 434.192a.225.225 0 01-.225-.225v-.891a.225.225 0 11.449 0v.891a.224.224 0 01-.224.225zm0-1.782a.225.225 0 01-.225-.225v-.891a.225.225 0 11.449 0v.891a.224.224 0 01-.224.225zm0-1.783a.225.225 0 01-.225-.225v-.891a.225.225 0 01.449 0v.891a.224.224 0 01-.224.225zm0-1.782a.225.225 0 01-.225-.225v-.891a.225.225 0 11.449 0v.891a.224.224 0 01-.224.224zm0-1.783a.225.225 0 01-.225-.225v-.891a.225.225 0 11.449 0v.891a.224.224 0 01-.224.224zm0-1.783a.225.225 0 01-.225-.224v-.892a.225.225 0 01.449 0v.892a.224.224 0 01-.224.224zm0-1.783a.225.225 0 01-.225-.225v-.891a.225.225 0 11.449 0v.891a.224.224 0 01-.224.229zm0-1.783a.225.225 0 01-.225-.225v-.888a.225.225 0 11.449 0v.891a.224.224 0 01-.224.222zm0-1.782a.225.225 0 01-.225-.225v-.891a.225.225 0 11.449 0v.891a.224.224 0 01-.224.224zm0-1.783a.225.225 0 01-.225-.225v-.891a.225.225 0 11.449 0v.891a.224.224 0 01-.224.224zm0-1.782a.225.225 0 01-.225-.225v-.891a.225.225 0 11.449 0v.891a.224.224 0 01-.224.224zm0-1.783a.225.225 0 01-.225-.225v-.891a.225.225 0 11.449 0v.891a.224.224 0 01-.224.224z" class="prefix__cls-6" data-name="Path 365" transform="translate(-2426.119 -413.241)"/>
                </g>
                <g id="prefix__Group_332" data-name="Group 332" transform="translate(0 22.734)">
                    <path id="prefix__Path_366" d="M2426.344 475.434a.225.225 0 01-.225-.225v-.45a.225.225 0 11.449 0v.45a.224.224 0 01-.224.225z" class="prefix__cls-6" data-name="Path 366" transform="translate(-2426.119 -474.534)"/>
                </g>
            </g>
        </g>
        <g id="prefix__Group_345" data-name="Group 345" transform="translate(252.868 27.327)">
            <g id="prefix__Group_336" data-name="Group 336">
                <path id="prefix__Path_367" d="M2306.372 229.938v-7.346l-6.265-1.206a.951.951 0 00-.7.132v-.007l-3.124 1.8 4.066.823z" class="prefix__cls-8" data-name="Path 367" transform="translate(-2295.747 -204.671)"/>
                <g id="prefix__Group_335" data-name="Group 335" transform="translate(7.445)">
                    <path id="prefix__Path_368" d="M2361.974 240.235l.469-.271a3 3 0 001.356-2.349v-37.267a3 3 0 00-1.356-2.349l-41.819-24.144a3 3 0 00-2.713 0l-.468.27a3 3 0 00-1.356 2.349v37.267a3 3 0 001.356 2.349l41.819 24.144a3 3 0 002.712.001z" class="prefix__cls-8" data-name="Path 368" transform="translate(-2316.086 -173.531)"/>
                    <path id="prefix__Path_369" d="M2440.922 272.017v-24.144a2.77 2.77 0 00-.4-1.337l-5.965 3.444v36.727l1.824 1.053a3 3 0 002.712 0l.47-.271a3 3 0 001.355-2.349z" class="prefix__cls-4" data-name="Path 369" transform="translate(-2393.209 -221.055)"/>
                    <path id="prefix__Path_370" d="M2317.442 179.376l41.819 24.144a3 3 0 011.356 2.349v37.267c0 .865-.607 1.216-1.356.783l-41.819-24.144a3 3 0 01-1.356-2.349v-37.267c0-.865.607-1.216 1.356-.783z" class="prefix__cls-9" data-name="Path 370" transform="translate(-2316.086 -177.215)"/>
                </g>
                <path id="prefix__Path_371" d="M2302.2 235.2l-7.137-6.868a.989.989 0 01.872-1.683l6.265 1.206z" class="prefix__cls-9" data-name="Path 371" transform="translate(-2294.756 -208.096)"/>
            </g>
            <g id="prefix__Group_343" data-name="Group 343" transform="translate(27.413 25.284)">
                <g id="prefix__Group_338" data-name="Group 338" transform="translate(.981 3.203)">
                    <g id="prefix__Group_337" data-name="Group 337">
                        <path id="prefix__Path_372" d="M2376.644 260.106a.622.622 0 01.167.427c0 5.832 4.175 12.838 9.161 15.866 5.186 3.15 9.3.795 9.16-5.289a20.9 20.9 0 00-8.318-15.335l.278-.16v-.466c4.915 3.481 8.745 10.523 8.745 16.368 0 6.281-4.425 8.836-9.865 5.7s-9.91-10.832-9.865-17.087c.048-.238.367-.179.537-.024z" class="prefix__cls-10" data-name="Path 372" transform="translate(-2376.106 -255.15)"/>
                    </g>
                </g>
                <g id="prefix__Group_340" data-name="Group 340">
                    <g id="prefix__Group_339" data-name="Group 339">
                        <path id="prefix__Path_373" d="M2373.3 253.64c0-6.843 4.821-9.626 10.747-6.2a21.475 21.475 0 017.063 7.134l-1.623 1.21a16.54 16.54 0 00-5.44-5.5c-4.565-2.636-8.279-.491-8.279 4.78s3.714 11.7 8.279 14.339 8.279.491 8.279-4.78l2.468 1.425c0 6.842-4.821 9.626-10.746 6.2s-10.748-11.765-10.748-18.608z" class="prefix__cls-11" data-name="Path 373" transform="translate(-2373.296 -245.972)"/>
                    </g>
                </g>
                <g id="prefix__Group_342" data-name="Group 342" transform="translate(4.489 5.805)">
                    <g id="prefix__Group_341" data-name="Group 341">
                        <path id="prefix__Path_374" d="M2392.408 263.458a13.816 13.816 0 016.251 10.827c0 3.986-2.8 5.6-6.251 3.609a13.815 13.815 0 01-6.251-10.827c0-3.986 2.798-5.602 6.251-3.609z" class="prefix__cls-12" data-name="Path 374" transform="translate(-2386.157 -262.604)"/>
                    </g>
                </g>
            </g>
            <g id="prefix__Group_344" data-name="Group 344" transform="translate(12.463 13.101)">
                <path id="prefix__Path_375" d="M2331.481 211.224l10.689 6.171a2.114 2.114 0 011.017 1.608c0 .564-.456.758-1.017.434l-10.689-6.171a2.111 2.111 0 01-1.017-1.608c0-.564.455-.758 1.017-.434z" class="prefix__cls-4" data-name="Path 375" transform="translate(-2330.464 -211.067)"/>
                <path id="prefix__Path_376" d="M2331.481 226.362l10.689 6.171a2.113 2.113 0 011.017 1.608c0 .564-.456.758-1.017.434l-10.689-6.171a2.112 2.112 0 01-1.017-1.608c0-.564.455-.759 1.017-.434z" class="prefix__cls-4" data-name="Path 376" transform="translate(-2330.464 -220.921)"/>
                <path id="prefix__Path_377" d="M2331.481 241.5l10.689 6.171a2.114 2.114 0 011.017 1.608c0 .564-.456.758-1.017.434l-10.689-6.171a2.112 2.112 0 01-1.017-1.609c0-.564.455-.758 1.017-.433z" class="prefix__cls-4" data-name="Path 377" transform="translate(-2330.464 -230.775)"/>
                <path id="prefix__Path_378" d="M2331.481 256.637l10.689 6.171a2.113 2.113 0 011.017 1.608c0 .564-.456.758-1.017.434l-10.689-6.171a2.111 2.111 0 01-1.017-1.608c0-.564.455-.758 1.017-.434z" class="prefix__cls-4" data-name="Path 378" transform="translate(-2330.464 -240.63)"/>
                <path id="prefix__Path_379" d="M2331.481 271.775l10.689 6.171a2.113 2.113 0 011.017 1.608c0 .564-.456.758-1.017.433l-10.689-6.171a2.112 2.112 0 01-1.017-1.608c0-.563.455-.758 1.017-.433z" class="prefix__cls-4" data-name="Path 379" transform="translate(-2330.464 -250.484)"/>
            </g>
        </g>
        <g id="prefix__Group_365" data-name="Group 365" transform="translate(9.034 3.213)">
            <g id="prefix__Group_347" data-name="Group 347">
                <path id="prefix__Path_380" d="M1723.739 160.849V153.5l6.261-1.2a.953.953 0 01.7.132v-.007l3.124 1.8-4.066.824z" class="prefix__cls-8" data-name="Path 380" transform="translate(-1679.207 -135.582)"/>
                <g id="prefix__Group_346" data-name="Group 346">
                    <path id="prefix__Path_381" d="M1597.975 171.146l-.469-.271a3 3 0 01-1.356-2.349v-37.267a3 3 0 011.356-2.349l41.82-24.144a3 3 0 012.712 0l.468.27a3 3 0 011.356 2.349v37.267a3 3 0 01-1.356 2.349l-41.819 24.144a3 3 0 01-2.712.001z" class="prefix__cls-8" data-name="Path 381" transform="translate(-1596.15 -104.442)"/>
                    <path id="prefix__Path_382" d="M1596.15 202.928v-24.144a2.772 2.772 0 01.4-1.337l5.965 3.444v36.727l-1.825 1.053a3 3 0 01-2.712 0l-.47-.272a3 3 0 01-1.355-2.348z" class="prefix__cls-4" data-name="Path 382" transform="translate(-1596.15 -151.966)"/>
                    <path id="prefix__Path_383" d="M1648.439 110.286l-41.819 24.144a3 3 0 00-1.356 2.349v37.268c0 .865.607 1.216 1.356.783l41.819-24.144a3 3 0 001.356-2.349V111.07c.005-.87-.607-1.216-1.356-.784z" class="prefix__cls-9" data-name="Path 383" transform="translate(-1602.083 -108.126)"/>
                </g>
                <path id="prefix__Path_384" d="M1732.852 166.109l7.138-6.868a.989.989 0 00-.873-1.684l-6.265 1.206z" class="prefix__cls-9" data-name="Path 384" transform="translate(-1685.139 -139.006)"/>
            </g>
            <g id="prefix__Group_364" data-name="Group 364" transform="translate(7.549 17.557)">
                <path id="prefix__Path_385" d="M1618.8 192.256v-12.37a6.623 6.623 0 013.312-5.736 2.778 2.778 0 014.158 2.187 2.162 2.162 0 003.262 1.687 5.324 5.324 0 002.592-4.3l.549-10.847a5.566 5.566 0 012.749-4.524 3.128 3.128 0 014.7 2.508l.372 6.041a1.867 1.867 0 002.8 1.5 5.966 5.966 0 002.943-4.478l.253-2.173a6.2 6.2 0 013.07-4.662 2.866 2.866 0 014.3 2.485v12.447z" class="prefix__cls-11" data-name="Path 385" transform="translate(-1618.441 -156.018)"/>
                <g id="prefix__Group_352" data-name="Group 352" transform="translate(3.51 17.113)">
                    <g id="prefix__Group_351" data-name="Group 351" transform="translate(.439 .633)">
                        <g id="prefix__Group_348" data-name="Group 348">
                            <path id="prefix__Path_386" d="M1629.32 206.49a.225.225 0 01-.225-.225v-.45a.225.225 0 11.449 0v.45a.224.224 0 01-.224.225z" class="prefix__cls-6" data-name="Path 386" transform="translate(-1629.095 -205.591)"/>
                        </g>
                        <g id="prefix__Group_349" data-name="Group 349" transform="translate(0 1.341)">
                            <path id="prefix__Path_387" d="M1629.32 223.262a.225.225 0 01-.225-.225v-.892a.225.225 0 11.449 0v.892a.225.225 0 01-.224.225zm0-1.784a.225.225 0 01-.225-.225v-.892a.225.225 0 01.449 0v.892a.224.224 0 01-.224.225zm0-1.784a.225.225 0 01-.225-.224v-.892a.225.225 0 11.449 0v.892a.224.224 0 01-.224.224zm0-1.784a.225.225 0 01-.225-.225v-.892a.225.225 0 11.449 0v.892a.224.224 0 01-.224.226zm0-1.784a.225.225 0 01-.225-.225v-.892a.225.225 0 11.449 0v.892a.225.225 0 01-.224.226zm0-1.784a.225.225 0 01-.225-.225v-.892a.225.225 0 11.449 0v.892a.224.224 0 01-.224.226zm0-1.784a.225.225 0 01-.225-.225v-.892a.225.225 0 11.449 0v.892a.224.224 0 01-.224.226zm0-1.784a.225.225 0 01-.225-.225v-.892a.225.225 0 11.449 0v.892a.224.224 0 01-.224.227z" class="prefix__cls-6" data-name="Path 387" transform="translate(-1629.095 -209.434)"/>
                        </g>
                        <g id="prefix__Group_350" data-name="Group 350" transform="translate(0 15.611)">
                            <path id="prefix__Path_388" d="M1629.32 251.218a.225.225 0 01-.225-.225v-.45a.225.225 0 11.449 0v.45a.224.224 0 01-.224.225z" class="prefix__cls-6" data-name="Path 388" transform="translate(-1629.095 -250.319)"/>
                        </g>
                    </g>
                    <path id="prefix__Path_389" d="M1628.5 203.867a1.469 1.469 0 00-.664 1.151c0 .424.3.6.664.384a1.468 1.468 0 00.665-1.151c0-.424-.298-.596-.665-.384z" class="prefix__cls-13" data-name="Path 389" transform="translate(-1627.836 -203.776)"/>
                </g>
                <g id="prefix__Group_357" data-name="Group 357" transform="translate(17.217 1.052)">
                    <g id="prefix__Group_356" data-name="Group 356" transform="translate(.44 .633)">
                        <g id="prefix__Group_353" data-name="Group 353">
                            <path id="prefix__Path_390" d="M1668.593 160.471a.225.225 0 01-.225-.225v-.45a.225.225 0 11.45 0v.45a.225.225 0 01-.225.225z" class="prefix__cls-6" data-name="Path 390" transform="translate(-1668.368 -159.572)"/>
                        </g>
                        <g id="prefix__Group_354" data-name="Group 354" transform="translate(0 1.382)">
                            <path id="prefix__Path_391" d="M1668.593 185.427a.225.225 0 01-.225-.225v-.932a.225.225 0 01.45 0v.932a.225.225 0 01-.225.225zm0-1.865a.224.224 0 01-.225-.224v-.938a.225.225 0 01.45 0v.933a.225.225 0 01-.225.229zm0-1.865a.225.225 0 01-.225-.225v-.932a.225.225 0 01.45 0v.932a.225.225 0 01-.225.228zm0-1.865a.225.225 0 01-.225-.225v-.932a.225.225 0 01.45 0v.932a.225.225 0 01-.225.225zm0-1.865a.225.225 0 01-.225-.225v-.933a.225.225 0 01.45 0v.933a.225.225 0 01-.225.225zm0-1.865a.225.225 0 01-.225-.225v-.933a.225.225 0 11.45 0v.933a.225.225 0 01-.225.223zm0-1.865a.225.225 0 01-.225-.225v-.932a.225.225 0 11.45 0v.932a.225.225 0 01-.225.226zm0-1.865a.225.225 0 01-.225-.225v-.932a.225.225 0 11.45 0v.932a.225.225 0 01-.225.226zm0-1.865a.225.225 0 01-.225-.225v-.933a.225.225 0 11.45 0v.933a.225.225 0 01-.225.226zm0-1.865a.225.225 0 01-.225-.225v-.933a.225.225 0 01.45 0v.933a.225.225 0 01-.225.227zm0-1.865a.225.225 0 01-.225-.225v-.932a.225.225 0 11.45 0v.932a.225.225 0 01-.225.227zm0-1.865a.225.225 0 01-.225-.225v-.932a.225.225 0 01.45 0v.932a.225.225 0 01-.225.227z" class="prefix__cls-6" data-name="Path 391" transform="translate(-1668.368 -163.532)"/>
                        </g>
                        <g id="prefix__Group_355" data-name="Group 355" transform="translate(0 23.76)">
                            <path id="prefix__Path_392" d="M1668.593 228.545a.225.225 0 01-.225-.225v-.45a.225.225 0 01.45 0v.45a.225.225 0 01-.225.225z" class="prefix__cls-6" data-name="Path 392" transform="translate(-1668.368 -227.646)"/>
                        </g>
                    </g>
                    <path id="prefix__Path_393" d="M1667.772 157.849a1.469 1.469 0 00-.664 1.151c0 .424.3.6.664.384a1.469 1.469 0 00.665-1.151c0-.424-.298-.596-.665-.384z" class="prefix__cls-13" data-name="Path 393" transform="translate(-1667.108 -157.758)"/>
                </g>
                <g id="prefix__Group_362" data-name="Group 362" transform="translate(30.942)">
                    <g id="prefix__Group_361" data-name="Group 361" transform="translate(.44 .633)">
                        <g id="prefix__Group_358" data-name="Group 358">
                            <path id="prefix__Path_394" d="M1707.915 157.458a.225.225 0 01-.225-.225v-.45a.225.225 0 11.449 0v.45a.224.224 0 01-.224.225z" class="prefix__cls-6" data-name="Path 394" transform="translate(-1707.69 -156.559)"/>
                        </g>
                        <g id="prefix__Group_359" data-name="Group 359" transform="translate(0 1.315)">
                            <path id="prefix__Path_395" d="M1707.915 175.483a.225.225 0 01-.225-.225v-.865a.225.225 0 11.449 0v.865a.224.224 0 01-.224.225zm0-1.73a.225.225 0 01-.225-.225v-.865a.225.225 0 11.449 0v.865a.224.224 0 01-.224.225zm0-1.73a.225.225 0 01-.225-.225v-.865a.225.225 0 11.449 0v.865a.224.224 0 01-.224.224zm0-1.73a.225.225 0 01-.225-.225v-.868a.225.225 0 11.449 0v.865a.224.224 0 01-.224.227zm0-1.73a.225.225 0 01-.225-.224v-.865a.225.225 0 11.449 0v.865a.224.224 0 01-.224.223zm0-1.73a.225.225 0 01-.225-.225v-.865a.225.225 0 11.449 0v.865a.224.224 0 01-.224.224zm0-1.73a.225.225 0 01-.225-.225v-.865a.225.225 0 11.449 0v.865a.224.224 0 01-.224.222zm0-1.73a.225.225 0 01-.225-.225v-.865a.225.225 0 11.449 0v.865a.224.224 0 01-.224.223zm0-1.73a.225.225 0 01-.225-.225v-.865a.225.225 0 11.449 0v.865a.224.224 0 01-.224.222z" class="prefix__cls-6" data-name="Path 395" transform="translate(-1707.69 -160.326)"/>
                        </g>
                        <g id="prefix__Group_360" data-name="Group 360" transform="translate(0 16.888)">
                            <path id="prefix__Path_396" d="M1707.915 205.843a.225.225 0 01-.225-.224v-.45a.225.225 0 11.449 0v.45a.224.224 0 01-.224.224z" class="prefix__cls-6" data-name="Path 396" transform="translate(-1707.69 -204.944)"/>
                        </g>
                    </g>
                    <path id="prefix__Path_397" d="M1707.095 154.836a1.469 1.469 0 00-.664 1.151c0 .424.3.6.664.384a1.468 1.468 0 00.665-1.151c-.001-.42-.299-.596-.665-.384z" class="prefix__cls-13" data-name="Path 397" transform="translate(-1706.43 -154.745)"/>
                </g>
                <g id="prefix__Group_363" data-name="Group 363" transform="translate(0 20.502)">
                    <path id="prefix__Path_398" d="M1618.135 234.435a.355.355 0 01-.178-.663l35.053-20.238a.355.355 0 01.355.615l-35.053 20.238a.351.351 0 01-.177.048z" class="prefix__cls-12" data-name="Path 398" transform="translate(-1617.779 -213.486)"/>
                </g>
            </g>
        </g>
        <g id="prefix__Group_383" data-name="Group 383" transform="translate(87.059 164.153)">
            <g id="prefix__Group_382" data-name="Group 382">
                <g id="prefix__Group_366" data-name="Group 366">
                    <path id="prefix__Path_399" d="M1862.874 565.875l-41.819 24.144a3 3 0 00-1.356 2.349v.54a3 3 0 001.356 2.349l41.819 24.144a3 3 0 002.713 0l41.818-24.144a3 3 0 001.357-2.349v-.54a3 3 0 00-1.356-2.349l-41.819-24.144a3 3 0 00-2.713 0z" class="prefix__cls-14" data-name="Path 399" transform="translate(-1819.699 -565.55)"/>
                    <path id="prefix__Path_400" d="M1862.874 565.875l-41.819 24.144a3 3 0 00-1.356 2.349v.54a3 3 0 001.356 2.349l41.819 24.144a3 3 0 002.713 0l41.818-24.144a3 3 0 001.357-2.349v-.54a3 3 0 00-1.356-2.349l-41.819-24.144a3 3 0 00-2.713 0z" class="prefix__cls-15" data-name="Path 400" transform="translate(-1819.699 -565.55)"/>
                </g>
                <g id="prefix__Group_367" data-name="Group 367" transform="translate(0 23.415)">
                    <path id="prefix__Path_401" d="M1822.88 632.637l-1.825 1.053a3 3 0 00-1.356 2.349v.54a3 3 0 001.356 2.349l41.819 24.144a2.774 2.774 0 001.356.324v-6.887z" class="prefix__cls-14" data-name="Path 401" transform="translate(-1819.699 -632.637)"/>
                    <path id="prefix__Path_402" d="M1822.88 632.637l-1.825 1.053a3 3 0 00-1.356 2.349v.54a3 3 0 001.356 2.349l41.819 24.144a2.774 2.774 0 001.356.324v-6.887z" class="prefix__cls-16" data-name="Path 402" transform="translate(-1819.699 -632.637)"/>
                </g>
                <g id="prefix__Group_368" data-name="Group 368" transform="translate(.795)">
                    <path id="prefix__Path_403" d="M1864.356 565.875l-41.819 24.144a.827.827 0 000 1.566l41.819 24.144a3 3 0 002.713 0l41.819-24.144a.827.827 0 000-1.566l-41.819-24.144a3 3 0 00-2.713 0z" class="prefix__cls-14" data-name="Path 403" transform="translate(-1821.976 -565.55)"/>
                    <path id="prefix__Path_404" d="M1864.356 565.875l-41.819 24.144a.827.827 0 000 1.566l41.819 24.144a3 3 0 002.713 0l41.819-24.144a.827.827 0 000-1.566l-41.819-24.144a3 3 0 00-2.713 0z" class="prefix__cls-17" data-name="Path 404" transform="translate(-1821.976 -565.55)"/>
                </g>
                <g id="prefix__Group_381" data-name="Group 381" transform="translate(21.973 11.921)">
                    <g id="prefix__Group_371" data-name="Group 371">
                        <g id="prefix__Group_370" data-name="Group 370">
                            <g id="prefix__Group_369" data-name="Group 369">
                                <path id="prefix__Path_405" d="M1904.579 614.549l-19.621 1.794c-1.887-6.878 6.241-13.337 18.154-14.426 7.148-.654 13.742.583 18.859 3.538l-13.748 7.937a10.592 10.592 0 01-3.644 1.157z" data-name="Path 405" transform="translate(-1883.977 -601.034)" style="fill-rule:evenodd;fill:#455a64"/>
                                <path id="prefix__Path_406" d="M1883.634 615.725a.711.711 0 01-.685-.522 8.475 8.475 0 011.384-7.238c3.008-4.342 9.509-7.363 17.391-8.084 7.334-.67 14 .585 19.279 3.63a.711.711 0 010 1.23l-13.748 7.938a11.29 11.29 0 01-3.935 1.249l-19.621 1.795-.065.002zm21.883-14.6q-1.8 0-3.664.171c-7.356.672-13.622 3.538-16.352 7.478a7.182 7.182 0 00-1.313 5.478l19-1.738a9.926 9.926 0 003.355-1.065l12.649-7.3a30.051 30.051 0 00-13.675-3.024z" class="prefix__cls-6" data-name="Path 406" transform="translate(-1882.653 -599.705)"/>
                            </g>
                        </g>
                    </g>
                    <g id="prefix__Group_374" data-name="Group 374" transform="translate(.272 12.794)">
                        <g id="prefix__Group_373" data-name="Group 373">
                            <g id="prefix__Group_372" data-name="Group 372">
                                <path id="prefix__Path_407" d="M1908.332 639.7l8.62 9.767c-10.747 3.161-23.9.695-29.374-5.51a9.05 9.05 0 01-2.111-3.752l19.621-1.794a4.338 4.338 0 013.244 1.289z" data-name="Path 407" transform="translate(-1884.756 -637.685)" style="fill-rule:evenodd;fill:#f07549"/>
                                <path id="prefix__Path_408" d="M1905.789 650.214c-8.173 0-16.088-2.6-20.07-7.115a9.8 9.8 0 01-2.264-4.034.711.711 0 01.62-.9l19.621-1.794a5.067 5.067 0 013.843 1.527l8.62 9.767a.71.71 0 01-.332 1.151 35.826 35.826 0 01-10.038 1.398zm-20.695-10.714a8.78 8.78 0 001.69 2.655c5.121 5.8 17.28 8.218 27.556 5.6l-7.867-8.914a3.641 3.641 0 00-2.647-1.052z" class="prefix__cls-6" data-name="Path 408" transform="translate(-1883.431 -636.361)"/>
                            </g>
                        </g>
                    </g>
                    <g id="prefix__Group_377" data-name="Group 377" transform="translate(22.747 10.653)">
                        <g id="prefix__Group_376" data-name="Group 376">
                            <g id="prefix__Group_375" data-name="Group 375">
                                <path id="prefix__Path_409" d="M1950.9 634.059l19.621-1.794c1.51 5.5-3.058 10.678-11.656 13.207l-8.62-9.767c-.711-.81-.418-1.547.655-1.646z" data-name="Path 409" transform="translate(-1949.148 -631.554)" style="fill-rule:evenodd;fill:#263238"/>
                                <path id="prefix__Path_410" d="M1957.546 644.857a.713.713 0 01-.533-.24l-8.62-9.767a1.594 1.594 0 011.122-2.824l19.621-1.795a.71.71 0 01.75.52c1.619 5.9-3.146 11.431-12.141 14.077a.71.71 0 01-.199.029zm-7.9-11.416a.719.719 0 00-.411.124 1.257 1.257 0 00.225.344l8.318 9.426c7.6-2.355 11.782-6.847 10.873-11.633z" class="prefix__cls-6" data-name="Path 410" transform="translate(-1947.825 -630.228)"/>
                            </g>
                        </g>
                    </g>
                    <g id="prefix__Group_380" data-name="Group 380" transform="translate(22.901 3.711)">
                        <g id="prefix__Group_379" data-name="Group 379">
                            <g id="prefix__Group_378" data-name="Group 378">
                                <path id="prefix__Path_411" d="M1950.943 620.308l13.748-7.937c3.412 1.97 5.373 4.193 6.128 6.943l-19.621 1.794c-1.078.099-1.191-.259-.255-.8z" data-name="Path 411" transform="translate(-1949.595 -611.661)" style="fill-rule:evenodd;fill:#37474f"/>
                                <path id="prefix__Path_412" d="M1949.546 620.513a1.169 1.169 0 01-1.239-.674c-.248-.779.654-1.3.95-1.47l13.748-7.937a.712.712 0 01.71 0c3.6 2.076 5.648 4.418 6.458 7.371a.711.711 0 01-.62.9l-19.621 1.795c-.09.002-.232.015-.386.015zm13.81-8.644l-12.283 7.093 17.462-1.6c-.816-2.107-2.486-3.875-5.179-5.493z" class="prefix__cls-6" data-name="Path 412" transform="translate(-1948.265 -610.337)"/>
                            </g>
                        </g>
                    </g>
                </g>
            </g>
            <path id="prefix__Path_413" d="M1856.19 583.456l44.533 25.71 30.454-17.583a.826.826 0 000-1.564l-39.118-22.585-2.7-1.56a3 3 0 00-2.713 0z" class="prefix__cls-22" data-name="Path 413" transform="translate(-1843.453 -565.55)"/>
        </g>
        <g id="prefix__Group_390" data-name="Group 390" transform="translate(99.783 142.116)">
            <g id="prefix__Group_389" data-name="Group 389">
                <g id="prefix__Group_387" data-name="Group 387">
                    <g id="prefix__Group_384" data-name="Group 384">
                        <path id="prefix__Path_414" d="M1899.327 502.736l-41.819 24.144a3 3 0 00-1.356 2.349v.541a3 3 0 001.356 2.349l41.819 24.144a3 3 0 002.713 0l41.818-24.144a3 3 0 001.357-2.349v-.541a3 3 0 00-1.356-2.349l-41.819-24.144a3 3 0 00-2.713 0z" class="prefix__cls-14" data-name="Path 414" transform="translate(-1856.152 -502.412)"/>
                        <path id="prefix__Path_415" d="M1899.327 502.736l-41.819 24.144a3 3 0 00-1.356 2.349v.541a3 3 0 001.356 2.349l41.819 24.144a3 3 0 002.713 0l41.818-24.144a3 3 0 001.357-2.349v-.541a3 3 0 00-1.356-2.349l-41.819-24.144a3 3 0 00-2.713 0z" class="prefix__cls-15" data-name="Path 415" transform="translate(-1856.152 -502.412)"/>
                    </g>
                    <g id="prefix__Group_385" data-name="Group 385" transform="translate(0 23.415)">
                        <path id="prefix__Path_416" d="M1859.333 569.5l-1.825 1.053a3 3 0 00-1.356 2.349v.541a3 3 0 001.356 2.349l41.819 24.144a2.771 2.771 0 001.356.325v-6.887z" class="prefix__cls-14" data-name="Path 416" transform="translate(-1856.152 -569.498)"/>
                        <path id="prefix__Path_417" d="M1859.333 569.5l-1.825 1.053a3 3 0 00-1.356 2.349v.541a3 3 0 001.356 2.349l41.819 24.144a2.771 2.771 0 001.356.325v-6.887z" class="prefix__cls-16" data-name="Path 417" transform="translate(-1856.152 -569.498)"/>
                    </g>
                    <g id="prefix__Group_386" data-name="Group 386" transform="translate(.795)">
                        <path id="prefix__Path_418" d="M1900.809 502.736l-41.819 24.144a.827.827 0 000 1.566l41.819 24.144a3 3 0 002.713 0l41.819-24.144a.827.827 0 000-1.566l-41.819-24.144a3 3 0 00-2.713 0z" class="prefix__cls-14" data-name="Path 418" transform="translate(-1858.428 -502.412)"/>
                        <path id="prefix__Path_419" d="M1900.809 502.736l-41.819 24.144a.827.827 0 000 1.566l41.819 24.144a3 3 0 002.713 0l41.819-24.144a.827.827 0 000-1.566l-41.819-24.144a3 3 0 00-2.713 0z" class="prefix__cls-17" data-name="Path 419" transform="translate(-1858.428 -502.412)"/>
                    </g>
                </g>
                <g id="prefix__Group_388" data-name="Group 388" transform="translate(12.723 16.222)">
                    <path id="prefix__Path_420" d="M1905.328 550.559l8.581-1.651a.777.777 0 01.961.794v1.715a.852.852 0 00.973.866l13.959-1.612a.567.567 0 01.652.813l-2.54 7.333a.653.653 0 00.659.924h10.765a.653.653 0 01.659.925l-2.86 8.258-12.724 7.346-31.808-18.37z" class="prefix__cls-12" data-name="Path 420" transform="translate(-1892.605 -548.89)"/>
                    <path id="prefix__Path_421" d="M1924.413 583.115l9.542-5.509 2.861-8.257c.176-.509-.113-.842-.641-.74l-17.163 3.3c-.529.1-.817-.231-.641-.74l2.54-7.332a.568.568 0 00-.652-.812l-13.959 1.612c-.535.062-.752-.269-.482-.735l2.2-3.814c.269-.466.057-.765-.472-.663l-8.582 1.651-6.361 3.673z" class="prefix__cls-11" data-name="Path 421" transform="translate(-1892.605 -555.735)"/>
                </g>
            </g>
            <path id="prefix__Path_422" d="M1892.6 520.318l44.533 25.709 30.453-17.583a.826.826 0 000-1.564l-39.115-22.58-2.7-1.56a3 3 0 00-2.713 0z" class="prefix__cls-22" data-name="Path 422" transform="translate(-1879.88 -502.412)"/>
        </g>
        <g id="prefix__Group_396" data-name="Group 396" transform="translate(112.505 120.078)">
            <g id="prefix__Group_394" data-name="Group 394">
                <g id="prefix__Group_391" data-name="Group 391">
                    <path id="prefix__Path_423" d="M1935.78 439.6l-41.819 24.144a3 3 0 00-1.356 2.349v.541a3 3 0 001.356 2.349l41.819 24.144a3 3 0 002.713 0l41.819-24.144a3 3 0 001.356-2.349v-.541a3 3 0 00-1.356-2.349l-41.819-24.144a3 3 0 00-2.713 0z" class="prefix__cls-14" data-name="Path 423" transform="translate(-1892.605 -439.272)"/>
                    <path id="prefix__Path_424" d="M1935.78 439.6l-41.819 24.144a3 3 0 00-1.356 2.349v.541a3 3 0 001.356 2.349l41.819 24.144a3 3 0 002.713 0l41.819-24.144a3 3 0 001.356-2.349v-.541a3 3 0 00-1.356-2.349l-41.819-24.144a3 3 0 00-2.713 0z" class="prefix__cls-15" data-name="Path 424" transform="translate(-1892.605 -439.272)"/>
                </g>
                <g id="prefix__Group_392" data-name="Group 392" transform="translate(0 23.415)">
                    <path id="prefix__Path_425" d="M1895.785 506.358l-1.825 1.053a3 3 0 00-1.356 2.349v.541a3 3 0 001.356 2.349l41.82 24.15a2.777 2.777 0 001.356.324v-6.887z" class="prefix__cls-14" data-name="Path 425" transform="translate(-1892.604 -506.358)"/>
                    <path id="prefix__Path_426" d="M1895.785 506.358l-1.825 1.053a3 3 0 00-1.356 2.349v.541a3 3 0 001.356 2.349l41.82 24.15a2.777 2.777 0 001.356.324v-6.887z" class="prefix__cls-16" data-name="Path 426" transform="translate(-1892.604 -506.358)"/>
                </g>
                <g id="prefix__Group_393" data-name="Group 393" transform="translate(.795)">
                    <path id="prefix__Path_427" d="M1937.262 439.6l-41.819 24.144a.827.827 0 000 1.566l41.819 24.144a3 3 0 002.713 0l41.819-24.144a.827.827 0 000-1.566l-41.82-24.144a3 3 0 00-2.712 0z" class="prefix__cls-14" data-name="Path 427" transform="translate(-1894.881 -439.272)"/>
                    <path id="prefix__Path_428" d="M1937.262 439.6l-41.819 24.144a.827.827 0 000 1.566l41.819 24.144a3 3 0 002.713 0l41.819-24.144a.827.827 0 000-1.566l-41.82-24.144a3 3 0 00-2.712 0z" class="prefix__cls-17" data-name="Path 428" transform="translate(-1894.881 -439.272)"/>
                </g>
            </g>
            <g id="prefix__Group_395" data-name="Group 395" transform="translate(15.521 10.34)">
                <path id="prefix__Path_429" d="M1937.354 481.13l20.926-12.071a1.5 1.5 0 011.356 0l3.386 1.956a.413.413 0 010 .783l-20.922 12.071a1.5 1.5 0 01-1.356 0l-3.386-1.956a.413.413 0 01-.004-.783z" class="prefix__cls-11" data-name="Path 429" transform="translate(-1937.073 -468.897)"/>
                <path id="prefix__Path_430" d="M1964.694 503.761l14.548-8.4a1.5 1.5 0 011.356 0l3.386 1.956a.413.413 0 010 .783l-14.548 8.4a1.5 1.5 0 01-1.356 0l-3.386-1.956a.413.413 0 010-.783z" class="prefix__cls-12" data-name="Path 430" transform="translate(-1954.871 -486.019)"/>
                <path id="prefix__Path_431" d="M1992.034 509.27l24.09-13.908a1.5 1.5 0 011.356 0l3.386 1.956a.414.414 0 010 .783l-24.091 13.909a1.5 1.5 0 01-1.356 0l-3.386-1.956a.413.413 0 01.001-.784z" class="prefix__cls-13" data-name="Path 431" transform="translate(-1972.668 -486.019)"/>
                <path id="prefix__Path_432" d="M2019.374 538.755l11.367-6.563a1.5 1.5 0 011.356 0l3.386 1.956a.413.413 0 010 .783l-11.367 6.563a1.5 1.5 0 01-1.357 0l-3.386-1.956a.413.413 0 01.001-.783z" class="prefix__cls-10" data-name="Path 432" transform="translate(-1990.465 -509.995)"/>
            </g>
        </g>
        <g id="prefix__Group_404" data-name="Group 404" transform="translate(246.222 123.746)">
            <g id="prefix__Group_399" data-name="Group 399">
                <g id="prefix__Group_397" data-name="Group 397">
                    <path id="prefix__Path_433" d="M2275.716 483.685c-.052-.167 1.352-18.764 10.479-27.768s17.289-6.276 19.054-3.23.467 4.746-6.424 9.337c-6.253 4.166-14.017 9.961-17.736 22.2z" class="prefix__cls-14" data-name="Path 433" transform="translate(-2275.715 -449.781)"/>
                    <path id="prefix__Path_434" d="M2275.716 483.685c-.052-.167 1.352-18.764 10.479-27.768s17.289-6.276 19.054-3.23.467 4.746-6.424 9.337c-6.253 4.166-14.017 9.961-17.736 22.2z" class="prefix__cls-23" data-name="Path 434" transform="translate(-2275.715 -449.781)"/>
                </g>
                <g id="prefix__Group_398" data-name="Group 398" transform="translate(1.892 2.328)">
                    <path id="prefix__Path_435" d="M2281.492 488.6a.432.432 0 01-.052 0 .357.357 0 01-.3-.4c3-20.529 17.146-30.956 23.7-31.745a.355.355 0 01.084.7c-6.373.767-20.139 10.989-23.082 31.143a.355.355 0 01-.35.302z" class="prefix__cls-6" data-name="Path 435" transform="translate(-2281.135 -456.449)"/>
                </g>
            </g>
            <g id="prefix__Group_403" data-name="Group 403" transform="translate(2.286 16.805)">
                <path id="prefix__Path_436" d="M2283.775 533.806a6.131 6.131 0 016.953-.4c2.821 1.7 6.856 1.839 9.138.4s3.1-4.911 2.889-7.34.627-4.775 3.228-4.775 7.493.182 9.3-2.725-2.269-6.031-3.159-7.065c-1.569-1.821.223-4.188 2.5-6.217 2.5-2.227 3.182-6.968-1.344-7.674s-11.441 3.4-14.978 4.786c-5.34 2.1-5.035-.766-8.337-.959-4-.233-5.223 2.573-5.528 6.146-.344 4.033-2.166 5.187-2.166 5.187z" class="prefix__cls-11" data-name="Path 436" transform="translate(-2282.266 -497.929)"/>
                <g id="prefix__Group_400" data-name="Group 400" transform="translate(.56 2.416)">
                    <path id="prefix__Path_437" d="M2284.226 530.552a.345.345 0 01-.123-.022.356.356 0 01-.21-.456c2.643-7.109 19.534-21.711 29.15-25.2a.355.355 0 11.243.667c-9.277 3.366-26.19 17.956-28.727 24.78a.355.355 0 01-.333.231z" class="prefix__cls-6" data-name="Path 437" transform="translate(-2283.871 -504.851)"/>
                </g>
                <g id="prefix__Group_401" data-name="Group 401" transform="translate(10.336 14.819)">
                    <path id="prefix__Path_438" d="M2326.974 543.284a.352.352 0 01-.184-.051c-3.3-1.995-10.983-2.795-14.43-1.5a.355.355 0 11-.25-.664c3.669-1.379 11.544-.561 15.047 1.559a.355.355 0 01-.184.659z" class="prefix__cls-6" data-name="Path 438" transform="translate(-2311.88 -540.386)"/>
                </g>
                <g id="prefix__Group_402" data-name="Group 402" transform="translate(6.349 7.472)">
                    <path id="prefix__Path_439" d="M2302.793 529.953a.356.356 0 01-.355-.348c-.141-6.667-1.911-9.7-1.928-9.732a.355.355 0 11.608-.366c.076.127 1.885 3.2 2.031 10.083a.355.355 0 01-.347.363z" class="prefix__cls-6" data-name="Path 439" transform="translate(-2300.458 -519.336)"/>
                </g>
            </g>
        </g>
        <g id="prefix__Group_410" data-name="Group 410" transform="translate(40.57 103.644)">
            <g id="prefix__Group_407" data-name="Group 407" transform="translate(1.445)">
                <g id="prefix__Group_405" data-name="Group 405">
                    <path id="prefix__Path_440" d="M1719.48 415.3c-.344-4.276-3.64-11.571-8.524-16.766s-12.7-7.7-17.515-5.6c-4.488 1.95-3.5 7.965 2.421 11.527s14.746 7.926 17.766 14.664l5.852 8.095z" class="prefix__cls-14" data-name="Path 440" transform="translate(-1690.643 -392.186)"/>
                    <path id="prefix__Path_441" d="M1719.48 415.3c-.344-4.276-3.64-11.571-8.524-16.766s-12.7-7.7-17.515-5.6c-4.488 1.95-3.5 7.965 2.421 11.527s14.746 7.926 17.766 14.664l5.852 8.095z" class="prefix__cls-23" data-name="Path 441" transform="translate(-1690.643 -392.186)"/>
                </g>
                <g id="prefix__Group_406" data-name="Group 406" transform="translate(4.239 2.309)">
                    <path id="prefix__Path_442" d="M1727.385 427.263a.35.35 0 00.06 0 .445.445 0 00.383-.5c-2.251-16.7-19.377-26.97-24.51-27.947a.447.447 0 10-.167.877c4.979.948 21.6 10.93 23.792 27.188a.446.446 0 00.442.382z" class="prefix__cls-6" data-name="Path 442" transform="translate(-1702.788 -398.802)"/>
                </g>
            </g>
            <g id="prefix__Group_409" data-name="Group 409" transform="translate(0 16.406)">
                <path id="prefix__Path_443" d="M1718.289 460.1a18.071 18.071 0 01-8.032 4.753c-5.249 1.548-7.949-.707-7.949-.707s1.455-5.3 4.315-7.109a30.163 30.163 0 00-8.8 5.029s-3.267.476-5.22-4.349c0 0 1.547-3.259 7.841-5.732a21.611 21.611 0 00-9.6 1.719c-.406.226-3.071-5.995-4.011-8.9s.262-3.033 2.5-3.956 10.1-2.345 11.722-1.257 2.93 5.36 2.93 5.36a8.709 8.709 0 00.447-4.816 8.375 8.375 0 014.958-.526c2.728.569 3.283 2.341 3.9 4.154s1.436 5.517.594 7.331c0 0 1.967-2.346.515-7.978a10.911 10.911 0 014.512 3.427c1.748 2.404 2.274 9.238-.622 13.557z" class="prefix__cls-11" data-name="Path 443" transform="translate(-1686.503 -439.192)"/>
                <g id="prefix__Group_408" data-name="Group 408" transform="translate(2.35 3.275)">
                    <path id="prefix__Path_444" d="M1722.672 466.56a.356.356 0 01-.3-.161c-5.489-8.411-22.908-16.744-28.806-17.112a.355.355 0 01-.332-.377.351.351 0 01.377-.332c6.012.375 23.764 8.864 29.356 17.432a.355.355 0 01-.3.549z" class="prefix__cls-6" data-name="Path 444" transform="translate(-1693.235 -448.576)"/>
                </g>
            </g>
        </g>
        <g id="prefix__Group_428" data-name="Group 428" transform="translate(181.467 29.333)">
            <g id="prefix__Group_418" data-name="Group 418" transform="translate(31.902)">
                <circle id="prefix__Ellipse_39" cx="7.702" cy="7.702" r="7.702" class="prefix__cls-10" data-name="Ellipse 39" transform="rotate(-75.998 14.425 1.573)"/>
                <path id="prefix__Rectangle_31" d="M0 0H5.425V9.287H0z" class="prefix__cls-24" data-name="Rectangle 31" transform="translate(31.764 139.903)"/>
                <path id="prefix__Path_445" d="M2223.628 560.361l-5.422.187-.272-9.829 5.694-.186z" class="prefix__cls-24" data-name="Path 445" transform="translate(-2205.248 -420.954)"/>
                <path id="prefix__Path_446" d="M2236.424 352.049c0 5.181.67 42.555.67 42.555.126 1.491 1.524 4.239 1.222 9.965-.411 7.778-1.3 31.725-1.3 31.725a7.136 7.136 0 01-6.041.119s-4.787-31.817-5.76-39.525c-.848-6.727-2.287-25-2.287-25l-2.941 21.96a30.86 30.86 0 01.672 8.622c-.253 3.565-2.343 25.641-2.343 25.641a7.406 7.406 0 01-6.264.479s-2.742-31.471-2.8-34.742c-.072-3.729 1.8-41.8 1.8-41.8z" class="prefix__cls-12" data-name="Path 446" transform="translate(-2199.591 -291.747)"/>
                <g id="prefix__Group_411" data-name="Group 411" transform="translate(3.278 26.311)">
                    <path id="prefix__Path_447" d="M2199.907 257.121c-3.181 2.615-8.927 7.921-8.927 7.921l8.966 4.934 5.693-15.29s-2.239-.441-5.732 2.435z" class="prefix__cls-14" data-name="Path 447" transform="translate(-2190.98 -254.662)"/>
                    <path id="prefix__Path_448" d="M2199.907 257.121c-3.181 2.615-8.927 7.921-8.927 7.921l8.966 4.934 5.693-15.29s-2.239-.441-5.732 2.435z" class="prefix__cls-25" data-name="Path 448" transform="translate(-2190.98 -254.662)"/>
                </g>
                <path id="prefix__Path_449" d="M2237.552 257.6s2.03 2.032 2.03 6.954v10.63l.156 20.072a24.127 24.127 0 01-25.928-1.724s.4-25.8.4-30.026 2.355-9.719 8.838-10.1l8.369 1.944z" class="prefix__cls-11" data-name="Path 449" transform="translate(-2202.563 -227.536)"/>
                <g id="prefix__Group_417" data-name="Group 417" transform="translate(11.425)">
                    <g id="prefix__Group_415" data-name="Group 415">
                        <path id="prefix__Path_450" d="M2267.317 222.414a66.551 66.551 0 01-1.749 6.827 2.653 2.653 0 01-1.534 1.237l.087-4.125z" class="prefix__cls-10" data-name="Path 450" transform="translate(-2246.683 -207.358)"/>
                        <path id="prefix__Path_451" d="M2267.489 198.308a2.891 2.891 0 012.393.841c1.027 1.051.453 4.338-.826 7.559l-2.351.27z" class="prefix__cls-10" data-name="Path 451" transform="translate(-2248.421 -191.653)"/>
                        <path id="prefix__Path_452" d="M2233.427 200.273c.471.282 1.144-.624 1.725-1.232a2.046 2.046 0 013.426.555c.964 2.033-.836 4.719-2.33 5.188-2.575.808-2.962-.844-2.962-.844l-.2 9.288-8.924 5.884a12.913 12.913 0 01.547-6.13l.007-2.827a16.236 16.236 0 01-3.471.178c-1.894-.293-3.085-1.787-3.659-3.837-.923-3.292-1.273-5.951-.49-12.425.858-7.1 9.112-7.17 13.569-4.365s2.762 10.567 2.762 10.567z" class="prefix__cls-24" data-name="Path 452" transform="translate(-2215.849 -184.945)"/>
                        <g id="prefix__Group_414" data-name="Group 414" transform="translate(3.69 25.211)">
                            <g id="prefix__Group_412" data-name="Group 412">
                                <path id="prefix__Path_453" d="M2238.153 261.394l8.953-7.29.025-1.169s2.079.414 2.348 3.323l-5.436 8.278-2.3-4.314z" class="prefix__cls-14" data-name="Path 453" transform="translate(-2233.525 -252.437)"/>
                                <path id="prefix__Path_454" d="M2230.075 251.509a4.212 4.212 0 00-2.785 1.666c-.849 1.409-2.4 7.29-2.4 7.29l2.894-2.233 1.734 2.233a18.233 18.233 0 01.547-6.13z" class="prefix__cls-14" data-name="Path 454" transform="translate(-2224.893 -251.509)"/>
                            </g>
                            <g id="prefix__Group_413" data-name="Group 413" style="opacity:.2">
                                <path id="prefix__Path_455" d="M2238.153 261.394l8.953-7.29.025-1.169s2.079.414 2.348 3.323l-5.436 8.278-2.3-4.314z" class="prefix__cls-25" data-name="Path 455" transform="translate(-2233.525 -252.437)"/>
                                <path id="prefix__Path_456" d="M2230.075 251.509a4.212 4.212 0 00-2.785 1.666c-.849 1.409-2.4 7.29-2.4 7.29l2.894-2.233 1.734 2.233a18.233 18.233 0 01.547-6.13z" class="prefix__cls-25" data-name="Path 456" transform="translate(-2224.893 -251.509)"/>
                            </g>
                        </g>
                        <path id="prefix__Path_457" d="M2231.9 195.4c.237 0 1.138-1.491 1.725-2.025.813-.74-.236-7.44-.236-7.44a3.173 3.173 0 00-.784-3.389c-1.114-1.226-2.976-1.362-6.154-1.861-1.668-.262-4.2-.729-5.861-1.039-1.989-.37-3.635-.761-5.039.459a3.528 3.528 0 00-.975 3.95 3.242 3.242 0 00.565.843 3.277 3.277 0 001.431.986s.867.769 3.883 1.137a44.569 44.569 0 008.356-.158c.875-.12 1.062.728 1.533 3.044.416 2.031.756 5.476 1.556 5.493z" class="prefix__cls-10" data-name="Path 457" transform="translate(-2214.322 -179.278)"/>
                        <path id="prefix__Path_458" d="M2268.609 195.307l2.85-1.53a1.571 1.571 0 00-2.158-.714 1.7 1.7 0 00-.692 2.244z" class="prefix__cls-10" data-name="Path 458" transform="translate(-2249.545 -188.13)"/>
                        <path id="prefix__Path_459" d="M2239.739 244.686a32.406 32.406 0 005.705-1.637 4.867 4.867 0 002.043-2.021 6.657 6.657 0 01-1.161 2.384c-1.081 1.382-6.587 2.4-6.587 2.4z" class="prefix__cls-27" data-name="Path 459" transform="translate(-2230.867 -219.476)"/>
                    </g>
                    <g id="prefix__Group_416" data-name="Group 416" transform="translate(2.133 10.074)">
                        <path id="prefix__Path_460" d="M2242.65 218.519a.848.848 0 10.847-.882.861.861 0 00-.847.882z" class="prefix__cls-10" data-name="Path 460" transform="translate(-2234.896 -214.323)"/>
                        <path id="prefix__Path_461" d="M2245.224 209.945l1.812 1a1.086 1.086 0 00-.422-1.443 1.01 1.01 0 00-1.39.443z" class="prefix__cls-10" data-name="Path 461" transform="translate(-2236.571 -208.946)"/>
                        <path id="prefix__Path_462" d="M2237.23 236.93l-1.934.726a1.015 1.015 0 001.313.641 1.082 1.082 0 00.621-1.367z" class="prefix__cls-27" data-name="Path 462" transform="translate(-2230.108 -226.882)"/>
                        <path id="prefix__Path_463" d="M2220.634 209.845l1.652-1.273a1 1 0 00-1.436-.22 1.1 1.1 0 00-.216 1.493z" class="prefix__cls-10" data-name="Path 463" transform="translate(-2220.432 -208.142)"/>
                        <path id="prefix__Path_464" d="M2222.466 217.828a.848.848 0 10.847-.882.861.861 0 00-.847.882z" class="prefix__cls-10" data-name="Path 464" transform="translate(-2221.756 -213.873)"/>
                        <path id="prefix__Path_465" d="M2229.35 217.173l-.278 5.094-2.66-.907z" class="prefix__cls-27" data-name="Path 465" transform="translate(-2224.325 -214.021)"/>
                    </g>
                </g>
                <path id="prefix__Path_466" d="M2256.587 597.592v-.776c-.52.226-1.725 4.828-3.878 6.791-1.711 1.561-4.046 3.364-4.64 5.1-.617 1.81 3.251 2.809 4.85 2.526 1.857-.329 5.077-1.637 5.886-2.849s1.187-3 1.844-3.89 2.171-1.881 2.526-2.909a6.554 6.554 0 00-.31-2.848c-.251-.959-.524-2.014-.852-1.924v.592a4.294 4.294 0 01-2.713.917c-.794.033-2.719-.122-2.713-.73z" class="prefix__cls-10" data-name="Path 466" transform="translate(-2224.823 -451.08)"/>
                <path id="prefix__Path_467" d="M2194.488 573.77c-.282.01-.511.407-1.133 1.08a11.847 11.847 0 01-3.192 2.3c-2.031 1.017-5.981 2.581-7.768 3.387-1.117.5-1.065 1.852.09 2.619s3.941 1.321 7.288.573c1.823-.408 4.2-2.091 5.7-2s4.313.069 5.421-.695.666-2.4.352-3.8c-.342-1.531-.77-3.918-1.277-3.813v.527c-.653.988-4.018 1.39-5.45.663z" class="prefix__cls-10" data-name="Path 467" transform="translate(-2181.588 -435.849)"/>
                <path id="prefix__Path_468" d="M2234.352 400.808a20.1 20.1 0 01-7.555-4.332s1.458 2.729 5.793 5.27l-.927 19.143z" class="prefix__cls-10" data-name="Path 468" transform="translate(-2211.018 -320.668)"/>
            </g>
            <g id="prefix__Group_424" data-name="Group 424" transform="translate(2.756 18.21)">
                <g id="prefix__Group_419" data-name="Group 419">
                    <path id="prefix__Path_469" d="M2143.97 309.178l.468-.271a3 3 0 001.357-2.349V258.27a3 3 0 00-1.356-2.349l-41.819-24.144a3 3 0 00-2.713 0l-.468.271a3 3 0 00-1.356 2.349v48.289a3 3 0 001.356 2.349l41.819 24.144a3 3 0 002.712-.001z" class="prefix__cls-14" data-name="Path 469" transform="translate(-2098.082 -231.452)"/>
                    <path id="prefix__Path_470" d="M2143.97 309.178l.468-.271a3 3 0 001.357-2.349V258.27a3 3 0 00-1.356-2.349l-41.819-24.144a3 3 0 00-2.713 0l-.468.271a3 3 0 00-1.356 2.349v48.289a3 3 0 001.356 2.349l41.819 24.144a3 3 0 002.712-.001z" class="prefix__cls-15" data-name="Path 470" transform="translate(-2098.082 -231.452)"/>
                </g>
                <g id="prefix__Group_420" data-name="Group 420" transform="translate(41.351 25.481)">
                    <path id="prefix__Path_471" d="M2222.918 329.939v-24.144a2.771 2.771 0 00-.4-1.337l-5.965 3.444v47.748l1.825 1.053a3 3 0 002.712 0l.47-.271a3 3 0 001.355-2.349z" class="prefix__cls-14" data-name="Path 471" transform="translate(-2216.556 -304.458)"/>
                    <path id="prefix__Path_472" d="M2222.918 329.939v-24.144a2.771 2.771 0 00-.4-1.337l-5.965 3.444v47.748l1.825 1.053a3 3 0 002.712 0l.47-.271a3 3 0 001.355-2.349z" class="prefix__cls-16" data-name="Path 472" transform="translate(-2216.556 -304.458)"/>
                </g>
                <g id="prefix__Group_421" data-name="Group 421" transform="translate(0 1.976)">
                    <path id="prefix__Path_473" d="M2099.438 237.3l41.819 24.144a3 3 0 011.356 2.349v48.287c0 .865-.608 1.216-1.356.783l-41.819-24.144a3 3 0 01-1.356-2.349v-48.29c0-.865.607-1.215 1.356-.78z" class="prefix__cls-14" data-name="Path 473" transform="translate(-2098.082 -237.112)"/>
                    <path id="prefix__Path_474" d="M2099.438 237.3l41.819 24.144a3 3 0 011.356 2.349v48.287c0 .865-.608 1.216-1.356.783l-41.819-24.144a3 3 0 01-1.356-2.349v-48.29c0-.865.607-1.215 1.356-.78z" class="prefix__cls-17" data-name="Path 474" transform="translate(-2098.082 -237.112)"/>
                </g>
                <path id="prefix__Path_475" d="M2111.752 326.7c1.3.753 3.3.9 4.8-2.773s2.852-6.637 4.694-5.4c1.286.864 1.115 2.04 2.267 2.706 1.806 1.043 3.221-3.448 3.86-7.64.906-5.952 1.782-7.51 3.4-6.613 2.41 1.333 2.2 5.292 2.2 8.931 0 3.26 0 4.957 1.769 5.681 1.17.479 2.308-2.348 2.775-4.527s1.487-3.227 2.532-2.624 2.171 2.043 2.226 7.809c.049 5.108.132 12.429.219 14.032a7.953 7.953 0 004.237 6.8v5.789l-34.989-20.2z" data-name="Path 475" transform="translate(-2106.98 -280.464)" style="opacity:.5;fill:#fafafa"/>
                <g id="prefix__Group_422" data-name="Group 422" transform="translate(4.594 25.922)">
                    <path id="prefix__Path_476" d="M2146.233 342.725a8.306 8.306 0 01-4.414-7.092c-.091-1.683-.176-9.524-.219-14.047-.054-5.636-1.124-6.971-2.049-7.5a.714.714 0 00-.687-.059 3.5 3.5 0 00-1.32 2.45c-.39 1.819-1.233 4.146-2.321 4.721a1.08 1.08 0 01-.937.06c-1.99-.815-1.99-2.661-1.99-6.01v-.8c.014-3.286.028-6.683-2.023-7.818-.478-.265-.725-.2-.871-.127-.98.483-1.589 3.718-2.01 6.483-.249 1.637-1.208 7.047-3.1 7.958a1.329 1.329 0 01-1.285-.064 3.126 3.126 0 01-1.211-1.406 3.214 3.214 0 00-1.075-1.313 1 1 0 00-.894-.187c-1.2.365-2.4 3.29-3.274 5.425-.737 1.8-1.672 2.9-2.781 3.28a3.017 3.017 0 01-2.528-.335l.355-.615a2.363 2.363 0 001.944.277c.906-.309 1.7-1.277 2.353-2.877 1.247-3.044 2.312-5.406 3.725-5.836a1.714 1.714 0 011.5.277 3.894 3.894 0 011.3 1.566 2.487 2.487 0 00.942 1.127.616.616 0 00.622.038c1.019-.49 2.108-3.474 2.709-7.425.69-4.538 1.362-6.5 2.4-7.014a1.575 1.575 0 011.528.143c2.418 1.337 2.4 4.949 2.389 8.442v.8c0 3.239 0 4.718 1.549 5.352a.365.365 0 00.336-.031c.674-.355 1.515-2.179 1.957-4.241.334-1.556.948-2.6 1.727-2.95a1.419 1.419 0 011.33.094c1.157.667 2.347 2.153 2.4 8.113.043 4.518.128 12.346.218 14.016a7.543 7.543 0 004.06 6.515z" class="prefix__cls-12" data-name="Path 476" transform="translate(-2111.244 -305.72)"/>
                </g>
                <path id="prefix__Path_477" d="M2111.752 340.5c.014 1.247 2.465 7.834 8.018 8.171s7.6-5.848 10.291-4.368 2.186 5.92 4.692 7.433 5.2-6.965 8.222-5.618 1.972 10.616 3.767 12.31v12.419l-34.989-20.2z" data-name="Path 477" transform="translate(-2106.98 -302.44)" style="opacity:.4;fill:#fafafa"/>
                <g id="prefix__Group_423" data-name="Group 423" transform="translate(4.416 38.057)">
                    <path id="prefix__Path_478" d="M2145.836 358.68c-.861-.812-1.105-2.905-1.389-5.328-.343-2.919-.73-6.227-2.278-6.916-1.3-.578-2.664 1.189-3.986 2.9-1.368 1.77-2.785 3.6-4.276 2.7-1.332-.8-1.87-2.332-2.391-3.809-.53-1.5-1.03-2.925-2.289-3.617-.98-.539-1.86.152-3.328 1.421-1.641 1.417-3.681 3.187-6.813 2.991-5.608-.34-8.334-6.935-8.351-8.522l.71-.008c.011 1.049 2.269 7.492 7.684 7.821 2.831.166 4.761-1.487 6.306-2.82 1.435-1.239 2.674-2.308 4.135-1.5 1.5.823 2.065 2.439 2.616 4 .5 1.422.974 2.764 2.088 3.437.945.571 2.114-.931 3.347-2.526 1.42-1.836 3.032-3.915 4.836-3.113 1.918.854 2.313 4.224 2.695 7.483.245 2.094.5 4.259 1.171 4.894z" class="prefix__cls-14" data-name="Path 478" transform="translate(-2110.735 -340.49)"/>
                </g>
                <path id="prefix__Path_479" d="M2117.46 260.261a2.544 2.544 0 011.151 1.993c0 .734-.515 1.031-1.151.665a2.543 2.543 0 01-1.15-1.993c-.001-.735.514-1.032 1.15-.665z" class="prefix__cls-14" data-name="Path 479" transform="translate(-2109.947 -250.103)"/>
                <path id="prefix__Path_480" d="M2125.422 265.963a1.818 1.818 0 00.847 1.408l7.848 4.531c.468.27.848.079.847-.429a1.817 1.817 0 00-.848-1.408l-7.847-4.531c-.469-.269-.847-.077-.847.429z" class="prefix__cls-14" data-name="Path 480" transform="translate(-2115.88 -253.559)"/>
                <path id="prefix__Path_481" d="M2117.46 276.046a2.543 2.543 0 011.151 1.993c0 .734-.515 1.031-1.151.665a2.543 2.543 0 01-1.15-1.993c-.001-.735.514-1.032 1.15-.665z" class="prefix__cls-12" data-name="Path 481" transform="translate(-2109.947 -260.379)"/>
                <path id="prefix__Path_482" d="M2125.422 281.748a1.819 1.819 0 00.847 1.408l7.848 4.531c.468.27.848.078.847-.429a1.819 1.819 0 00-.848-1.408l-7.847-4.53c-.469-.27-.847-.078-.847.428z" class="prefix__cls-14" data-name="Path 482" transform="translate(-2115.88 -263.835)"/>
            </g>
            <g id="prefix__Group_427" data-name="Group 427" transform="translate(41.661 30.063)">
                <g id="prefix__Group_425" data-name="Group 425">
                    <path id="prefix__Path_483" d="M2243.485 297.175c2.782-1.933 1.846-3.687.956-6.978-6.06-22.406-7.015-23.654-9.663-24.786l-2.122 8.815 5.664 18.357a35.6 35.6 0 01-12.671 5.942 5.234 5.234 0 01-2.827-.3 15.279 15.279 0 00-4.467-1.445v2.89a15.043 15.043 0 01-4.756-.158c-3.659-.682-5.263.076-3.023 4.265 1.4 2.625 4.13 3.491 10.959 2.312a55.14 55.14 0 007.356-1.917 62.45 62.45 0 0014.594-6.997z" class="prefix__cls-24" data-name="Path 483" transform="translate(-2209.549 -265.412)"/>
                </g>
                <g id="prefix__Group_426" data-name="Group 426" transform="translate(22.017)">
                    <path id="prefix__Path_484" d="M2275.843 265.412a8.135 8.135 0 00-3.163 5.744c-.56 4.109 3.947 14.855 3.947 14.855s4.726.118 7.375-3.027c0 0-3.316-11.044-3.994-13.356a7.478 7.478 0 00-4.165-4.216z" class="prefix__cls-14" data-name="Path 484" transform="translate(-2272.631 -265.412)"/>
                    <path id="prefix__Path_485" d="M2275.843 265.412a8.135 8.135 0 00-3.163 5.744c-.56 4.109 3.947 14.855 3.947 14.855s4.726.118 7.375-3.027c0 0-3.316-11.044-3.994-13.356a7.478 7.478 0 00-4.165-4.216z" class="prefix__cls-25" data-name="Path 485" transform="translate(-2272.631 -265.412)"/>
                </g>
            </g>
            <path id="prefix__Path_486" d="M2092.942 278.664v3.262a12.837 12.837 0 003.66 3.673c1.895.987 1.882 4.952-.48 5.51s-5.6-2.353-5.876-3.954.327-8.663 2.696-8.491z" class="prefix__cls-24" data-name="Path 486" transform="translate(-2090.186 -243.974)"/>
        </g>
        <g id="prefix__Group_460" data-name="Group 460" transform="translate(65.007)">
            <g id="prefix__Group_429" data-name="Group 429" transform="translate(21.255 22.171)">
                <path id="prefix__Path_487" d="M1817.413 164.832l17.459-.454c.614-.525 4.1-4.679 4.1-4.679s9.562-1.225 9.619-.879-9.405 10.467-10.341 11.488a2.817 2.817 0 01-2.233 1.092c-2.474.148-16.107 1.005-16.107 1.005z" class="prefix__cls-24" data-name="Path 487" transform="translate(-1817.413 -158.759)"/>
            </g>
            <g id="prefix__Group_439" data-name="Group 439" transform="translate(36.256 1.374)">
                <g id="prefix__Group_433" data-name="Group 433">
                    <g id="prefix__Group_430" data-name="Group 430">
                        <path id="prefix__Path_488" d="M1862.219 176.9l-.468-.271a3 3 0 01-1.357-2.349v-48.287a3 3 0 011.357-2.349L1903.57 99.5a3 3 0 012.713 0l.468.271a3 3 0 011.356 2.349v48.289a3 3 0 01-1.356 2.349l-41.819 24.142a3 3 0 01-2.713 0z" class="prefix__cls-14" data-name="Path 488" transform="translate(-1860.394 -99.175)"/>
                        <path id="prefix__Path_489" d="M1862.219 176.9l-.468-.271a3 3 0 01-1.357-2.349v-48.287a3 3 0 011.357-2.349L1903.57 99.5a3 3 0 012.713 0l.468.271a3 3 0 011.356 2.349v48.289a3 3 0 01-1.356 2.349l-41.819 24.142a3 3 0 01-2.713 0z" class="prefix__cls-15" data-name="Path 489" transform="translate(-1860.394 -99.175)"/>
                    </g>
                    <g id="prefix__Group_431" data-name="Group 431" transform="translate(0 25.481)">
                        <path id="prefix__Path_490" d="M1860.394 197.662v-24.144a2.776 2.776 0 01.4-1.337l5.965 3.444v47.748l-1.825 1.053a3 3 0 01-2.712 0l-.47-.272a3 3 0 01-1.355-2.349z" class="prefix__cls-14" data-name="Path 490" transform="translate(-1860.394 -172.181)"/>
                        <path id="prefix__Path_491" d="M1860.394 197.662v-24.144a2.776 2.776 0 01.4-1.337l5.965 3.444v47.748l-1.825 1.053a3 3 0 01-2.712 0l-.47-.272a3 3 0 01-1.355-2.349z" class="prefix__cls-16" data-name="Path 491" transform="translate(-1860.394 -172.181)"/>
                    </g>
                    <g id="prefix__Group_432" data-name="Group 432" transform="translate(3.181 1.976)">
                        <path id="prefix__Path_492" d="M1912.683 105.02l-41.819 24.144a3 3 0 00-1.356 2.349V179.8c0 .865.607 1.216 1.356.783l41.819-24.144a3 3 0 001.356-2.349V105.8c.001-.862-.607-1.212-1.356-.78z" class="prefix__cls-14" data-name="Path 492" transform="translate(-1869.508 -104.835)"/>
                        <path id="prefix__Path_493" d="M1912.683 105.02l-41.819 24.144a3 3 0 00-1.356 2.349V179.8c0 .865.607 1.216 1.356.783l41.819-24.144a3 3 0 001.356-2.349V105.8c.001-.862-.607-1.212-1.356-.78z" class="prefix__cls-17" data-name="Path 493" transform="translate(-1869.508 -104.835)"/>
                    </g>
                </g>
                <g id="prefix__Group_434" data-name="Group 434" transform="translate(13.518 26.247)">
                    <path id="prefix__Path_494" d="M1903.617 198.674c0-5.476 3.33-11.838 7.437-14.21v-5.988c-3.689 2.13-6.948 6.084-9.27 11.247-4.146 9.22-3.357 18.779 1.763 21.351l2.827-6.287c-1.681-.847-2.757-3.001-2.757-6.113z" class="prefix__cls-11" data-name="Path 494" transform="translate(-1899.125 -177.044)"/>
                    <path id="prefix__Path_495" d="M1919.3 175.806v5.988c4.107-2.371 7.437.146 7.437 5.622s-3.33 11.838-7.437 14.21a4.849 4.849 0 01-4.68.491l-2.82 6.283c2.253 1.132 4.608.884 7.507-.789 6.588-3.8 11.928-14.008 11.928-22.791s-5.345-12.82-11.935-9.014z" class="prefix__cls-12" data-name="Path 495" transform="translate(-1907.373 -174.374)"/>
                    <path id="prefix__Path_496" d="M1919.3 227.1c6.588-3.8 11.928-14.008 11.928-22.791l-4.493 2.644c-.02 5.465-3.341 11.795-7.435 14.159a4.849 4.849 0 01-4.68.491l-2.827 6.287c2.255 1.134 4.607.887 7.507-.79z" class="prefix__cls-10" data-name="Path 496" transform="translate(-1907.373 -193.863)"/>
                </g>
                <g id="prefix__Group_438" data-name="Group 438" transform="translate(5.211 8.077)">
                    <g id="prefix__Group_435" data-name="Group 435" transform="translate(0 15.539)">
                        <path id="prefix__Path_497" d="M1876.476 183.185a2.543 2.543 0 00-1.151 1.993c0 .734.515 1.031 1.151.664a2.543 2.543 0 001.151-1.993c-.001-.733-.516-1.031-1.151-.664z" class="prefix__cls-14" data-name="Path 497" transform="translate(-1875.325 -177.377)"/>
                        <path id="prefix__Path_498" d="M1894 167.389a1.817 1.817 0 01-.847 1.408l-7.848 4.531c-.468.27-.848.078-.847-.429a1.818 1.818 0 01.848-1.408l7.847-4.53c.465-.271.847-.079.847.428z" class="prefix__cls-14" data-name="Path 498" transform="translate(-1881.268 -166.838)"/>
                    </g>
                    <g id="prefix__Group_436" data-name="Group 436" transform="translate(13.4 7.769)">
                        <path id="prefix__Path_499" d="M1914.866 160.925a2.544 2.544 0 00-1.15 1.993c0 .734.515 1.031 1.151.665a2.542 2.542 0 001.15-1.993c0-.734-.517-1.032-1.151-.665z" class="prefix__cls-12" data-name="Path 499" transform="translate(-1913.716 -155.117)"/>
                        <path id="prefix__Path_500" d="M1932.388 145.129a1.818 1.818 0 01-.847 1.408l-7.848 4.531c-.469.27-.848.078-.848-.429a1.818 1.818 0 01.848-1.408l7.847-4.53c.469-.271.848-.079.848.428z" class="prefix__cls-14" data-name="Path 500" transform="translate(-1919.659 -144.578)"/>
                    </g>
                    <g id="prefix__Group_437" data-name="Group 437" transform="translate(26.799)">
                        <path id="prefix__Path_501" d="M1953.257 138.665a2.544 2.544 0 00-1.15 1.993c0 .734.515 1.031 1.151.665a2.542 2.542 0 001.15-1.993c0-.73-.515-1.03-1.151-.665z" class="prefix__cls-13" data-name="Path 501" transform="translate(-1952.107 -132.857)"/>
                        <path id="prefix__Path_502" d="M1970.78 122.869a1.817 1.817 0 01-.847 1.407l-7.848 4.531c-.468.27-.848.078-.847-.429a1.818 1.818 0 01.848-1.408l7.847-4.531c.467-.269.846-.077.847.43z" class="prefix__cls-14" data-name="Path 502" transform="translate(-1958.05 -122.317)"/>
                    </g>
                </g>
            </g>
            <g id="prefix__Group_458" data-name="Group 458">
                <g id="prefix__Group_440" data-name="Group 440" transform="translate(3.008)">
                    <path id="prefix__Path_503" d="M1790 122.049h-12.435a12.435 12.435 0 01-12.435-12.435v-1.942a12.435 12.435 0 0112.435-12.435A12.435 12.435 0 011790 107.672z" class="prefix__cls-10" data-name="Path 503" transform="translate(-1765.134 -95.237)"/>
                </g>
                <path id="prefix__Path_504" d="M1767.536 104.489l-3.01-1.616a1.658 1.658 0 012.279-.754 1.8 1.8 0 01.731 2.37z" class="prefix__cls-10" data-name="Path 504" transform="translate(-1761.73 -99.589)"/>
                <path id="prefix__Path_505" d="M1767.472 108.163l-3.2 1.2a1.659 1.659 0 01.936-2.21 1.8 1.8 0 012.264 1.01z" class="prefix__cls-10" data-name="Path 505" transform="translate(-1761.478 -102.922)"/>
                <g id="prefix__Group_441" data-name="Group 441" transform="translate(49.776 13.122)">
                    <path id="prefix__Path_506" d="M1902.178 134.491c-1.419 1.1-3.05 1.792-3.05 2.341 0 .857 1.359.915 1.745.692l2.025-1.169a10.155 10.155 0 012.653 1.43c1.152.749 1.754 3.731 3.245 3.591 1.553-.146 2.882-.868 3.1-1.892.284-1.345-.4-4.342-2.006-5.431-3.551-2.399-6.225-.717-7.712.438z" class="prefix__cls-24" data-name="Path 506" transform="translate(-1899.128 -132.833)"/>
                </g>
                <g id="prefix__Group_457" data-name="Group 457" transform="translate(0 6.088)">
                    <g id="prefix__Group_456" data-name="Group 456">
                        <g id="prefix__Group_442" data-name="Group 442" transform="translate(9.652 130.489)">
                            <path id="prefix__Path_507" d="M1791.875 488.3a2.937 2.937 0 00.436 1.721 21.454 21.454 0 002.841 3.724c1.519 1.633 3.791 3.561 5.418 4.982.906.791.939 1.985-.355 2.4a9.743 9.743 0 01-7.124-.995c-1.615-.868-3.92-4.882-5.266-5.49-1.547-.7-2.415-1.048-2.937-1.76a2.5 2.5 0 01-.315-3.107c.729-1.356 1.824-3.449 2.275-3.216l-.14.432c.355 1.106 3.371 2.395 4.918 2.087z" class="prefix__cls-10" data-name="Path 507" transform="translate(-1784.169 -486.543)"/>
                        </g>
                        <path id="prefix__Path_508" d="M1797.64 474.248a35.106 35.106 0 00-1.359 5.361 2.788 2.788 0 00.432 1.7 21.869 21.869 0 002.845 3.727c.739.792 1.657 1.657 2.593 2.494a.773.773 0 01.135.4c0 .846-2.062 1.071-3.268.72a7.618 7.618 0 01-3.728-2.863c-.693-.928-2.26-2.71-3.25-4.043a6.792 6.792 0 01-.864-1.342 2.747 2.747 0 01-.126-1.918l.063-.2a21.493 21.493 0 00.982-5.12" class="prefix__cls-24" data-name="Path 508" transform="translate(-1778.921 -347.346)"/>
                        <path id="prefix__Path_509" d="M1769.162 495.4a28.848 28.848 0 01.386 4.71v3.49h5.177v-5.951a.185.185 0 00.072-.036s.086-1.171.23-3" class="prefix__cls-24" data-name="Path 509" transform="translate(-1764.748 -361.307)"/>
                        <g id="prefix__Group_443" data-name="Group 443" transform="translate(0 57.939)">
                            <path id="prefix__Path_510" d="M1775.235 347.644c2.857-9.248 9.222-25.8 10.094-28.7.927-3.1-.191-30.149-.947-38.82l-26.964-1.444c-2.053 8.788-.054 20.636.648 28.037.684 7.2 1.531 15.621 1.531 15.621s-2.107 7.338-1.548 13.181c.355 3.678 2.1 14.564 2.882 19.313a7.479 7.479 0 005.865-.787c.328-4.173.956-11.775 1.544-16.744.891-7.464 1.188-12.911 1.954-17.269.963-5.438 1.3-26.75 1.3-26.75l3.106 24.175a30.2 30.2 0 00-2.782 7.185c-.889 3.435-1.843 16.337-2.224 21.918a8.272 8.272 0 005.541 1.084z" class="prefix__cls-13" data-name="Path 510" transform="translate(-1756.516 -278.68)"/>
                        </g>
                        <path id="prefix__Path_511" d="M1799.7 312.493s4.927-1.728 7.733-4.3a13.808 13.808 0 01-5.778 5.053l-.041 14.153-1.915-14.9" class="prefix__cls-10" data-name="Path 511" transform="translate(-1784.628 -239.95)"/>
                        <g id="prefix__Group_444" data-name="Group 444" transform="translate(.751 22.156)">
                            <path id="prefix__Path_512" d="M1769.066 176.39s-6.221.54-7.1.933c4.464 4.888-2.325 6.916-2.325 6.916l5.164 17.226c-2.929 3.749-5.438 6.694-6.139 11.161 3.138 5.529 20.767 6.3 27.228 2.177-.562-7.718-1.816-13.243-1.4-15.56 3.079-9.476 2.12-11.463 1.831-13.627-.564-4.227-4.759-7.913-7.158-9.457h-2.236z" class="prefix__cls-11" data-name="Path 512" transform="translate(-1758.669 -176.16)"/>
                        </g>
                        <g id="prefix__Group_445" data-name="Group 445" transform="translate(5.488 42.785)">
                            <path id="prefix__Path_513" d="M1772.24 235.264l3.408 5.266-2.006-.589z" class="prefix__cls-14" data-name="Path 513" transform="translate(-1772.24 -235.264)"/>
                            <path id="prefix__Path_514" d="M1772.24 235.264l3.408 5.266-2.006-.589z" data-name="Path 514" transform="translate(-1772.24 -235.264)" style="opacity:.2"/>
                        </g>
                        <g id="prefix__Group_446" data-name="Group 446" transform="translate(3.625 138.996)">
                            <path id="prefix__Path_515" d="M1773.256 511.662v-.741a14.315 14.315 0 003.7 6.481c1.633 1.489 3.861 3.21 4.427 4.87.589 1.727-2.632 2.411-4.743 2.2a8.519 8.519 0 01-5.314-2.78c-1.343-1.541-1.32-2.593-1.947-3.441s-2.071-1.795-2.41-2.776a6.26 6.26 0 01.3-2.718c.24-.915.5-1.922.813-1.836v.564a4.1 4.1 0 002.588.875c.755.03 2.592-.12 2.586-.698z" class="prefix__cls-10" data-name="Path 515" transform="translate(-1766.901 -510.916)"/>
                        </g>
                        <g id="prefix__Group_447" data-name="Group 447" transform="translate(4.803 139.001)">
                            <path id="prefix__Path_516" d="M1770.277 511.5a4.1 4.1 0 002.588.875c.757.029 2.595-.121 2.589-.7v-.741a14.313 14.313 0 003.7 6.481c.391.356.816.727 1.244 1.106.868.967.622 1.812-1.419 1.988s-3.836-1.056-5.384-2.956a33.408 33.408 0 01-3.318-6.053z" class="prefix__cls-24" data-name="Path 516" transform="translate(-1770.277 -510.931)"/>
                        </g>
                        <g id="prefix__Group_448" data-name="Group 448" transform="translate(6.89)">
                            <path id="prefix__Path_517" d="M1793.16 112.68c1.313.776 2.937 4.08 2.777 11.006-.136 5.87-2.039 7.319-2.994 7.738s-2.8.163-4.589-.135v3.523s2.475 2.875 2.32 4.491-3.574 2-5.891.419a18.715 18.715 0 01-4.268-4.654l.041-8.1s-1.054 1.024-2.841-.539c-1.476-1.29-1.973-3.466-.823-4.633a2.571 2.571 0 014.09.815s1-2.765 5.121-4.113c3.727-1.22 5.754-2.622 7.057-5.818z" class="prefix__cls-24" data-name="Path 517" transform="translate(-1776.257 -112.68)"/>
                        </g>
                        <g id="prefix__Group_449" data-name="Group 449" transform="translate(18.541 8.799)">
                            <path id="prefix__Path_518" d="M1811.114 138.622a.739.739 0 11-.776-.731.751.751 0 01.776.731z" class="prefix__cls-10" data-name="Path 518" transform="translate(-1809.638 -137.891)"/>
                        </g>
                        <g id="prefix__Group_450" data-name="Group 450" transform="translate(20.176 14.507)">
                            <path id="prefix__Path_519" d="M1814.359 154.243l1.714.547a.884.884 0 01-1.115.615.942.942 0 01-.599-1.162z" class="prefix__cls-27" data-name="Path 519" transform="translate(-1814.321 -154.243)"/>
                        </g>
                        <g id="prefix__Group_451" data-name="Group 451" transform="translate(24.575 5.817)">
                            <path id="prefix__Path_520" d="M1828.419 130.794l-1.494-1.035a.872.872 0 011.24-.254.955.955 0 01.254 1.289z" class="prefix__cls-10" data-name="Path 520" transform="translate(-1826.926 -129.347)"/>
                        </g>
                        <g id="prefix__Group_452" data-name="Group 452" transform="translate(17.72 6.364)">
                            <path id="prefix__Path_521" d="M1807.435 132.36l1.494-1.035a.872.872 0 00-1.24-.254.955.955 0 00-.254 1.289z" class="prefix__cls-10" data-name="Path 521" transform="translate(-1807.286 -130.913)"/>
                        </g>
                        <g id="prefix__Group_453" data-name="Group 453" transform="translate(24.249 8.266)">
                            <path id="prefix__Path_522" d="M1827.466 137.093a.738.738 0 11-.776-.731.75.75 0 01.776.731z" class="prefix__cls-10" data-name="Path 522" transform="translate(-1825.991 -136.362)"/>
                        </g>
                        <g id="prefix__Group_454" data-name="Group 454" transform="translate(22.242 8.575)">
                            <path id="prefix__Path_523" d="M1820.242 137.247l.117 4.443 2.339-.724z" class="prefix__cls-27" data-name="Path 523" transform="translate(-1820.242 -137.247)"/>
                        </g>
                        <g id="prefix__Group_455" data-name="Group 455" transform="translate(12.611 15.71)">
                            <path id="prefix__Path_524" d="M1799.024 160.588c-1.888-.247-5.771-1.363-6.376-2.9a3.979 3.979 0 001.362 1.959c1.16.994 5.015 2.114 5.015 2.114z" class="prefix__cls-27" data-name="Path 524" transform="translate(-1792.648 -157.69)"/>
                        </g>
                    </g>
                </g>
            </g>
            <g id="prefix__Group_459" data-name="Group 459" transform="translate(1.236 29.35)">
                <path id="prefix__Path_525" d="M1766.948 182.119c1.393 2.054 9.954 19.345 9.954 19.345s9.789-.741 14.844-1.279c1.592-.169 1.236-1.876 1.876-3.565s1.457-1.29 1.457-1.29v2.15c-.032.907 1.9 2.5 3.181 2.477 3.328-.064 6.685-3.369 6.817-.622.084 1.752-.681 4.41-2.221 5.123-4.308 1.993-6.607 1.364-9.473 1.566-2.21.156-14.9 2.056-17.916 2.184-1.595.067-2.747-.243-4.126-2.184s-9.59-17.5-9.59-17.5c-3.16-4.493-1.347-8.274 1-9.078 1.466-.501 2.804.619 4.197 2.673z" class="prefix__cls-24" data-name="Path 525" transform="translate(-1760.058 -179.328)"/>
            </g>
        </g>
    </g>
</svg>
